<?xml version="1.0" encoding="UTF-8"?>
<svg xmlns="http://www.w3.org/2000/svg" viewBox="0 0 595.28 841.89">
  <defs>
    <style>
      .cls-1 {
        letter-spacing: -.01em;
      }

      .cls-2 {
        fill: #fff;
      }

      .cls-3 {
        fill: #c78d73;
      }

      .cls-4 {
        stroke-width: 1.02px;
      }

      .cls-4, .cls-5, .cls-6 {
        fill: none;
      }

      .cls-4, .cls-6 {
        stroke: #3c3c3b;
        stroke-linecap: round;
        stroke-linejoin: round;
      }

      .cls-7, .cls-8 {
        opacity: .57;
      }

      .cls-7, .cls-8, .cls-9, .cls-10 {
        mix-blend-mode: multiply;
      }

      .cls-7, .cls-11 {
        fill: #74b59c;
      }

      .cls-12, .cls-10 {
        fill: #d889b4;
      }

      .cls-8, .cls-13 {
        fill: #0b9595;
      }

      .cls-9 {
        opacity: .87;
      }

      .cls-9, .cls-14 {
        fill: #add6f0;
      }

      .cls-15 {
        isolation: isolate;
      }

      .cls-16 {
        letter-spacing: -.05em;
      }

      .cls-17 {
        fill: #f2dcb6;
        opacity: .55;
      }

      .cls-18 {
        letter-spacing: 0em;
      }

      .cls-19 {
        fill: #707ebb;
      }

      .cls-10 {
        opacity: .32;
      }

      .cls-20 {
        letter-spacing: -.03em;
      }

      .cls-21 {
        fill: #f8de54;
      }

      .cls-22 {
        fill: #3c3c3b;
      }

      .cls-23 {
        fill-rule: evenodd;
      }

      .cls-23, .cls-24 {
        fill: #5d9e8b;
      }

      .cls-25 {
        fill: #bb8673;
      }

      .cls-26 {
        letter-spacing: 0em;
      }

      .cls-27 {
        font-family: Gilroy-Black, Gilroy;
        font-size: 28.98px;
        font-weight: 800;
      }

      .cls-27, .cls-28 {
        fill: #fefcf6;
      }

      .cls-29 {
        letter-spacing: 0em;
      }

      .cls-30 {
        letter-spacing: -.03em;
      }

      .cls-31 {
        fill: #eac3c2;
      }
    </style>
  </defs>
  <g class="cls-15">
    <g id="_Слой_1" data-name="Слой 1">
      <rect class="cls-28" x=".61" y="-.5" width="594.06" height="843.06"/>
      <rect class="cls-24" x="101.29" y="254.63" width="362.35" height="92.94" rx="23.77" ry="23.77"/>
      <g>
        <path class="cls-13" d="M561.41,695.47h-77.43c-2.72-23.37-4.3-46.12-4.67-69.65-.07-4.41,1.55-10.44,5.94-9.99,2.24,.23,3.82,2.26,4.96,4.21,4.23,7.21,6.28,15.45,8.28,23.57,2.33,9.44,4.65,18.88,6.98,28.32-3.99-30.82-7.96-62.35-1.41-92.73,.63-2.93,1.41-5.94,3.31-8.26,1.9-2.32,5.23-3.72,7.98-2.52,1.76,.77,2.95,2.41,3.98,4.02,2.99,4.69,5.34,9.79,6.96,15.12,2.5,8.23,3.24,16.87,3.96,25.43,1.61,19.14,3.23,38.28,4.84,57.42,2.08-14.35,4.16-28.7,6.24-43.04,1.62-11.19,3.3-22.56,8.01-32.83,2.43-5.3,7.17-10.94,12.87-9.74,6.06,1.28,7.83,8.96,8.23,15.14,2.12,32.83-3.76,63.07-9.04,95.54Z"/>
        <path class="cls-8" d="M557.03,695.47h-70.23c-2.47-17.76-3.9-35.03-4.24-52.91-.06-3.35,1.41-7.93,5.38-7.59,2.03,.18,3.46,1.72,4.49,3.19,3.84,5.47,5.7,11.74,7.51,17.9,2.11,7.17,4.62,18.49,6.73,25.66-5.15-86.5,6.08-83.68,8.57-82.77,1.59,.58,9.85-1.43,13.52,33.86,1.51,14.53,2.93,29.08,4.39,43.61,1.89-10.9,3.77-21.8,5.66-32.7,1.47-8.5,2.99-17.13,7.26-24.94,2.2-4.02,6.5-8.31,11.68-7.4,5.5,.97,7.1,6.8,7.47,11.5,1.92,24.94-3.41,47.91-8.2,72.58Z"/>
        <g>
          <path class="cls-2" d="M485.28,625.38c3.51,22.35,9.16,45.41,13.51,67.62,.06,.26-.36,.37-.43,.1-4.53-16.66-7.48-33.68-10.54-50.65,0,0-2.98-16.99-2.98-16.99-.02-.12,.06-.24,.18-.26,.12-.02,.24,.06,.26,.18h0Z"/>
          <path class="cls-2" d="M514.14,587.71c2.52,33.1,6.56,70.79,8.53,103.84,0,.12-.09,.23-.21,.23-.12,0-.22-.08-.23-.2-2.59-23.91-4.49-53.78-6.41-77.88,0,0-2.12-25.96-2.12-25.96,0-.12,.08-.23,.2-.24,.12-.01,.23,.08,.24,.2h0Z"/>
          <path class="cls-2" d="M557.79,600.64c-7,28.69-4.75,58.89-12.79,87.37-.03,.12-.16,.18-.28,.15-.11-.03-.18-.15-.15-.26,4.83-21.59,6.04-43.71,8.94-65.59,.95-7.31,2.19-14.58,3.85-21.77,.03-.12,.15-.19,.27-.17,.12,.03,.19,.15,.17,.27h0Z"/>
        </g>
      </g>
      <g>
        <circle class="cls-21" cx="281.59" cy="604.7" r="140.25" transform="translate(-345.11 376.22) rotate(-45)"/>
        <g>
          <path class="cls-22" d="M321.22,597.85c0,3.77-1.91,6.83-4.27,6.84-2.36,0-4.28-3.06-4.28-6.83s1.91-6.83,4.27-6.84c2.36,0,4.28,3.06,4.28,6.83Z"/>
          <path class="cls-22" d="M248.08,597.91c0,3.77-1.91,6.83-4.27,6.84-2.36,0-4.28-3.06-4.28-6.83,0-3.77,1.91-6.83,4.27-6.84,2.36,0,4.28,3.06,4.28,6.83Z"/>
          <path class="cls-12" d="M341.29,611.15c0,3.39-4.15,6.14-9.28,6.15s-9.29-2.74-9.29-6.13,4.15-6.14,9.28-6.15c5.13,0,9.29,2.74,9.29,6.13Z"/>
          <path class="cls-12" d="M240.13,612.22c0,3.39-4.15,6.14-9.28,6.15-5.13,0-9.29-2.74-9.29-6.13s4.15-6.14,9.28-6.15c5.13,0,9.29,2.74,9.29,6.13Z"/>
          <path class="cls-22" d="M289.79,597.69c1.32,3.54-.65,7.85-4.1,9.4-6.1,2.93-13.23-2.41-12.4-9.01,.05-.5,.5-.86,1-.8,.43,.05,.76,.39,.8,.81,.19,1.89,1.05,3.66,2.29,4.93,2.38,2.53,6.91,2.72,9.23,.05,1.15-1.3,1.84-3.16,1.58-4.99-.14-.97,1.28-1.31,1.6-.4h0Z"/>
        </g>
        <g>
          <path class="cls-22" d="M286.97,442.31c.97,5.12,.37,10.52-1.95,15.2-.54,.97-1.77,1.31-2.73,.76-1.59-1.04-1.22-3.59-1.35-5.2,.11-3.89,.81-7.75,2.65-11.24,.5-.88,1.63-1.19,2.51-.69,.46,.26,.76,.69,.88,1.16h0Z"/>
          <path class="cls-22" d="M317.07,446.41c-.09,5.35-1.75,10.66-4.99,14.95-.71,.85-1.97,.96-2.82,.25-1.4-1.32-.48-3.87-.3-5.49,.89-3.9,2.36-7.65,4.87-10.82,.65-.77,1.81-.87,2.59-.22,.41,.35,.63,.84,.65,1.33h0Z"/>
          <path class="cls-22" d="M347.76,454.78c.48,5.3-1.69,10.91-5.8,14.33-1.36,1.11-3.52-.2-3.19-1.9,.2-1.3,.56-2.47,.95-3.61,1.26-3.41,2.63-6.64,4.74-9.66,.91-1.33,3.14-.74,3.3,.84h0Z"/>
          <path class="cls-22" d="M376.68,472.53c-1.31,1.8-3.23,3.86-4.66,5.52-1.63,1.83-3.09,3.61-4.98,5.3-.82,.73-2.08,.65-2.8-.18-1.22-1.59,.16-4.08,.84-5.64,2.03-3.78,5.56-6.94,9.8-7.92,1.63-.36,2.84,1.65,1.79,2.92h0Z"/>
          <path class="cls-22" d="M404.07,493.98c-1.28,4.25-4.9,7.82-9.25,8.82-1.12,.2-2.19-.55-2.39-1.67-.19-1.54,1.22-2.82,2.02-3.88,2.04-2.22,4.24-4.14,7.02-5.45,1.39-.66,3.01,.73,2.6,2.19h0Z"/>
          <path class="cls-22" d="M424.83,524.25c-3.06,4.25-7.93,7.26-13.15,7.84-1.11,.07-2.06-.77-2.13-1.88-.04-.58,.18-1.12,.55-1.51,.9-.97,1.87-1.72,2.86-2.44,3.07-2.09,6.27-3.86,9.91-4.81,1.56-.42,2.87,1.49,1.96,2.79h0Z"/>
          <path class="cls-22" d="M137.91,529.91c2.76,1.41,5.41,3.15,8.02,4.75,.89,.57,1.83,1.18,2.75,1.95,.86,.7,.98,1.97,.28,2.82-2.01,1.95-6.82,.03-8.81-1.31-1.97-1.13-7.42-6.77-3.68-8.37,.5-.16,1.01-.08,1.44,.15h0Z"/>
          <path class="cls-22" d="M124.61,562.58c4.02-.97,8.58,.29,11.37,3.38,.73,.9,.59,2.21-.3,2.94-1.17,.86-2.86,.42-4.1,.28-2.16-.41-10.32-2.76-7.92-5.97,.25-.31,.59-.52,.94-.63h0Z"/>
          <path class="cls-22" d="M118.36,594.36c3.17-2.01,7.56-2.04,10.63,.16,.93,.74,1.08,2.08,.34,3.01-.83,.96-2.35,1.12-3.43,1.29-2.23,.24-9.64-.01-8.17-3.72,.15-.3,.37-.56,.63-.74h0Z"/>
          <path class="cls-22" d="M117.99,630.79c3.2-1.2,6.15-1.95,9.58-2.01,1.21-.06,2.26,.91,2.21,2.14-.72,3.48-6.07,4.91-9.16,4.4-1.08-.17-2.14-.5-3.09-1.13-1.31-.83-1-2.93,.46-3.39h0Z"/>
          <path class="cls-22" d="M124.01,661.89c1.92-1.77,13.62-7.16,13.75-2.19-.12,1.7-1.94,2.67-3.15,3.51-1.97,1.48-11.8,4.33-11.3-.21,.1-.46,.35-.85,.7-1.11h0Z"/>
          <path class="cls-22" d="M156.17,717.91c.84-4.31,3.89-8.22,8-9.85,1.08-.37,2.25,.21,2.62,1.29,.42,1.51-.79,2.98-1.44,4.15-1.72,2.5-3.69,4.69-6.33,6.3-.91,.55-2.1,.24-2.62-.69-.22-.38-.29-.8-.23-1.2h0Z"/>
          <path class="cls-22" d="M179.33,738.44c0-4.03,2.6-8.05,6.41-9.47,1.11-.35,2.29,.26,2.64,1.37,.35,1.3-.51,2.7-1.01,3.75-1.31,2.28-2.83,4.27-5.02,5.85-1.19,.88-2.99-.03-3.03-1.5h0Z"/>
          <path class="cls-22" d="M208.99,753.57c.09-3.78,1.02-7.36,3.16-10.51,.69-.92,1.99-1.11,2.91-.42,1.19,1,1.1,2.84,1.09,4.2-.25,3.15-1.58,6.28-4.11,8.28-1.21,.96-3.11-.03-3.05-1.55h0Z"/>
          <path class="cls-22" d="M237.08,765.22c-.38-2.49,.36-4.87,1.69-6.92,2.47-3.87,6.13-2.35,5.16,2.13-.35,2.43-3.66,8.75-6.52,5.59-.17-.24-.28-.52-.33-.8h0Z"/>
          <path class="cls-22" d="M275.53,771.48c-1.31-4.34-1.81-8.74-1.17-13.24,.23-1.75,2.67-2.29,3.64-.85,2.13,3.14,2.57,7.08,2.06,10.75-.2,1.23-.52,2.44-1.12,3.6-.68,1.46-2.97,1.26-3.41-.26h0Z"/>
          <path class="cls-22" d="M318,768.97c-1.72-1.88-2.44-4.28-2.5-6.75-.12-4.63,3.74-5.43,5.46-1.13,1.07,2.18,1.89,9.4-2.23,8.37-.28-.11-.54-.28-.74-.48h0Z"/>
          <path class="cls-22" d="M347.74,761.32c-3.3-3.15-5-8.03-4.12-12.54,.27-1.1,1.38-1.77,2.48-1.5,.5,.13,.91,.42,1.19,.82,1.27,1.77,1.95,3.63,2.56,5.64,.57,2.03,1.02,3.97,.99,6.15,0,1.06-.87,1.91-1.93,1.88-.45-.01-.87-.18-1.18-.46h0Z"/>
        </g>
      </g>
      <path class="cls-14" d="M292.89-.5c13.18,27.28,45.57,43.81,75.39,38.49,6.14,26.81,25.36,50.3,50.41,61.64,25.06,11.34,55.38,10.27,79.58-2.8,11.91,43.9,51.39,78.99,96.39,85.66V-.45l-301.77-.05Z"/>
      <path class="cls-9" d="M356.95-.5c10.39,21.49,35.9,34.51,59.39,30.32,4.84,21.12,19.97,39.62,39.71,48.56,19.74,8.93,43.63,8.09,62.69-2.21,9.38,34.58,40.49,62.22,75.93,67.48V-.46l-237.72-.04Z"/>
      <g>
        <path class="cls-13" d="M126.11,749.99c8.35-7.99,19.2-13.66,30.72-14.56,.92-.07,1.89-.1,2.72,.32,1.03,.52,1.61,1.64,1.99,2.73,2.06,5.94,.02,12.53-2.96,18.06-9.62,17.87-32.03,32.91-52.56,33.95-2.42-14.28,10.41-31.23,20.1-40.5Z"/>
        <path class="cls-13" d="M115.25,723.1c-1.77-5.28-5.02-10.05-9.29-13.62-.41-.35-.89-.7-1.43-.68-.72,.02-1.24,.68-1.6,1.31-2.98,5.11-2.73,11.49-1.53,17.28,2.05,9.9,6.31,20.31,11.49,28.99,3.39-10.5,5.97-22.5,2.36-33.27Z"/>
        <path class="cls-2" d="M106.32,715.54c2.9,8.71,5.2,17.62,7.01,26.63,.6,3,1.12,6.02,1.58,9.05,.06,.38-.54,.5-.61,.11-1.8-8.98-3.79-17.92-6.13-26.77-.78-2.95-1.57-5.9-2.39-8.84-.1-.34,.44-.52,.55-.17h0Z"/>
        <path class="cls-2" d="M157.35,742.84c-9.2,14.24-23.11,24.57-36.78,34.2-3.92,2.83-10.02,6.6-13.58,9.76-2.73,.55,5.87-5.37,6.2-5.65,12.48-8.79,25.38-17.67,35.84-28.85,1.91-2.03,3.71-4.16,5.41-6.36,0,0,2.42-3.4,2.42-3.4,.18-.3,.69-.01,.48,.31h0Z"/>
        <path class="cls-22" d="M110.24,846.81c-15.04-54.28,.4-119.55,43.81-156.83,.27-.23,.67-.19,.9,.08,.21,.24,.2,.6-.01,.83-2.36,2.66-4.78,5.23-7.17,7.82l-6.69,8.16-6.19,8.54c-17.63,26.11-28.58,57.53-28.92,89.17-.13,14.12,1.55,28.31,5.5,41.88,.1,.34-.1,.69-.43,.79-.34,.1-.7-.1-.79-.44h0Z"/>
        <path class="cls-19" d="M119.82,656.48c.81-2.62,1.84-5.28,3.81-7.19s5.1-2.86,7.53-1.59c1.68,.88,2.72,2.62,3.57,4.31,3.25,6.44,5.11,13.57,5.43,20.77,1.72-9.16,8.07-16.87,15.49-22.5,2.97-2.26,6.25-4.29,9.92-4.98,3.67-.69,7.82,.2,10.27,3.01,3.07,3.52,2.73,8.83,1.63,13.38-1.98,8.23-5.85,15.99-11.22,22.53,4.15-1.8,7.74-4.66,11.64-6.96,3.89-2.3,8.39-4.09,12.86-3.41,4.47,.68,8.68,4.59,8.33,9.1-.19,2.44-1.6,4.6-3.11,6.51-4.56,5.79-10.5,10.49-17.17,13.61,4.46-2.2,9.25-3.75,14.15-4.58,1.38-.23,2.84-.4,4.14,.09,2.76,1.04,3.69,4.76,2.61,7.5-1.08,2.74-3.56,4.66-6.05,6.24-10.39,6.58-22.59,9.58-34.54,12.48-16.26,3.94-33.53,7.17-38.01-11.93-4.31-18.38-6.96-37.99-1.27-56.39Z"/>
        <g>
          <path class="cls-2" d="M128.59,654.47c-2.15,4.91-2.26,10.38-2.42,15.66-.13,5.34-.1,10.68,.03,16.01,.18,9.3,1.11,22.57,1.69,31.97,.02,.25-.39,.31-.42,.04-2.25-15.9-2.29-32.03-1.74-48.04,.17-5.31,.36-10.8,2.47-15.81,.1-.24,.51-.1,.39,.17h0Z"/>
          <path class="cls-2" d="M171.67,654.6c1.62,6.68-2.03,13.05-4.14,19.19-7.35,18.41-17.74,35.85-31.62,50.09-.17,.18-.49-.08-.31-.29,12.91-14.98,24.06-31.59,31.52-49.97,2.09-6.01,5.79-12.4,4.15-18.9-.03-.11,.03-.23,.14-.26,.11-.03,.23,.03,.26,.14h0Z"/>
          <path class="cls-2" d="M164.75,654.97c-18.69,17.88-23.26,44.71-32.78,67.78-.04,.11-.16,.17-.27,.12-.1-.04-.16-.16-.13-.26,3.81-12.11,7.96-24.11,12.68-35.91,3.64-8.8,7.95-17.42,13.79-24.98,1.99-2.49,4.12-4.85,6.41-7.06,.19-.18,.5,.11,.29,.31h0Z"/>
          <path class="cls-2" d="M192.74,681.87c-4.95-1.85-9.4,3.39-13.11,5.99-11.96,9.62-22.33,20.96-33.51,31.43-.18,.17-.49-.1-.3-.3,12.08-13.19,25.18-25.6,39.69-36.09,2.15-1.36,4.9-2.53,7.41-1.41,.24,.12,.08,.5-.18,.39h0Z"/>
          <path class="cls-2" d="M193.43,705.19c-8.13,5.65-16.75,10.69-26.12,14.02-9.32,3.39-19.12,5.46-29,6.28-.12,0-.22-.08-.23-.19,0-.11,.07-.21,.18-.23,14.54-2.46,29.26-5.32,42.37-12.38,4.34-2.34,8.51-5.01,12.55-7.84,.21-.16,.48,.19,.24,.35h0Z"/>
        </g>
      </g>
      <g>
        <path class="cls-13" d="M78.12,669.66c-3.32-10.93-9.92-21.06-19.41-27.41-.76-.51-1.58-1.01-2.49-1.04-1.14-.05-2.18,.63-3.03,1.39-4.65,4.11-6.09,10.78-6.2,16.99-.36,20.05,11.65,43.85,28.83,54.69,9-11.13,6.15-31.94,2.31-44.61Z"/>
        <path class="cls-13" d="M100.5,651.77c4.08-3.69,9.19-6.22,14.6-7.23,.52-.1,1.1-.17,1.56,.11,.61,.37,.73,1.19,.74,1.9,.09,5.85-3.21,11.21-7.05,15.62-6.56,7.53-15.27,14.44-23.93,19.4,2.16-10.69,5.75-22.26,14.08-29.8Z"/>
        <path class="cls-2" d="M112.24,649.99c-6.4,6.4-12.64,12.95-18.63,19.73-2,2.26-3.98,4.53-5.95,6.81-.11,.13-.31,.14-.43,.03-.12-.11-.14-.29-.04-.42,1.86-2.39,3.77-4.73,5.74-7.02,3.94-4.59,8.06-9.03,12.35-13.29,2.14-2.13,4.34-4.21,6.58-6.25,.25-.24,.65,.15,.39,.41h0Z"/>
        <path class="cls-2" d="M55.25,648.35c1.72,19.32,10.74,37.11,18.92,54.41,1.15,2.52,2.39,4.99,3.2,7.72,.05,.16-.04,.33-.21,.38-.17,.05-.35-.06-.39-.23-1.52-4.41-4.97-10.65-6.97-14.98-4.82-9.97-9.35-20.16-12.29-30.87-1.48-5.35-2.58-10.83-2.83-16.4,0-.16,.11-.29,.27-.29,.15,0,.28,.11,.29,.26h0Z"/>
        <path class="cls-22" d="M44.02,759.84c30.07-29.39,44.89-72.17,43.87-113.81-.36-13.89-2.42-27.69-5.98-41.19-.09-.34,.11-.68,.45-.77,.31-.08,.64,.09,.75,.39,4.95,13.21,7.4,27.37,7.72,41.5,.49,28.06-6.86,56.72-20.64,81.12-6.81,12.33-15.39,23.64-25.29,33.65-.24,.25-.64,.25-.89,0-.25-.25-.25-.65,0-.89h0Z"/>
        <path class="cls-12" d="M128.82,592.19c.57-2.65,.97-5.44,.2-8.04-.77-2.6-3.01-4.94-5.72-5.01-1.87-.05-3.61,.94-5.16,1.98-5.91,3.97-10.97,9.21-14.73,15.26,2.95-8.72,1.22-18.43-2.44-26.88-1.47-3.39-3.3-6.72-6.13-9.09-2.83-2.37-6.83-3.61-10.31-2.38-4.35,1.54-6.63,6.29-7.89,10.73-2.28,8.04-2.71,16.6-1.25,24.84-2.7-3.56-4.41-7.76-6.65-11.63s-5.24-7.59-9.42-9.16c-4.18-1.58-9.7-.25-11.58,3.8-1.02,2.19-.85,4.73-.47,7.12,1.13,7.19,3.96,14.11,8.2,20.03-2.78-4.06-6.15-7.7-9.97-10.79-1.07-.87-2.25-1.72-3.61-1.93-2.88-.44-5.48,2.31-5.88,5.2-.4,2.89,.81,5.74,2.19,8.31,5.76,10.7,14.82,19.19,23.71,27.47,12.1,11.27,25.4,22.41,38.51,8.13,12.61-13.74,24.39-29.35,28.4-47.95Z"/>
        <g>
          <path class="cls-2" d="M122.66,586.24c-.61,5.34-3.1,10.16-5.53,14.82-2.41,4.7-4.91,9.36-7.52,13.95-5.22,9.18-10.8,18.2-17.24,26.58-.15,.2-.49-.02-.34-.24,9.78-15.22,20.61-31.19,28.17-47.59,1.01-2.42,1.78-4.96,2.04-7.56,.01-.26,.46-.24,.42,.04h0Z"/>
          <path class="cls-2" d="M85.37,565.75c-4.57,4.8-4.47,12.1-5.58,18.28-2.47,19.44-.92,39.14,2.95,58.29,.02,.11-.05,.22-.16,.25-.11,.02-.21-.05-.24-.15-5.06-18.98-5.56-39.03-2.98-58.45,1.15-6.3,1.09-13.56,5.73-18.53,.19-.18,.49,.1,.29,.3h0Z"/>
          <path class="cls-2" d="M91.25,569c3.74,12.08,3.39,24.95,1.89,37.38-1.64,12.45-3.88,24.79-6.47,37.06-.02,.11-.14,.18-.25,.16-.11-.02-.18-.13-.16-.24,2.41-18.6,7.63-36.92,7.47-55.78-.16-6.25-.98-12.49-2.88-18.46-.04-.11,.02-.23,.13-.26,.11-.04,.23,.03,.27,.14h0Z"/>
          <path class="cls-2" d="M53.76,578.32c5.36,.84,6.76,7.58,8.77,11.75,5.74,14.03,10.25,28.58,13.63,43.35,.06,.24-.33,.36-.4,.11-4.56-14.43-8-29.22-13.64-43.29-1.92-4.01-3.26-10.73-8.39-11.5-.27,0-.24-.45,.04-.42h0Z"/>
          <path class="cls-2" d="M42.22,598.31c8.77,19.33,21.24,31.04,37.51,44.01,.19,.15-.03,.49-.25,.34-12.14-8.23-22.86-18.79-30.62-31.28-2.61-4.14-4.84-8.51-7.01-12.88-.12-.23,.25-.44,.38-.18h0Z"/>
        </g>
      </g>
      <g>
        <path class="cls-11" d="M.61,694.53c23.54,19.32,25.89,57.01,26.87,87.45,1.6-11.79,5.05-23.33,10.19-34.07,3.43-7.17,7.8-14.19,14.35-18.68s15.69-5.94,22.46-1.78c9.98,6.13,10.41,20.22,9.69,31.91-1.1,17.58-2.19,35.17-3.29,52.75,6.87-10.8,20.78-16.6,33.3-13.89,12.51,2.71,22.77,13.75,24.56,26.43,12.27-3.59,25-7.22,37.65-5.4,12.65,1.82,25.24,10.67,27.11,23.31H.63l-.02-148.03Z"/>
        <path class="cls-7" d="M.61,746.55c21.32,12.53,23.45,36.97,24.33,56.72,1.45-7.65,5.57-14.56,9.22-22.1,21.65-44.6,41.14-30.83,37.97,47.98,6.22-7,23.72-17.72,35.05-15.96,11.33,1.76,22.97,13.33,24.59,21.55,11.11-2.33,44.61-15.49,52.54,7.82H.62v-96.01Z"/>
        <g>
          <path class="cls-2" d="M67.42,739.1c-7.92,30.8-15.88,66.24-24.27,96.83-.03,.11-.15,.18-.26,.15-.11-.03-.17-.14-.15-.25,5.02-22.48,12.5-50.18,18.19-72.63,0,0,6.08-24.21,6.08-24.21,.03-.11,.14-.18,.26-.15,.11,.03,.18,.15,.15,.26h0Z"/>
          <path class="cls-2" d="M9.1,728.56c1.21,35.49,2.41,71.05,.78,106.55,0,.12-.11,.21-.22,.2-.11,0-.2-.1-.2-.21,.07-26.64,.65-53.27,.06-79.9-.21-8.88-.45-17.75-.84-26.62,0-.12,.09-.22,.2-.22,.12,0,.22,.09,.22,.2h0Z"/>
          <path class="cls-2" d="M113.61,806.12c-4.55,8.67-9.08,17.36-14.06,25.8-1.69,2.79-3.41,5.57-5.38,8.19-.14,.2-.49,0-.36-.23,2.68-4.97,7-11.93,9.92-16.85,3.34-5.6,6.58-11.27,9.5-17.1,.11-.24,.51-.06,.38,.19h0Z"/>
          <path class="cls-2" d="M185.64,829.22c-8.83,1.91-17.26,5.53-25.85,8.32-2.87,.95-5.74,1.91-8.68,2.65-.11,.03-.23-.04-.26-.15-.03-.1,.03-.21,.12-.25,2.78-1.21,5.64-2.21,8.5-3.19,4.97-1.69,12.24-3.85,17.34-5.4,.56-.12,10.55-3.43,8.83-1.98h0Z"/>
        </g>
      </g>
      <g>
        <path class="cls-22" d="M519.37,219.68c-3.27-5.36-1.33-12.26,2.84-16.46,4.14-4.2,9.8-6.36,15.4-7.78,11.28-3.03,25.11,0,30.06,11.7,1.62,4,2.19,9.97-2.18,12.47-4.99,2.27-8.15-5.18-5.04-8.6,0,0,.78-.81,.78-.81,10.18-9.15,24.32,3.56,26.06,14.42,1.67,9.47-3.89,19.94-12.95,23.46-4.66,1.82-12.16,1.71-14-3.96-1-3.12,1.06-7.48,4.75-7.06,1.75,.16,3.14,1.3,4.04,2.55,2.77,3.84,1.85,9.26-.58,12.98-5.01,7.53-14.21,10.77-22.89,11.3-8.67,.48-17.78-1.43-24.9-6.6-6.57-4.72-8.9-13.64-2.05-19.27,.58-.61,4.97-2.5,4.98-.79-.42,4.03-3.65,7.15-7.25,8.58-9.39,3.58-19.97-3.79-21.96-13.17-2.29-11.54,7.75-23.08,19.2-23.84,1.91-.11,3.89,.11,5.68,.92,3.63,1.53,6.16,6.12,4.28,9.88-1.09,1.45-3.07,1.26-4.26,.07h0Zm.56-.72c5.89,4.54,5.34-14.09-11.45-7.97-10.09,3.7-17.08,16.66-10.89,26.38,3.67,6.05,11.56,10.01,18.42,7.33,3.2-1.27,6.12-4.06,6.47-7.59,0,0,.61,.67,.61,.67-5.58,.09-8.64,7.36-6.6,12.11,2.09,5.22,7.37,8.37,12.48,10.26,10.43,3.71,23,3.53,32.49-2.57,4.45-2.94,8.49-7.89,7.81-13.46-.02-3.53-4.5-8.12-7.12-4-2.07,4.12,1.64,7.42,5.68,7.55,2.71,.2,5.49-.51,7.89-1.77,7.27-3.86,11.67-12.88,10.25-21.02-1.53-10.22-15.46-22.73-24.55-13.02-2.26,2.43-.15,8.27,3.54,6.63,2.3-1.2,2.94-4.44,2.6-6.9-.8-6.98-6.51-12.65-13.04-14.8-10.99-3.88-32.9,1.37-35.59,14.3-.59,2.64-.33,5.51,1.01,7.87h0Z"/>
        <g>
          <path class="cls-22" d="M553.73,226.88c0,1.05-.53,1.9-1.18,1.9-.66,0-1.19-.85-1.19-1.89,0-1.05,.53-1.9,1.18-1.9,.65,0,1.19,.85,1.19,1.89Z"/>
          <path class="cls-22" d="M533.44,226.9c0,1.05-.53,1.9-1.18,1.9-.66,0-1.19-.85-1.19-1.89,0-1.05,.53-1.9,1.18-1.9,.66,0,1.19,.85,1.19,1.89Z"/>
          <path class="cls-12" d="M559.3,230.57c0,.94-1.15,1.7-2.57,1.7-1.42,0-2.58-.76-2.58-1.7,0-.94,1.15-1.7,2.57-1.7s2.58,.76,2.58,1.7Z"/>
          <path class="cls-12" d="M531.24,230.86c0,.94-1.15,1.7-2.57,1.7-1.42,0-2.58-.76-2.58-1.7,0-.94,1.15-1.7,2.57-1.7s2.58,.76,2.58,1.7Z"/>
          <path class="cls-22" d="M544.98,226.84c.76,3.6-4.72,3.64-4.5,.1,.02-.25,.4-.24,.42,0,.15,2.54,3.9,2.7,3.71,0-.05-.23,.3-.31,.37-.1h0Z"/>
        </g>
      </g>
      <g>
        <path class="cls-22" d="M172.12,783.49c3.51-.69,7.04-.76,10.55-.07,.43,.1,.7,.52,.6,.95-.07,.31-.31,.54-.6,.6-3.51,.69-7.04,.63-10.55-.07-.75-.14-.74-1.29,0-1.43h0Z"/>
        <path class="cls-22" d="M183.44,798.59c3.51-.69,7.04-.76,10.55-.07,.43,.1,.7,.52,.6,.95-.07,.31-.31,.54-.6,.6-3.51,.69-7.04,.63-10.55-.07-.75-.14-.74-1.29,0-1.43h0Z"/>
        <path class="cls-22" d="M214.59,790.1c4.13-.69,8.28-.76,12.41-.07,.85,.15,.84,1.41,0,1.56-4.13,.69-8.28,.63-12.41-.07-.77-.12-.76-1.31,0-1.43h0Z"/>
        <path class="cls-22" d="M519.4,778.95c3.45-.69,6.92-.76,10.38-.07,.43,.1,.7,.53,.6,.96-.07,.31-.31,.53-.6,.6-3.46,.69-6.93,.63-10.38-.07-.74-.15-.73-1.28,0-1.43h0Z"/>
        <path class="cls-22" d="M494.86,767.62c2.21-.69,4.45-.76,6.67-.07,.43,.15,.65,.62,.5,1.05-.09,.24-.28,.42-.5,.5-1.11,.39-2.22,.48-3.34,.47-.89-.1-4.22-.01-3.79-1.5,.08-.22,.25-.38,.46-.46h0Z"/>
        <path class="cls-22" d="M498.64,754.41c1.19-.53,8.64-1.21,8.08,.96-.08,.26-.29,.46-.53,.53-2.51,.69-5.04,.63-7.55-.07-.69-.19-.67-1.24,0-1.43h0Z"/>
        <path class="cls-22" d="M562.53,765.06c1.94-6.12,3.58-12.83,3.57-19.21-.07-.8-.95-1.69-1.63-1.24-1.58,1.72-2.86,4.27-3.86,6.44-.4,.92-1.82,.49-1.64-.49,1.24-7.95,1.93-15.99,2.01-24.04,0,0,0-.41,0-.41,0-.09-.02-.18-.03-.27-.14-.76-.91-1.14-1.2-.83-.32,.22-.59,.64-.79,1.02-.73,1.56-1.26,3.26-1.8,4.92-1.23,3.94-2.98,9.74-4.22,13.75-.74,2.3-1.47,4.58-2.44,6.88-.29,.76-1.45,.77-1.76,.03-.94-1.95-3.4-7.06-4.3-8.93-.51-1.53-2.73-1.37-2.99,.25-.85,3.5-.87,7.19-.05,10.7,.24,1-1.23,1.49-1.63,.55-1.09-2.72-3.09-5.05-6-2.91-1.08,.88-1.32,2.34-1.01,3.66,.59,3.59,1.96,7.05,4.03,10.04,.47,.65-.54,1.38-1.01,.72-2.53-3.58-4.38-7.86-4.66-12.26,.1-4.22,5.87-6.3,8.49-2.89,.77,.96,1.26,1.9,1.75,2.94l-1.63,.55c-.95-3.84-.95-7.9-.03-11.74,.43-1.92,2.6-3.04,4.43-2.38,1.1,.34,1.82,1.34,2.23,2.34,.23,.49,.89,1.82,1.13,2.33,0,0,3.01,6.21,3.01,6.21l-1.76,.03c.9-2.12,1.62-4.42,2.35-6.68,1.25-4.06,2.93-9.77,4.22-13.76,1.05-2.59,2.08-8.96,6.12-6.98,1.13,.69,1.59,1.96,1.5,3.18-.02,.54-.04,2.14-.06,2.71-.22,7.23-.94,14.45-2.16,21.58,0,0-1.64-.49-1.64-.49,.84-1.87,1.86-3.66,3.03-5.35,.43-.6,.83-1.27,1.49-1.73,1.68-1.21,3.96,.51,4.1,2.29,.26,1.36-.13,2.91-.24,4.21-.71,5.34-1.99,10.59-3.8,15.65-.26,.68-1.3,.34-1.08-.37h0Z"/>
      </g>
      <ellipse class="cls-17" cx="410.82" cy="802.51" rx="59.73" ry="17.15"/>
      <g>
        <path class="cls-25" d="M356.78,710.92c-4.23-28.71-3.89-58.08,1.01-86.68,6.45,6.21,13.53,11.25,20.96,16.23-6.75,23.4-13.57,47.6-21.97,70.45Z"/>
        <path class="cls-25" d="M512.76,554.51c-.71,2.28-2.23,3.03-4.55,4.39,0,0-23.2,42.61-58.03,57.17l-6.82-24.24c21.81-8.96,39.23-23.7,56.1-41.92,.75-.81,.46-2.24,.73-3.31,.15-.58,.31-1.2,.75-1.61,.44-.41,1.25-.47,1.58,.02,.18,.27,.17,.63,.27,.95,.09,.32,.4,.64,.71,.52,.19-.07,.29-.28,.38-.47,.35-.8,.58-1.72,2.41-2.09"/>
        <path class="cls-11" d="M376.58,787.42c-2.87,4.03-5.45,8.27-7.72,12.67-.65,1.25-1.28,2.54-1.49,3.93-.21,1.39,.06,2.92,1.02,3.95,1.52,1.63,4.1,1.49,6.29,1.1,5.74-1.02,11.33-2.91,16.51-5.6,1.26-.65,2.55-1.4,3.33-2.59,.76-1.14,.63-2.19,.76-3.55,.29-2.96,.22-6.64,.1-9.61l-18.79-.3Z"/>
        <path class="cls-11" d="M442.11,787.79c2.85,4.04,5.74,7.61,8,12.01,.64,1.25,1.27,2.54,1.48,3.94,.21,1.39-.06,2.92-1.03,3.95-1.52,1.62-4.11,1.48-6.3,1.08-5.74-1.04-11.32-2.95-16.49-5.65-1.26-.66-2.54-1.41-3.32-2.6-.75-1.15-.94-2.56-1.07-3.93-.28-2.97-.36-5.95-.23-8.93l18.96,.13Z"/>
        <path class="cls-25" d="M402.57,733.22c-2.4,18.17-4.8,36.34-7.2,54.51,0,0-4.18,4.07-9.52,3.85-5.33-.23-9.4-3.88-9.4-3.88-3.08-18.81-4.26-35.72-7.34-54.53l33.46,.05Z"/>
        <path class="cls-25" d="M450.57,726.42c-3.14,18.8-5.32,42.58-8.46,61.38,0,0-4.08,3.64-9.41,3.85-5.33,.21-9.5-3.88-9.5-3.88-2.34-18.18-5.4-41.84-7.74-60.02l35.12-1.33Z"/>
        <path class="cls-22" d="M443.36,792.49c-.51,1.23-2.01,2.02-3.31,1.68-.39-.1-.44-.68-.08-.85,.26-.14,.51-.23,.75-.34,.7-.31,1.32-.63,2.04-1,.33-.21,.76,.16,.61,.51h0Z"/>
        <path class="cls-22" d="M445.22,795.87c-.16,.98-1.14,1.76-2.13,1.65-.26-.04-.44-.29-.4-.56,.02-.11,.07-.2,.14-.27,.53-.57,1.01-.89,1.73-1.26,.31-.19,.72,.08,.66,.44h0Z"/>
        <path class="cls-22" d="M447.67,799.23c-.31,.92-1.27,1.57-2.23,1.48-.37-.04-.54-.51-.3-.79,.34-.46,2.63-2.09,2.53-.69h0Z"/>
        <path class="cls-22" d="M375.53,791.78c1.27,.76,2.46,1.32,3.8,1.89,.22,.11,.32,.38,.21,.6-.07,.14-.2,.23-.34,.25-.84,.11-1.7-.1-2.44-.49-.55-.27-2.44-1.65-1.64-2.27,.13-.07,.29-.06,.41,.01h0Z"/>
        <path class="cls-22" d="M373.52,795.67c.79,.46,1.39,.83,2.08,1.39,.22,.17,.26,.49,.07,.7-1.06,.61-2.58-.54-2.81-1.64-.09-.36,.35-.66,.66-.45h0Z"/>
        <path class="cls-22" d="M371.31,799.15c.69,.02,2.37,.85,1.57,1.62-.8,.37-1.77-.22-2.08-1.01-.12-.32,.17-.67,.51-.61h0Z"/>
        <path class="cls-22" d="M426.14,798.15c1.98,2.36,4.97,3.49,7.78,4.63,2.89,1.17,5.87,2.07,8.88,2.9,.51,.13,.35,.93-.17,.85-3.17-.4-6.26-1.3-9.23-2.47-2.93-1.25-6.16-2.61-7.91-5.46-.26-.41,.36-.84,.65-.46h0Z"/>
        <path class="cls-22" d="M391.68,800.09c-4.51,3.09-9.81,5.12-15.24,5.79-.24,.03-.45-.15-.48-.39-.02-.21,.11-.41,.31-.47,5.18-1.39,10.19-3.25,15-5.62,.42-.21,.8,.42,.4,.69h0Z"/>
        <path class="cls-12" d="M466.7,707.23c-7.95-19.54-20-51.42-22.36-78.41,.09-2,11.31-11.5,13.9-13.89,0,0-7.59-16.24-10.48-26.91-9.48,6.69-16.53,8.28-17.98,8.79-.38,.14-25.84,2.01-25.84,2.01l-17.6,.11c-.92,.02-1.82,.03-2.63,.12-3.34,.36-6.71,.8-9.89,1.88-3.19,1.08-6.22,2.85-8.3,5.49,0,0-4.62,4.98-10.28,18.07l.4,.32c6.13,4.59,11.73,9.46,16.96,14.96-3.77,20.29-12.77,52.74-19.94,72.09-1.79,4.83-3.72,9.94-2.75,15,.97,5.06,6.18,9.67,11.04,7.96,1.5-.53,2.97-1.61,4.52-1.25,1.12,.26,1.92,1.2,2.71,2.05,8.47,9.09,24.31,9.88,33.65,1.68,11.47,8.15,28.86,6.1,39.24-3.41,4.7,1.83,9.68,3.25,14.71,2.91,5.03-.34,10.13-2.69,12.75-7,4.08-6.7,1.1-15.29-1.85-22.56Z"/>
        <path class="cls-25" d="M394.56,583.04c-.31,3.01-1.17,10.45-1.95,13.37-.63,2.34-1.23,2.34-3.98,2.4l-2.28,.11c2.17,4.88,6.86,9.36,11.96,10.93,5.1,1.58,26.25,2.83,30.48-12.94h0c-2.17,.18-6.58,.62-6.8-.49-.6-3.09-1.95-10.3-2.57-13.38h-24.87Z"/>
        <path class="cls-25" d="M400.09,523.88c-38.7-1.03-32.91,41.91-32.91,41.91,2.14,33.32,36.51,30.85,36.51,30.85,42.43,1.41,40.88-32.91,40.88-32.91,0,0,4.37-31.88-13.88-37.28-18.26-5.4-30.6-2.57-30.6-2.57Z"/>
        <path class="cls-22" d="M394.67,596.04c5.19,.88,9.02,.6,9.02,.6,5.9,.2,10.95-.3,15.27-1.29,0,0-1.42,3.26-13.19,3.33-9.5,.06-11.1-2.64-11.1-2.64Z"/>
        <path class="cls-22" d="M402.13,564.58c.18-2.35,3.38-3.57,5.11-1.88,.46,.33,1.56,2.08,.65,2.3-.17,.01-.32-.09-.38-.25-.88-2.17-3.78-2.25-4.72-.03-.12,.37-.71,.24-.66-.15h0Z"/>
        <path class="cls-2" d="M404.23,568.78c-.59-.01-1.18-.08-1.75,.08-.56,.16-1.1,.62-1.11,1.21,0,.34,.16,.66,.38,.93,.84,1.02,2.32,1.21,3.64,1.12,1.84-.13,3.8-.78,4.78-2.33,.85-1.35,.09-2.44-1.32-2.19-1.6,.28-2.82,1.23-4.62,1.2Z"/>
        <path class="cls-22" d="M447.29,563.38c-5.34-3.91-8.06-11.08-6.65-17.54,.2,4.57-3.56,8.57-7.86,10.14-6.08,2.23-13.46,.38-17.7-4.52-4.24-4.9-4.99-12.53-1.72-18.12-1.28,5.21-6.35,9.33-11.71,9.19-5.36-.14-10.33-4.77-10.53-10.13,3.29,2.82,4.54,7.8,2.96,11.84-1.57,4.04-5.85,6.87-10.19,6.72-4.34-.14-8.42-3.24-9.72-7.38,.37,6.86-2.69,14.26-7.17,19.47-3.58-9.44-2.11-20.76,3.7-29.02,5.81-8.26,18.03-15,28.12-14.82,9.15,.16,15.01-1.3,23.96,.63,8.95,1.93,16.46,5.36,20.86,13.38,4.83,8.82,5.03,19.73,3.65,30.15Z"/>
        <path class="cls-25" d="M442.97,562.22c1.6-1.8,3.95-2.92,6.36-3.02,2.41-.1,4.84,.82,6.58,2.49,.63,.6,1.17,1.3,1.57,2.08,1.25,2.44,.91,5.56-.67,7.81s-4.27,3.61-7.01,3.79c-2.74,.17-5.5-.78-7.7-2.43"/>
        <path class="cls-22" d="M452.63,565.09c-3.32-.23-5.52,2.61-7.17,5.12-.24,.36-.82,.04-.65-.35,1.15-3.15,4.31-6.49,7.95-5.44,.38,.11,.25,.71-.14,.66h0Z"/>
        <path class="cls-22" d="M448.88,565.33c1.07,.76,1.72,2.06,1.83,3.39,.08,1.34-.38,2.72-1.34,3.62-.27,.27-.72-.09-.53-.42,1.18-1.96,1.05-4.35-.39-6.15-.23-.27,.15-.66,.42-.45h0Z"/>
        <path class="cls-25" d="M369.32,562.4c-1.6-1.8-4.81-3.09-7.22-3.19-2.41-.1-4.84,.82-6.58,2.49-.63,.6-1.17,1.3-1.57,2.08-1.25,2.44-.91,5.56,.67,7.81s4.27,3.61,7.01,3.79,5.5-.78,7.7-2.43"/>
        <path class="cls-22" d="M358.66,564.42c3.65-1.05,6.81,2.29,7.95,5.44,.07,.19-.02,.41-.21,.48-.16,.06-.34,0-.44-.13-.91-1.31-1.78-2.66-3.01-3.65-1.15-.98-2.63-1.58-4.16-1.47-.39,.05-.51-.55-.14-.66h0Z"/>
        <path class="cls-22" d="M362.84,565.67c-1.58,1.96-1.71,4.62-.42,6.73,.22,.36-.29,.75-.58,.46-1.06-1-1.56-2.52-1.47-3.97,.12-1.46,.84-2.88,2.01-3.71,.31-.23,.71,.2,.47,.49h0Z"/>
        <path class="cls-22" d="M438.21,564.47c.13,11.97-14.45,17.98-22.91,9.57-5.28-5.01-5.3-14.15,0-19.16,8.49-8.43,23.11-2.33,22.91,9.58h0Zm-.71,0c-.04-11.04-13.67-16.67-21.42-8.8-4.77,4.64-4.79,12.96,0,17.6,7.79,7.91,21.45,2.19,21.43-8.8h0Z"/>
        <path class="cls-22" d="M399.69,563.58c.13,11.97-14.45,17.98-22.91,9.57-5.28-5.01-5.3-14.15,0-19.16,8.49-8.43,23.11-2.33,22.91,9.58h0Zm-.71,0c-.04-11.04-13.67-16.67-21.42-8.8-4.77,4.64-4.79,12.96,0,17.6,7.79,7.91,21.45,2.19,21.43-8.8h0Z"/>
        <path class="cls-22" d="M398.58,559.6c4.07-3.33,10.17-3.01,14.35-.06,.2,.13,.26,.4,.14,.6-.12,.19-.37,.25-.57,.16-3.19-1.46-6.75-2.21-10.2-1.32-1.14,.27-2.27,.72-3.27,1.28-.4,.24-.81-.36-.45-.65h0Z"/>
        <path class="cls-22" d="M421.01,568.18c-.37-2.33,.2-5.39,2.54-6.54,1.92-.56,4.3,.16,5.22,2.1,.63,1.47,.43,2.87,.45,4.17,0,.2-.16,.37-.37,.38-.19,0-.35-.14-.37-.32-.22-2.61-.4-5.22-3.52-5.33-2.52-.29-3.35,3.49-3.27,5.45,.05,.42-.6,.51-.67,.09h0Z"/>
        <path class="cls-22" d="M389.74,568.08c.03-1.92-.47-4.37-2.23-5.36-1.43-.32-3.2,.18-3.87,1.51-.52,.99-.5,2.39-.69,3.73-.05,.45-.75,.39-.74-.06-.23-3.14,.33-6.25,4.22-6.45,3.37-.22,4.47,4.06,3.99,6.72-.07,.42-.72,.32-.67-.09h0Z"/>
        <circle class="cls-22" cx="440.64" cy="526.4" r="10.98"/>
        <circle class="cls-22" cx="373.36" cy="526.4" r="10.98"/>
        <g>
          <path class="cls-2" d="M454.12,715.2c-.4,2.68-4.7,3.21-4.49,.08,.31-2.43,4.74-3.01,4.49-.08h0Z"/>
          <path class="cls-2" d="M444.93,695.78c1.17,.11,2.08,.79,2.54,1.82,.62,1.19-.14,2.92-1.65,2.81-2.43,.02-3.99-4.49-.89-4.62h0Z"/>
          <path class="cls-2" d="M435.19,714.71c-.24,1.64-1.14,3.01-2.39,4.04-2.28,1.97-4.36,.27-2.87-2.35,.68-1.49,4.02-4.82,5.2-2.25,.06,.18,.07,.38,.06,.56h0Z"/>
          <path class="cls-2" d="M422.64,689.23c.98,1.22,1.22,2.79,.87,4.26-.6,2.69-3.2,2.61-3.71-.08-.54-1.66,.42-6.19,2.84-4.19h0Z"/>
          <path class="cls-2" d="M433.2,678.17c.31-1.19,1.31-1.99,2.49-2.12,1.4-.24,2.75,1.13,2.04,2.53-.67,2.14-4.93,2.27-4.53-.41h0Z"/>
          <path class="cls-2" d="M407.31,670.36c1.2,1.86,1.21,4.42-.15,6.2-.53,.62-1.46,.7-2.09,.17-.55-.5-.74-1.36-.83-1.98-.38-1.68,.63-6.66,3.07-4.38h0Z"/>
          <path class="cls-2" d="M378.04,680.41c1.27-.29,2.53,.3,3.22,1.34,.83,1.09,.37,2.91-1.19,2.97-1.13,.07-2.02-.38-2.63-1.28-.73-.96-.87-2.63,.59-3.03h0Z"/>
          <path class="cls-2" d="M400.81,699.63c-.71,1.38-1.79,2.34-3.13,3.02-.44,.22-.95,.41-1.54,.47-1.02,.16-1.9-.87-1.61-1.86,.72-2.15,2.9-3.6,5.14-3.61,.97,.02,1.6,1.13,1.14,1.98h0Z"/>
          <path class="cls-2" d="M415.51,712.26c1.57,2.34-1.89,5.01-3.31,2.31-.28-.63-.42-1.23-.14-1.78,.58-1.14,2.63-1.81,3.45-.53h0Z"/>
          <path class="cls-2" d="M386.05,726.19c1.71,.25,3.13,1.29,3.65,2.96,.32,.96-.39,2.01-1.41,2.06-1.95,.02-3.61-1.54-3.89-3.44-.11-.92,.73-1.72,1.65-1.58h0Z"/>
          <path class="cls-2" d="M365.76,716.96c-.17,2.12-2.23,3.93-4.38,3.67-.82-.13-1.38-.91-1.24-1.73,.37-1.37,1.38-2.3,2.58-2.9,.37-.19,.85-.37,1.37-.46,.87-.19,1.71,.53,1.66,1.42h0Z"/>
          <path class="cls-2" d="M377.67,698.32c1.44,.4,2.53,1.4,3.2,2.68,1.31,2.39-.7,4.08-2.84,2.39-1.16-.88-1.95-2.11-2.11-3.6-.08-.94,.84-1.7,1.74-1.47h0Z"/>
          <path class="cls-2" d="M422.37,731.34c-.32,1.44-1.84,2.31-3.24,2.16-1.32-.03-2.46-1.56-1.46-2.71,.63-.77,1.28-1.39,2.28-1.32,.31-.01,.91,.1,1.33,.2,.76,.17,1.24,.91,1.1,1.67h0Z"/>
          <path class="cls-2" d="M464.14,724.38c.13,1.22-.36,2.3-1.29,3.03-1.04,.93-2.93,.65-3.15-.93-.51-2.34,3.58-5.21,4.43-2.1h0Z"/>
          <path class="cls-2" d="M451.11,681.72c2.53,.95,2,5.17-.95,4.3-2.32-.83-1.79-5.17,.95-4.3h0Z"/>
          <path class="cls-2" d="M441.99,660c-.4,2.86-4.64,2.39-3.97-.54,.41-2.34,4.24-1.78,3.97,.54h0Z"/>
          <path class="cls-2" d="M419.82,652.67c.93,1.26,1.19,2.77,.97,4.26-.37,2.81-3.01,2.96-3.71,.22-.4-1.46-.31-2.99,.46-4.35,.48-.82,1.7-.88,2.28-.13h0Z"/>
          <path class="cls-2" d="M381.27,661.2c1.09,.02,1.94,.24,2.75,.9,.95,.75,1.75,2.28,.44,3.18-1.88,1.03-4.43-.4-4.79-2.45-.15-.94,.68-1.72,1.61-1.62h0Z"/>
          <path class="cls-2" d="M396.84,648.44c.19,1.37-.74,2.64-1.99,3.08-1.21,.54-2.87-.39-2.51-1.84,.19-1.01,.62-1.81,1.57-2.16,.28-.14,.83-.25,1.26-.3,.8-.11,1.53,.44,1.66,1.23h0Z"/>
          <path class="cls-2" d="M409.96,632.31c1.27,.66,1.96,1.98,1.99,3.36,.12,1.46-1.22,2.92-2.66,1.93-1.37-1.02-1.8-2.68-1.38-4.3,.2-.9,1.23-1.4,2.06-.99h0Z"/>
          <path class="cls-2" d="M433.78,639.67c.1,2.84-4.42,3.13-3.91,.06,.17-.6,.32-1.31,.84-1.57,.45-.19,.8-.15,1.4-.05,.86,.07,1.63,.68,1.67,1.55h0Z"/>
          <path class="cls-2" d="M423.33,619.65c1.74-.44,3.53,.19,4.44,1.76,.57,.85,.15,2.06-.84,2.34-1.79,.44-3.68-.48-4.6-2.06-.44-.83,.09-1.87,1-2.05h0Z"/>
          <path class="cls-2" d="M448.31,615.38c-.21,1.51-1.52,2.62-2.97,2.87-1.39,.34-3.05-.82-2.24-2.33,.55-1.04,1.33-1.67,2.42-1.95,.35-.11,.87-.17,1.35-.16,.85-.02,1.53,.74,1.43,1.58h0Z"/>
          <path class="cls-2" d="M439.62,601.58c1.02,.53,1.59,1.48,1.6,2.58,.09,1.34-1.31,2.59-2.64,1.91-2.25-.94-1.8-5.53,1.03-4.49h0Z"/>
          <path class="cls-2" d="M399.91,621.51c-.59,.88-1.34,1.4-2.35,1.46-1.28,.11-2.76-.87-2.26-2.33,.46-1.23,1.72-1.83,2.96-1.76,1.35-.01,2.57,1.35,1.65,2.63h0Z"/>
          <path class="cls-2" d="M382.04,632.01c.97,.23,1.66,.71,1.99,1.61,.44,1.18-.14,2.81-1.61,2.8-2.75,.05-3.64-4.93-.37-4.41h0Z"/>
          <path class="cls-2" d="M375.14,608.95c1.19-.24,2.32,.36,2.88,1.38,.7,1.1,0,2.81-1.41,2.81-.76,.04-1.37-.14-1.87-.6-1.03-.92-1.31-3.2,.4-3.59h0Z"/>
          <path class="cls-2" d="M370.54,619.75c1.44,2.63-2.51,4.89-3.54,1.85-.29-.86-.15-1.56,.53-2.09,.85-.71,2.4-.89,3.02,.24h0Z"/>
        </g>
        <g>
          <path class="cls-21" d="M494.28,502.46c-.63,0-1.27,.05-1.85,.28-.59,.23-1.12,.66-1.34,1.25-.38,1.01,.27,2.18,1.22,2.7,.95,.52,2.09,.51,3.16,.37,1.86-.25,3.67-.87,5.29-1.81,.19-.11,.38-.23,.48-.42,.89-1.73-6.06-2.38-6.94-2.37Z"/>
          <path class="cls-19" d="M500.86,490.42c.37-.58,.75-1.17,1.31-1.56,.28-.19,.62-.33,.95-.28,.51,.08,.85,.6,.91,1.11,.06,.51-.11,1.02-.28,1.5-.39,1.11-.81,2.23-1.46,3.2-.65,.98-1.57,1.82-2.68,2.2-1.61,.54-.96-1.64-.72-2.39,.44-1.36,1.21-2.58,1.97-3.78Z"/>
          <path class="cls-12" d="M481.63,530.84c.37-.58,.75-1.17,1.31-1.56,.28-.19,.62-.33,.95-.28,.51,.08,.85,.6,.91,1.11,.06,.51-.11,1.02-.28,1.5-.39,1.11-.81,2.22-1.46,3.2-.65,.98-1.57,1.82-2.68,2.2-1.61,.54-.96-1.64-.72-2.39,.44-1.36,1.21-2.58,1.97-3.78Z"/>
          <path class="cls-11" d="M511.33,580.86c-1.1-.21-2.42-.25-3.16,.6,.14,.73,.63,1.35,1.24,1.77,.61,.42,1.32,.66,2.03,.85,1.45,.39,2.95,.59,4.45,.6,.45,0,.96-.04,1.24-.39-1.6-1.87-3.36-2.94-5.8-3.42Z"/>
          <g>
            <path class="cls-12" d="M413.62,371.13s33.89,23.5,75.06,23.69l-43,27.33-32.07-51.01Z"/>
            <path class="cls-11" d="M413.62,371.13s6.92,37.17-9.84,78.34l41.9-27.33-32.07-51.01Z"/>
            <path class="cls-19" d="M478.9,473.09s-33.94-23.42-75.12-23.51l42.93-27.43,32.19,50.94Z"/>
            <path class="cls-21" d="M478.9,473.09s-7.01-37.15,9.65-78.37l-41.84,27.43,32.19,50.94Z"/>
            <line class="cls-4" x1="409.86" y1="365.66" x2="483.2" y2="480.62"/>
            <line class="cls-4" x1="399.28" y1="452.31" x2="492.07" y2="392.95"/>
          </g>
          <path class="cls-6" d="M486.21,482.48c9.29,5.23,15.37,15.74,15.27,26.4-.1,10.67-6.37,21.06-15.76,26.12-6.17,3.33-13.92,4.33-20.22,1.24-6.3-3.09-10.39-10.83-8.11-17.46,1.62-4.71,5.96-8.04,10.6-9.84,15.07-5.84,34.16,4.6,37.36,20.45,1.65,8.17-.43,16.61-.25,24.94,.39,17.9,11.67,34.59,27.05,43.76,3.46,2.06,7.09,3.77,10.85,5.15"/>
        </g>
        <path class="cls-25" d="M504.19,548.22c.42,.49,1.22,.67,1.74,.28-.24,.45-.46,.92-.52,1.42s.06,1.06,.43,1.4c.37,.35,1.02,.41,1.38,.06-.3,.7-.6,1.46-.45,2.21s.99,1.4,1.67,1.07c.04,.89,.49,1.84,1.33,2.13,.77,.27,1.66-.1,2.2-.72,.54-.62,.79-1.43,.95-2.23,.48-2.33,.31-4.87-.92-6.91-1.17-1.93-3.43-3.28-5.72-3-.85,.1-1.51,.32-1.95,1.07-.54,.92-.92,2.32-.15,3.22Z"/>
        <g>
          <path class="cls-25" d="M504.34,545.01c-.54,.92-.92,2.32-.15,3.22,.42,.49,1.22,.67,1.74,.28-.24,.45-.46,.92-.52,1.42s.06,1.06,.43,1.4c.37,.35,1.02,.41,1.38,.06-.3,.7-.6,1.46-.45,2.21s.99,1.4,1.67,1.07c.04,.89,.49,1.84,1.33,2.13,.77,.27,1.66-.1,2.2-.72"/>
          <path class="cls-22" d="M504.34,545.01c-.39,.79-.64,1.72-.37,2.53,.2,.77,1.2,1.3,1.85,.81,.09-.07,.21-.06,.28,.03,.05,.07,.06,.16,.02,.23-.34,.66-.63,1.37-.43,2.02,.12,.61,.9,1.02,1.37,.59,.1-.1,.25-.1,.35,0,.07,.07,.09,.19,.05,.28-.3,.68-.58,1.38-.46,2.05,.1,.61,.81,1.19,1.37,.95,.1-.05,.22,0,.27,.09,.04,.8,.34,1.7,1.1,2.06,.72,.36,1.66,.03,2.24-.56-.82,1.15-2.66,1.25-3.34-.11-.22-.39-.35-.84-.39-1.29l.28,.17c-.42,.23-.94,.1-1.28-.16-1.15-.77-.72-2.41-.26-3.39,0,0,.4,.28,.4,.28-.78,.71-1.98,.07-2.16-.83-.23-.86,.15-1.68,.51-2.33l.3,.26c-.45,.31-1.03,.27-1.47,.05-1.4-.75-1.01-2.65-.25-3.72h0Z"/>
        </g>
      </g>
      <g>
        <g>
          <path class="cls-22" d="M46.92,517.75c0-.62,.14-1.1,.32-1.56,.19-.45,.44-.84,.74-1.2,.3-.36,.65-.67,1.06-.92,.42-.25,.88-.46,1.5-.54,1.11-.13,2.14,.64,2.31,1.73,.01,.09,.02,.19,.02,.28,0,.61-.16,1.09-.36,1.53-.21,.43-.48,.81-.8,1.14-.32,.33-.69,.62-1.12,.86-.44,.23-.91,.44-1.54,.51-1.02,.12-1.97-.6-2.11-1.6-.01-.08-.02-.17-.02-.24Z"/>
          <path class="cls-22" d="M57.12,507.07c-.17-.5-.16-.89-.12-1.25,.05-.36,.17-.67,.34-.95,.17-.28,.39-.52,.69-.72,.3-.19,.66-.35,1.18-.39,1.17-.09,2.23,.64,2.57,1.7,.16,.5,.15,.88,.08,1.23-.07,.35-.21,.64-.41,.9-.2,.26-.45,.49-.76,.67-.33,.17-.69,.33-1.22,.37-1.07,.08-2.04-.59-2.36-1.56Z"/>
          <path class="cls-22" d="M60.01,514.15c.05-.62,.24-1.09,.46-1.54,.23-.43,.52-.81,.85-1.15,.33-.34,.71-.62,1.14-.85,.44-.22,.93-.4,1.56-.44,1.11-.06,2.08,.78,2.17,1.86,0,.1,0,.21,0,.31-.05,.62-.25,1.08-.49,1.51-.24,.42-.55,.78-.9,1.09-.35,.31-.75,.58-1.2,.79-.46,.2-.95,.38-1.59,.4-1.02,.05-1.91-.72-1.99-1.72,0-.09,0-.18,0-.27Z"/>
        </g>
        <g>
          <path class="cls-22" d="M346.53,398.31c.34-.53,.73-.86,1.14-1.15,.41-.27,.84-.47,1.29-.61,.45-.14,.92-.21,1.41-.2,.49,.02,1.01,.1,1.58,.38,1.02,.5,1.47,1.73,1.01,2.75-.04,.09-.09,.18-.14,.25-.34,.52-.74,.84-1.15,1.1-.42,.25-.86,.42-1.32,.53-.46,.1-.94,.15-1.44,.11-.5-.05-1.02-.13-1.59-.42-.93-.47-1.34-1.6-.91-2.53,.03-.07,.08-.15,.12-.22Z"/>
          <path class="cls-22" d="M361.13,394.87c.14-.52,.36-.84,.59-1.13,.24-.27,.51-.48,.81-.62,.3-.15,.62-.23,.99-.23,.36,0,.75,.07,1.23,.32,1.04,.57,1.54,1.78,1.25,2.87-.14,.51-.36,.83-.61,1.09-.25,.26-.53,.43-.85,.54-.31,.11-.65,.17-1.02,.15-.38-.03-.77-.1-1.24-.36-.95-.52-1.41-1.63-1.14-2.63Z"/>
          <path class="cls-22" d="M359.67,402.49c.38-.5,.81-.8,1.24-1.06,.44-.24,.89-.41,1.36-.51,.47-.11,.95-.14,1.45-.09,.5,.06,1.01,.17,1.57,.49,.98,.57,1.34,1.82,.82,2.79-.05,.09-.11,.18-.17,.26-.38,.5-.81,.78-1.25,1.01-.44,.22-.9,.36-1.37,.43-.47,.07-.96,.08-1.46,0-.51-.09-1.02-.21-1.58-.54-.9-.53-1.23-1.68-.74-2.57,.04-.08,.1-.16,.15-.23Z"/>
        </g>
        <g>
          <path class="cls-22" d="M537.64,615.11c-.56,.18-1.04,.18-1.51,.14-.46-.05-.89-.17-1.3-.34-.41-.17-.79-.4-1.14-.71-.35-.31-.67-.67-.91-1.22-.43-.97-.02-2.13,.92-2.59,.08-.04,.17-.07,.25-.1,.56-.18,1.04-.17,1.49-.1,.45,.07,.87,.21,1.27,.41,.39,.2,.76,.46,1.1,.78,.33,.34,.65,.71,.89,1.26,.39,.9,0,1.96-.86,2.37-.07,.03-.15,.06-.22,.09Z"/>
          <path class="cls-22" d="M525.05,608.81c-.41,.29-.76,.4-1.11,.46-.34,.05-.66,.04-.96-.04-.3-.07-.59-.21-.85-.43-.26-.22-.5-.5-.69-.97-.41-1.04-.04-2.21,.82-2.82,.41-.29,.76-.38,1.09-.42,.33-.03,.65,0,.94,.12,.29,.11,.57,.27,.82,.51,.25,.25,.49,.54,.68,1.01,.37,.95,.03,2.02-.75,2.58Z"/>
          <path class="cls-22" d="M530.68,604.19c-.58,.13-1.06,.09-1.53,.02-.46-.09-.89-.24-1.29-.45-.4-.2-.77-.47-1.1-.8-.33-.34-.63-.73-.84-1.3-.36-1,.12-2.12,1.08-2.5,.09-.04,.19-.07,.28-.09,.57-.13,1.05-.08,1.51,.02,.45,.1,.87,.28,1.25,.52,.38,.23,.74,.52,1.06,.87,.31,.37,.61,.76,.82,1.34,.33,.92-.12,1.95-1.01,2.29-.08,.03-.16,.06-.24,.08Z"/>
        </g>
      </g>
      <g>
        <g>
          <path class="cls-22" d="M124.62,496.04c.77,2.45,2.29,4.91,4.72,5.92,2.26,1.01,5.49,.45,6.4-2.07,.72-1.68,.11-3.98-1.75-4.47-1.9-.4-3.33,1.5-3.94,3.13-1.35,3.67,.28,8,3.41,10.26,3.22,2.54,7.34,2.77,11.31,2.85,2.91,.19,4.81,2.71,6.6,4.65,.91,.96,1.93,1.81,3.17,2.18,.32,.08,.19,.6-.14,.5-2.74-.78-4.24-3.39-6.28-5.09-2.06-2-4.81-1.48-7.45-1.69-5.43-.36-11.26-3.95-11.85-9.79-.48-3.21,1.38-8.36,5.36-7.74,3.18,.89,3.27,5.37,.98,7.23-4.62,3.45-9.89-1-11-5.74-.09-.29,.36-.44,.46-.14h0Z"/>
          <path class="cls-11" d="M111.79,440.51c8.71,7.32,12.35,18.73,14.76,29.98,1.7,7.95,2.5,17.47-3.84,24.33-5.88,6.36-15.56,7.64-23.57,6.67-10.48-1.27-20.16-5.53-26.86-12.55-6.7-7.01-10.29-16.83-9.22-27.08,2.46-23.6,32.11-35.32,48.74-21.35Z"/>
          <path class="cls-11" d="M122.97,493.3c1.26-.05,2.53,.15,3.72,.58,.57,.2,1.17,.52,1.36,1.08,.22,.65-.21,1.37-.79,1.74-.58,.37-1.28,.48-1.94,.64-.17,.04-.35,.1-.46,.24-.09,.12-.1,.28-.11,.43-.1,1.12-.69,2.36-1.79,2.57-.91,.17-1.82-.49-2.22-1.32-.4-.84-.39-1.81-.3-2.73,.07-.72,.19-1.46,.56-2.07,.37-.62,1.06-1.09,1.78-1.03"/>
          <path class="cls-7" d="M88.96,448.54c2.28,2.29,3.03,5.68,3.18,9.03,.15,3.35-.22,6.79,.14,10.09,.55,4.96,2.82,9.51,6.5,12.71,2.82,2.45,6.38,4.08,10.03,5.44,1.54,.58,3.21,1.2,3.93,2.59,1.17,2.28-.97,5.55-3.71,6.81-2.73,1.26-5.73,1.05-8.48,.64-8.06-1.2-15.83-3.91-21.29-9.11-1.47-1.4-2.77-2.97-3.99-4.59-3.27-4.33-6.1-9.15-6.9-14.68-.8-5.53,.7-12.18,5.37-16.84,4.35-4.33,11.15-6.19,15.22-2.09Z"/>
        </g>
        <g>
          <path class="cls-6" d="M139.81,473.1c2.83,1.69,5.41,4.04,6.68,7.08,1.27,3.05,1.02,6.86-1.21,9.3-1.69,1.85-5.28,2.35-6.37,.09-.87-1.8,.79-4.1,2.78-4.31,1.99-.21,3.88,1.2,4.81,2.98s1.07,3.85,1.08,5.85c.03,4.9-.61,9.86,.37,14.66s4.09,9.6,8.86,10.72c0,0,17.4,5.15,18.45,16.97"/>
          <path class="cls-12" d="M152.08,405.04c6.27,12.01,5.1,26.23,2.65,39.7-1.73,9.53-5.18,20.38-15.27,25.05-9.36,4.34-20.6,1.35-28.98-3.35-10.97-6.15-19.69-15.24-23.89-26-4.2-10.77-3.7-23.2,2.13-34,13.42-24.88,51.38-24.32,63.36-1.4Z"/>
          <path class="cls-12" d="M140.45,468.25c1.41,.52,2.72,1.31,3.84,2.32,.53,.48,1.05,1.1,1.01,1.81-.05,.82-.85,1.41-1.66,1.55-.8,.14-1.62-.06-2.43-.18-.21-.03-.43-.05-.61,.06-.15,.09-.24,.27-.32,.43-.62,1.18-1.83,2.29-3.14,2.01-1.08-.23-1.78-1.36-1.84-2.47-.06-1.1,.39-2.17,.9-3.14,.4-.76,.87-1.52,1.56-2.03,.69-.51,1.66-.72,2.43-.33"/>
          <path class="cls-10" d="M123.31,403.53c1.47,3.55,.76,7.63-.6,11.38-1.35,3.75-3.33,7.38-4.42,11.18-1.65,5.71-1.21,11.76,1.39,16.94,1.99,3.98,5.18,7.38,8.57,10.54,1.44,1.33,2.99,2.78,3.15,4.64,.26,3.04-3.59,5.67-7.17,5.82-3.58,.15-6.79-1.45-9.63-3.15-8.33-4.98-15.66-11.49-19.31-19.69-.99-2.22-1.7-4.53-2.31-6.86-1.64-6.26-2.57-12.84-.94-19.29,1.63-6.45,6.29-13.1,13.55-16.11,6.76-2.8,15.08-1.76,17.7,4.6Z"/>
        </g>
        <path class="cls-19" d="M167.36,494.95c5.97-6.77,13.35-12.98,21.21-18.11,11.55-7.54,24.88-11.42,38.39-14.19,13.51-2.77,27.94-2.77,40.7,2.48,0,0-26.28,2.27-52.91,16.23-14.62,7.67-27.25,19.22-35.17,27.45"/>
        <path class="cls-31" d="M209.66,460.62l2.49,5.73s-5.8,9.8-23.36,10.24l-2.27-6.71,23.14-9.26Z"/>
        <g>
          <path class="cls-31" d="M177.16,400.06c35.78-15.38,46.38,26.91,46.38,26.91,10.42,31.94-22.63,42.44-22.63,42.44-39.13,17.13-50.47-15.53-50.47-15.53,0,0-15.97-28.17-.91-40.02s27.64-13.8,27.64-13.8Z"/>
          <path class="cls-22" d="M210.88,464.36c-5.29,3.56-9.97,5.05-9.97,5.05-4.8,2.1-9.18,3.45-13.17,4.21,0,0,2.69,1.81,13.08-2.33,9.26-3.69,10.06-6.93,10.06-6.93Z"/>
          <path class="cls-22" d="M191.9,444.66c-1.68-1.73-4.41-.55-4.4,1.78,.03,.43-.62,.53-.73,.13-.45-1.46,.44-3.1,1.85-3.67,1.46-.56,3.19,.06,3.85,1.38,.18,.35-.31,.68-.56,.38h0Z"/>
          <path class="cls-22" d="M171.17,452.66c.43,1.08,1.66,1.61,2.75,1.18,1.08-.43,1.61-1.66,1.18-2.75-.43-1.08-1.66-1.61-2.75-1.18-1.08,.43-1.61,1.66-1.18,2.75Z"/>
          <path class="cls-22" d="M204.89,440.12c.43,1.08,1.66,1.61,2.75,1.18,1.08-.43,1.61-1.66,1.18-2.75-.43-1.08-1.66-1.61-2.75-1.18-1.08,.43-1.61,1.66-1.18,2.75Z"/>
          <path class="cls-3" d="M148.86,453.53c2.74-3.57,3.65-8.3,3.32-12.79-.33-4.49-1.79-8.82-3.41-13.02,1.76,4.63,5.77,8.19,10.34,10.13,4.56,1.94,9.64,2.39,14.59,2.11,12.29-.69,24.8-6.34,31.33-16.78,.75-1.19,1.43-2.54,1.26-3.94-.17-1.4-1.58-2.7-2.91-2.26,5.98-2.93,10.21-9.14,10.75-15.77-8.16-9.55-23.76-11.6-34.11-4.48,.73-.74,1.28-2.09,1.52-3.1-1.46-.83-3.28-.19-4.79,.54-3.75,1.84-7.21,4.28-10.2,7.19,.08-1.11-.25-2.72-.61-3.77-.1-.29-.22-.59-.46-.77-.49-.38-1.2-.13-1.75,.16-1.68,.89-3.19,2.08-4.45,3.5-6.91,.3-34.69,24.43-10.44,53.04Z"/>
          <path class="cls-31" d="M151.37,451.88c-2.17-1.09-4.78-1.26-7.07-.45s-4.22,2.57-5.22,4.78c-.36,.8-.61,1.65-.69,2.53-.26,2.75,1.22,5.54,3.54,7.05s5.34,1.79,7.96,.93,4.85-2.78,6.29-5.14"/>
          <path class="cls-22" d="M143.03,457.59c3.02-2.34,7.22-.4,9.46,2.12,.14,.15,.13,.39-.02,.53-.13,.12-.32,.13-.46,.04-2.47-1.74-5.6-3.57-8.61-2.12-.35,.19-.69-.33-.37-.57h0Z"/>
          <path class="cls-22" d="M147.41,457.19c-.74,2.41,.12,4.96,2.11,6.45,.34,.25,.01,.81-.37,.64-1.36-.54-2.39-1.77-2.85-3.16-.43-1.41-.29-3,.49-4.22,.2-.33,.74-.08,.62,.29h0Z"/>
          <path class="cls-3" d="M210.47,405.66c.19,1.58,.46,3.15,.98,4.65,.95,2.73,2.7,5.11,4.54,7.33,2.49,3,5.2,5.8,8.11,8.4,1.17-6.49-.55-13.44-4.62-18.63-1.64-2.09-9.8-8.17-9.01-1.75Z"/>
          <path class="cls-31" d="M220.28,424.6c.82-2.28,3.34-4.68,5.56-5.67s4.83-1.03,7.08-.12c.81,.33,1.58,.78,2.24,1.36,2.08,1.82,2.92,4.86,2.29,7.55s-2.64,4.97-5.14,6.15c-2.5,1.18-5.43,1.32-8.1,.6"/>
          <path class="cls-22" d="M231.11,423.19c-3.19,1.02-4.19,4.5-4.79,7.46-.09,.42-.75,.35-.74-.08-.1-3.37,1.61-7.67,5.41-8.05,.4-.03,.5,.57,.12,.67h0Z"/>
          <path class="cls-22" d="M227.79,424.61c2.12,.51,3.74,2.66,3.78,4.86,.02,.73-.11,1.47-.41,2.12-.09,.19-.31,.27-.5,.18-.15-.07-.23-.23-.21-.39,.42-2.46-.7-4.9-2.91-6.14-.34-.18-.12-.74,.25-.63h0Z"/>
          <path class="cls-2" d="M188.93,450.93c1.83-.61,3.56-1.54,5.08-2.73,1.13,.85,1.22,2.64,.44,3.82-.73,1.11-2.11,1.75-3.43,1.6-1.32-.15-2.52-1.1-2.97-2.35,.22-.08,.44-.16,.66-.24"/>
        </g>
        <path class="cls-31" d="M235.18,534.13c.05,.73,.67,1.33,1.37,1.55,.7,.22,1.46,.14,2.18-.02,.67-.14,1.35-.35,2.03-.26s1.38,.57,1.43,1.25c.05,.61-.4,1.14-.87,1.54-.77,.65-1.68,1.15-2.65,1.45,.69,.07,1.38-.14,2.07-.18,.69-.04,1.48,.14,1.82,.75,.46,.82-.21,1.87-1.05,2.31-.83,.44-1.82,.54-2.64,1,1.28-.15,3-.02,3.29,1.23,.16,.67-.25,1.38-.81,1.79s-1.25,.57-1.93,.73c1.12-.48,2.22,1.11,1.78,2.24s-1.69,1.7-2.87,2.02c-4.72,1.28-10.27,0-13.32-3.81-.5-.63-.94-1.33-1.23-2.08-.97-2.56-.08-5.52,1.6-7.67,1.57-2.01,3.7-3.4,5.9-4.63,.62-.35,2.03-1.43,2.65-1.48,1.94-.16,1.1,.64,1.22,2.29Z"/>
        <path class="cls-19" d="M185.97,502.28c-5.56,5.77-8.81,9.9-8.81,9.9,14.18,17.78,54.36,18.5,54.36,18.5,.36,7.09-1.23,14.53-2.49,21.51-9.93,1.77-44.73,6.66-65.78-18.26-10.81-12.79-5-31.87,10.48-45.5"/>
      </g>
      <g>
        <path class="cls-24" d="M178.57,88.44c-4.81-11.75-14.81-16.79-24.23-18.04-16.92-2.24-32.68,9.2-35.67,11.98-.63,.58,.1,1.75,.88,1.42,4.95-2.13,12.43-5.88,18.11-7.12,15.67-3.42,29.63,1.88,33.19,21.7,.8,7.83-.08,13.42-3.02,20.09-.14,.31,.09,.66,.42,.66h8.6c.49,0,.94-.28,1.16-.72,4.58-9.64,5.22-18.62,.56-29.96h0Zm-30.69,58.25c-5.26,5.48-10.79,10.71-15.87,15.81,.05,.05,.79,1.22,.83,1.28,6.93-4.67,15.11-10.41,22.75-17.06,.23-.2,.09-.58-.22-.58h-6.22c-.48,0-.94,.2-1.27,.54Z"/>
        <path class="cls-24" d="M90.96,185.66c-22.07-24.86-73.09-82.57-30.09-108.08,18.74-11.12,43.52,1.01,45.4,14.01,.41,2.9-.18,5.83-2.43,8.53-6.16,7.35-15.73-3.38-8.72-10.18,.2-.19,.41-1.45-.58-.98-1,.47-10.36,7.39-3.39,15.62,4.37,5.15,11.02,5.01,15.49,1.22,3.79-3.21,6.52-9.13,5.82-16.23-3.42-34.68-58.68-37.69-77.58-2.82-19.82,43.28,47.75,95.12,55.88,99.6,.37,.21,.09-.69,.2-.69h0Z"/>
        <path class="cls-24" d="M69.01,32.23c7.23,0,13.08,5.86,13.08,13.07s-5.85,13.08-13.08,13.08-13.07-5.85-13.07-13.08,5.85-13.07,13.07-13.07h0Z"/>
        <path class="cls-24" d="M153.48,47.38c4.81,0,8.72,3.9,8.72,8.71s-3.9,8.72-8.72,8.72-8.71-3.9-8.71-8.72,3.89-8.71,8.71-8.71h0Z"/>
        <g>
          <path class="cls-24" d="M118.12,211.64l-.83-1.89c9.3-4.06,7.95-9.08,7.89-9.29l-.02-.07v-.06s-.47-2.51-2.42-5.88c-1.81-3.11-3.67-5.52-9.84-9.82-5.02-3-10.17-3.55-15.28-1.66-3.86,1.44-6.7,4.09-6.72,4.11l-3.11-3.19s2.89-2.85,7.15-4.45c3.97-1.49,10.15-2.38,17.15,1.79,6.82,4.09,10.56,8.92,12.49,12.27,1.96,3.41,2.52,5.97,2.6,6.42,.11,.39,.46,2.04-.39,4.19-1.19,3-4.11,5.54-8.67,7.53h0Zm-12.39,10.54c-2.13,.53-3.64,.1-4.01-.02-.43-.1-3.06-.81-6.44-2.93-3.32-2.08-8.04-5.99-11.72-12.81-3.78-7.02-2.29-12.89-.37-16.59,2.04-3.96,5.07-6.36,5.19-6.45l3.17,3.11s-2.86,2.4-4.69,5.98c-2.4,4.7-2.27,9.61,.4,14.58,3.44,6.39,5.96,8.43,9.05,10.37,3.34,2.12,5.91,2.73,5.94,2.73h.06s.06,.04,.06,.04c.19,.06,4.3,1.4,8.75-4.31,.57-.74,2.25,.49,1.58,1.34-2.01,2.55-4.23,4.18-6.66,4.87-.11,.03-.23,.06-.32,.08h0Z"/>
          <path class="cls-24" d="M103.66,222.8c-1.06,0-1.79-.21-2.06-.3-.27-.06-2.99-.75-6.51-2.97-3.35-2.1-8.12-6.04-11.84-12.94-3.85-7.15-2.33-13.15-.38-16.92,1.62-3.14,3.85-5.32,4.84-6.19,.69-.64,3.36-2.96,7.11-4.37,4.03-1.51,10.33-2.43,17.45,1.82,6.91,4.14,10.67,9.03,12.61,12.4,2.05,3.56,2.59,6.24,2.64,6.53,.09,.29,.51,2.04-.41,4.39-1.23,3.1-4.21,5.69-8.85,7.72l-.32,.14-1.11-2.54,.32-.14c9.05-3.95,7.71-8.81,7.69-8.86l-.04-.19c-.03-.16-.52-2.56-2.37-5.75-1.68-2.88-3.37-5.27-9.73-9.7-4.9-2.93-9.94-3.48-14.96-1.62-2.46,.92-4.51,2.35-5.65,3.24h0s-.06,.04-.06,.04c-.56,.45-.89,.74-.9,.75l-.17,.16c-.95,.94-2.6,2.77-3.81,5.14-2.35,4.59-2.21,9.39,.4,14.25,3.48,6.47,6,8.39,8.93,10.24,3.23,2.05,5.71,2.66,5.81,2.68l.2,.06c.36,.11,4.18,1.13,8.34-4.2,.22-.28,.55-.4,.93-.35,.56,.08,1.13,.52,1.34,1.04,.16,.38,.11,.77-.14,1.08-2.06,2.61-4.36,4.29-6.84,4.99-.13,.03-.24,.07-.34,.09-.81,.2-1.53,.27-2.15,.27Zm-15.88-38.41c-1.08,1.01-2.9,2.95-4.28,5.62-1.88,3.62-3.33,9.38,.37,16.26,3.65,6.76,8.32,10.62,11.6,12.68,3.43,2.15,6.05,2.82,6.33,2.89,.3,.1,1.76,.54,3.84,.02h0c.09-.02,.19-.05,.3-.08,2.34-.66,4.52-2.26,6.48-4.75,.05-.07,.12-.19,.04-.38-.12-.29-.48-.56-.79-.61-.2-.03-.26,.06-.28,.08-4.5,5.77-8.68,4.58-9.14,4.43l-.07-.03h0s0,0,0,0c-.43-.08-2.95-.8-6.07-2.78-3.02-1.9-5.61-3.89-9.17-10.5-2.73-5.08-2.87-10.09-.41-14.9,1.21-2.37,2.85-4.22,3.87-5.24l-2.63-2.7Zm29.98,25.55l.55,1.25c4.29-1.93,7.03-4.35,8.16-7.19,.86-2.17,.43-3.79,.38-3.97-.06-.31-.58-2.88-2.57-6.34-1.9-3.3-5.58-8.08-12.36-12.14-6.88-4.1-12.96-3.22-16.84-1.76-2.81,1.06-5.04,2.69-6.18,3.63l2.7,2.64c1.16-.92,3.31-2.43,5.91-3.4,5.23-1.94,10.48-1.37,15.59,1.68,5.96,4.15,7.96,6.51,9.96,9.94,1.87,3.23,2.38,5.61,2.45,6h0s.02,.09,.02,.09c.06,.22,1.5,5.39-7.77,9.56Zm-29.45-26.02l2.61,2.68s.08-.07,.12-.11l-2.67-2.62s-.04,.03-.06,.05Z"/>
        </g>
        <path class="cls-24" d="M110.63,214.43c1.69,0,3.05,1.37,3.05,3.05s-1.37,3.06-3.05,3.06-3.05-1.38-3.05-3.06,1.37-3.05,3.05-3.05h0Z"/>
        <path class="cls-24" d="M119.58,206.69c1.69,0,3.05,1.37,3.05,3.05s-1.37,3.05-3.05,3.05-3.05-1.37-3.05-3.05,1.37-3.05,3.05-3.05h0Z"/>
        <g>
          <path class="cls-24" d="M126.83,160.86c-3.33,0-6.04,2.7-6.04,6.04s2.7,6.04,6.04,6.04,6.04-2.71,6.04-6.04-2.71-6.04-6.04-6.04h0Zm0,14.28c-4.55,0-8.24-3.7-8.24-8.24s3.7-8.24,8.24-8.24,8.24,3.7,8.24,8.24-3.7,8.24-8.24,8.24h0Z"/>
          <path class="cls-24" d="M126.83,175.49c-4.74,0-8.59-3.85-8.59-8.59s3.86-8.59,8.59-8.59,8.59,3.86,8.59,8.59-3.86,8.59-8.59,8.59Zm0-16.48c-4.35,0-7.89,3.54-7.89,7.89s3.54,7.89,7.89,7.89,7.89-3.54,7.89-7.89-3.54-7.89-7.89-7.89Zm0,14.28c-3.52,0-6.39-2.87-6.39-6.39s2.87-6.39,6.39-6.39,6.39,2.87,6.39,6.39-2.87,6.39-6.39,6.39Zm0-12.07c-3.13,0-5.68,2.55-5.68,5.68s2.55,5.68,5.68,5.68,5.68-2.55,5.68-5.68-2.55-5.68-5.68-5.68Z"/>
        </g>
        <g>
          <path class="cls-24" d="M87.27,114.9c.36,0,.67,.13,.92,.4,.26,.27,.39,.59,.39,.96v24.71c0,.38-.13,.7-.39,.97-.25,.27-.56,.4-.92,.4s-.66-.13-.92-.4c-.26-.27-.39-.59-.39-.97v-23.35h-13.14v23.35c0,.38-.13,.7-.39,.97-.26,.27-.56,.4-.92,.4s-.66-.13-.92-.4c-.26-.27-.39-.59-.39-.97v-24.71c0-.37,.13-.69,.39-.96,.26-.27,.56-.4,.92-.4h15.77Zm20.25,16.48c-.24-1.33-.84-2.48-1.8-3.5-1.27-1.35-2.83-2.02-4.65-2.02s-3.36,.67-4.64,2.02c-.97,1.01-1.56,2.17-1.81,3.5h12.9Zm-1.4,6.29c.37,0,.67,.13,.93,.4,.26,.27,.39,.59,.39,.97s-.13,.7-.38,.98c-1.7,1.54-3.7,2.32-5.99,2.32-2.54,0-4.7-.94-6.5-2.83-1.79-1.87-2.69-4.14-2.69-6.79s.9-4.92,2.69-6.8c1.8-1.87,3.97-2.82,6.5-2.82s4.71,.94,6.5,2.82c1.79,1.88,2.69,4.15,2.69,6.81,0,.38-.12,.7-.38,.97-.26,.27-.57,.4-.93,.4h-14.33c.25,1.31,.84,2.47,1.81,3.48,1.27,1.34,2.83,2.01,4.64,2.01,1.65,0,3.05-.55,4.23-1.65,.25-.19,.52-.29,.82-.29h0Zm46.91,3.3c0,.38-.12,.7-.38,.97-.26,.27-.57,.4-.92,.4s-.67-.13-.93-.4c-.25-.27-.38-.59-.38-.97v-1.11c-1.65,1.66-3.61,2.48-5.91,2.48s-4.37-.88-6.04-2.62c-1.68-1.75-2.51-3.85-2.51-6.32v-8.92c0-.38,.12-.7,.38-.97,.26-.27,.57-.4,.92-.4s.67,.13,.93,.4c.25,.27,.38,.59,.38,.97v8.94c0,1.7,.58,3.16,1.73,4.37,1.16,1.21,2.56,1.81,4.18,1.81s3.03-.6,4.19-1.81c1.15-1.21,1.73-2.67,1.73-4.37v-8.94c0-.38,.13-.7,.38-.97,.26-.27,.57-.4,.93-.4s.66,.13,.92,.4c.26,.27,.38,.59,.38,.97v16.48Zm11.82-15.12c-1.81,0-3.36,.67-4.65,2.01-1.28,1.35-1.93,2.96-1.93,4.87s.64,3.52,1.93,4.87c1.28,1.34,2.84,2.01,4.65,2.01s3.36-.67,4.65-2.01c1.28-1.35,1.93-2.97,1.93-4.87s-.64-3.52-1.93-4.87c-1.28-1.34-2.83-2.01-4.65-2.01h0Zm6.57,13.6c-1.84,1.93-4.03,2.89-6.57,2.89s-4.71-.94-6.5-2.83c-1.8-1.87-2.69-4.14-2.69-6.79s.89-4.92,2.69-6.8c1.79-1.87,3.97-2.82,6.5-2.82s4.71,.94,6.5,2.82c1.79,1.88,2.69,4.15,2.69,6.8v8.24c0,.38-.12,.7-.38,.97-.26,.27-.57,.4-.93,.4s-.66-.13-.92-.4c-.26-.27-.38-.59-.38-.97v-1.51Zm8.2,1.51c0,.38-.12,.7-.38,.97-.26,.27-.57,.4-.92,.4s-.67-.13-.93-.4c-.26-.27-.38-.59-.38-.97v-16.48c0-.38,.12-.7,.38-.97,.26-.27,.57-.4,.93-.4s.66,.13,.92,.4c.26,.27,.38,.59,.38,.97v.35c1.31-1.15,2.85-1.73,4.62-1.73,1.99,0,3.7,.74,5.1,2.22,.3,.31,.57,.63,.81,.98,.24-.35,.51-.67,.81-.98,1.41-1.48,3.12-2.22,5.1-2.22s3.7,.74,5.11,2.22c1.41,1.48,2.11,3.26,2.11,5.34v10.3c0,.38-.12,.7-.38,.97-.26,.27-.57,.4-.92,.4s-.67-.13-.92-.4c-.26-.27-.39-.59-.39-.97v-10.3c0-1.34-.45-2.46-1.35-3.41-.9-.94-1.99-1.41-3.26-1.41s-2.36,.47-3.25,1.41c-.9,.94-1.36,2.07-1.36,3.41v10.3c0,.38-.12,.7-.38,.97-.26,.27-.57,.4-.92,.4s-.67-.13-.93-.4c-.26-.27-.38-.59-.38-.97v-10.3c0-1.34-.45-2.46-1.35-3.41-.9-.94-1.99-1.41-3.26-1.41s-2.36,.47-3.25,1.41c-.91,.94-1.36,2.07-1.36,3.41v10.3Zm28.9-8.24c0,1.89,.64,3.52,1.93,4.87,1.28,1.34,2.83,2.01,4.65,2.01s3.36-.67,4.65-2.01c1.28-1.35,1.93-2.97,1.93-4.87s-.64-3.52-1.93-4.87c-1.28-1.34-2.83-2.01-4.65-2.01s-3.36,.67-4.65,2.01c-1.28,1.35-1.93,2.96-1.93,4.87h0Zm0,16.47c0,.37-.13,.69-.38,.96-.26,.27-.57,.4-.93,.4s-.66-.13-.92-.4c-.26-.27-.38-.59-.38-.96v-16.48c0-2.65,.89-4.91,2.69-6.79,1.79-1.87,3.97-2.82,6.5-2.82s4.7,.94,6.5,2.82c1.79,1.88,2.69,4.15,2.69,6.8s-.9,4.92-2.69,6.79c-1.8,1.88-3.97,2.83-6.5,2.83s-4.71-.94-6.51-2.82c-.02-.02-.04-.04-.06-.07v9.74Zm41.93-8.35c0,.37-.12,.7-.38,.97-.26,.27-.57,.4-.92,.4s-.67-.13-.93-.4c-.26-.27-.38-.6-.38-.97v-1.11c-1.65,1.66-3.61,2.48-5.91,2.48s-4.37-.88-6.04-2.62c-1.68-1.75-2.51-3.85-2.51-6.32v-8.92c0-.38,.12-.7,.38-.97,.26-.27,.57-.4,.92-.4s.67,.13,.93,.4c.25,.27,.38,.59,.38,.97v8.94c0,1.7,.58,3.16,1.73,4.37,1.16,1.21,2.56,1.81,4.18,1.81s3.03-.6,4.19-1.81c1.15-1.21,1.73-2.67,1.73-4.37v-8.94c0-.38,.12-.7,.38-.97,.26-.27,.57-.4,.93-.4s.66,.13,.92,.4c.26,.27,.38,.59,.38,.97v16.48Zm24.27-23.23v10.97h-5.24c-1.46,0-2.7-.54-3.72-1.6-1.02-1.07-1.53-2.36-1.53-3.88s.51-2.81,1.53-3.87c1.01-1.08,2.26-1.62,3.72-1.62h5.24Zm1.31-2.73h-6.55c-2.17,0-4.03,.8-5.57,2.4-1.53,1.62-2.3,3.55-2.3,5.83s.76,4.21,2.3,5.82c.7,.75,1.48,1.31,2.31,1.7l-5.72,9.58c-.13,.22-.21,.48-.21,.76,0,.38,.12,.7,.38,.97,.26,.27,.57,.4,.93,.4,.47,0,.85-.24,1.14-.7l6.15-10.3h5.82v9.63c0,.38,.13,.7,.38,.97,.26,.27,.57,.4,.93,.4s.66-.13,.92-.4c.26-.27,.39-.59,.39-.97v-24.71c0-.37-.13-.69-.39-.96-.26-.27-.56-.4-.92-.4h0Z"/>
          <path class="cls-24" d="M207.22,150.93c-.45,0-.85-.18-1.18-.51-.32-.33-.48-.74-.48-1.21v-16.48c0-2.73,.94-5.1,2.79-7.04,1.85-1.94,4.13-2.93,6.76-2.93s4.89,.98,6.76,2.92c1.85,1.95,2.79,4.32,2.79,7.05s-.94,5.1-2.79,7.04c-1.86,1.95-4.14,2.94-6.76,2.94-2.37,0-4.46-.81-6.22-2.4v8.9c0,.46-.16,.86-.48,1.2-.33,.34-.73,.52-1.19,.52Zm7.89-27.46c-2.43,0-4.53,.91-6.25,2.71-1.75,1.83-2.59,3.97-2.59,6.55v16.48c0,.28,.09,.52,.28,.72,.19,.2,.41,.3,.67,.3s.49-.1,.68-.3c.19-.21,.28-.44,.28-.72v-10.9l.64,.96c1.78,1.85,3.82,2.73,6.28,2.73s4.5-.89,6.25-2.72c1.72-1.8,2.59-4,2.59-6.55s-.87-4.75-2.6-6.56c-1.73-1.8-3.83-2.71-6.25-2.71Zm-13.11,19.24c-.46,0-.87-.18-1.18-.52-.32-.33-.49-.74-.49-1.21v-10.3c0-1.25-.41-2.28-1.25-3.16-.84-.87-1.82-1.3-3.01-1.3s-2.17,.42-3,1.3c-.85,.89-1.26,1.92-1.26,3.16v10.3c0,.48-.16,.89-.48,1.22-.32,.33-.73,.51-1.18,.51s-.86-.17-1.19-.51c-.32-.33-.48-.74-.48-1.22v-10.3c0-1.25-.41-2.28-1.25-3.16-.84-.87-1.82-1.3-3.01-1.3s-2.17,.42-3,1.3c-.85,.88-1.26,1.91-1.26,3.16v10.3c0,.48-.16,.88-.48,1.22-.32,.33-.73,.51-1.18,.51s-.86-.17-1.19-.51c-.32-.33-.48-.74-.48-1.22v-16.48c0-.48,.16-.88,.48-1.22,.33-.34,.73-.51,1.19-.51s.85,.18,1.18,.51c.24,.25,.39,.54,.45,.87,1.25-.92,2.69-1.38,4.3-1.38,2.09,0,3.89,.78,5.36,2.33,.2,.21,.39,.42,.55,.63,.17-.21,.35-.42,.55-.63,1.47-1.54,3.27-2.32,5.36-2.32s3.89,.78,5.37,2.32c1.47,1.54,2.21,3.42,2.21,5.59v10.3c0,.48-.16,.89-.48,1.22-.32,.33-.73,.51-1.18,.51Zm-5.92-17.2c1.37,0,2.55,.51,3.52,1.52,.96,1,1.44,2.23,1.44,3.65v10.3c0,.29,.09,.52,.3,.73,.19,.2,.4,.3,.67,.3s.48-.1,.67-.3c.19-.2,.28-.43,.28-.73v-10.3c0-1.98-.68-3.69-2.02-5.1-1.36-1.42-2.95-2.11-4.86-2.11s-3.52,.71-4.85,2.11c-.31,.32-.56,.62-.77,.94l-.29,.43-.29-.43c-.21-.31-.46-.62-.77-.94-1.33-1.4-2.96-2.11-4.85-2.11-1.69,0-3.12,.54-4.37,1.64l-.56,.5-.03-1.1c0-.31-.09-.54-.28-.74-.19-.2-.41-.3-.67-.3s-.49,.1-.68,.3c-.19,.2-.28,.43-.28,.73v16.48c0,.3,.09,.53,.28,.73,.19,.2,.41,.3,.68,.3s.48-.1,.67-.3c.19-.2,.28-.43,.28-.73v-10.3c0-1.42,.49-2.65,1.46-3.65,.95-1,2.13-1.52,3.5-1.52s2.55,.51,3.52,1.52c.96,1,1.44,2.23,1.44,3.65v10.3c0,.3,.09,.53,.28,.73,.19,.2,.41,.3,.68,.3s.48-.1,.67-.3c.19-.2,.28-.43,.28-.73v-10.3c0-1.41,.49-2.64,1.45-3.65,.95-1.01,2.13-1.52,3.51-1.52Zm-23.34,17.2c-.45,0-.85-.18-1.18-.51-.32-.33-.48-.74-.48-1.22v-.68c-1.78,1.6-3.87,2.41-6.22,2.41-2.63,0-4.91-.99-6.76-2.94-1.85-1.92-2.79-4.29-2.79-7.03s.94-5.11,2.79-7.05c1.85-1.94,4.13-2.93,6.76-2.93s4.9,.98,6.76,2.93c1.85,1.95,2.79,4.32,2.79,7.05v8.24c0,.48-.16,.89-.48,1.22-.33,.34-.73,.51-1.19,.51Zm-.95-4.12v2.39c0,.3,.09,.53,.28,.73,.19,.2,.41,.3,.67,.3s.49-.1,.68-.3c.19-.2,.28-.43,.28-.73v-8.24c0-2.54-.87-4.75-2.6-6.56-1.72-1.8-3.82-2.71-6.25-2.71s-4.53,.91-6.25,2.71c-1.72,1.8-2.59,4.01-2.59,6.56s.87,4.76,2.59,6.55c1.71,1.8,3.82,2.72,6.25,2.72s4.53-.91,6.32-2.78l.61-.63Zm-20.05,4.12c-.46,0-.86-.17-1.19-.51-.32-.35-.48-.76-.48-1.22v-.3c-1.58,1.35-3.45,2.03-5.56,2.03-2.44,0-4.56-.92-6.29-2.73-1.73-1.8-2.6-4.01-2.6-6.56v-8.92c0-.48,.16-.88,.48-1.22,.32-.33,.73-.51,1.18-.51s.86,.17,1.19,.51c.32,.35,.48,.76,.48,1.22v8.94c0,1.6,.55,2.99,1.63,4.13,1.08,1.13,2.4,1.7,3.93,1.7s2.84-.56,3.94-1.7c1.08-1.14,1.63-2.53,1.63-4.13v-8.94c0-.46,.16-.87,.48-1.21,.33-.34,.73-.52,1.19-.52s.85,.18,1.18,.51c.32,.33,.48,.74,.48,1.22v16.48c0,.48-.16,.89-.48,1.22-.32,.33-.73,.51-1.18,.51Zm-.96-3.69v1.96c0,.28,.09,.52,.29,.73,.19,.19,.41,.29,.67,.29s.48-.1,.67-.3c.19-.2,.28-.43,.28-.73v-16.48c0-.3-.09-.53-.28-.73-.19-.2-.41-.3-.67-.3s-.49,.1-.68,.3c-.19,.21-.28,.45-.28,.73v8.94c0,1.78-.61,3.33-1.83,4.61-1.22,1.28-2.72,1.92-4.45,1.92s-3.22-.65-4.44-1.92c-1.21-1.28-1.83-2.83-1.83-4.61v-8.94c0-.28-.09-.52-.29-.73-.19-.19-.41-.29-.67-.29s-.48,.1-.67,.3c-.19,.2-.28,.43-.28,.73v8.92c0,2.4,.79,4.38,2.41,6.07,1.6,1.67,3.54,2.51,5.78,2.51s4.07-.78,5.66-2.38l.6-.61Zm-49.7,3.69c-2.62,0-4.89-.99-6.76-2.94-1.85-1.94-2.79-4.3-2.79-7.04s.94-5.1,2.79-7.04c1.87-1.94,4.14-2.93,6.76-2.93s4.9,.98,6.76,2.93c1.85,1.95,2.79,4.32,2.79,7.06,0,.48-.16,.89-.48,1.22-.33,.34-.73,.51-1.19,.51h-13.89c.28,1.1,.81,2.04,1.63,2.88,1.2,1.26,2.68,1.9,4.39,1.9,1.56,0,2.87-.51,3.99-1.55l.03-.02c.32-.24,.66-.36,1.03-.36,.47,0,.85,.17,1.19,.51,.33,.34,.49,.75,.49,1.22s-.16,.87-.47,1.22l-.03,.03c-1.76,1.6-3.86,2.41-6.23,2.41Zm0-19.24c-2.42,0-4.52,.91-6.25,2.71-1.72,1.81-2.59,4.02-2.59,6.56s.87,4.75,2.59,6.55c1.75,1.83,3.79,2.72,6.25,2.72,2.19,0,4.12-.74,5.74-2.21,.19-.22,.28-.46,.28-.74s-.1-.52-.3-.73c-.2-.2-.41-.3-.68-.3-.21,0-.4,.07-.59,.21-1.24,1.15-2.74,1.73-4.46,1.73-1.91,0-3.55-.71-4.89-2.12-1-1.03-1.64-2.26-1.9-3.66l-.08-.42h14.75c.27,0,.49-.1,.68-.3,.19-.2,.28-.43,.28-.73,0-2.55-.87-4.76-2.6-6.57-1.72-1.8-3.82-2.71-6.25-2.71Zm-13.8,19.24c-.45,0-.85-.17-1.18-.51-.33-.34-.49-.75-.49-1.22v-23h-12.43v23c0,.47-.17,.88-.49,1.22-.33,.34-.72,.51-1.18,.51s-.85-.17-1.18-.51c-.33-.34-.49-.75-.49-1.22v-24.71c0-.46,.17-.87,.49-1.21,.33-.34,.72-.51,1.18-.51h15.77c.46,0,.87,.18,1.18,.52,.32,.33,.49,.74,.49,1.2v24.71c0,.47-.17,.88-.49,1.22-.31,.33-.72,.51-1.18,.51Zm-14.81-25.43h13.84v23.7c0,.29,.09,.52,.3,.73,.19,.2,.41,.3,.67,.3s.48-.1,.66-.29c.21-.21,.3-.45,.3-.73v-24.71c0-.28-.1-.51-.3-.72-.19-.2-.4-.3-.67-.3h-15.77c-.26,0-.47,.09-.67,.3-.2,.21-.3,.44-.3,.72v24.71c0,.29,.09,.52,.3,.73,.19,.2,.41,.3,.67,.3s.47-.09,.67-.3c.2-.21,.29-.44,.29-.73v-23.7Zm203.58,25.43c-.46,0-.86-.17-1.19-.51-.32-.35-.48-.76-.48-1.22v-9.28h-5.27l-6.05,10.13c-.45,.72-1.03,.88-1.44,.88-.46,0-.86-.17-1.19-.51-.32-.33-.48-.74-.48-1.22,0-.34,.09-.67,.26-.94l5.52-9.25c-.74-.39-1.43-.93-2.07-1.6-1.59-1.65-2.39-3.69-2.39-6.06s.81-4.4,2.4-6.07c1.6-1.67,3.56-2.51,5.83-2.51h6.55c.45,0,.85,.17,1.18,.51,.33,.34,.49,.75,.49,1.21v24.71c0,.47-.17,.88-.49,1.22-.33,.34-.72,.51-1.18,.51Zm-7.33-11.71h6.37v9.98c0,.28,.09,.52,.29,.73,.19,.19,.41,.29,.67,.29s.47-.09,.67-.3c.2-.21,.29-.44,.29-.73v-24.71c0-.28-.1-.51-.3-.72-.19-.2-.41-.3-.67-.3h-6.55c-2.09,0-3.83,.75-5.32,2.29-1.48,1.56-2.2,3.39-2.2,5.59s.72,4.03,2.2,5.57c.67,.71,1.41,1.26,2.2,1.62l.35,.16-5.92,9.91c-.1,.17-.16,.37-.16,.58,0,.3,.09,.53,.28,.73,.19,.2,.41,.3,.68,.3,.34,0,.61-.18,.84-.54l6.25-10.47Zm-19.56,11.59c-.46,0-.86-.17-1.19-.51-.31-.33-.48-.75-.48-1.22v-.3c-1.58,1.35-3.45,2.03-5.56,2.03-2.44,0-4.56-.92-6.29-2.73-1.73-1.8-2.6-4.01-2.6-6.56v-8.92c0-.48,.16-.88,.48-1.22,.32-.33,.73-.51,1.18-.51s.86,.17,1.19,.51c.32,.35,.48,.76,.48,1.22v8.94c0,1.6,.55,2.99,1.63,4.13,1.08,1.13,2.4,1.7,3.93,1.7s2.84-.56,3.94-1.7c1.08-1.14,1.63-2.53,1.63-4.13v-8.94c0-.48,.16-.88,.48-1.22,.33-.34,.73-.51,1.19-.51s.85,.18,1.17,.51c.32,.33,.48,.74,.48,1.22v16.48c0,.47-.17,.89-.48,1.22-.32,.33-.73,.51-1.17,.51Zm-.96-3.69v1.96c0,.29,.09,.53,.28,.73,.19,.2,.41,.3,.68,.3s.48-.1,.67-.3c.19-.2,.28-.44,.28-.73v-16.48c0-.3-.09-.53-.28-.73-.19-.2-.41-.3-.67-.3s-.49,.1-.68,.3c-.19,.2-.28,.43-.28,.73v8.94c0,1.78-.61,3.33-1.83,4.61-1.22,1.28-2.72,1.92-4.45,1.92s-3.22-.65-4.44-1.92c-1.21-1.28-1.83-2.83-1.83-4.61v-8.94c0-.28-.09-.52-.29-.73-.19-.19-.41-.29-.67-.29s-.48,.1-.67,.3c-.19,.2-.28,.43-.28,.73v8.92c0,2.4,.79,4.38,2.41,6.07,1.6,1.67,3.54,2.51,5.78,2.51s4.07-.78,5.66-2.38l.6-.61Zm-33.09,1.07c-1.9,0-3.55-.71-4.9-2.12-1.34-1.41-2.02-3.13-2.02-5.11s.68-3.7,2.02-5.11c1.35-1.41,3-2.12,4.9-2.12s3.55,.71,4.9,2.12c1.34,1.41,2.02,3.13,2.02,5.11s-.68,3.7-2.02,5.11c-1.35,1.41-3,2.12-4.9,2.12Zm0-13.75c-1.73,0-3.17,.62-4.39,1.9-1.23,1.29-1.83,2.8-1.83,4.62s.62,3.35,1.83,4.62c1.23,1.28,2.67,1.9,4.39,1.9s3.17-.62,4.39-1.9c1.21-1.27,1.83-2.83,1.83-4.62s-.6-3.33-1.83-4.62c-1.23-1.28-2.67-1.9-4.39-1.9Zm-50.25,13.75c-1.9,0-3.55-.71-4.9-2.12-1.34-1.41-2.02-3.13-2.02-5.11s.68-3.7,2.02-5.11c1.35-1.41,3-2.12,4.9-2.12s3.55,.71,4.9,2.12c1.34,1.41,2.02,3.13,2.02,5.11s-.68,3.7-2.02,5.11c-1.35,1.41-3,2.12-4.9,2.12Zm0-13.75c-1.7,0-3.18,.64-4.39,1.9-1.23,1.29-1.83,2.8-1.83,4.62s.62,3.35,1.83,4.62c1.21,1.26,2.69,1.9,4.39,1.9s3.17-.62,4.39-1.9c1.21-1.27,1.83-2.83,1.83-4.62s-.6-3.33-1.83-4.62c-1.23-1.28-2.67-1.9-4.39-1.9Zm-56.92,5.52h-13.75l.08-.42c.27-1.42,.89-2.62,1.9-3.68,1.33-1.41,2.98-2.13,4.89-2.13s3.57,.72,4.9,2.13c1.01,1.06,1.64,2.3,1.89,3.68l.07,.41Zm-12.88-.7h12.03c-.27-1.09-.8-2.04-1.62-2.91-1.2-1.27-2.68-1.91-4.39-1.91s-3.18,.64-4.38,1.91c-.82,.85-1.35,1.81-1.63,2.91Zm180.03-2.07h-5.59c-1.55,0-2.89-.58-3.97-1.71-1.08-1.12-1.63-2.51-1.63-4.13s.55-2.99,1.63-4.12c1.08-1.14,2.41-1.72,3.97-1.72h5.59v11.68Zm-5.59-10.97c-1.36,0-2.52,.51-3.46,1.5-.95,.99-1.44,2.21-1.44,3.63s.47,2.63,1.43,3.64c.95,.99,2.11,1.5,3.46,1.5h4.89v-10.27h-4.89Z"/>
        </g>
        <path class="cls-23" d="M113.91,130.52v8.58h3.46c0-.16-.01-.26-.01-.42v-7.5c0-.28,.04-.42,.03-.69,0-.37,.08-.65,.16-.97,.03-.12,.04-.22,.07-.31,.04-.1,.07-.18,.1-.27,.03-.1,.06-.2,.1-.29,.31-.69,.69-1.24,1.22-1.77,.12-.11,.24-.25,.36-.35,.42-.33,.42-.35,.89-.63,.62-.37,1.54-.67,2.29-.74,.22-.01,.84-.04,1.06-.01,.31,.04,.4-.01,1,.11,.34,.08,.83,.22,1.14,.38,.34,.17,.64,.32,.93,.54,.88,.66,1.59,1.46,2.02,2.48,.04,.09,.06,.18,.09,.27,.03,.08,.07,.16,.1,.27,.05,.17,.1,.4,.14,.6,.07,.4,.11,.96,.11,1.41,0,.09-.02,5.55-.01,7.89h3.46v-8.55c0-1.29-.41-2.67-.84-3.56-.49-1-1.09-1.8-1.86-2.58l-.56-.53c-.88-.79-1.68-1.23-2.77-1.67-.8-.32-1.8-.5-2.82-.55h-1.01c-.67,.03-1.31,.11-1.87,.26l-1.26,.41c-.16,.06-.24,.11-.38,.18-.31,.12-.76,.41-1.05,.59-.54,.32-1.51,1.17-1.94,1.65-1.39,1.58-2.36,3.61-2.36,5.77h0Zm-3.55,10.13v5.84c0,.72,.82,1.54,1.55,1.54h.02c.56,0,.94-.04,1.4-.52,.23-.24,.49-.66,.49-1.12v-3.85h18.51v3.85c0,.83,.81,1.64,1.54,1.64h.36c.72,0,1.54-.82,1.54-1.54v-5.84c0-.72-.82-1.54-1.54-1.54h-22.32c-.72,0-1.55,.82-1.55,1.54h0Z"/>
      </g>
      <text class="cls-27" transform="translate(124.42 292.86)"><tspan x="0" y="0">НА </tspan><tspan class="cls-1" x="45.3" y="0">С</tspan><tspan x="65.73" y="0">ВЕ</tspan><tspan class="cls-16" x="98.68" y="0">Т</tspan><tspan x="113" y="0">ЛОЙ </tspan><tspan class="cls-26" x="181.31" y="0">С</tspan><tspan class="cls-30" x="201.86" y="0">Т</tspan><tspan x="216.64" y="0">О</tspan><tspan class="cls-29" x="239.53" y="0">Р</tspan><tspan x="256.66" y="0">ОНЕ</tspan><tspan x="46.94" y="34.78">ДЕТИ И </tspan><tspan class="cls-20" x="151.15" y="34.78">С</tspan><tspan class="cls-30" x="171.12" y="34.78">О</tspan><tspan class="cls-18" x="193" y="34.78">ЛНЦЕ</tspan></text>
      <rect class="cls-5" x=".61" y="-.5" width="594.06" height="843.06" rx="71.02" ry="71.02"/>
    </g>
  </g>
</svg>