<?xml version="1.0" encoding="UTF-8"?>
<svg id="_Слой_1" data-name="Слой 1" xmlns="http://www.w3.org/2000/svg" xmlns:xlink="http://www.w3.org/1999/xlink" viewBox="0 0 595.28 841.89">
  <defs>
    <style>
      .cls-1 {
        letter-spacing: -.02em;
      }

      .cls-2 {
        letter-spacing: 0em;
      }

      .cls-3 {
        letter-spacing: -.01em;
      }

      .cls-4 {
        font-size: 12px;
      }

      .cls-4, .cls-5, .cls-6 {
        fill: #fff;
      }

      .cls-4, .cls-7, .cls-6, .cls-8, .cls-9, .cls-10 {
        font-family: Gilroy-Bold, Gilroy;
        font-weight: 700;
      }

      .cls-11 {
        letter-spacing: 0em;
      }

      .cls-12 {
        letter-spacing: -.01em;
      }

      .cls-13 {
        letter-spacing: -.05em;
      }

      .cls-14 {
        letter-spacing: -.05em;
      }

      .cls-7 {
        fill: #263238;
        font-size: 17px;
      }

      .cls-15 {
        letter-spacing: 0em;
      }

      .cls-16 {
        letter-spacing: -.02em;
      }

      .cls-17 {
        letter-spacing: -.03em;
      }

      .cls-18 {
        stroke: #fff;
      }

      .cls-18, .cls-19, .cls-20 {
        stroke-miterlimit: 10;
      }

      .cls-18, .cls-20 {
        fill: none;
      }

      .cls-21 {
        opacity: .9;
      }

      .cls-22 {
        letter-spacing: 0em;
      }

      .cls-23 {
        letter-spacing: .01em;
      }

      .cls-24 {
        opacity: .6;
      }

      .cls-25 {
        letter-spacing: -.03em;
      }

      .cls-26 {
        letter-spacing: -.03em;
      }

      .cls-27 {
        letter-spacing: -.01em;
      }

      .cls-28 {
        letter-spacing: -.02em;
      }

      .cls-29 {
        letter-spacing: 0em;
      }

      .cls-30 {
        letter-spacing: -.06em;
      }

      .cls-31 {
        letter-spacing: 0em;
      }

      .cls-32 {
        letter-spacing: -.06em;
      }

      .cls-33 {
        letter-spacing: -.02em;
      }

      .cls-34 {
        letter-spacing: 0em;
      }

      .cls-35 {
        fill: #f5f4f4;
      }

      .cls-36 {
        letter-spacing: -.05em;
      }

      .cls-37 {
        letter-spacing: .02em;
      }

      .cls-38 {
        letter-spacing: 0em;
      }

      .cls-6 {
        font-size: 15.12px;
      }

      .cls-39 {
        letter-spacing: 0em;
      }

      .cls-8, .cls-9 {
        font-size: 12.28px;
      }

      .cls-40 {
        letter-spacing: -.08em;
      }

      .cls-41 {
        letter-spacing: -.01em;
      }

      .cls-42 {
        letter-spacing: 0em;
      }

      .cls-43 {
        letter-spacing: -.04em;
      }

      .cls-44 {
        letter-spacing: 0em;
      }

      .cls-45 {
        letter-spacing: 0em;
      }

      .cls-46 {
        letter-spacing: -.01em;
      }

      .cls-47 {
        letter-spacing: 0em;
      }

      .cls-48 {
        letter-spacing: -.01em;
      }

      .cls-49 {
        letter-spacing: -.02em;
      }

      .cls-50 {
        letter-spacing: 0em;
      }

      .cls-51 {
        letter-spacing: -.02em;
      }

      .cls-52 {
        letter-spacing: 0em;
      }

      .cls-53 {
        letter-spacing: -.02em;
      }

      .cls-54 {
        letter-spacing: 0em;
      }

      .cls-55 {
        letter-spacing: 0em;
      }

      .cls-56 {
        letter-spacing: -.05em;
      }

      .cls-57 {
        letter-spacing: -.09em;
      }

      .cls-58 {
        letter-spacing: -.02em;
      }

      .cls-59 {
        letter-spacing: -.01em;
      }

      .cls-60 {
        letter-spacing: -.01em;
      }

      .cls-61 {
        letter-spacing: 0em;
      }

      .cls-62 {
        letter-spacing: -.05em;
      }

      .cls-63 {
        letter-spacing: -.04em;
      }

      .cls-9, .cls-64, .cls-19 {
        fill: #d26c64;
      }

      .cls-65 {
        letter-spacing: -.04em;
      }

      .cls-66 {
        opacity: .3;
      }

      .cls-67 {
        letter-spacing: -.04em;
      }

      .cls-68 {
        letter-spacing: 0em;
      }

      .cls-69 {
        letter-spacing: -.03em;
      }

      .cls-70 {
        letter-spacing: -.04em;
      }

      .cls-71 {
        letter-spacing: 0em;
      }

      .cls-72 {
        letter-spacing: -.02em;
      }

      .cls-73 {
        letter-spacing: -.03em;
      }

      .cls-74 {
        letter-spacing: -.05em;
      }

      .cls-75 {
        letter-spacing: -.01em;
      }

      .cls-76 {
        letter-spacing: -.03em;
      }

      .cls-77 {
        letter-spacing: .01em;
      }

      .cls-78 {
        letter-spacing: -.04em;
      }

      .cls-79 {
        letter-spacing: -.03em;
      }

      .cls-80 {
        letter-spacing: -.01em;
      }

      .cls-81 {
        opacity: .1;
      }

      .cls-82 {
        fill: #ebebeb;
      }

      .cls-83 {
        letter-spacing: -.01em;
      }

      .cls-84 {
        letter-spacing: -.01em;
      }

      .cls-85 {
        letter-spacing: 0em;
      }

      .cls-86 {
        letter-spacing: 0em;
      }

      .cls-87 {
        letter-spacing: -.15em;
      }

      .cls-88 {
        letter-spacing: -.01em;
      }

      .cls-89 {
        letter-spacing: .01em;
      }

      .cls-90 {
        letter-spacing: 0em;
      }

      .cls-91 {
        letter-spacing: -.03em;
      }

      .cls-10 {
        fill: #c83c36;
        font-size: 19px;
      }

      .cls-92 {
        letter-spacing: -.04em;
      }

      .cls-93 {
        letter-spacing: -.01em;
      }

      .cls-94 {
        letter-spacing: -.03em;
      }

      .cls-95 {
        letter-spacing: -.01em;
      }

      .cls-96 {
        letter-spacing: -.01em;
      }

      .cls-97 {
        letter-spacing: -.01em;
      }

      .cls-98 {
        letter-spacing: 0em;
      }

      .cls-99 {
        letter-spacing: .02em;
      }

      .cls-100 {
        letter-spacing: -.01em;
      }

      .cls-101 {
        letter-spacing: -.02em;
      }

      .cls-102 {
        letter-spacing: 0em;
      }

      .cls-103 {
        letter-spacing: -.01em;
      }

      .cls-104 {
        letter-spacing: -.02em;
      }

      .cls-19, .cls-20 {
        stroke: #d26c64;
      }

      .cls-105 {
        letter-spacing: 0em;
      }

      .cls-106 {
        fill: url(#_Безымянный_градиент_10);
        filter: url(#drop-shadow-1);
      }

      .cls-107 {
        fill: #e0e0df;
      }
    </style>
    <linearGradient id="_Безымянный_градиент_10" data-name="Безымянный градиент 10" x1="19.67" y1="681.48" x2="573.65" y2="681.48" gradientUnits="userSpaceOnUse">
      <stop offset="0" stop-color="#c83c36"/>
      <stop offset=".51" stop-color="#c93c65"/>
      <stop offset="1" stop-color="#e6b282"/>
    </linearGradient>
    <filter id="drop-shadow-1" filterUnits="userSpaceOnUse">
      <feOffset dx="-2.83" dy="2.83"/>
      <feGaussianBlur result="blur" stdDeviation="5.67"/>
      <feFlood flood-color="#222221" flood-opacity=".42"/>
      <feComposite in2="blur" operator="in"/>
      <feComposite in="SourceGraphic"/>
    </filter>
  </defs>
  <g>
    <path class="cls-82" d="M208.43,218.23c-1.1,1.3-1.72,1.98-2.29,2.69-3.44,4.29-2.95,10.27,1.08,13.13,3.95,2.81,10.4,.91,13.05-3.83,4.12-7.36,2.63-15.93-3.71-21.89-6.16-5.78-13.59-9.06-21.79-10.16-18.22-2.44-34.9,.3-47.39,15.59-10.68,13.08-12.27,27.94-8.6,43.8,4.35,18.8,13.94,35.11,24.63,50.82,9.76,14.35,20.98,27.58,32.29,40.72,1.66,1.93,2.86,2.81,5.55,1.12,12.3-7.72,24.02-6.98,35.7,1.78,7.08,5.31,12.66,11.76,16,20.05,2.57,6.39,1.65,11.24-3.38,15.93-1.19,1.11-2.09,2.28-2.75,3.8-.97,2.25-2.85,3.09-5.26,2.31-2.22-.72-3.22-2.32-2.91-4.61,.35-2.54,2.06-3.57,4.46-3.72,4.39-.27,7.82-3.89,7.19-8.05-2.08-13.61-20.11-29.96-35.5-25.89-19.48,5.14-26.11,25.59-13.1,40.99,3.96,4.68,8.48,8.41,14.19,10.72,2.33,.94,4.65,1.14,7.05,.6,1.63-.37,2.92-1.04,2.98-3.14,.08-2.94,1.9-4.37,4.74-4.16,2.26,.17,3.65,1.58,3.79,3.91,.16,2.69-1.25,4.24-3.85,4.76-.52,.1-1.15,.01-1.56,.28-9.3,6-16.94,1.22-24.15-4.09-6.41-4.72-11.32-10.9-14.54-18.29-4.18-9.63-2.85-18.58,3.78-26.56,2.14-2.57,2.15-3.6-.61-5.73-24.29-18.84-46.04-40.13-61.89-66.79-7.43-12.5-12.87-25.83-13.85-40.53-1.51-22.73,8.51-39.8,27.13-51.82,17.62-11.37,36.79-14.38,57.04-7.86,19.31,6.21,31.87,25.75,28.52,44.63-1.36,7.68-5.26,13.62-13.13,16.19-7.53,2.46-15.29-1.82-17.8-9.84-2.34-7.51,1-14.51,8.88-16.86Z"/>
    <path class="cls-82" d="M279.72,199.78c-12.98,.19-24.16,2.97-35.06,7.21-1.29,.5-3.1,2.27-4.15,.36-.75-1.37,1.17-2.59,2.31-3.31,17.77-11.26,37.01-16.41,57.88-12.11,14.04,2.89,22.95,12.15,27.78,25.56,4.38,12.17,5.07,24.4,1.61,36.9-.67,2.41-1.54,3.72-4.28,3.42-3.42-.38-7.99,1.45-10.01-.65-1.86-1.92,.86-6.12,1.3-9.36,.99-7.31,1.46-14.63-.25-21.86-3.56-15.05-14.13-23.84-30.77-25.8-2.51-.3-5.05-.29-6.36-.36Z"/>
    <path class="cls-82" d="M152.77,157.09c.07-10.39,8.19-18.53,18.49-18.53,10.19,0,18.46,8.36,18.43,18.64-.03,10.33-8.26,18.55-18.52,18.49-10.34-.06-18.47-8.28-18.4-18.6Z"/>
    <path class="cls-82" d="M319.44,278.12c0-3.33,0-6.67,0-10,0-2.96,.64-5,4.22-3.05,.41,.23,1.06,.38,1.46,.22,4.63-1.85,8.83-1.4,12.59,2.08,1.04,.96,1.66-.24,2.33-.73,3.66-2.67,7.65-3.35,11.66-1.23,4.1,2.17,5.97,5.93,6,10.56,.02,4.27,0,8.54-.05,12.81-.02,1.66-.25,3.4-2.47,3.38-2.28-.02-2.29-1.8-2.29-3.45-.01-4,.06-8.01-.02-12.01-.1-4.64-2.43-7.51-5.98-7.59-3.51-.07-5.8,2.81-5.88,7.51-.06,4-.07,8-.06,12,0,1.77-.47,3.43-2.43,3.5-2.15,.07-2.34-1.73-2.33-3.43,0-4,.03-8-.03-12.01-.08-4.62-2.41-7.54-5.92-7.57-3.58-.02-5.96,2.89-6.01,7.44-.04,4.13-.02,8.27-.02,12.41,0,1.57-.25,3.11-2.18,3.2-2.16,.11-2.58-1.44-2.58-3.22,0-3.6,0-7.2,0-10.8Z"/>
    <path class="cls-82" d="M293.14,184.75c-7.03-.05-12.25-5.37-12.23-12.47,.02-6.9,5.57-12.34,12.49-12.25,6.63,.09,12.2,5.72,12.16,12.31-.04,6.95-5.55,12.45-12.42,12.41Z"/>
    <path class="cls-82" d="M168.72,272.4c0-5.33,.07-10.66-.03-15.99-.05-2.73,1.05-3.85,3.79-3.82,6.53,.09,13.06,.06,19.59,.02,2.22-.01,3.55,.69,3.55,3.17,.03,11.05,.13,22.11,.18,33.16,0,1.81-.78,3.26-2.76,3.2-2.05-.06-1.98-1.84-1.99-3.29-.03-9.2-.14-18.39,.06-27.59,.07-3.05-.89-3.98-3.85-3.77-3.45,.24-6.93,.19-10.39,0-2.66-.14-3.43,.89-3.4,3.46,.12,8.53,.04,17.06,.04,25.59,0,.93,.03,1.87-.03,2.8-.1,1.44-.62,2.73-2.27,2.77-1.89,.05-2.48-1.31-2.49-2.94-.03-5.6-.01-11.19,0-16.79Z"/>
    <path class="cls-82" d="M424.58,278.75c0,3.59,.11,7.19-.03,10.78-.13,3.32-1.55,4.11-4.17,2.05-1.44-1.14-2.15-.26-3.13,.13-8.56,3.45-17.27-1.9-17.76-11.08-.22-4.12-.04-8.25-.02-12.38,0-1.67,.15-3.4,2.39-3.38,2.27,.03,2.3,1.88,2.34,3.47,.08,3.59,0,7.19,.08,10.78,.12,5.22,3.32,8.77,7.82,8.8,4.23,.03,7.41-3.5,7.58-8.56,.1-3.06-.07-6.13,.11-9.18,.12-2.03-1.04-5.24,2.5-5.21,3.29,.02,2.14,3.08,2.25,4.99,.16,2.92,.04,5.86,.04,8.79Z"/>
    <path class="cls-82" d="M286.66,278.41c0,3.6,.09,7.21-.03,10.81-.08,2.6-1.58,4-3.88,2.35-1.56-1.12-2.52-.71-3.9-.2-8.67,3.17-16.86-2.25-17.18-11.4-.15-4.13-.05-8.27-.09-12.41-.02-1.63,.4-3.11,2.22-3.19,1.87-.09,2.45,1.47,2.49,3.01,.1,3.73-.01,7.47,.05,11.21,.1,5.44,3.11,8.8,7.77,8.78,4.66-.02,7.6-3.31,7.73-8.82,.09-3.6,0-7.21,.01-10.81,0-1.73,.37-3.42,2.51-3.34,1.84,.07,2.24,1.62,2.24,3.21,0,3.6,0,7.2,0,10.81h.05Z"/>
    <path class="cls-82" d="M261.69,289.9c-.03-1.16-.73-2.27-1.81-2.37-2.78-.26-2.52-2.26-2.58-4.06-.09-2.66,.06-5.33-.06-7.99-.35-7.22-5.77-12.72-12.66-12.94-6.9-.21-12.8,4.91-13.62,12.04-.3,2.64-.18,5.33-.19,7.99-.01,2.34,.55,4.94-3.15,5.04-.78,.02-1.53,.82-1.56,1.63-.1,2.92-.17,5.86,.01,8.77,.09,1.44,1.49,1.83,2.74,1.74,1.26-.09,2-1.12,1.79-2.24-1.03-5.55,2.31-5.66,6.28-5.34,2.25,.18,4.53,.03,6.8,.03,2,0,4,.02,6,0,3.87-.05,8.47-1.21,7.38,5.53-.21,1.28,1.03,2.18,2.4,2.12,1.37-.06,2.21-1,2.25-2.35,.08-2.53,.05-5.07-.02-7.6Zm-11.78-2.57c-2-.06-4-.02-6-.02q-7.92,0-8.01-8.29c-.08-7.39,2.01-10.61,7.3-11.31,4.56-.6,8.64,2.4,9.01,6.98,.28,3.44,.06,6.93,.15,10.39,.05,1.8-.84,2.31-2.46,2.26Z"/>
    <path class="cls-82" d="M462.05,272.06c0-3.46,.03-6.93,0-10.39-.12-10.86,1.53-9.32-9.51-9.65-5.81-.17-10.36,1.7-12.68,7.08-2.33,5.4-1.32,10.52,3.23,14.5,1.47,1.29,1.4,2.34,.57,3.73-1.91,3.2-3.83,6.39-5.73,9.59-.85,1.44-1.61,3.08,.22,4.2,2,1.21,3.17-.24,4.11-1.85,2.07-3.57,4.22-7.09,6.2-10.72,1.8-3.31,4.88-2.41,7.44-2.06,2.45,.33,1.22,2.82,1.34,4.35,.19,2.38,.08,4.79,.04,7.19-.02,1.69,.06,3.49,2.17,3.6,2.34,.12,2.64-1.68,2.62-3.59-.04-5.33-.01-10.66-.02-15.99Zm-8.83-.59c-6.16-.35-9.46-2.45-9.57-7.08-.1-4.3,2.89-7.23,7.6-7.41,.67-.03,1.35,.08,2-.04,3.47-.6,4.53,1.02,4.09,4.22-.14,1.05-.02,2.13-.02,3.2h-.04c0,.13,.02,.27,0,.4-.56,2.68,2.17,7.06-4.04,6.71Z"/>
    <path class="cls-82" d="M285.56,302.52c-5.48,5.26-11.26,10.22-16.69,15.54-2.41,2.36-4.07,3.15-7.32,.91-5.08-3.49-11.37-2.06-15.5,2.62-3.59,4.05-3.77,10.81-.42,15.2,3.55,4.65,9.88,6.17,15.08,3.62,5.26-2.58,8.17-8.38,6.39-14.04-.91-2.9,0-3.97,2.29-5.26,9.76-5.54,18.87-12.01,27.11-19.97-3.7,.31-7.55-1.86-10.94,1.39Zm-30,34.94c-4.28,.15-8.12-3.7-8.09-8.11,.03-4.32,3.48-7.92,7.75-8.07,4.29-.15,8.03,3.59,8.11,8.12,.07,4.16-3.55,7.92-7.76,8.06Z"/>
    <path class="cls-82" d="M385.15,270.84c-3.75-5.71-9.13-7.82-15.45-6.05-5.47,1.54-9.38,6.96-9.45,13.36-.08,7.32-.02,14.64-.04,21.95,0,1.82,.03,3.71,2.49,3.64,2.16-.06,2.3-1.83,2.31-3.5,0-3.31,0-6.62,0-10.58,1.49,.72,2.18,1.08,2.89,1.39,6.07,2.58,12.04,1.18,16.17-3.77,3.67-4.41,4.15-11.74,1.08-16.43Zm-11.45,16.57c-5.07-.08-8.82-4.16-8.67-9.44,.14-5.01,4.04-8.92,8.89-8.89,4.5,.02,8.7,4.58,8.57,9.32-.13,4.95-4.16,9.08-8.79,9.01Z"/>
    <path class="cls-82" d="M215.39,264.5c-5.7-1.19-11.7,1.66-14.49,6.88-3.08,5.77-1.63,13.31,3.42,17.86,3.96,3.57,10.65,4.12,15.29,1.15,1.51-.96,3.68-2,2.21-4.32-1.41-2.23-3.09-.98-4.78,.07-3.93,2.43-8.77,1.27-11.23-2.5-1.09-1.68-1.48-2.93,1.32-2.85,2.53,.07,5.07,.02,7.6,.02v-.05c2.67,0,5.34-.07,8,.02,2.91,.1,3.74-1.47,3.54-4.03-.46-5.99-4.92-11-10.9-12.25Zm3.22,11.43c-1.98-.09-3.97-.02-5.96-.01-1.85,0-3.71-.06-5.56,.02-2.13,.1-2.79-.93-1.75-2.61,1.61-2.6,4.03-4.26,7.2-4.23,3.23,.03,5.92,1.31,7.6,4.22,.96,1.66,.75,2.71-1.53,2.61Z"/>
    <path class="cls-82" d="M316.3,283.11h-.08c0-2.13,.16-4.28-.03-6.4-.5-5.6-4.7-10.7-9.71-12.03-6-1.59-11.82,.75-15.2,6.12-3,4.77-2.5,12.01,1.15,16.53,3.79,4.69,9.67,6.18,15.51,3.96,1.54-.59,2.73-1.81,4.63,.27,1.68,1.83,3.48,.32,3.69-2.05,.19-2.12,.04-4.27,.04-6.4Zm-13.41,4.24c-4.83,.05-9.05-4.35-8.92-9.28,.13-4.76,4.29-8.94,8.91-8.97,4.59-.03,8.58,4.24,8.57,9.16-.01,5.08-3.74,9.03-8.57,9.09Z"/>
  </g>
  <g class="cls-24">
    <path class="cls-82" d="M271.14,183.04c.65-1.75,1.32-3.52,2.42-5.02,1.1-1.51,2.71-2.74,4.56-2.96,1.85-.23,3.9,.77,4.5,2.54,.27-3.98,.83-8.05,2.82-11.51,1.99-3.45,5.7-6.16,9.68-5.92,3.75,.23,6.96,3.01,8.74,6.32,1.78,3.31,2.4,7.1,2.98,10.81,1.42-1.74,4.42-1.2,5.91,.5,1.48,1.69,1.86,4.06,2.17,6.28h-44.72l.93-1.03Z"/>
  </g>
  <path class="cls-82" d="M445.08,299.97c.41-1.1,.83-2.21,1.52-3.15,.69-.94,1.7-1.72,2.86-1.86s2.45,.48,2.83,1.59c.17-2.49,.52-5.05,1.77-7.22,1.25-2.17,3.58-3.87,6.07-3.71,2.35,.14,4.37,1.89,5.49,3.97,1.12,2.07,1.5,4.45,1.87,6.78,.89-1.09,2.77-.75,3.71,.31,.93,1.06,1.17,2.55,1.36,3.94h-28.06l.59-.65Z"/>
  <g class="cls-24">
    <path class="cls-35" d="M246.12,302.12c.66-1.76,1.33-3.55,2.44-5.07,1.11-1.52,2.73-2.76,4.6-2.99s3.94,.78,4.54,2.56c.27-4.01,.84-8.13,2.84-11.61,2.01-3.48,5.75-6.22,9.77-5.97,3.78,.23,7.02,3.04,8.82,6.38,1.8,3.34,2.42,7.16,3.01,10.91,1.43-1.76,4.46-1.21,5.96,.5,1.5,1.71,1.88,4.09,2.19,6.34h-45.13l.94-1.04Z"/>
  </g>
  <path class="cls-82" d="M72.6,134.27c.41-1.1,.83-2.21,1.52-3.15,.69-.94,1.7-1.72,2.86-1.86,1.16-.14,2.45,.48,2.83,1.59,.17-2.49,.52-5.05,1.77-7.22,1.25-2.17,3.58-3.87,6.07-3.71,2.35,.14,4.37,1.89,5.49,3.97,1.12,2.07,1.5,4.45,1.87,6.78,.89-1.09,2.77-.75,3.71,.31,.93,1.06,1.17,2.55,1.36,3.94h-28.06l.59-.65Z"/>
  <g class="cls-24">
    <path class="cls-82" d="M91.49,208.91c.79-2.12,1.6-4.26,2.94-6.09,1.33-1.83,3.28-3.32,5.53-3.59,2.24-.27,4.73,.94,5.46,3.08,.32-4.82,1-9.76,3.42-13.95,2.41-4.19,6.91-7.47,11.74-7.18,4.55,.28,8.44,3.65,10.6,7.66,2.16,4.01,2.91,8.61,3.62,13.11,1.72-2.11,5.36-1.45,7.16,.6,1.8,2.05,2.25,4.92,2.64,7.62h-54.22l1.13-1.25Z"/>
  </g>
  <path class="cls-35" d="M376.48,141.92c.88-2.34,1.77-4.71,3.24-6.73,1.47-2.02,3.63-3.67,6.1-3.97,2.48-.3,5.22,1.03,6.03,3.4,.36-5.32,1.11-10.79,3.78-15.41,2.67-4.62,7.64-8.26,12.97-7.93,5.02,.31,9.32,4.04,11.71,8.47,2.39,4.43,3.21,9.51,3.99,14.48,1.9-2.34,5.92-1.6,7.91,.66,1.99,2.27,2.49,5.43,2.91,8.42h-59.9l1.25-1.39Z"/>
  <g>
    <g>
      <circle class="cls-64" cx="45.86" cy="39.98" r="37.69"/>
      <g class="cls-21">
        <circle class="cls-5" cx="45.86" cy="39.98" r="37.69"/>
      </g>
    </g>
    <g>
      <circle class="cls-64" cx="45.86" cy="39.98" r="33.61" transform="translate(-.92 78.89) rotate(-80.84)"/>
      <g class="cls-24">
        <circle class="cls-5" cx="45.86" cy="39.98" r="33.61" transform="translate(-.92 78.89) rotate(-80.84)"/>
      </g>
    </g>
    <g>
      <circle class="cls-64" cx="45.86" cy="39.98" r="27.97" transform="translate(2.24 82.4) rotate(-85.28)"/>
      <g class="cls-66">
        <circle class="cls-5" cx="45.86" cy="39.98" r="27.97" transform="translate(2.24 82.4) rotate(-85.28)"/>
      </g>
    </g>
    <circle class="cls-64" cx="45.86" cy="39.98" r="22.4" transform="translate(-.93 78.87) rotate(-80.82)"/>
  </g>
  <g>
    <g>
      <path class="cls-35" d="M343.02,415.68s9.55,44.36,9.09,111.55l-7.72,.31s3.35-79.49-4.01-111.44l2.64-.42Z"/>
      <path class="cls-82" d="M346.02,482.54s.96,.25,2.17,.14c1.21-.11,2.13-.48,2.11-.53-.02-.06-.95,.22-2.13,.32-1.18,.11-2.15,0-2.16,.07Z"/>
      <path class="cls-82" d="M346.57,474.11c0,.05,.81,.18,1.83,.14,1.02-.04,1.82-.23,1.81-.29-.01-.06-.82,.04-1.82,.08-1,.04-1.82,0-1.82,.07Z"/>
      <path class="cls-82" d="M345.49,464.23c-.01,.05,.73,.24,1.67,.22,.94-.01,1.68-.23,1.66-.28-.01-.06-.75,.06-1.67,.07-.92,.02-1.66-.08-1.67-.02Z"/>
      <path class="cls-82" d="M345.95,455.17c0,.05,.7,.15,1.57,.04,.87-.1,1.53-.36,1.51-.41-.02-.06-.69,.11-1.54,.21-.85,.1-1.54,.1-1.54,.16Z"/>
      <path class="cls-82" d="M345.09,445.66c0,.05,.48,.11,1.06,0,.58-.11,1.01-.34,.99-.39-.02-.05-.47,.08-1.03,.19-.56,.11-1.02,.15-1.02,.2Z"/>
      <path class="cls-82" d="M344.22,435.1c0,.06,.46,.11,1.03,.05,.57-.06,1.01-.2,1-.26-.01-.06-.46,0-1.02,.05-.55,.06-1.01,.09-1.01,.15Z"/>
      <path class="cls-82" d="M342.07,424.6c0,.05,.44,.03,.96-.11,.52-.15,.9-.35,.88-.4-.02-.06-.44,.06-.94,.2-.5,.13-.92,.25-.91,.31Z"/>
      <path class="cls-82" d="M347.36,491.8c0,.06,.72,.07,1.6,.04,.88-.04,1.59-.11,1.59-.17s-.72-.07-1.6-.04c-.88,.04-1.59,.11-1.59,.17Z"/>
      <path class="cls-82" d="M345.38,499.59c0,.06,.72,.07,1.6,.04,.88-.04,1.59-.11,1.59-.17,0-.06-.72-.07-1.6-.04-.88,.04-1.59,.11-1.59,.17Z"/>
    </g>
    <g>
      <path class="cls-82" d="M316.57,384.14c.11,.03,.23,.06,.37,.11,2.71,.91,10.68,5.41,10.68,5.41l.93-1.17,.36,3.76,4.46,5.63,1.25-4.47c.64,.79,.67,7.27,.67,7.27l1.69,5.41,2.29-5.91c1.38,3.27-.82,10.02-.82,10.02l2.86,6.22c1.76-3.51,3.64-14.69-3.23-24.16-6.87-9.47-21.53-8.13-21.53-8.13Z"/>
      <path class="cls-107" d="M317.16,384.39s.04,0,.12,.01c.09,0,.21,0,.35,.01,.31,.02,.77,0,1.35,.04,1.17,.07,2.87,.25,4.91,.76,2.03,.52,4.41,1.38,6.79,2.81,1.19,.72,2.37,1.58,3.5,2.58,1.11,1.02,2.17,2.18,3.1,3.48,1.82,2.64,2.97,5.52,3.57,8.23,.31,1.35,.51,2.66,.62,3.89,.13,1.23,.16,2.38,.18,3.43,0,2.1-.1,3.81-.19,4.98-.04,.59-.09,1.04-.11,1.35-.01,.15-.02,.26-.03,.35,0,.08,0,.12,0,.12,0,0,.01-.04,.02-.12,.01-.09,.03-.21,.05-.35,.03-.31,.1-.76,.15-1.35,.12-1.17,.25-2.88,.26-4.99,0-1.05-.03-2.21-.15-3.45-.1-1.24-.29-2.55-.6-3.92-.59-2.73-1.75-5.64-3.58-8.3-.94-1.31-2.01-2.48-3.14-3.51-1.14-1.01-2.34-1.87-3.54-2.59-2.41-1.43-4.81-2.28-6.85-2.78-2.05-.5-3.76-.65-4.94-.7-.59-.03-1.05,0-1.36,0-.15,0-.26,0-.35,0-.08,0-.12,0-.12,0Z"/>
      <path class="cls-82" d="M342.97,416.43l.25-.39s-7.23-13.47-19.63-14.08c-12.39-.61-18.87,6.7-20.34,8.21-1.47,1.5-5.25,6.92-5.25,6.92l8.12-2.62s5.25-7.09,8.21-7.64c0,0-7.24,8.11-8.19,13.58,0,0,5.5-2.68,6.59-2.73,0,0,2.63-5.23,6.13-6.72l-2.99,5.32,7.32-2.5,2.52-2.78,.52,2.15s6.57-2.01,16.75,3.27Z"/>
      <path class="cls-82" d="M342.96,416.38c-.09-.02-.19-.03-.31-.04-2.31-.19-9.65,.85-9.65,.85l-.35-1.36-1.41,3.15-5.05,3.3,.41-4.35c-.71,.46-2.69,6.1-2.69,6.1l-2.9,4.1,.06-5.99c-2.03,2.35-2.41,9.04-2.41,9.04l-4.09,5.12c-.27-3.7,1.76-14.86,9.78-20.63,8.01-5.77,18.62,.72,18.62,.72Z"/>
      <path class="cls-82" d="M342.92,416.34c1.19-2.6,6.19-8.07,6.19-8.07l-1.55-1.24,3.39,.06,5.97-3.89-2.87-1.92c.85-.55,6.06,.42,6.06,.42l4.99-1.55-3.77-1.95c3.4-1.03,8.01,.92,8.01,.92l7.21-1.9c-3.3-2.13-14.98-7.3-25.12-1.48-10.15,5.82-9.78,20.48-9.78,20.48"/>
      <path class="cls-82" d="M342.24,416.08c.09-.05,.56,.3,.68,.25,2.38-.96,8.74,0,8.74,0l-.07-1.49,2.5,2.71,6.41,1.64-1.83-4.26c.9,.22,4.81,5.25,4.81,5.25l4.9,4.18-1.99-6.02c1.24,1.41,4.96,7.3,4.96,7.3l5.99,3.79c-.91-3.82-5.82-16.74-16.17-19.89-10.35-3.15-18.94,6.54-18.94,6.54Z"/>
      <path class="cls-107" d="M315.99,405.67s.1-.04,.29-.1c.19-.07,.47-.16,.84-.24,.37-.08,.83-.14,1.37-.17,.54-.04,1.15-.02,1.83-.03,2.71,.01,6.49,.55,10.37,2.14,1.95,.78,3.71,1.78,5.24,2.79,.19,.13,.38,.25,.57,.37,.19,.13,.36,.26,.54,.39,.35,.26,.7,.51,1.02,.77,.63,.53,1.24,1,1.74,1.5,.26,.24,.5,.47,.74,.69,.22,.23,.43,.45,.63,.65,.39,.4,.73,.75,.98,1.06,.25,.29,.45,.52,.6,.69,.14,.16,.21,.24,.22,.23,0,0-.06-.09-.19-.26-.14-.18-.33-.42-.58-.72-.24-.32-.57-.68-.96-1.09-.19-.21-.4-.43-.62-.66-.23-.22-.47-.45-.73-.7-.5-.51-1.11-.99-1.73-1.53-.32-.26-.67-.51-1.02-.78-.18-.13-.35-.27-.54-.4-.19-.13-.38-.25-.57-.38-1.54-1.03-3.31-2.03-5.27-2.82-3.91-1.6-7.72-2.12-10.44-2.1-.68,.02-1.3,.01-1.84,.06-.54,.04-1,.12-1.38,.21-.37,.09-.65,.2-.84,.28-.09,.04-.16,.07-.21,.1-.05,.02-.07,.04-.07,.04Z"/>
      <path class="cls-107" d="M320.11,401.79s.1,0,.28,0c.18,0,.46-.03,.81-.03,.7-.02,1.72,.01,2.96,.18,2.48,.31,5.89,1.33,9.18,3.47,3.3,2.13,5.79,4.83,7.4,6.9,.81,1.04,1.42,1.92,1.83,2.54,.21,.31,.36,.55,.47,.71,.11,.16,.17,.25,.17,.24,0,0-.04-.09-.14-.26-.1-.17-.24-.42-.44-.73-.39-.63-.99-1.53-1.79-2.58-1.59-2.1-4.08-4.83-7.4-6.98-3.32-2.15-6.76-3.16-9.26-3.44-1.25-.15-2.27-.16-2.98-.12-.35,0-.62,.05-.81,.06-.18,.02-.28,.03-.28,.04Z"/>
      <path class="cls-107" d="M327.23,413.78s.23-.02,.63-.07c.4-.05,.99-.12,1.72-.18,.73-.05,1.59-.08,2.56-.06,.24,0,.49,0,.74,.01,.26,0,.5,.01,.76,.05,.52,.07,1.05,.19,1.6,.28,.55,.08,1.07,.22,1.57,.37,.5,.15,.98,.31,1.44,.46,.91,.31,1.73,.61,2.41,.87,.65,.26,1.19,.48,1.6,.64,.38,.15,.59,.24,.59,.22,0,0-.05-.04-.14-.09-.1-.05-.24-.12-.42-.21-.37-.18-.91-.42-1.58-.7-.68-.28-1.49-.6-2.4-.91-.46-.16-.94-.32-1.44-.48-.5-.16-1.04-.31-1.59-.38-.55-.09-1.08-.21-1.6-.28-.26-.04-.53-.05-.78-.05-.25,0-.5,0-.74,0-.97,0-1.84,.04-2.57,.1-.73,.07-1.31,.16-1.72,.24-.2,.04-.36,.07-.46,.09-.1,.02-.16,.04-.16,.05Z"/>
      <path class="cls-107" d="M342.32,413.67s.04-.08,.09-.24c.06-.18,.13-.41,.22-.7,.05-.15,.1-.32,.15-.51,.06-.18,.14-.38,.21-.59,.16-.42,.31-.91,.55-1.43,.11-.26,.23-.54,.35-.82,.12-.28,.28-.57,.42-.87,.28-.61,.64-1.22,1.01-1.88,.77-1.29,1.7-2.65,2.81-3.98,1.12-1.32,2.31-2.47,3.45-3.45,.58-.47,1.13-.93,1.68-1.31,.27-.19,.53-.39,.79-.56,.26-.17,.51-.33,.75-.48,.47-.32,.93-.56,1.32-.78,.2-.11,.38-.22,.55-.31,.17-.09,.33-.16,.47-.24,.27-.14,.48-.25,.65-.33,.15-.08,.22-.12,.22-.13,0,0-.09,.03-.24,.09-.17,.08-.4,.18-.67,.3-.15,.07-.31,.14-.48,.22-.17,.09-.36,.19-.56,.3-.4,.22-.86,.45-1.34,.76-.24,.15-.5,.31-.76,.47-.26,.17-.52,.36-.8,.55-.56,.37-1.11,.83-1.7,1.3-1.15,.98-2.35,2.13-3.48,3.46-1.12,1.34-2.05,2.72-2.82,4.02-.36,.66-.72,1.29-1,1.9-.14,.3-.29,.59-.41,.88-.12,.29-.23,.57-.34,.83-.23,.52-.37,1.02-.52,1.45-.07,.22-.14,.41-.2,.6-.05,.19-.09,.36-.14,.51-.07,.29-.13,.53-.18,.71-.04,.16-.06,.25-.05,.25Z"/>
      <path class="cls-107" d="M348.85,397.79s-.18,.16-.49,.47c-.15,.15-.34,.35-.54,.58-.2,.24-.44,.5-.67,.81-.49,.61-1.02,1.37-1.56,2.25-.53,.89-1.05,1.89-1.51,2.99-.45,1.1-.8,2.19-1.05,3.18-.24,1-.41,1.92-.5,2.69-.06,.39-.07,.74-.1,1.05-.03,.31-.04,.57-.04,.79,0,.44,0,.68,.01,.68,.01,0,.04-.24,.07-.67,.01-.22,.03-.48,.07-.79,.04-.31,.06-.66,.13-1.04,.1-.77,.28-1.67,.54-2.66,.27-.99,.61-2.06,1.06-3.15,.46-1.09,.97-2.09,1.49-2.97,.52-.88,1.04-1.64,1.51-2.26,.22-.32,.45-.58,.64-.82,.19-.24,.36-.44,.51-.61,.28-.33,.44-.51,.43-.52Z"/>
      <path class="cls-107" d="M368.09,417.04s-.06-.08-.18-.21c-.12-.13-.29-.33-.54-.56-.48-.48-1.22-1.12-2.22-1.81-.99-.69-2.26-1.4-3.76-1.97-1.5-.57-3.23-.99-5.08-1.12-1.85-.12-3.62,.07-5.18,.43-1.56,.37-2.91,.9-3.99,1.45-1.08,.55-1.9,1.09-2.44,1.5-.28,.2-.47,.37-.61,.48-.14,.11-.21,.18-.2,.18,0,0,.08-.05,.23-.15,.15-.1,.35-.27,.63-.45,.55-.39,1.38-.91,2.46-1.44,1.08-.53,2.42-1.04,3.97-1.4,1.55-.36,3.3-.53,5.13-.41,1.83,.13,3.54,.54,5.02,1.09,1.49,.56,2.75,1.24,3.75,1.91,1,.67,1.75,1.29,2.24,1.75,.25,.22,.43,.41,.57,.53,.13,.12,.2,.18,.21,.18Z"/>
    </g>
  </g>
  <g class="cls-24">
    <g>
      <path class="cls-35" d="M102.66,315.53s-14.94,85.96-8.88,215h14.85s-12.56-152.45-.87-214.4l-5.1-.59Z"/>
      <path class="cls-82" d="M102.05,444.2c.03,.09-1.83,.56-4.17,.43-2.34-.11-4.14-.76-4.1-.85,.03-.12,1.84,.35,4.12,.46,2.28,.13,4.13-.16,4.15-.04Z"/>
      <path class="cls-82" d="M100.33,428.05c.02,.1-1.55,.41-3.51,.41-1.96,0-3.52-.31-3.51-.41,.01-.11,1.58,.02,3.51,.01,1.93,0,3.49-.13,3.51-.01Z"/>
      <path class="cls-82" d="M101.65,408.98c.03,.1-1.39,.52-3.2,.55-1.81,.04-3.24-.31-3.22-.41,.02-.11,1.45,.06,3.21,.02,1.76-.03,3.18-.27,3.2-.16Z"/>
      <path class="cls-82" d="M100.06,391.61c.01,.1-1.34,.33-3.01,.2-1.67-.13-2.97-.57-2.94-.67,.03-.11,1.34,.15,2.97,.28,1.63,.13,2.97,.08,2.98,.2Z"/>
      <path class="cls-82" d="M100.99,373.29c0,.1-.91,.25-2.04,.08-1.13-.17-1.97-.57-1.93-.67,.04-.11,.9,.12,1.99,.28,1.08,.17,1.98,.2,1.98,.32Z"/>
      <path class="cls-82" d="M101.85,352.92c0,.11-.88,.25-1.97,.18-1.09-.06-1.95-.31-1.93-.41,.02-.11,.89-.04,1.96,.02,1.07,.07,1.94,.1,1.95,.21Z"/>
      <path class="cls-82" d="M105.17,332.6c-.02,.1-.85,.09-1.86-.13-1.01-.24-1.76-.6-1.73-.7,.03-.11,.84,.08,1.82,.31,.98,.22,1.79,.4,1.77,.52Z"/>
      <path class="cls-82" d="M100.18,462.09c0,.11-1.37,.2-3.06,.2s-3.06-.09-3.06-.2,1.37-.2,3.06-.2,3.06,.09,3.06,.2Z"/>
      <path class="cls-82" d="M104.59,476.92c0,.11-1.37,.2-3.06,.2s-3.06-.09-3.06-.2,1.37-.2,3.06-.2,3.06,.09,3.06,.2Z"/>
    </g>
    <g>
      <path class="cls-82" d="M169.79,258.26c-.25,.02-.54,.06-.86,.11-6.36,1.03-25.74,8.18-25.74,8.18l-1.66-2.95-2.17,8.25-11.98,10.93-1.17-10.41c-1.7,1.52-4.12,15.94-4.12,15.94l-5.73,11.43-2.96-13.99c-4.27,6.78-1.81,22.6-1.81,22.6l-8.63,12.82c-2.65-8.46-2.78-34.02,15.94-52.61,18.73-18.6,50.88-10.29,50.88-10.29Z"/>
      <path class="cls-107" d="M168.38,258.6s-.09,0-.27-.02c-.2-.03-.46-.06-.79-.1-.7-.08-1.71-.28-3.03-.4-2.64-.27-6.49-.49-11.21-.09-4.71,.42-10.31,1.47-16.13,3.78-2.9,1.17-5.84,2.65-8.72,4.47-2.84,1.87-5.62,4.06-8.17,6.61-5,5.21-8.62,11.21-10.92,17.03-1.19,2.9-2.1,5.74-2.79,8.44-.73,2.69-1.21,5.25-1.64,7.58-.78,4.68-1.15,8.51-1.37,11.15-.13,1.32-.18,2.35-.24,3.05-.03,.33-.05,.59-.07,.79-.02,.18-.03,.27-.04,.27,0,0-.01-.09,0-.27,0-.21,.01-.47,.02-.8,.03-.7,.06-1.73,.16-3.06,.16-2.65,.49-6.49,1.23-11.19,.4-2.34,.87-4.91,1.59-7.62,.68-2.72,1.58-5.58,2.77-8.5,2.3-5.86,5.94-11.92,10.99-17.19,2.58-2.58,5.38-4.79,8.25-6.67,2.91-1.82,5.88-3.31,8.81-4.48,5.88-2.31,11.53-3.34,16.27-3.71,4.75-.36,8.62-.09,11.26,.24,1.32,.15,2.33,.38,3.03,.48,.32,.06,.58,.11,.78,.15,.18,.04,.26,.06,.26,.07Z"/>
      <path class="cls-82" d="M99.32,320.58l-.41-.95s20.99-27.37,48.81-24.23c27.82,3.14,39.58,21.76,42.3,25.64,2.72,3.88,9.19,17.32,9.19,17.32l-17.12-8.77s-9.11-17.69-15.51-19.97c0,0,13.19,20.67,13.31,33.21,0,0-11.26-7.97-13.67-8.46,0,0-3.95-12.61-11.22-17.18l4.73,12.92-15.39-8.23-4.59-7.11-1.93,4.61s-13.9-6.86-38.48,1.21Z"/>
      <path class="cls-82" d="M99.34,320.47c.2,0,.44,0,.7,.03,5.21,.41,21.19,5.39,21.19,5.39l1.27-2.9,1.99,7.52,10.05,9.17,.68-9.84c1.43,1.27,3.78,14.55,3.78,14.55l4.97,10.19,2.04-13.35c3.66,5.97,2.08,20.99,2.08,20.99l7.26,12.87c1.94-8.15,1.47-33.71-14.29-49.47-15.75-15.75-41.72-5.16-41.72-5.16Z"/>
      <path class="cls-82" d="M99.44,320.39c-1.71-6.21-10.87-20.22-10.87-20.22l3.89-2.2-7.57-1.1-11.87-10.81,7.08-3.23c-1.69-1.53-13.65-1.25-13.65-1.25l-10.55-5.26,9.09-2.96c-7.2-3.52-18.17-.86-18.17-.86l-15.37-6.84c8.13-3.54,35.99-10.83,56.47,5.81,20.49,16.64,14.35,49.14,14.35,49.14"/>
      <path class="cls-82" d="M101.06,320.08c-.18-.13-1.37,.47-1.61,.32-4.96-3.01-19.46-3.19-19.46-3.19l.69-3.29-6.55,5.12-14.87,1.32,5.62-8.81c-2.09,.17-12.62,9.94-12.62,9.94l-12.42,7.54,6.61-12.67c-3.28,2.7-13.69,14.45-13.69,14.45l-14.7,6.27c3.41-8.18,19.03-35.17,43.22-38.42,24.19-3.25,39.8,21.42,39.8,21.42Z"/>
      <path class="cls-107" d="M163.27,306.42s-.21-.12-.61-.34c-.4-.22-.99-.53-1.79-.84-.8-.31-1.8-.61-2.99-.88-1.18-.28-2.56-.46-4.07-.74-6.04-.96-14.64-1.12-23.87,1.01-4.62,1.04-8.9,2.61-12.68,4.32-.47,.21-.94,.42-1.4,.63-.46,.22-.9,.46-1.34,.68-.87,.46-1.74,.88-2.55,1.34-1.6,.96-3.12,1.79-4.42,2.71-.66,.44-1.29,.86-1.89,1.26-.57,.43-1.12,.84-1.63,1.22-1.02,.76-1.89,1.42-2.57,2.01-.67,.56-1.2,1-1.59,1.32-.37,.3-.56,.45-.57,.44,0-.01,.17-.19,.52-.51,.38-.34,.9-.81,1.55-1.39,.66-.62,1.52-1.3,2.53-2.08,.5-.39,1.04-.82,1.62-1.25,.59-.41,1.22-.84,1.88-1.29,1.3-.95,2.82-1.79,4.42-2.77,.81-.47,1.67-.89,2.55-1.36,.44-.23,.88-.47,1.34-.69,.46-.21,.93-.42,1.41-.64,3.79-1.74,8.1-3.33,12.75-4.38,9.29-2.15,17.95-1.93,24-.89,1.51,.29,2.89,.49,4.07,.8,1.19,.29,2.19,.62,2.99,.96,.8,.33,1.39,.67,1.77,.92,.19,.12,.34,.23,.43,.3,.09,.07,.14,.11,.14,.12Z"/>
      <path class="cls-107" d="M155.51,296.28s-.22-.02-.63-.1c-.41-.07-1-.23-1.79-.35-1.55-.29-3.83-.59-6.65-.68-5.64-.21-13.59,.83-21.69,4.39-8.11,3.55-14.63,8.64-18.97,12.67-2.18,2.02-3.86,3.76-5,4.99-.58,.6-1,1.1-1.31,1.42-.3,.32-.46,.49-.47,.48-.01-.01,.13-.19,.41-.54,.29-.34,.69-.85,1.25-1.47,1.1-1.27,2.76-3.04,4.93-5.1,4.31-4.1,10.85-9.27,19.01-12.85,8.16-3.58,16.19-4.59,21.85-4.29,2.84,.13,5.12,.48,6.67,.82,.78,.15,1.37,.33,1.77,.43,.4,.11,.61,.17,.61,.19Z"/>
      <path class="cls-107" d="M135.32,320.39s-.5-.12-1.38-.38c-.88-.26-2.16-.63-3.76-1.01-1.6-.38-3.52-.75-5.67-1.07-.54-.08-1.09-.16-1.65-.24-.57-.08-1.12-.16-1.71-.16-1.17-.02-2.4,.03-3.66,.05-1.25-.03-2.45,.1-3.63,.26-1.17,.16-2.3,.33-3.37,.51-2.14,.35-4.07,.73-5.67,1.07-1.55,.35-2.83,.63-3.8,.85-.9,.21-1.39,.32-1.4,.29,0-.01,.12-.06,.35-.14,.23-.08,.57-.18,1.01-.31,.88-.26,2.17-.61,3.78-.99,1.6-.38,3.53-.79,5.67-1.17,1.07-.19,2.2-.37,3.38-.54,1.17-.17,2.42-.3,3.68-.27,1.25-.01,2.48-.07,3.67-.04,.6,0,1.2,.09,1.76,.17,.56,.09,1.12,.17,1.66,.25,2.15,.34,4.08,.75,5.68,1.16,1.6,.42,2.87,.84,3.74,1.15,.44,.15,.77,.29,.99,.38,.22,.09,.34,.15,.34,.16Z"/>
      <path class="cls-107" d="M101.76,314.67s-.05-.19-.11-.57c-.06-.42-.14-.97-.23-1.64-.05-.36-.1-.76-.16-1.18-.07-.43-.17-.9-.26-1.4-.2-1-.37-2.15-.7-3.39-.15-.62-.31-1.28-.48-1.95-.17-.68-.41-1.37-.62-2.09-.4-1.45-.98-2.96-1.56-4.55-1.25-3.15-2.83-6.52-4.82-9.89-2.02-3.35-4.24-6.34-6.42-8.94-1.13-1.26-2.18-2.49-3.27-3.53-.54-.53-1.03-1.06-1.55-1.53-.52-.47-1.02-.92-1.49-1.35-.93-.88-1.86-1.57-2.65-2.22-.4-.32-.76-.62-1.11-.89-.35-.25-.67-.49-.97-.7-.55-.4-.99-.73-1.33-.98-.3-.23-.46-.36-.45-.37s.18,.09,.5,.29c.36,.23,.82,.54,1.38,.91,.3,.2,.64,.43,.99,.67,.36,.25,.73,.55,1.14,.86,.8,.63,1.76,1.31,2.71,2.18,.49,.43,.99,.87,1.52,1.33,.53,.47,1.03,1,1.58,1.52,1.11,1.04,2.17,2.26,3.32,3.52,2.21,2.59,4.46,5.61,6.5,8.98,2,3.39,3.59,6.8,4.82,9.97,.57,1.61,1.14,3.12,1.53,4.59,.2,.73,.43,1.43,.59,2.11,.16,.68,.31,1.34,.45,1.97,.32,1.25,.46,2.41,.64,3.42,.08,.51,.17,.97,.22,1.41,.04,.43,.08,.83,.12,1.19,.06,.68,.11,1.22,.15,1.65,.03,.38,.04,.58,.02,.58Z"/>
      <path class="cls-107" d="M92.98,276.96s.35,.42,.91,1.22c.29,.4,.62,.9,.98,1.5,.36,.6,.8,1.26,1.2,2.04,.87,1.53,1.77,3.42,2.65,5.58,.85,2.16,1.65,4.6,2.28,7.21,.61,2.62,.98,5.15,1.19,7.47,.18,2.32,.22,4.42,.13,6.17-.01,.88-.1,1.67-.16,2.37-.05,.7-.13,1.29-.21,1.78-.14,.97-.24,1.51-.27,1.5-.03,0,0-.55,.09-1.52,.05-.49,.1-1.08,.13-1.78,.03-.69,.1-1.48,.09-2.36,.05-1.75-.03-3.83-.23-6.13-.23-2.3-.61-4.81-1.21-7.4-.62-2.59-1.41-5-2.23-7.16-.85-2.15-1.72-4.04-2.54-5.58-.38-.79-.8-1.46-1.14-2.07-.33-.61-.65-1.12-.91-1.53-.51-.83-.79-1.3-.76-1.32Z"/>
      <path class="cls-107" d="M43.15,312.82s.15-.15,.47-.4c.32-.24,.77-.63,1.41-1.05,1.24-.89,3.12-2.06,5.59-3.23,2.46-1.18,5.55-2.29,9.09-3.02,3.54-.73,7.55-1.03,11.71-.66,4.16,.41,8.04,1.46,11.38,2.85,3.34,1.38,6.16,3.06,8.36,4.68,2.2,1.62,3.83,3.12,4.88,4.22,.54,.53,.91,1,1.18,1.3,.26,.3,.39,.47,.38,.48-.01,.01-.17-.13-.45-.41-.29-.27-.68-.72-1.24-1.23-1.09-1.06-2.74-2.52-4.95-4.09-2.21-1.57-5.01-3.2-8.33-4.55-3.31-1.35-7.15-2.37-11.26-2.78-4.11-.37-8.07-.09-11.58,.61-3.51,.7-6.58,1.77-9.04,2.9-2.47,1.13-4.36,2.25-5.63,3.08-.65,.4-1.11,.76-1.45,.98-.33,.22-.51,.34-.52,.32Z"/>
    </g>
  </g>
  <g>
    <g>
      <path class="cls-35" d="M521.5,424.89s9.55,44.36,9.09,111.55l-7.72,.31s3.35-79.49-4.01-111.44l2.64-.41Z"/>
      <path class="cls-82" d="M524.49,491.74s.96,.25,2.17,.14c1.21-.11,2.13-.48,2.11-.53-.02-.06-.95,.22-2.13,.32-1.18,.11-2.15,0-2.16,.07Z"/>
      <path class="cls-82" d="M525.05,483.31c0,.05,.81,.18,1.83,.14,1.02-.04,1.82-.23,1.81-.29-.01-.06-.82,.04-1.82,.08-1,.04-1.82,0-1.82,.07Z"/>
      <path class="cls-82" d="M523.97,473.43c-.01,.05,.73,.24,1.67,.22,.94-.01,1.68-.23,1.66-.28-.01-.06-.75,.06-1.67,.07-.92,.02-1.66-.08-1.67-.02Z"/>
      <path class="cls-82" d="M524.43,464.37c0,.05,.7,.15,1.57,.04,.87-.1,1.53-.36,1.51-.41-.02-.06-.69,.11-1.54,.21-.85,.1-1.54,.1-1.54,.16Z"/>
      <path class="cls-82" d="M523.57,454.87c0,.05,.48,.11,1.06,0,.58-.11,1.01-.34,.99-.39-.02-.05-.47,.08-1.03,.19-.56,.11-1.02,.15-1.02,.2Z"/>
      <path class="cls-82" d="M522.7,444.3c0,.06,.46,.11,1.03,.05,.57-.06,1.01-.2,1-.26-.01-.06-.46,0-1.02,.05-.55,.06-1.01,.09-1.01,.15Z"/>
      <path class="cls-82" d="M520.55,433.81c0,.05,.44,.03,.96-.11,.52-.15,.9-.35,.88-.4-.02-.06-.44,.06-.94,.2-.5,.13-.92,.25-.91,.31Z"/>
      <path class="cls-82" d="M525.84,501c0,.06,.72,.07,1.6,.04,.88-.04,1.59-.11,1.59-.17,0-.06-.72-.07-1.6-.04-.88,.04-1.59,.11-1.59,.17Z"/>
      <path class="cls-82" d="M523.85,508.8c0,.06,.72,.07,1.6,.04,.88-.04,1.59-.11,1.59-.17s-.72-.07-1.6-.04c-.88,.04-1.59,.11-1.59,.17Z"/>
    </g>
    <g>
      <path class="cls-82" d="M495.05,393.34c.11,.03,.23,.06,.37,.11,2.71,.91,10.68,5.41,10.68,5.41l.93-1.17,.36,3.76,4.46,5.63,1.25-4.47c.64,.79,.67,7.27,.67,7.27l1.69,5.41,2.29-5.91c1.39,3.27-.82,10.02-.82,10.02l2.86,6.22c1.76-3.51,3.64-14.69-3.23-24.16-6.87-9.47-21.53-8.13-21.53-8.13Z"/>
      <path class="cls-107" d="M495.64,393.59s.04,0,.12,.01c.09,0,.21,0,.35,.01,.31,.02,.77,0,1.35,.04,1.17,.07,2.87,.25,4.91,.76,2.03,.52,4.41,1.38,6.79,2.81,1.19,.72,2.37,1.58,3.5,2.58,1.11,1.02,2.17,2.18,3.1,3.48,1.82,2.64,2.97,5.52,3.57,8.23,.31,1.35,.51,2.66,.62,3.89,.13,1.23,.16,2.38,.18,3.43,0,2.1-.1,3.81-.19,4.98-.04,.59-.09,1.04-.11,1.35-.01,.15-.02,.26-.03,.35,0,.08,0,.12,0,.12,0,0,.01-.04,.02-.12,.01-.09,.03-.21,.05-.35,.04-.31,.1-.76,.15-1.35,.12-1.17,.25-2.88,.26-4.99,0-1.05-.03-2.21-.15-3.45-.1-1.24-.29-2.55-.6-3.92-.59-2.73-1.75-5.64-3.58-8.3-.94-1.31-2.01-2.48-3.14-3.51-1.14-1.01-2.34-1.87-3.54-2.59-2.41-1.43-4.81-2.28-6.85-2.78-2.05-.5-3.76-.65-4.94-.7-.59-.03-1.05,0-1.36,0-.15,0-.26,0-.35,0-.08,0-.12,0-.12,0Z"/>
      <path class="cls-82" d="M521.44,425.63l.25-.39s-7.23-13.47-19.63-14.08c-12.39-.61-18.87,6.7-20.34,8.21-1.47,1.5-5.25,6.92-5.25,6.92l8.12-2.62s5.25-7.09,8.21-7.64c0,0-7.24,8.11-8.19,13.58,0,0,5.5-2.68,6.59-2.73,0,0,2.63-5.23,6.13-6.72l-2.99,5.32,7.32-2.5,2.52-2.78,.52,2.15s6.57-2.01,16.75,3.27Z"/>
      <path class="cls-82" d="M521.44,425.58c-.09-.02-.19-.03-.31-.04-2.31-.19-9.65,.85-9.65,.85l-.35-1.36-1.41,3.15-5.05,3.3,.41-4.35c-.71,.46-2.69,6.1-2.69,6.1l-2.9,4.1,.06-5.99c-2.03,2.35-2.41,9.04-2.41,9.04l-4.09,5.12c-.27-3.7,1.76-14.86,9.78-20.63,8.01-5.77,18.62,.72,18.62,.72Z"/>
      <path class="cls-82" d="M521.4,425.54c1.19-2.6,6.19-8.07,6.19-8.07l-1.55-1.24,3.39,.06,5.97-3.89-2.87-1.92c.85-.55,6.06,.42,6.06,.42l4.99-1.55-3.77-1.95c3.4-1.03,8.01,.92,8.01,.92l7.21-1.9c-3.3-2.13-14.98-7.3-25.12-1.48-10.15,5.82-9.78,20.48-9.78,20.48"/>
      <path class="cls-82" d="M520.72,425.29c.09-.05,.56,.3,.68,.25,2.38-.96,8.74,0,8.74,0l-.07-1.49,2.5,2.71,6.41,1.64-1.83-4.26c.9,.22,4.81,5.25,4.81,5.25l4.9,4.18-1.99-6.02c1.24,1.41,4.96,7.3,4.96,7.3l5.99,3.79c-.91-3.82-5.82-16.74-16.17-19.89s-18.94,6.54-18.94,6.54Z"/>
      <path class="cls-107" d="M494.47,414.88s.1-.04,.29-.1c.19-.07,.47-.16,.84-.24,.37-.08,.83-.14,1.37-.17,.54-.04,1.15-.02,1.83-.03,2.71,.01,6.49,.55,10.37,2.14,1.95,.78,3.71,1.78,5.24,2.79,.19,.13,.38,.25,.57,.37,.19,.13,.36,.26,.54,.39,.35,.26,.7,.51,1.02,.77,.63,.53,1.24,1,1.74,1.5,.26,.24,.5,.47,.74,.69,.22,.23,.43,.45,.63,.65,.39,.4,.73,.75,.98,1.06,.25,.29,.45,.52,.6,.69,.14,.16,.21,.24,.22,.23,0,0-.06-.09-.19-.26-.14-.18-.33-.42-.58-.72-.24-.32-.57-.68-.96-1.09-.19-.21-.4-.43-.62-.66-.23-.22-.47-.45-.73-.7-.5-.51-1.11-.99-1.73-1.53-.32-.26-.67-.51-1.02-.78-.18-.13-.35-.27-.54-.4-.19-.13-.38-.25-.57-.38-1.54-1.03-3.31-2.03-5.26-2.82-3.91-1.6-7.72-2.12-10.44-2.1-.68,.02-1.3,.01-1.84,.06-.54,.04-1,.12-1.38,.21-.37,.09-.65,.2-.84,.28-.09,.04-.16,.07-.21,.1-.05,.02-.07,.04-.07,.04Z"/>
      <path class="cls-107" d="M498.59,411s.1,0,.28,0c.18,0,.46-.03,.81-.03,.7-.02,1.72,.01,2.96,.18,2.48,.31,5.89,1.33,9.18,3.47,3.3,2.13,5.79,4.82,7.4,6.9,.81,1.04,1.42,1.92,1.83,2.54,.21,.31,.36,.55,.47,.71,.11,.16,.17,.25,.17,.24,0,0-.04-.09-.14-.26-.1-.17-.24-.42-.44-.73-.39-.63-.99-1.53-1.79-2.58-1.59-2.1-4.08-4.83-7.4-6.98-3.32-2.15-6.76-3.16-9.26-3.44-1.25-.15-2.27-.16-2.98-.12-.35,0-.62,.05-.81,.06-.18,.02-.28,.03-.28,.04Z"/>
      <path class="cls-107" d="M505.7,422.98s.23-.02,.63-.07c.4-.05,.99-.12,1.72-.18,.73-.05,1.59-.08,2.56-.06,.24,0,.49,0,.74,.01,.26,0,.5,.01,.76,.05,.52,.07,1.05,.19,1.6,.28,.55,.08,1.07,.22,1.57,.37,.5,.15,.98,.31,1.44,.46,.91,.31,1.73,.61,2.41,.87,.65,.26,1.19,.48,1.6,.64,.38,.15,.59,.24,.59,.23,0,0-.05-.04-.14-.09-.1-.05-.24-.12-.42-.21-.37-.18-.91-.42-1.58-.7-.68-.28-1.49-.6-2.4-.91-.46-.16-.94-.32-1.44-.48-.5-.16-1.04-.31-1.59-.38-.55-.09-1.08-.21-1.6-.28-.26-.04-.53-.05-.78-.05-.25,0-.5,0-.74,0-.97,0-1.84,.04-2.57,.1-.73,.07-1.31,.16-1.72,.24-.2,.04-.36,.07-.46,.09-.1,.02-.16,.04-.16,.05Z"/>
      <path class="cls-107" d="M520.8,422.87s.04-.08,.09-.24c.06-.18,.13-.41,.22-.7,.05-.15,.1-.32,.15-.51,.06-.18,.14-.38,.21-.59,.16-.42,.31-.91,.55-1.43,.11-.26,.23-.54,.35-.82,.12-.28,.27-.57,.42-.87,.28-.61,.64-1.22,1.01-1.88,.77-1.29,1.7-2.65,2.81-3.98,1.12-1.32,2.31-2.47,3.45-3.45,.58-.47,1.13-.93,1.68-1.31,.27-.19,.53-.39,.79-.56,.26-.17,.51-.33,.75-.48,.47-.32,.93-.56,1.32-.78,.2-.11,.38-.22,.55-.31,.17-.09,.33-.16,.47-.24,.27-.14,.48-.25,.65-.33,.15-.08,.22-.12,.22-.13,0,0-.09,.03-.24,.09-.17,.08-.4,.18-.67,.3-.15,.07-.31,.14-.48,.22-.17,.09-.36,.19-.56,.3-.4,.22-.86,.45-1.34,.76-.24,.15-.5,.31-.76,.47-.26,.17-.52,.36-.8,.55-.56,.37-1.11,.83-1.7,1.3-1.15,.98-2.35,2.13-3.48,3.46-1.12,1.34-2.05,2.72-2.82,4.02-.36,.66-.72,1.29-1,1.9-.14,.3-.29,.59-.41,.88-.12,.29-.23,.57-.34,.83-.23,.52-.37,1.02-.52,1.45-.07,.22-.14,.41-.2,.6-.05,.19-.09,.36-.14,.51-.07,.29-.13,.53-.18,.71-.04,.16-.06,.25-.05,.25Z"/>
      <path class="cls-107" d="M527.33,407s-.18,.16-.49,.47c-.15,.15-.34,.35-.54,.58-.2,.24-.44,.5-.67,.81-.49,.61-1.02,1.37-1.56,2.25-.53,.89-1.05,1.89-1.51,2.99-.45,1.1-.8,2.19-1.05,3.18-.24,1-.41,1.92-.5,2.69-.06,.39-.07,.74-.1,1.05-.03,.31-.04,.57-.04,.79,0,.44,0,.68,.01,.68,.01,0,.04-.24,.07-.67,.01-.22,.03-.48,.07-.79,.04-.31,.06-.66,.13-1.04,.1-.77,.28-1.67,.54-2.66,.27-.99,.61-2.06,1.06-3.15,.46-1.09,.97-2.09,1.49-2.97,.52-.88,1.04-1.64,1.51-2.26,.22-.32,.45-.58,.64-.82,.19-.24,.36-.44,.51-.61,.28-.33,.44-.51,.43-.52Z"/>
      <path class="cls-107" d="M546.57,426.24s-.06-.08-.18-.21c-.12-.13-.29-.33-.54-.56-.48-.48-1.22-1.12-2.22-1.81-.99-.69-2.26-1.4-3.76-1.97-1.5-.57-3.23-.99-5.08-1.12-1.85-.12-3.62,.07-5.18,.43-1.56,.37-2.91,.9-3.99,1.45-1.08,.55-1.9,1.09-2.44,1.5-.28,.2-.47,.37-.61,.48-.14,.11-.21,.18-.2,.18,0,0,.08-.05,.23-.15,.15-.1,.35-.27,.63-.45,.55-.39,1.38-.91,2.46-1.44,1.08-.53,2.42-1.04,3.97-1.4,1.55-.36,3.3-.53,5.13-.41,1.83,.13,3.54,.54,5.02,1.09,1.49,.56,2.75,1.24,3.75,1.91,1,.67,1.75,1.29,2.24,1.75,.25,.22,.43,.41,.57,.53,.13,.12,.2,.18,.21,.18Z"/>
    </g>
  </g>
  <g>
    <path class="cls-82" d="M406.58,523.12c-36.75,4.23-51.37,8.5-55.4,7.42-4.04-1.08-129.17-45.26-183.66-33.78-54.49,11.48-117.06,40.09-117.06,40.09H489.95s-46.62-17.96-83.37-13.73Z"/>
    <path class="cls-107" d="M492.26,537.03c0,.16-100.53,.28-224.51,.28s-224.53-.13-224.53-.28,100.51-.28,224.53-.28,224.51,.13,224.51,.28Z"/>
  </g>
  <path class="cls-19" d="M161.45,52.91h352.43c17.56,0,31.81,14.25,31.81,31.81H161.45v-31.81h0Z"/>
  <rect class="cls-19" x="337.41" y="91.77" width="84.76" height="13.19" rx="6.59" ry="6.59"/>
  <rect class="cls-19" x="337.41" y="209.89" width="98.27" height="13.19" rx="6.59" ry="6.59"/>
  <rect class="cls-106" x="19.67" y="531.9" width="553.98" height="299.15" rx="14.44" ry="14.44"/>
  <rect class="cls-5" x="34.93" y="541.32" width="513.7" height="26.5" rx="13.25" ry="13.25"/>
  <text class="cls-10" transform="translate(51.27 558.67)"><tspan x="0" y="0">Правила п</tspan><tspan class="cls-97" x="94.77" y="0">о</tspan><tspan x="105.81" y="0">л</tspan><tspan class="cls-46" x="116.19" y="0">ь</tspan><tspan x="125.4" y="0">зования </tspan><tspan class="cls-96" x="203.3" y="0">с</tspan><tspan class="cls-41" x="213.26" y="0">о</tspan><tspan x="224.29" y="0">лн</tspan><tspan class="cls-53" x="245.59" y="0">ц</tspan><tspan class="cls-48" x="256.71" y="0">е</tspan><tspan x="267.54" y="0">защитными кремами:</tspan></text>
  <text class="cls-4" transform="translate(50.46 583.82)"><tspan x="0" y="0">1.Любое </tspan><tspan class="cls-67" x="49.61" y="0">к</tspan><tspan x="55.48" y="0">осм</tspan><tspan class="cls-33" x="76.69" y="0">е</tspan><tspan x="83.42" y="0">тич</tspan><tspan class="cls-38" x="102.37" y="0">е</tspan><tspan x="109.29" y="0">с</tspan><tspan class="cls-67" x="115.73" y="0">к</tspan><tspan x="121.59" y="0">ое ср</tspan><tspan class="cls-33" x="152.64" y="0">ед</tspan><tspan class="cls-71" x="166.31" y="0">с</tspan><tspan x="172.66" y="0">тв</tspan><tspan class="cls-92" x="184.34" y="0">о</tspan><tspan x="190.99" y="0">, </tspan><tspan class="cls-78" x="197.33" y="0">к</tspan><tspan class="cls-104" x="203.2" y="0">от</tspan><tspan x="215.4" y="0">орые исп</tspan><tspan class="cls-60" x="268.85" y="0">о</tspan><tspan x="275.82" y="0">л</tspan><tspan class="cls-103" x="282.37" y="0">ь</tspan><tspan class="cls-33" x="288.19" y="0">зует</tspan><tspan class="cls-103" x="311.46" y="0">с</tspan><tspan x="317.76" y="0">я р</tspan><tspan class="cls-38" x="334.5" y="0">е</tspan><tspan x="341.42" y="0">бен</tspan><tspan class="cls-55" x="362.1" y="0">к</tspan><tspan x="368.34" y="0">у впервые наноси</tspan><tspan class="cls-33" x="471.63" y="0">т</tspan><tspan class="cls-103" x="476.95" y="0">с</tspan><tspan x="483.25" y="0">я </tspan><tspan x="0" y="14.4">маленьким о</tspan><tspan class="cls-33" x="72.53" y="14.4">б</tspan><tspan class="cls-55" x="79.09" y="14.4">ъ</tspan><tspan x="85.92" y="14.4">ём в о</tspan><tspan class="cls-60" x="119.81" y="14.4">б</tspan><tspan x="126.45" y="14.4">ла</tspan><tspan class="cls-71" x="140.52" y="14.4">с</tspan><tspan x="146.86" y="14.4">ти лок</tspan><tspan class="cls-33" x="182.3" y="14.4">т</tspan><tspan x="187.62" y="14.4">евой ямки , для о</tspan><tspan class="cls-33" x="284.25" y="14.4">ц</tspan><tspan x="291.27" y="14.4">енки в</tspan><tspan class="cls-33" x="327.48" y="14.4">о</tspan><tspan class="cls-102" x="334.36" y="14.4">зм</tspan><tspan class="cls-92" x="347.42" y="14.4">о</tspan><tspan x="354.07" y="14.4">жной аллергич</tspan><tspan class="cls-47" x="440.37" y="14.4">е</tspan><tspan x="447.29" y="14.4">с</tspan><tspan class="cls-78" x="453.73" y="14.4">к</tspan><tspan x="459.59" y="14.4">ой </tspan><tspan x="0" y="28.8">р</tspan><tspan class="cls-38" x="7.51" y="28.8">е</tspan><tspan x="14.44" y="28.8">акции.</tspan><tspan x="0" y="43.2">2. О</tspan><tspan class="cls-33" x="22.09" y="43.2">б</tspan><tspan x="28.66" y="43.2">яза</tspan><tspan class="cls-104" x="47.8" y="43.2">те</tspan><tspan x="59.84" y="43.2">льно обра</tspan><tspan class="cls-33" x="118.33" y="43.2">щ</tspan><tspan x="128.27" y="43.2">ай</tspan><tspan class="cls-33" x="142.68" y="43.2">т</tspan><tspan x="147.99" y="43.2">е внимание на в</tspan><tspan class="cls-33" x="240.38" y="43.2">о</tspan><tspan class="cls-102" x="247.27" y="43.2">зра</tspan><tspan class="cls-22" x="267.69" y="43.2">с</tspan><tspan x="274.04" y="43.2">т разрешенный к применению </tspan><tspan x="0" y="57.6">у</tspan><tspan class="cls-67" x="6.3" y="57.6">к</tspan><tspan x="12.17" y="57.6">азанный на упа</tspan><tspan class="cls-78" x="103.02" y="57.6">к</tspan><tspan x="108.89" y="57.6">ов</tspan><tspan class="cls-67" x="122.15" y="57.6">к</tspan><tspan class="cls-92" x="128.01" y="57.6">е</tspan><tspan x="134.51" y="57.6">.</tspan><tspan class="cls-33" x="0" y="72">3</tspan><tspan x="6.3" y="72">. У </tspan><tspan class="cls-104" x="22.72" y="72">дет</tspan><tspan x="41.7" y="72">ей б</tspan><tspan class="cls-60" x="65.38" y="72">о</tspan><tspan x="72.35" y="72">л</tspan><tspan class="cls-38" x="78.9" y="72">е</tspan><tspan x="85.82" y="72">е б</tspan><tspan class="cls-103" x="102.6" y="72">е</tspan><tspan x="109.44" y="72">зопасными к исп</tspan><tspan class="cls-100" x="205.4" y="72">о</tspan><tspan x="212.37" y="72">л</tspan><tspan class="cls-12" x="218.93" y="72">ь</tspan><tspan class="cls-102" x="224.75" y="72">зованию я</tspan><tspan class="cls-105" x="283.68" y="72">в</tspan><tspan x="289.75" y="72">ля</tspan><tspan class="cls-33" x="302.53" y="72">ют</tspan><tspan class="cls-103" x="317.34" y="72">с</tspan><tspan x="323.64" y="72">я </tspan><tspan class="cls-80" x="332.87" y="72">с</tspan><tspan class="cls-60" x="339.15" y="72">о</tspan><tspan x="346.13" y="72">лн</tspan><tspan class="cls-33" x="359.58" y="72">ц</tspan><tspan class="cls-103" x="366.6" y="72">е</tspan><tspan x="373.44" y="72">защитные кремы на </tspan><tspan x="0" y="86.4">основе физич</tspan><tspan class="cls-38" x="77.6" y="86.4">е</tspan><tspan x="84.53" y="86.4">ских фил</tspan><tspan class="cls-36" x="135.13" y="86.4">ь</tspan><tspan x="140.44" y="86.4">тро</tspan><tspan class="cls-103" x="160.64" y="86.4">в</tspan><tspan x="166.64" y="86.4">.</tspan><tspan x="0" y="100.8">4. Наносить их н</tspan><tspan class="cls-38" x="93.63" y="100.8">е</tspan><tspan x="100.56" y="100.8">о</tspan><tspan class="cls-69" x="107.69" y="100.8">бх</tspan><tspan class="cls-33" x="119.95" y="100.8">о</tspan><tspan x="126.84" y="100.8">димо обильно на в</tspan><tspan class="cls-83" x="232.6" y="100.8">с</tspan><tspan x="238.89" y="100.8">е </tspan><tspan class="cls-33" x="248.86" y="100.8">о</tspan><tspan x="255.75" y="100.8">ткрытые уча</tspan><tspan class="cls-71" x="328.16" y="100.8">с</tspan><tspan x="334.51" y="100.8">тки </tspan><tspan class="cls-33" x="356.26" y="100.8">те</tspan><tspan x="368.31" y="100.8">ла и ли</tspan><tspan class="cls-33" x="408.73" y="100.8">ц</tspan><tspan x="415.75" y="100.8">а.</tspan><tspan class="cls-33" x="0" y="115.2">5</tspan><tspan x="6.34" y="115.2">. </tspan><tspan class="cls-13" x="12.55" y="115.2">К</tspan><tspan x="19.39" y="115.2">аждые 2 ча</tspan><tspan class="cls-83" x="84.98" y="115.2">с</tspan><tspan x="91.27" y="115.2">а защитный крем тр</tspan><tspan class="cls-38" x="207.24" y="115.2">е</tspan><tspan class="cls-33" x="214.16" y="115.2">буе</tspan><tspan x="233.52" y="115.2">т обно</tspan><tspan class="cls-105" x="270.03" y="115.2">в</tspan><tspan x="276.1" y="115.2">ления на </tspan><tspan class="cls-67" x="330.07" y="115.2">к</tspan><tspan class="cls-92" x="335.93" y="115.2">ож</tspan><tspan x="351.05" y="115.2">е и </tspan><tspan class="cls-33" x="370.93" y="115.2">т</tspan><tspan x="376.24" y="115.2">ак</tspan><tspan class="cls-92" x="390.05" y="115.2">ж</tspan><tspan x="398.53" y="115.2">е по</tspan><tspan class="cls-103" x="422.53" y="115.2">с</tspan><tspan x="428.83" y="115.2">ле </tspan><tspan class="cls-55" x="445.35" y="115.2">к</tspan><tspan x="451.59" y="115.2">упания.</tspan><tspan class="cls-33" x="0" y="129.6">6</tspan><tspan x="6.4" y="129.6">. </tspan><tspan class="cls-55" x="12.61" y="129.6">С</tspan><tspan class="cls-60" x="21.26" y="129.6">о</tspan><tspan x="28.24" y="129.6">лн</tspan><tspan class="cls-33" x="41.69" y="129.6">ц</tspan><tspan class="cls-103" x="48.71" y="129.6">е</tspan><tspan x="55.55" y="129.6">защитные ср</tspan><tspan class="cls-104" x="130.51" y="129.6">ед</tspan><tspan class="cls-71" x="144.18" y="129.6">с</tspan><tspan class="cls-52" x="150.53" y="129.6">тва о</tspan><tspan class="cls-104" x="179.86" y="129.6">б</tspan><tspan x="186.42" y="129.6">яза</tspan><tspan class="cls-33" x="205.56" y="129.6">те</tspan><tspan x="217.61" y="129.6">льны к смывани</tspan><tspan class="cls-92" x="308.05" y="129.6">ю</tspan><tspan x="317.3" y="129.6">, </tspan><tspan class="cls-55" x="323.64" y="129.6">в</tspan><tspan x="329.71" y="129.6">ла</tspan><tspan class="cls-33" x="343.77" y="129.6">г</tspan><tspan x="348.47" y="129.6">о</tspan><tspan class="cls-71" x="355.59" y="129.6">с</tspan><tspan class="cls-33" x="361.94" y="129.6">т</tspan><tspan x="367.26" y="129.6">ойкие ср</tspan><tspan class="cls-33" x="418.4" y="129.6">ед</tspan><tspan class="cls-71" x="432.07" y="129.6">с</tspan><tspan x="438.42" y="129.6">тва </tspan><tspan x="0" y="144">н</tspan><tspan class="cls-38" x="6.9" y="144">е</tspan><tspan x="13.82" y="144">о</tspan><tspan class="cls-69" x="20.95" y="144">бх</tspan><tspan class="cls-33" x="33.22" y="144">о</tspan><tspan x="40.1" y="144">димо смывать ср</tspan><tspan class="cls-33" x="136.75" y="144">ед</tspan><tspan class="cls-22" x="150.42" y="144">с</tspan><tspan class="cls-102" x="156.77" y="144">твами для мыт</tspan><tspan class="cls-91" x="238.29" y="144">ь</tspan><tspan x="243.87" y="144">я, </tspan><tspan class="cls-83" x="256.44" y="144">с</tspan><tspan class="cls-33" x="262.73" y="144">од</tspan><tspan x="276.55" y="144">е</tspan><tspan class="cls-92" x="283.52" y="144">рж</tspan><tspan x="299.02" y="144">ащие ма</tspan><tspan class="cls-103" x="348.75" y="144">с</tspan><tspan x="355.05" y="144">ла. </tspan><tspan class="cls-103" x="375.33" y="144">Ес</tspan><tspan x="387.86" y="144">ли крем не </tspan><tspan class="cls-55" x="0" y="158.4">в</tspan><tspan x="6.07" y="158.4">ла</tspan><tspan class="cls-33" x="20.14" y="158.4">г</tspan><tspan x="24.83" y="158.4">о</tspan><tspan class="cls-71" x="31.96" y="158.4">с</tspan><tspan class="cls-33" x="38.3" y="158.4">т</tspan><tspan x="43.62" y="158.4">ойкий п</tspan><tspan class="cls-33" x="87.65" y="158.4">од</tspan><tspan x="101.47" y="158.4">ой</tspan><tspan class="cls-104" x="115.5" y="158.4">де</tspan><tspan x="129.17" y="158.4">т обычный </tspan><tspan class="cls-33" x="192.15" y="158.4">ге</tspan><tspan x="203.58" y="158.4">ль для </tspan><tspan class="cls-55" x="242.04" y="158.4">к</tspan><tspan x="248.28" y="158.4">упания, </tspan><tspan class="cls-83" x="295.35" y="158.4">с</tspan><tspan class="cls-33" x="301.64" y="158.4">од</tspan><tspan x="315.47" y="158.4">е</tspan><tspan class="cls-92" x="322.44" y="158.4">рж</tspan><tspan x="337.94" y="158.4" xml:space="preserve">ащий  </tspan><tspan class="cls-55" x="375.43" y="158.4">S</tspan><tspan class="cls-60" x="382.36" y="158.4">L</tspan><tspan x="388" y="158.4">S или </tspan><tspan class="cls-105" x="421.35" y="158.4">S</tspan><tspan x="428.29" y="158.4">LES </tspan><tspan class="cls-87" x="0" y="172.8">7</tspan><tspan class="cls-56" x="4.08" y="172.8">.</tspan><tspan x="6.68" y="172.8">Ср</tspan><tspan class="cls-33" x="22.91" y="172.8">ед</tspan><tspan class="cls-71" x="36.58" y="172.8">с</tspan><tspan x="42.92" y="172.8">тва, мо</tspan><tspan class="cls-99" x="83.24" y="172.8">г</tspan><tspan class="cls-2" x="88.45" y="172.8">у</tspan><tspan x="94.85" y="172.8">т быть в форме: лос</tspan><tspan class="cls-55" x="206.27" y="172.8">ь</tspan><tspan x="212.16" y="172.8">он, спрей, крем, </tspan><tspan class="cls-33" x="308.35" y="172.8">ге</tspan><tspan x="319.77" y="172.8">л</tspan><tspan class="cls-103" x="326.32" y="172.8">ь</tspan><tspan x="332.14" y="172.8">, </tspan><tspan class="cls-60" x="338.48" y="172.8">ф</tspan><tspan x="346.54" y="172.8">люид. Кремы п</tspan><tspan class="cls-104" x="431.14" y="172.8">о</tspan><tspan x="438.03" y="172.8">д</tspan><tspan class="cls-79" x="445.21" y="172.8">х</tspan><tspan class="cls-104" x="451.09" y="172.8">о</tspan><tspan class="cls-103" x="457.97" y="172.8">д</tspan><tspan x="465.02" y="172.8">ят </tspan><tspan x="0" y="187.2">о</tspan><tspan class="cls-60" x="7.13" y="187.2">б</tspan><tspan x="13.78" y="187.2">ла</tspan><tspan class="cls-33" x="27.84" y="187.2">д</tspan><tspan x="34.78" y="187.2">а</tspan><tspan class="cls-104" x="42.29" y="187.2">те</tspan><tspan x="54.34" y="187.2">лям </tspan><tspan class="cls-33" x="77.77" y="187.2">с</tspan><tspan x="83.96" y="187.2">у</tspan><tspan class="cls-69" x="90.26" y="187.2">х</tspan><tspan x="96.14" y="187.2">ой </tspan><tspan class="cls-67" x="113.17" y="187.2">к</tspan><tspan class="cls-92" x="119.04" y="187.2">о</tspan><tspan class="cls-52" x="125.69" y="187.2">жи. Спрей </tspan><tspan class="cls-17" x="187.75" y="187.2">у</tspan><tspan class="cls-33" x="193.68" y="187.2">д</tspan><tspan x="200.61" y="187.2">обен в применении, но им </tspan><tspan class="cls-103" x="351.98" y="187.2">с</tspan><tspan x="358.28" y="187.2">л</tspan><tspan class="cls-104" x="364.83" y="187.2">едуе</tspan><tspan x="391.29" y="187.2">т п</tspan><tspan class="cls-60" x="406.75" y="187.2">о</tspan><tspan x="413.72" y="187.2">л</tspan><tspan class="cls-84" x="420.27" y="187.2">ь</tspan><tspan class="cls-52" x="426.09" y="187.2">зоват</tspan><tspan class="cls-105" x="457.82" y="187.2">ь</tspan><tspan class="cls-103" x="463.71" y="187.2">с</tspan><tspan x="470.01" y="187.2">я с </tspan><tspan x="0" y="201.6">о</tspan><tspan class="cls-71" x="7.13" y="201.6">с</tspan><tspan class="cls-33" x="13.48" y="201.6">т</tspan><tspan x="18.79" y="201.6">ор</tspan><tspan class="cls-92" x="33.43" y="201.6">о</tspan><tspan x="40.08" y="201.6">жно</tspan><tspan class="cls-71" x="63.06" y="201.6">с</tspan><tspan x="69.41" y="201.6">ть</tspan><tspan class="cls-70" x="80.92" y="201.6">ю</tspan><tspan x="90.17" y="201.6">, </tspan><tspan class="cls-47" x="96.5" y="201.6">е</tspan><tspan class="cls-103" x="103.43" y="201.6">с</tspan><tspan x="109.73" y="201.6">ли вы наноси</tspan><tspan class="cls-33" x="185.69" y="201.6">т</tspan><tspan x="191" y="201.6">е е</tspan><tspan class="cls-33" x="207.95" y="201.6">г</tspan><tspan x="212.64" y="201.6">о на р</tspan><tspan class="cls-47" x="247.69" y="201.6">е</tspan><tspan x="254.61" y="201.6">бён</tspan><tspan class="cls-67" x="275.29" y="201.6">к</tspan><tspan x="281.16" y="201.6">а, </tspan><tspan class="cls-33" x="295" y="201.6">т</tspan><tspan x="300.32" y="201.6">ак </tspan><tspan class="cls-67" x="317.13" y="201.6">к</tspan><tspan x="323" y="201.6">ак он м</tspan><tspan class="cls-92" x="364.5" y="201.6">ож</tspan><tspan class="cls-33" x="379.61" y="201.6">е</tspan><tspan x="386.35" y="201.6">т в</tspan><tspan class="cls-33" x="401.04" y="201.6">д</tspan><tspan class="cls-69" x="407.97" y="201.6">о</tspan><tspan x="414.68" y="201.6">хн</tspan><tspan class="cls-11" x="427.88" y="201.6">у</tspan><tspan x="434.27" y="201.6">ть </tspan><tspan x="0" y="216">ср</tspan><tspan class="cls-33" x="13.94" y="216">ед</tspan><tspan class="cls-71" x="27.61" y="216">с</tspan><tspan x="33.96" y="216">тво с п</tspan><tspan class="cls-104" x="72.11" y="216">от</tspan><tspan x="84.31" y="216">о</tspan><tspan class="cls-78" x="91.44" y="216">к</tspan><tspan x="97.31" y="216">ом в</tspan><tspan class="cls-104" x="121.22" y="216">е</tspan><tspan x="127.96" y="216">тра.</tspan><tspan x="0" y="230.4">8. Защи</tspan><tspan class="cls-33" x="44.35" y="230.4">щ</tspan><tspan x="54.29" y="230.4">ай</tspan><tspan class="cls-104" x="68.7" y="230.4">т</tspan><tspan class="cls-52" x="74.01" y="230.4">е </tspan><tspan class="cls-99" x="83.99" y="230.4">г</tspan><tspan class="cls-104" x="89.2" y="230.4">у</tspan><tspan x="95.25" y="230.4">бы с помощью специальных </tspan><tspan class="cls-22" x="260.05" y="230.4">с</tspan><tspan x="266.4" y="230.4">ти</tspan><tspan class="cls-67" x="278.85" y="230.4">к</tspan><tspan x="284.72" y="230.4">ов с </tspan><tspan class="cls-55" x="310.41" y="230.4">S</tspan><tspan x="317.35" y="230.4">P</tspan><tspan class="cls-74" x="324.43" y="230.4">F</tspan><tspan x="330.04" y="230.4">.</tspan></text>
  <line class="cls-19" x1="59.32" y1="84.72" x2="545.7" y2="84.72"/>
  <line class="cls-20" x1="161.45" y1="52.91" x2="161.45" y2="528.81"/>
  <line class="cls-20" x1="328.22" y1="56.56" x2="328.22" y2="529.77"/>
  <text class="cls-9" transform="translate(61.25 103.1)"><tspan x="0" y="0">Названия</tspan></text>
  <text class="cls-9" transform="translate(61.25 432.88)"><tspan x="0" y="0">М</tspan><tspan class="cls-25" x="10.01" y="0">е</tspan><tspan class="cls-73" x="16.8" y="0">х</tspan><tspan x="22.82" y="0">анизм </tspan><tspan x="0" y="14.74">в</tspan><tspan class="cls-72" x="6.28" y="14.74">о</tspan><tspan class="cls-54" x="13.33" y="14.74">з</tspan><tspan class="cls-72" x="18.82" y="14.74">д</tspan><tspan x="25.92" y="14.74">ей</tspan><tspan class="cls-42" x="40.12" y="14.74">с</tspan><tspan x="46.62" y="14.74">твия</tspan></text>
  <text class="cls-9" transform="translate(61.25 468.79)"><tspan x="0" y="0">Преиму</tspan><tspan class="cls-72" x="44.2" y="0">щ</tspan><tspan class="cls-85" x="54.37" y="0">е</tspan><tspan class="cls-42" x="61.46" y="0">с</tspan><tspan x="67.95" y="0">тва</tspan></text>
  <text class="cls-9" transform="translate(61.25 507.53)"><tspan x="0" y="0">Н</tspan><tspan class="cls-72" x="8.17" y="0">ед</tspan><tspan x="22.16" y="0">о</tspan><tspan class="cls-42" x="29.46" y="0">с</tspan><tspan class="cls-72" x="35.96" y="0">т</tspan><tspan x="41.4" y="0">атки</tspan></text>
  <text class="cls-9" transform="translate(169.33 101.82)"><tspan x="0" y="0">О</tspan><tspan class="cls-43" x="9.73" y="0">к</tspan><tspan x="15.74" y="0">сид цин</tspan><tspan class="cls-43" x="61.36" y="0">к</tspan><tspan x="67.37" y="0">а (Zinc </tspan><tspan class="cls-73" x="108.25" y="0">o</tspan><tspan x="115.11" y="0">хide), </tspan><tspan x="0" y="14.74">Дио</tspan><tspan class="cls-43" x="23.02" y="14.74">к</tspan><tspan x="29.03" y="14.74">сид ти</tspan><tspan class="cls-72" x="65.84" y="14.74">т</tspan><tspan x="71.29" y="14.74">ана (Тi</tspan><tspan class="cls-101" x="110.24" y="14.74">t</tspan><tspan x="114.68" y="14.74">anium </tspan><tspan x="0" y="29.48">Di</tspan><tspan class="cls-73" x="11.79" y="29.48">o</tspan><tspan x="18.66" y="29.48">xide)</tspan></text>
  <text class="cls-8" transform="translate(342.32 101.82)"><tspan class="cls-5"><tspan class="cls-40" x="0" y="0">У</tspan><tspan class="cls-42" x="6.41" y="0">с</tspan><tspan class="cls-72" x="12.91" y="0">т</tspan><tspan x="18.35" y="0">аревшие: </tspan></tspan><tspan class="cls-64"><tspan x="0" y="14.74">E</tspan><tspan class="cls-50" x="6.51" y="14.74">t</tspan><tspan class="cls-95" x="11.14" y="14.74">h</tspan><tspan x="18.09" y="14.74">ylh</tspan><tspan class="cls-25" x="34.67" y="14.74">e</tspan><tspan x="41.46" y="14.74">xyl M</tspan><tspan class="cls-51" x="70.47" y="14.74">e</tspan><tspan class="cls-34" x="77.43" y="14.74">t</tspan><tspan x="82.06" y="14.74">h</tspan><tspan class="cls-73" x="89.15" y="14.74">o</tspan><tspan x="96.01" y="14.74">x</tspan><tspan class="cls-49" x="102.46" y="14.74">y</tspan><tspan class="cls-29" x="108.67" y="14.74">c</tspan><tspan x="115.2" y="14.74">innama</tspan><tspan class="cls-101" x="158.26" y="14.74">t</tspan><tspan class="cls-65" x="162.7" y="14.74">e</tspan><tspan x="169.35" y="14.74">,</tspan></tspan><tspan class="cls-64"><tspan x="0" y="29.48">O</tspan><tspan class="cls-29" x="9.73" y="29.48">c</tspan><tspan class="cls-16" x="16.26" y="29.48">t</tspan><tspan x="20.71" y="29.48">oc</tspan><tspan class="cls-89" x="34.59" y="29.48">r</tspan><tspan x="39.1" y="29.48">ylen</tspan><tspan class="cls-65" x="62.81" y="29.48">e</tspan><tspan x="69.45" y="29.48">, </tspan><tspan class="cls-23" x="75.94" y="29.48">B</tspan><tspan x="83.51" y="29.48">u</tspan><tspan class="cls-86" x="90.59" y="29.48">t</tspan><tspan x="95.36" y="29.48">yl </tspan></tspan><tspan class="cls-64"><tspan x="0" y="44.22">m</tspan><tspan class="cls-51" x="10.47" y="44.22">e</tspan><tspan class="cls-34" x="17.42" y="44.22">t</tspan><tspan x="22.05" y="44.22">h</tspan><tspan class="cls-73" x="29.14" y="44.22">o</tspan><tspan x="36" y="44.22">x</tspan><tspan class="cls-49" x="42.45" y="44.22">y</tspan><tspan x="48.66" y="44.22">dibe</tspan><tspan class="cls-61" x="74.21" y="44.22">n</tspan><tspan class="cls-26" x="81.23" y="44.22">z</tspan><tspan class="cls-49" x="86.68" y="44.22">o</tspan><tspan x="93.73" y="44.22">y|m</tspan><tspan class="cls-27" x="113.82" y="44.22">e</tspan><tspan class="cls-50" x="120.78" y="44.22">t</tspan><tspan x="125.41" y="44.22">hane</tspan></tspan><tspan class="cls-64"><tspan x="0" y="58.96">(</tspan><tspan class="cls-72" x="3.77" y="58.96">Av</tspan><tspan x="18.03" y="58.96">obe</tspan><tspan class="cls-61" x="40.16" y="58.96">n</tspan><tspan class="cls-26" x="47.18" y="58.96">z</tspan><tspan x="52.62" y="58.96">one), </tspan><tspan class="cls-31" x="84.4" y="58.96">B</tspan><tspan x="91.93" y="58.96">e</tspan><tspan class="cls-61" x="99.07" y="58.96">n</tspan><tspan class="cls-26" x="106.1" y="58.96">z</tspan><tspan x="111.54" y="58.96">ophenone-</tspan><tspan class="cls-49" x="175.56" y="58.96">3</tspan><tspan x="182.01" y="58.96">, </tspan></tspan><tspan class="cls-64"><tspan x="0" y="73.7">Hom</tspan><tspan class="cls-95" x="25.93" y="73.7">o</tspan><tspan class="cls-75" x="33.09" y="73.7">s</tspan><tspan x="38.66" y="73.7">ala</tspan><tspan class="cls-101" x="57.07" y="73.7">t</tspan><tspan class="cls-65" x="61.52" y="73.7">e</tspan><tspan x="68.16" y="73.7">, </tspan></tspan><tspan class="cls-64"><tspan x="0" y="88.45">M</tspan><tspan class="cls-51" x="10.01" y="88.45">e</tspan><tspan class="cls-34" x="16.96" y="88.45">t</tspan><tspan x="21.6" y="88.45">h</tspan><tspan class="cls-73" x="28.68" y="88.45">o</tspan><tspan x="35.55" y="88.45">x</tspan><tspan class="cls-49" x="42" y="88.45">y</tspan><tspan x="48.2" y="88.45">dibe</tspan><tspan class="cls-61" x="73.75" y="88.45">n</tspan><tspan class="cls-26" x="80.78" y="88.45">z</tspan><tspan class="cls-49" x="86.22" y="88.45">o</tspan><tspan x="93.27" y="88.45">ylm</tspan><tspan class="cls-27" x="113.22" y="88.45">e</tspan><tspan class="cls-50" x="120.17" y="88.45">t</tspan><tspan x="124.81" y="88.45">han</tspan><tspan class="cls-65" x="146.67" y="88.45">e</tspan><tspan x="153.32" y="88.45">, O</tspan><tspan class="cls-29" x="169.53" y="88.45">c</tspan><tspan class="cls-86" x="176.07" y="88.45">t</tspan><tspan x="180.83" y="88.45">yl </tspan></tspan><tspan class="cls-64"><tspan x="0" y="103.19">M</tspan><tspan class="cls-51" x="10.01" y="103.19">e</tspan><tspan class="cls-34" x="16.96" y="103.19">t</tspan><tspan x="21.6" y="103.19">h</tspan><tspan class="cls-73" x="28.68" y="103.19">o</tspan><tspan x="35.55" y="103.19">x</tspan><tspan class="cls-49" x="42" y="103.19">y</tspan><tspan class="cls-29" x="48.2" y="103.19">c</tspan><tspan x="54.74" y="103.19">innama</tspan><tspan class="cls-101" x="97.79" y="103.19">t</tspan><tspan x="102.24" y="103.19">e</tspan></tspan><tspan class="cls-5"><tspan class="cls-61" x="0" y="117.93">С</tspan><tspan x="8.86" y="117.93">овременные: </tspan></tspan><tspan class="cls-64"><tspan x="0" y="132.67">E</tspan><tspan class="cls-50" x="6.51" y="132.67">t</tspan><tspan class="cls-95" x="11.14" y="132.67">h</tspan><tspan x="18.09" y="132.67">ylh</tspan><tspan class="cls-25" x="34.67" y="132.67">e</tspan><tspan x="41.46" y="132.67">xyl tria</tspan><tspan class="cls-76" x="80.29" y="132.67">z</tspan><tspan x="85.73" y="132.67">on</tspan><tspan class="cls-65" x="100.12" y="132.67">e</tspan><tspan x="106.76" y="132.67">, E</tspan><tspan class="cls-34" x="119.76" y="132.67">t</tspan><tspan class="cls-93" x="124.39" y="132.67">h</tspan><tspan x="131.34" y="132.67">ylh</tspan><tspan class="cls-25" x="147.91" y="132.67">e</tspan><tspan x="154.71" y="132.67">xyl</tspan></tspan><tspan class="cls-64"><tspan class="cls-77" x="0" y="147.41">S</tspan><tspan x="7.33" y="147.41">alicylat, Di</tspan><tspan class="cls-51" x="67.86" y="147.41">e</tspan><tspan class="cls-34" x="74.81" y="147.41">t</tspan><tspan class="cls-95" x="79.44" y="147.41">h</tspan><tspan x="86.39" y="147.41">ylh</tspan><tspan class="cls-94" x="102.96" y="147.41">e</tspan><tspan x="109.76" y="147.41">xyl </tspan><tspan class="cls-89" x="128.76" y="147.41">B</tspan><tspan x="136.33" y="147.41">u</tspan><tspan class="cls-16" x="143.42" y="147.41">t</tspan><tspan x="147.86" y="147.41">amido </tspan></tspan><tspan class="cls-64"><tspan class="cls-30" x="0" y="162.15">T</tspan><tspan x="5.86" y="162.15">ria</tspan><tspan class="cls-76" x="20.96" y="162.15">z</tspan><tspan x="26.4" y="162.15">on</tspan><tspan class="cls-65" x="40.78" y="162.15">e</tspan><tspan x="47.43" y="162.15">, B</tspan><tspan class="cls-29" x="61.35" y="162.15">i</tspan><tspan x="64.33" y="162.15">s E</tspan><tspan class="cls-50" x="79.62" y="162.15">t</tspan><tspan class="cls-95" x="84.26" y="162.15">h</tspan><tspan x="91.21" y="162.15">ylh</tspan><tspan class="cls-25" x="107.78" y="162.15">e</tspan><tspan x="114.57" y="162.15">xyl</tspan><tspan class="cls-63" x="130.51" y="162.15">o</tspan><tspan x="137.37" y="162.15">xyphenol </tspan></tspan><tspan class="cls-64"><tspan x="0" y="176.89">M</tspan><tspan class="cls-51" x="10.01" y="176.89">e</tspan><tspan class="cls-34" x="16.96" y="176.89">t</tspan><tspan x="21.6" y="176.89">h</tspan><tspan class="cls-73" x="28.68" y="176.89">o</tspan><tspan x="35.55" y="176.89">xyphe</tspan><tspan class="cls-93" x="70.36" y="176.89">n</tspan><tspan x="77.32" y="176.89">yl </tspan><tspan class="cls-30" x="89.87" y="176.89">T</tspan><tspan x="95.73" y="176.89">riazine (Tin</tspan><tspan class="cls-95" x="157.5" y="176.89">o</tspan><tspan class="cls-75" x="164.67" y="176.89">s</tspan><tspan x="170.23" y="176.89">orb), </tspan></tspan><tspan class="cls-64"><tspan x="0" y="191.63">Di</tspan><tspan class="cls-51" x="11.79" y="191.63">e</tspan><tspan class="cls-34" x="18.75" y="191.63">t</tspan><tspan class="cls-95" x="23.38" y="191.63">h</tspan><tspan x="30.33" y="191.63">ylamino H</tspan><tspan class="cls-49" x="86.63" y="191.63">y</tspan><tspan x="92.83" y="191.63">d</tspan><tspan class="cls-58" x="100.52" y="191.63">r</tspan><tspan class="cls-73" x="104.66" y="191.63">o</tspan><tspan x="111.53" y="191.63">xybe</tspan><tspan class="cls-61" x="139.25" y="191.63">n</tspan><tspan class="cls-26" x="146.28" y="191.63">z</tspan><tspan class="cls-49" x="151.72" y="191.63">o</tspan><tspan x="158.77" y="191.63">yl H</tspan><tspan class="cls-25" x="179.5" y="191.63">e</tspan><tspan x="186.29" y="191.63">xyl</tspan></tspan><tspan class="cls-64"><tspan class="cls-44" x="0" y="206.37">B</tspan><tspan x="7.53" y="206.37">e</tspan><tspan class="cls-61" x="14.67" y="206.37">n</tspan><tspan class="cls-76" x="21.69" y="206.37">z</tspan><tspan x="27.13" y="206.37">oa</tspan><tspan class="cls-101" x="42.12" y="206.37">t</tspan><tspan class="cls-65" x="46.57" y="206.37">e</tspan><tspan x="53.21" y="206.37">, Di</tspan><tspan class="cls-51" x="71.49" y="206.37">e</tspan><tspan class="cls-50" x="78.45" y="206.37">t</tspan><tspan class="cls-95" x="83.08" y="206.37">h</tspan><tspan x="90.03" y="206.37">ylamino </tspan></tspan><tspan class="cls-64"><tspan x="0" y="221.11">H</tspan><tspan class="cls-72" x="8.17" y="221.11">y</tspan><tspan x="14.37" y="221.11">d</tspan><tspan class="cls-58" x="22.06" y="221.11">r</tspan><tspan class="cls-73" x="26.2" y="221.11">o</tspan><tspan x="33.07" y="221.11">xybe</tspan><tspan class="cls-61" x="60.79" y="221.11">n</tspan><tspan class="cls-76" x="67.82" y="221.11">z</tspan><tspan class="cls-72" x="73.26" y="221.11">o</tspan><tspan x="80.31" y="221.11">yl H</tspan><tspan class="cls-25" x="101.04" y="221.11">e</tspan><tspan x="107.83" y="221.11">xyl </tspan><tspan class="cls-44" x="126.83" y="221.11">B</tspan><tspan x="134.36" y="221.11">e</tspan><tspan class="cls-61" x="141.5" y="221.11">n</tspan><tspan class="cls-76" x="148.53" y="221.11">z</tspan><tspan x="153.97" y="221.11">oa</tspan><tspan class="cls-101" x="168.95" y="221.11">t</tspan><tspan class="cls-65" x="173.4" y="221.11">e</tspan><tspan x="180.05" y="221.11">, </tspan></tspan><tspan class="cls-64"><tspan x="0" y="235.85">Phe</tspan><tspan class="cls-95" x="21.47" y="235.85">n</tspan><tspan x="28.42" y="235.85">ylbe</tspan><tspan class="cls-61" x="52.73" y="235.85">n</tspan><tspan x="59.76" y="235.85">zimida</tspan><tspan class="cls-76" x="97.5" y="235.85">z</tspan><tspan x="102.94" y="235.85">ole Sul</tspan><tspan class="cls-58" x="140.76" y="235.85">f</tspan><tspan x="144.56" y="235.85">onic </tspan><tspan class="cls-3" x="171.63" y="235.85">A</tspan><tspan class="cls-29" x="179.66" y="235.85">c</tspan><tspan x="186.2" y="235.85">id,</tspan></tspan><tspan class="cls-64"><tspan x="0" y="250.59">M</tspan><tspan class="cls-51" x="10.01" y="250.59">e</tspan><tspan class="cls-34" x="16.96" y="250.59">t</tspan><tspan class="cls-95" x="21.6" y="250.59">h</tspan><tspan x="28.55" y="250.59">ylene B</tspan><tspan class="cls-85" x="69.9" y="250.59">i</tspan><tspan class="cls-72" x="72.88" y="250.59">s</tspan><tspan x="78.35" y="250.59">-</tspan><tspan class="cls-31" x="84.55" y="250.59">B</tspan><tspan x="92.08" y="250.59">e</tspan><tspan class="cls-15" x="99.22" y="250.59">n</tspan><tspan class="cls-76" x="106.24" y="250.59">z</tspan><tspan class="cls-95" x="111.69" y="250.59">o</tspan><tspan x="118.85" y="250.59">tria</tspan><tspan class="cls-76" x="138.67" y="250.59">z</tspan><tspan x="144.12" y="250.59">olyl </tspan></tspan><tspan class="cls-64"><tspan class="cls-57" x="0" y="265.33">T</tspan><tspan class="cls-27" x="5.51" y="265.33">e</tspan><tspan x="12.47" y="265.33">t</tspan><tspan class="cls-58" x="17.2" y="265.33">r</tspan><tspan x="21.34" y="265.33">am</tspan><tspan class="cls-51" x="39.49" y="265.33">e</tspan><tspan class="cls-34" x="46.44" y="265.33">t</tspan><tspan class="cls-93" x="51.08" y="265.33">h</tspan><tspan x="58.03" y="265.33">ylbu</tspan><tspan class="cls-98" x="82.29" y="265.33">t</tspan><tspan x="87.06" y="265.33">ylphenol,</tspan></tspan><tspan class="cls-64"><tspan x="0" y="280.08">M</tspan><tspan class="cls-51" x="10.01" y="280.08">e</tspan><tspan class="cls-34" x="16.96" y="280.08">t</tspan><tspan class="cls-95" x="21.6" y="280.08">h</tspan><tspan x="28.55" y="280.08">ylene B</tspan><tspan class="cls-85" x="69.9" y="280.08">i</tspan><tspan x="72.88" y="280.08">s </tspan><tspan class="cls-44" x="81.66" y="280.08">B</tspan><tspan x="89.19" y="280.08">e</tspan><tspan class="cls-61" x="96.33" y="280.08">n</tspan><tspan class="cls-76" x="103.36" y="280.08">z</tspan><tspan class="cls-95" x="108.8" y="280.08">o</tspan><tspan x="115.96" y="280.08">tria</tspan><tspan class="cls-76" x="135.79" y="280.08">z</tspan><tspan x="141.23" y="280.08">olyl </tspan></tspan><tspan class="cls-64"><tspan class="cls-57" x="0" y="294.82">T</tspan><tspan class="cls-27" x="5.51" y="294.82">e</tspan><tspan x="12.47" y="294.82">t</tspan><tspan class="cls-58" x="17.2" y="294.82">r</tspan><tspan x="21.34" y="294.82">am</tspan><tspan class="cls-51" x="39.49" y="294.82">e</tspan><tspan class="cls-34" x="46.44" y="294.82">t</tspan><tspan class="cls-93" x="51.08" y="294.82">h</tspan><tspan x="58.03" y="294.82">ylbu</tspan><tspan class="cls-98" x="82.29" y="294.82">t</tspan><tspan x="87.06" y="294.82">ylphenol, </tspan></tspan><tspan class="cls-64"><tspan x="0" y="309.56">D</tspan><tspan class="cls-58" x="8.76" y="309.56">r</tspan><tspan x="12.9" y="309.56">om</tspan><tspan class="cls-51" x="30.66" y="309.56">e</tspan><tspan x="37.61" y="309.56">tri</tspan><tspan class="cls-26" x="49.75" y="309.56">z</tspan><tspan x="55.19" y="309.56">ole </tspan><tspan class="cls-32" x="75.73" y="309.56">T</tspan><tspan x="81.59" y="309.56">r</tspan><tspan class="cls-29" x="85.96" y="309.56">i</tspan><tspan class="cls-61" x="88.95" y="309.56">s</tspan><tspan x="94.6" y="309.56">il</tspan><tspan class="cls-73" x="100.67" y="309.56">ox</tspan><tspan x="113.55" y="309.56">ane</tspan></tspan></text>
  <text class="cls-9" transform="translate(167.08 432.88)"><tspan x="0" y="0">Отра</tspan><tspan class="cls-65" x="30.79" y="0">ж</tspan><tspan x="39.47" y="0">ая </tspan><tspan class="cls-75" x="56.6" y="0">с</tspan><tspan class="cls-59" x="63.04" y="0">о</tspan><tspan x="70.18" y="0">лнечные лучи</tspan></text>
  <text class="cls-9" transform="translate(342.32 434.95)"><tspan x="0" y="0">П</tspan><tspan class="cls-72" x="8.02" y="0">од</tspan><tspan x="22.17" y="0">обно </tspan><tspan class="cls-37" x="53.87" y="0">г</tspan><tspan class="cls-72" x="59.2" y="0">у</tspan><tspan x="65.4" y="0">б</tspan><tspan class="cls-43" x="72.37" y="0">к</tspan><tspan x="78.37" y="0">е впитыва</tspan><tspan class="cls-72" x="137.45" y="0">е</tspan><tspan x="144.34" y="0">т </tspan><tspan class="cls-75" x="0" y="14.74">с</tspan><tspan class="cls-59" x="6.44" y="14.74">о</tspan><tspan x="13.57" y="14.74">лнечные лучи</tspan></text>
  <text class="cls-9" transform="translate(167.08 470.68)"><tspan x="0" y="0">П</tspan><tspan class="cls-72" x="8.02" y="0">о</tspan><tspan x="15.07" y="0">д</tspan><tspan class="cls-63" x="22.42" y="0">х</tspan><tspan class="cls-72" x="28.44" y="0">о</tspan><tspan class="cls-95" x="35.49" y="0">д</tspan><tspan x="42.7" y="0">ят для </tspan><tspan x="0" y="14.74">чув</tspan><tspan class="cls-42" x="19.37" y="14.74">с</tspan><tspan x="25.87" y="14.74">тви</tspan><tspan class="cls-72" x="44.9" y="14.74">те</tspan><tspan x="57.23" y="14.74">льной </tspan><tspan class="cls-43" x="94.53" y="14.74">к</tspan><tspan class="cls-65" x="100.53" y="14.74">о</tspan><tspan x="107.34" y="14.74">жи</tspan></text>
  <text class="cls-9" transform="translate(342.32 472.75)"><tspan x="0" y="0">Лег</tspan><tspan class="cls-43" x="20.49" y="0">к</tspan><tspan x="26.5" y="0">ая </tspan><tspan class="cls-72" x="43.63" y="0">т</tspan><tspan x="49.07" y="0">е</tspan><tspan class="cls-43" x="56.21" y="0">к</tspan><tspan class="cls-42" x="62.22" y="0">с</tspan><tspan class="cls-44" x="68.72" y="0">т</tspan><tspan x="74.5" y="0">ура</tspan></text>
  <text class="cls-9" transform="translate(167.08 508.48)"><tspan x="0" y="0">О</tspan><tspan class="cls-42" x="9.73" y="0">с</tspan><tspan class="cls-72" x="16.23" y="0">т</tspan><tspan x="21.67" y="0">а</tspan><tspan class="cls-61" x="29.36" y="0">в</tspan><tspan x="35.57" y="0">ля</tspan><tspan class="cls-49" x="48.66" y="0">ю</tspan><tspan x="58.37" y="0">т б</tspan><tspan class="cls-72" x="74.1" y="0">е</tspan><tspan x="80.99" y="0">лый </tspan><tspan class="cls-72" x="106.64" y="0">о</tspan><tspan class="cls-68" x="113.69" y="0">т</tspan><tspan class="cls-49" x="119.42" y="0">т</tspan><tspan x="124.87" y="0">енок </tspan><tspan x="0" y="14.74">на </tspan><tspan class="cls-43" x="17.82" y="14.74">к</tspan><tspan class="cls-65" x="23.83" y="14.74">ож</tspan><tspan x="39.31" y="14.74">е</tspan></text>
  <text class="cls-9" transform="translate(342.32 509.6)"><tspan x="0" y="0">Ча</tspan><tspan class="cls-72" x="15.46" y="0">щ</tspan><tspan x="25.64" y="0">е вызыва</tspan><tspan class="cls-49" x="79.23" y="0">ю</tspan><tspan x="88.95" y="0">т аллергич</tspan><tspan class="cls-29" x="152.39" y="0">е</tspan><tspan x="159.48" y="0">с</tspan><tspan class="cls-61" x="166.07" y="0">к</tspan><tspan x="172.45" y="0">ую </tspan><tspan x="0" y="14.74">р</tspan><tspan class="cls-29" x="7.69" y="14.74">е</tspan><tspan x="14.78" y="14.74">акцию</tspan></text>
  <text class="cls-6" transform="translate(168.37 73.7)"><tspan x="0" y="0">Физич</tspan><tspan class="cls-39" x="44.75" y="0">е</tspan><tspan x="53.47" y="0">ский фил</tspan><tspan class="cls-62" x="117.99" y="0">ь</tspan><tspan x="124.68" y="0">тр</tspan></text>
  <text class="cls-6" transform="translate(341.29 73.7)"><tspan x="0" y="0">Химич</tspan><tspan class="cls-39" x="44.43" y="0">е</tspan><tspan x="53.16" y="0">ский фил</tspan><tspan class="cls-62" x="117.67" y="0">ь</tspan><tspan x="124.37" y="0">тр</tspan></text>
  <line class="cls-19" x1="59.32" y1="418.28" x2="545.7" y2="418.28"/>
  <line class="cls-19" x1="59.32" y1="454.19" x2="545.7" y2="454.19"/>
  <line class="cls-19" x1="59.32" y1="491.98" x2="545.7" y2="491.98"/>
  <line class="cls-18" x1="328.22" y1="84.72" x2="328.22" y2="52.91"/>
  <path class="cls-82" d="M431.34,344.81c.41-1.1,.83-2.21,1.52-3.15,.69-.94,1.7-1.72,2.86-1.86s2.45,.48,2.83,1.59c.17-2.49,.52-5.05,1.77-7.22,1.25-2.17,3.58-3.87,6.07-3.71,2.35,.14,4.37,1.89,5.49,3.97,1.12,2.07,1.5,4.45,1.87,6.78,.89-1.09,2.77-.75,3.71,.31,.93,1.06,1.17,2.55,1.36,3.94h-28.06l.59-.65Z"/>
  <text class="cls-7" transform="translate(91.49 34.13)"><tspan x="0" y="0">Фил</tspan><tspan class="cls-14" x="32.98" y="0">ь</tspan><tspan x="40.51" y="0">тры </tspan><tspan class="cls-1" x="75.46" y="0">де</tspan><tspan x="94.83" y="0">ля</tspan><tspan class="cls-28" x="112.93" y="0">т</tspan><tspan class="cls-88" x="120.46" y="0">с</tspan><tspan x="129.39" y="0">я на два ви</tspan><tspan class="cls-28" x="219.33" y="0">д</tspan><tspan x="229.16" y="0">а: химич</tspan><tspan class="cls-90" x="297.12" y="0">е</tspan><tspan x="306.93" y="0">ский и физич</tspan><tspan class="cls-45" x="410.84" y="0">е</tspan><tspan x="420.65" y="0">ский</tspan></text>
  <g class="cls-81">
    <path class="cls-5" d="M210.36,618.69c-1.1,1.3-1.72,1.98-2.29,2.69-3.44,4.29-2.95,10.27,1.08,13.13,3.95,2.81,10.4,.91,13.05-3.83,4.12-7.36,2.63-15.93-3.71-21.89-6.16-5.78-13.59-9.06-21.79-10.16-18.22-2.44-34.9,.3-47.39,15.59-10.68,13.08-12.27,27.94-8.6,43.8,4.35,18.8,13.94,35.11,24.63,50.82,9.76,14.35,20.98,27.58,32.29,40.72,1.66,1.93,2.86,2.81,5.55,1.12,12.3-7.72,24.02-6.98,35.7,1.78,7.08,5.31,12.66,11.76,16,20.05,2.57,6.39,1.65,11.24-3.38,15.93-1.19,1.11-2.09,2.28-2.75,3.8-.97,2.25-2.85,3.09-5.26,2.31-2.22-.72-3.22-2.32-2.91-4.61,.35-2.54,2.06-3.57,4.46-3.72,4.39-.27,7.82-3.89,7.19-8.05-2.08-13.61-20.11-29.96-35.5-25.89-19.48,5.14-26.11,25.59-13.1,40.99,3.96,4.68,8.48,8.41,14.19,10.72,2.33,.94,4.65,1.14,7.05,.6,1.63-.37,2.92-1.04,2.98-3.14,.08-2.94,1.9-4.37,4.74-4.16,2.26,.17,3.65,1.58,3.79,3.91,.16,2.69-1.25,4.24-3.85,4.76-.52,.1-1.15,.01-1.56,.28-9.3,6-16.94,1.22-24.15-4.09-6.41-4.72-11.32-10.9-14.54-18.29-4.18-9.63-2.85-18.58,3.78-26.56,2.14-2.57,2.15-3.6-.61-5.73-24.29-18.84-46.04-40.13-61.89-66.79-7.43-12.5-12.87-25.83-13.85-40.53-1.51-22.73,8.51-39.8,27.13-51.82,17.62-11.37,36.79-14.38,57.04-7.86,19.31,6.21,31.87,25.75,28.52,44.63-1.36,7.68-5.26,13.62-13.13,16.19-7.53,2.46-15.29-1.82-17.8-9.84-2.34-7.51,1-14.51,8.88-16.86Z"/>
    <path class="cls-5" d="M281.65,600.24c-12.98,.19-24.16,2.97-35.06,7.21-1.29,.5-3.1,2.27-4.15,.36-.75-1.37,1.17-2.59,2.31-3.31,17.77-11.26,37.01-16.41,57.88-12.11,14.04,2.89,22.95,12.15,27.78,25.56,4.38,12.17,5.07,24.4,1.61,36.9-.67,2.41-1.54,3.72-4.28,3.42-3.42-.38-7.99,1.45-10.01-.65-1.86-1.92,.86-6.12,1.3-9.36,.99-7.31,1.46-14.63-.25-21.86-3.56-15.05-14.13-23.84-30.77-25.8-2.51-.3-5.05-.29-6.36-.36Z"/>
    <path class="cls-5" d="M154.7,557.55c.07-10.39,8.19-18.53,18.49-18.53,10.19,0,18.46,8.36,18.43,18.64-.03,10.33-8.26,18.55-18.52,18.49-10.34-.06-18.47-8.28-18.4-18.6Z"/>
    <path class="cls-5" d="M321.37,678.58c0-3.33,0-6.67,0-10,0-2.96,.64-5,4.22-3.05,.41,.23,1.06,.38,1.46,.22,4.63-1.85,8.83-1.4,12.59,2.08,1.04,.96,1.66-.24,2.33-.73,3.66-2.67,7.65-3.35,11.66-1.23,4.1,2.17,5.97,5.93,6,10.56,.02,4.27,0,8.54-.05,12.81-.02,1.66-.25,3.4-2.47,3.38-2.28-.02-2.29-1.8-2.29-3.45-.01-4,.06-8.01-.02-12.01-.1-4.64-2.43-7.51-5.98-7.59-3.51-.07-5.8,2.81-5.88,7.51-.06,4-.07,8-.06,12,0,1.77-.47,3.43-2.43,3.5-2.15,.07-2.34-1.73-2.33-3.43,0-4,.03-8-.03-12.01-.08-4.62-2.41-7.54-5.92-7.57-3.58-.02-5.96,2.89-6.01,7.44-.04,4.13-.02,8.27-.02,12.41,0,1.57-.25,3.11-2.18,3.2-2.16,.11-2.58-1.44-2.58-3.22,0-3.6,0-7.2,0-10.8Z"/>
    <path class="cls-5" d="M295.07,585.21c-7.03-.05-12.25-5.37-12.23-12.47,.02-6.9,5.57-12.34,12.49-12.25,6.63,.09,12.2,5.72,12.16,12.31-.04,6.95-5.55,12.45-12.42,12.41Z"/>
    <path class="cls-5" d="M170.65,672.86c0-5.33,.07-10.66-.03-15.99-.05-2.73,1.05-3.85,3.79-3.82,6.53,.09,13.06,.06,19.59,.02,2.22-.01,3.55,.69,3.55,3.17,.03,11.05,.13,22.11,.18,33.16,0,1.81-.78,3.26-2.76,3.2-2.05-.06-1.98-1.84-1.99-3.29-.03-9.2-.14-18.39,.06-27.59,.07-3.05-.89-3.98-3.85-3.77-3.45,.24-6.93,.19-10.39,0-2.66-.14-3.43,.89-3.4,3.46,.12,8.53,.04,17.06,.04,25.59,0,.93,.03,1.87-.03,2.8-.1,1.44-.62,2.73-2.27,2.77-1.89,.05-2.48-1.31-2.49-2.94-.03-5.6-.01-11.19,0-16.79Z"/>
    <path class="cls-5" d="M426.51,679.21c0,3.59,.11,7.19-.03,10.78-.13,3.32-1.55,4.11-4.17,2.05-1.44-1.14-2.15-.26-3.13,.13-8.56,3.45-17.27-1.9-17.76-11.08-.22-4.12-.04-8.25-.02-12.38,0-1.67,.15-3.4,2.39-3.38,2.27,.03,2.3,1.88,2.34,3.47,.08,3.59,0,7.19,.08,10.78,.12,5.22,3.32,8.77,7.82,8.8,4.23,.03,7.41-3.5,7.58-8.56,.1-3.06-.07-6.13,.11-9.18,.12-2.03-1.04-5.24,2.5-5.21,3.29,.02,2.14,3.08,2.25,4.99,.16,2.92,.04,5.86,.04,8.79Z"/>
    <path class="cls-5" d="M288.59,678.87c0,3.6,.09,7.21-.03,10.81-.08,2.6-1.58,4-3.88,2.35-1.56-1.12-2.52-.71-3.9-.2-8.67,3.17-16.86-2.25-17.18-11.4-.15-4.13-.05-8.27-.09-12.41-.02-1.63,.4-3.11,2.22-3.19,1.87-.09,2.45,1.47,2.49,3.01,.1,3.73-.01,7.47,.05,11.21,.1,5.44,3.11,8.8,7.77,8.78,4.66-.02,7.6-3.31,7.73-8.82,.09-3.6,0-7.21,.01-10.81,0-1.73,.37-3.42,2.51-3.34,1.84,.07,2.24,1.62,2.24,3.21,0,3.6,0,7.2,0,10.81h.05Z"/>
    <path class="cls-5" d="M263.62,690.36c-.03-1.16-.73-2.27-1.81-2.37-2.78-.26-2.52-2.26-2.58-4.06-.09-2.66,.06-5.33-.06-7.99-.35-7.22-5.77-12.72-12.66-12.94-6.9-.21-12.8,4.91-13.62,12.04-.3,2.64-.18,5.33-.19,7.99-.01,2.34,.55,4.94-3.15,5.04-.78,.02-1.53,.82-1.56,1.63-.1,2.92-.17,5.86,.01,8.77,.09,1.44,1.49,1.83,2.74,1.74,1.26-.09,2-1.12,1.79-2.24-1.03-5.55,2.31-5.66,6.28-5.34,2.25,.18,4.53,.03,6.8,.03,2,0,4,.02,6,0,3.87-.05,8.47-1.21,7.38,5.53-.21,1.28,1.03,2.18,2.4,2.12,1.37-.06,2.21-1,2.25-2.35,.08-2.53,.05-5.07-.02-7.6Zm-11.78-2.57c-2-.06-4-.02-6-.02q-7.92,0-8.01-8.29c-.08-7.39,2.01-10.61,7.3-11.31,4.56-.6,8.64,2.4,9.01,6.98,.28,3.44,.06,6.93,.15,10.39,.05,1.8-.84,2.31-2.46,2.26Z"/>
    <path class="cls-5" d="M463.98,672.53c0-3.46,.03-6.93,0-10.39-.12-10.86,1.53-9.32-9.51-9.65-5.81-.17-10.36,1.7-12.68,7.08-2.33,5.4-1.32,10.52,3.23,14.5,1.47,1.29,1.4,2.34,.57,3.73-1.91,3.2-3.83,6.39-5.73,9.59-.85,1.44-1.61,3.08,.22,4.2,2,1.21,3.17-.24,4.11-1.85,2.07-3.57,4.22-7.09,6.2-10.72,1.8-3.31,4.88-2.41,7.44-2.06,2.45,.33,1.22,2.82,1.34,4.35,.19,2.38,.08,4.79,.04,7.19-.02,1.69,.06,3.49,2.17,3.6,2.34,.12,2.64-1.68,2.62-3.59-.04-5.33-.01-10.66-.02-15.99Zm-8.83-.59c-6.16-.35-9.46-2.45-9.57-7.08-.1-4.3,2.89-7.23,7.6-7.41,.67-.03,1.35,.08,2-.04,3.47-.6,4.53,1.02,4.09,4.22-.14,1.05-.02,2.13-.02,3.2h-.04c0,.13,.02,.27,0,.4-.56,2.68,2.17,7.06-4.04,6.71Z"/>
    <path class="cls-5" d="M287.49,702.99c-5.48,5.26-11.26,10.22-16.69,15.54-2.41,2.36-4.07,3.15-7.32,.91-5.08-3.49-11.37-2.06-15.5,2.62-3.59,4.05-3.77,10.81-.42,15.2,3.55,4.65,9.88,6.17,15.08,3.62,5.26-2.58,8.17-8.38,6.39-14.04-.91-2.9,0-3.97,2.29-5.26,9.76-5.54,18.87-12.01,27.11-19.97-3.7,.31-7.55-1.86-10.94,1.39Zm-30,34.94c-4.28,.15-8.12-3.7-8.09-8.11,.03-4.32,3.48-7.92,7.75-8.07,4.29-.15,8.03,3.59,8.11,8.12,.07,4.16-3.55,7.92-7.76,8.06Z"/>
    <path class="cls-5" d="M387.08,671.3c-3.75-5.71-9.13-7.82-15.45-6.05-5.47,1.54-9.38,6.96-9.45,13.36-.08,7.32-.02,14.64-.04,21.95,0,1.82,.03,3.71,2.49,3.64,2.16-.06,2.3-1.83,2.31-3.5,0-3.31,0-6.62,0-10.58,1.49,.72,2.18,1.08,2.89,1.39,6.07,2.58,12.04,1.18,16.17-3.77,3.67-4.41,4.15-11.74,1.08-16.43Zm-11.45,16.57c-5.07-.08-8.82-4.16-8.67-9.44,.14-5.01,4.04-8.92,8.89-8.89,4.5,.02,8.7,4.58,8.57,9.32-.13,4.95-4.16,9.08-8.79,9.01Z"/>
    <path class="cls-5" d="M217.32,664.97c-5.7-1.19-11.7,1.66-14.49,6.88-3.08,5.77-1.63,13.31,3.42,17.86,3.96,3.57,10.65,4.12,15.29,1.15,1.51-.96,3.68-2,2.21-4.32-1.41-2.23-3.09-.98-4.78,.07-3.93,2.43-8.77,1.27-11.23-2.5-1.09-1.68-1.48-2.93,1.32-2.85,2.53,.07,5.07,.02,7.6,.02v-.05c2.67,0,5.34-.07,8,.02,2.91,.1,3.74-1.47,3.54-4.03-.46-5.99-4.92-11-10.9-12.25Zm3.22,11.43c-1.98-.09-3.97-.02-5.96-.01-1.85,0-3.71-.06-5.56,.02-2.13,.1-2.79-.93-1.75-2.61,1.61-2.6,4.03-4.26,7.2-4.23,3.23,.03,5.92,1.31,7.6,4.22,.96,1.66,.75,2.71-1.53,2.61Z"/>
    <path class="cls-5" d="M318.23,683.58h-.08c0-2.13,.16-4.28-.03-6.4-.5-5.6-4.7-10.7-9.71-12.03-6-1.59-11.82,.75-15.2,6.12-3,4.77-2.5,12.01,1.15,16.53,3.79,4.69,9.67,6.18,15.51,3.96,1.54-.59,2.73-1.81,4.63,.27,1.68,1.83,3.48,.32,3.69-2.05,.19-2.12,.04-4.27,.04-6.4Zm-13.41,4.24c-4.83,.05-9.05-4.35-8.92-9.28,.13-4.76,4.29-8.94,8.91-8.97,4.59-.03,8.58,4.24,8.57,9.16-.01,5.08-3.74,9.03-8.57,9.09Z"/>
  </g>
</svg>