<?xml version="1.0" encoding="UTF-8"?>
<svg id="_Слой_1" data-name="Слой 1" xmlns="http://www.w3.org/2000/svg" viewBox="0 0 841.89 595.28">
  <defs>
    <style>
      .cls-1, .cls-2, .cls-3, .cls-4 {
        fill: #fff;
      }

      .cls-5 {
        opacity: .5;
      }

      .cls-2, .cls-6, .cls-4, .cls-7, .cls-8 {
        font-family: CenturyGothic, 'Century Gothic';
      }

      .cls-9, .cls-10 {
        stroke: #749c8b;
      }

      .cls-9, .cls-10, .cls-11 {
        fill: none;
        stroke-miterlimit: 10;
      }

      .cls-9, .cls-11 {
        stroke-width: 2px;
      }

      .cls-12, .cls-6, .cls-3, .cls-4, .cls-7, .cls-13 {
        font-size: 8px;
      }

      .cls-14, .cls-13 {
        font-family: CenturyGothic-BoldItalic, 'Century Gothic';
        font-style: italic;
      }

      .cls-10 {
        stroke-width: 4px;
      }

      .cls-11 {
        stroke: #fff;
      }

      .cls-15, .cls-6, .cls-16, .cls-13, .cls-17, .cls-8 {
        fill: #749c8b;
      }

      .cls-15, .cls-3, .cls-18 {
        font-family: CenturyGothic-Bold, 'Century Gothic';
      }

      .cls-15, .cls-3, .cls-13, .cls-17 {
        font-weight: 700;
      }
    </style>
  </defs>
  <rect class="cls-16" x="329.26" y="416.64" width="208" height="9.74"/>
  <rect class="cls-16" x="329.26" y="173.27" width="208" height="9.74"/>
  <rect class="cls-16" x="329.26" y="211.57" width="208" height="9.74"/>
  <rect class="cls-16" x="329.26" y="297.64" width="208" height="9.74"/>
  <rect class="cls-16" x="329.26" y="325.74" width="208" height="9.74"/>
  <rect class="cls-16" x="329.26" y="355.1" width="208" height="9.74"/>
  <rect class="cls-16" x="329.26" y="345.39" width="208" height="9.74"/>
  <rect class="cls-16" x="31.58" y="22.86" width="789.7" height="51.32" rx="25.66" ry="25.66"/>
  <g class="cls-5">
    <path class="cls-16" d="M23.25,473.16c-2.05,1.46-3.17,2.21-4.25,3.02-6.48,4.9-7.94,13.64-3.21,19.2,4.64,5.45,14.56,5.07,20.08-.76,8.56-9.04,9.54-21.86,2.62-32.69-6.72-10.51-16.17-17.91-27.52-22.45-25.21-10.11-50.09-12.23-73.52,5.14-20.04,14.86-27.7,35.57-28.2,59.61-.59,28.5,7.23,55.34,16.84,81.71,8.78,24.09,20.04,47.1,31.48,70.02,1.68,3.37,3.09,5.06,7.54,3.62,20.42-6.6,36.94-1.28,50.48,15.5,8.21,10.17,13.86,21.43,15.64,34.52,1.37,10.09-1.71,16.7-10.62,21.58-2.1,1.15-3.82,2.51-5.31,4.45-2.21,2.87-5.2,3.4-8.37,1.4-2.92-1.84-3.76-4.5-2.49-7.66,1.41-3.51,4.25-4.36,7.74-3.71,6.38,1.2,12.62-2.74,13.21-8.92,1.96-20.24-17.93-50.2-41.45-49.96-29.76,.3-46.68,27.17-33.63,53.94,3.97,8.14,9.09,15.12,16.43,20.5,2.99,2.19,6.25,3.32,9.87,3.42,2.47,.07,4.56-.43,5.4-3.41,1.18-4.18,4.3-5.57,8.3-4.24,3.17,1.06,4.65,3.59,4.01,6.97-.75,3.91-3.33,5.62-7.23,5.42-.78-.04-1.65-.4-2.33-.17-15.49,5.22-24.71-4.39-33.11-14.61-7.47-9.08-12.27-19.71-14.18-31.47-2.5-15.3,2.66-27.64,15.05-36.66,3.99-2.91,4.38-4.37,1.21-8.43-27.96-35.8-51.38-74.16-64.41-118.09-6.11-20.6-9.06-41.65-5.13-63.06,6.08-33.1,26.62-53.91,57.65-64.37,29.35-9.89,57.89-7.25,84.54,9.42,25.4,15.89,36.3,48.44,24.66,74.25-4.74,10.51-12.47,17.6-24.68,18.43-11.68,.79-21.24-8.15-21.92-20.54-.64-11.6,6.69-20.41,18.84-20.92Z"/>
    <path class="cls-16" d="M-34.3,365.42c3.87-14.86,18.45-23.57,33.2-19.84,14.59,3.69,23.4,18.67,19.63,33.38-3.79,14.79-18.56,23.57-33.23,19.76-14.79-3.84-23.45-18.56-19.61-33.31Z"/>
    <path class="cls-16" d="M156.7,455.94c-10.05-2.62-15.6-12.13-13-22.29,2.53-9.87,12.45-15.66,22.33-13.01,9.47,2.53,15.39,12.62,12.95,22.04-2.57,9.94-12.46,15.82-22.29,13.26Z"/>
    <path class="cls-16" d="M195.43,515.63c-2.04-20.96-11.45-37.45-30.51-46.68-28.34-13.72-57.75-13.33-87.28-3.64-1.89,.62-5.09,1.68-4.51,3.91,.82,3.13,4.05,1.25,6.07,1,17.14-2.12,34.16-2.05,52.82,2.38,1.84,.57,5.49,1.48,8.97,2.82,23.12,8.84,35.07,25.26,34.71,48.1-.17,10.97-3.51,21.28-7.57,31.39,0,0-.37,.77-.37,.78-17.35,35.45-62.04,64.24-67.86,67.93-8.75,4.85-17.67,9.41-26.31,14.44-4.31,2.51-6.97,3.03-10.82-1.35-6.01-6.84-15.53-7.07-23.15-1.87-6.6,4.5-9.32,14.11-6.11,21.62,3.4,7.95,11.92,12.42,20.29,10.65,8.47-1.79,14.73-9.03,14.25-17.79-.25-4.47,1.44-5.68,5.19-6.71,13.91-3.82,27.34-8.94,40.28-15.73l.17,.03s0,0,0,0c.03-.01,6.95-3.29,16.12-8.56,17.48-10.05,33.79-22.5,46.37-38.26,10.15-12.73,12.67-19.92,12.68-19.99,0,0-.02,0-.03-.01,7.14-14.52,8.28-27.35,6.61-44.45ZM47.5,661.01c-6.19-1.34-10.29-8.25-8.65-14.55,1.61-6.18,7.86-10.08,14.02-8.75,6.21,1.34,10.19,8.05,8.66,14.57-1.4,5.98-7.95,10.05-14.04,8.73Z"/>
  </g>
  <text class="cls-3" transform="translate(49.03 50.28)"><tspan x="0" y="0">Название инфекции</tspan></text>
  <text class="cls-3" transform="translate(165.8 38.6)"><tspan x="0" y="0">Рекомендуемый и максимально </tspan><tspan x="-6.39" y="9.6">допустимый возраст вакцинации с </tspan><tspan x="-5.05" y="19.2">указанием возможных интервалов</tspan></text>
  <text class="cls-3" transform="translate(345.41 50.28)"><tspan x="0" y="0">Название вакцин</tspan></text>
  <text class="cls-3" transform="translate(443.21 50.28)"><tspan x="0" y="0">Возраст проведения</tspan></text>
  <text class="cls-3" transform="translate(549.85 47.28)"><tspan x="0" y="0">Совместимость с другими </tspan><tspan x="32.35" y="9.6">вакцинами</tspan></text>
  <text class="cls-3" transform="translate(717.16 50.28)"><tspan x="0" y="0">Примечание</tspan></text>
  <line class="cls-11" x1="139.26" y1="12.39" x2="139.26" y2="81.84"/>
  <line class="cls-11" x1="329.26" y1="12.39" x2="329.26" y2="81.84"/>
  <line class="cls-11" x1="433.26" y1="12.39" x2="433.26" y2="81.84"/>
  <line class="cls-11" x1="537.26" y1="12.39" x2="537.26" y2="81.84"/>
  <line class="cls-11" x1="671.26" y1="12.39" x2="671.26" y2="81.84"/>
  <rect class="cls-10" x="31.58" y="87.2" width="789.7" height="469.53" rx="28.72" ry="28.72"/>
  <line class="cls-9" x1="139.26" y1="87.2" x2="139.26" y2="556.74"/>
  <line class="cls-9" x1="329.26" y1="87.2" x2="329.26" y2="556.74"/>
  <line class="cls-9" x1="433.26" y1="87.2" x2="433.26" y2="556.74"/>
  <line class="cls-9" x1="537.26" y1="87.2" x2="537.26" y2="556.74"/>
  <line class="cls-9" x1="667.26" y1="87.2" x2="667.26" y2="556.74"/>
  <text class="cls-13" transform="translate(64.94 126.14)"><tspan x="0" y="0">Туберкулез</tspan></text>
  <text class="cls-13" transform="translate(47.38 216.35)"><tspan x="0" y="0">Вирусный гепатит В</tspan></text>
  <text class="cls-6" transform="translate(173.48 103.07)"><tspan x="0" y="0">Однократно, с 3-го дня жизни, </tspan><tspan x="3.68" y="9.6">максимальный возраст при </tspan><tspan x="-27.18" y="19.2">отрицательной пробе Манту не ограничен. </tspan><tspan x="-15.31" y="28.8">После 2х месяцев жизни, вакцинация </tspan><tspan x="-26.38" y="38.4">после проведения пробы Манту через 3-14 </tspan><tspan x="49.46" y="48">дней.</tspan></text>
  <text class="cls-6" transform="translate(150.78 196.43)"><tspan x="0" y="0">С 1-го дня жизни, максимальный возраст </tspan><tspan x="4.53" y="9.6">не ограничен. Дети, не находящимся в </tspan><tspan x="2.58" y="19.2">группе риска вакцинируются 4х кратно. </tspan><tspan x="-5.02" y="28.8">Интервал между 2-3-4 дозами минимально </tspan><tspan x="64.02" y="38.4">4 недели.</tspan></text>
  <text class="cls-6" transform="translate(370.4 127.05)"><tspan x="0" y="0">БЦЖ-М</tspan></text>
  <text class="cls-12" transform="translate(334.14 170.92)"><tspan class="cls-15"><tspan x="0" y="0">Моновакцина:</tspan></tspan><tspan class="cls-2"><tspan x="0" y="9.6">Эувакс В</tspan></tspan><tspan class="cls-15"><tspan x="0" y="19.2">В составе </tspan></tspan><tspan class="cls-15"><tspan x="0" y="28.8">комплексных вакцин: </tspan></tspan><tspan class="cls-8"><tspan x="0" y="38.4" xml:space="preserve">аАКДС+ВГВ+ХИБ  </tspan></tspan><tspan class="cls-2"><tspan x="0" y="48">Гексаксим, </tspan></tspan><tspan class="cls-8"><tspan x="0" y="57.6">Инфанрикс-ГЕКСА </tspan></tspan><tspan class="cls-8"><tspan x="0" y="67.2">(коклюш, дифтерия, </tspan></tspan><tspan class="cls-8"><tspan x="0" y="76.8">столбняк, </tspan></tspan><tspan class="cls-8"><tspan x="0" y="86.4">ХИБ-инфекция, ВГВ, </tspan></tspan><tspan class="cls-8"><tspan x="0" y="96">полиомиелит)</tspan></tspan></text>
  <text class="cls-6" transform="translate(455.54 127.05)"><tspan x="0" y="0">3-4 день жизни.</tspan></text>
  <text class="cls-4" transform="translate(453.56 180.39)"><tspan x="0" y="0">1 день жизни</tspan></text>
  <text class="cls-4" transform="translate(445.86 304.99)"><tspan x="0" y="0">2 мес, 3 мес, 4 мес</tspan></text>
  <text class="cls-4" transform="translate(465.13 332.99)"><tspan x="0" y="0">18 мес</tspan></text>
  <text class="cls-4" transform="translate(455.6 362.6)"><tspan x="0" y="0">6 лет, 16 лет</tspan></text>
  <text class="cls-6" transform="translate(543.6 118.05)"><tspan x="0" y="0">Живая вакцина, совместима </tspan><tspan x="19.48" y="9.6">с моновакциной от </tspan><tspan x="14.83" y="19.2">вирусного гепатита В.</tspan></text>
  <text class="cls-6" transform="translate(682.58 107.37)"><tspan x="0" y="0">У большинства детей в месте </tspan><tspan x="-.21" y="9.6">введения вакцины отмечается </tspan><tspan x="6.69" y="19.2">местная реакция, которая </tspan><tspan x="-3.12" y="28.8">заживает за 2-5 месяцев в виде </tspan><tspan x="-4" y="38.4">рубчика, что считается нормой.</tspan></text>
  <line class="cls-9" x1="31.58" y1="158.52" x2="821.29" y2="158.52"/>
  <text class="cls-4" transform="translate(442.86 218.88)"><tspan x="0" y="0">2 мес, 3 мес, 4 мес</tspan></text>
  <text class="cls-6" transform="translate(554.96 204.05)"><tspan x="0" y="0">Совместима с любыми </tspan><tspan x="6.2" y="9.6">другими вакцинами.</tspan></text>
  <text class="cls-6" transform="translate(681.76 189.37)"><tspan x="0" y="0">В случае отклонения от схемы </tspan><tspan x="11.8" y="9.6">ранее не привитые дети </tspan><tspan x="-4.82" y="19.2">прививаются по схеме 0-1-6: две </tspan><tspan x="3.74" y="28.8">дозы с интервалом в месяц, </tspan><tspan x="-6.89" y="38.4">третья доза после первой через 6 </tspan><tspan x="42.25" y="48">месяцев.</tspan></text>
  <text class="cls-6" transform="translate(672.34 283.59)"><tspan x="0" y="0">Коклюшный компонент может быть </tspan><tspan x="10.71" y="9.6">клеточным (более длительный </tspan><tspan x="5.59" y="19.2">иммунитет (5-7 лет), вероятность </tspan><tspan x="18.16" y="28.8">развития постпрививочной </tspan><tspan x="23.34" y="38.4">реакции чуть больше) и </tspan><tspan x="1.85" y="48">бесклеточным (менее длительный </tspan><tspan x="16.03" y="57.6">иммунитет (4-5 лет), менее </tspan><tspan x="4.67" y="67.2">выражена реакция на прививку).</tspan></text>
  <line class="cls-9" x1="31.58" y1="273.52" x2="821.29" y2="273.52"/>
  <line class="cls-9" x1="30.09" y1="364.26" x2="819.8" y2="364.26"/>
  <text class="cls-13" transform="translate(44.47 311.22)"><tspan x="0" y="0">Коклюш, дифтерия, </tspan><tspan x="21.93" y="9.6">столбняк</tspan></text>
  <text class="cls-6" transform="translate(149.57 290.43)"><tspan x="0" y="0">С 2х месяцев жизни до 4х лет - для вакцин </tspan><tspan x="4.35" y="9.6">содержащих коклюш, за исключением </tspan><tspan x="1.85" y="19.2">вакцины Тетраксим – до 12 лет. Вакцины, </tspan><tspan x="-2.52" y="28.8">содержащие гемофильный компонент до </tspan><tspan x="7.45" y="38.4">18 месяцев. Возраст введения вакцин, </tspan><tspan x="-2.3" y="48">содержащих дифтерийный и столбнячный </tspan><tspan x="42.04" y="57.6">компонент до 66 лет.</tspan></text>
  <text class="cls-7" transform="translate(334.16 286.01)"><tspan class="cls-16"><tspan x="0" y="0">аАКДС+ВГВ+ХИБ </tspan></tspan><tspan class="cls-16"><tspan x="0" y="9.6">Гексаксим </tspan></tspan><tspan class="cls-1"><tspan x="0" y="19.2">Инфанрикс-ГЕКСА</tspan></tspan><tspan class="cls-16"><tspan x="0" y="28.8">АКДС</tspan></tspan><tspan class="cls-16"><tspan x="0" y="38.4">Тетраксим</tspan></tspan><tspan class="cls-1"><tspan x="0" y="48">Инфанрикс</tspan></tspan><tspan class="cls-16"><tspan x="0" y="57.6">АДС-м</tspan></tspan><tspan class="cls-1"><tspan x="0" y="67.2">АД-м</tspan></tspan><tspan class="cls-1"><tspan x="0" y="76.8">Адасель</tspan></tspan></text>
  <text class="cls-4" transform="translate(467.49 352.6)"><tspan x="0" y="0">11 лет</tspan></text>
  <text class="cls-6" transform="translate(554.96 314.05)"><tspan x="0" y="0">Совместима с любыми </tspan><tspan x="6.2" y="9.6">другими вакцинами.</tspan></text>
  <text class="cls-13" transform="translate(57.29 401.22)"><tspan x="0" y="0">Гемофильная </tspan><tspan x="7.2" y="9.6">инфекция</tspan></text>
  <text class="cls-6" transform="translate(149.13 399.43)"><tspan x="0" y="0">С 2х месяцев жизни: 3 дозы с интервалом </tspan><tspan x="11.15" y="9.6">не менее 1 месяца. Максимальный </tspan><tspan x="11.19" y="19.2">возраст вакцинации здоровых детей </tspan><tspan x="63.29" y="28.8">до 18 мес. </tspan></text>
  <text class="cls-12" transform="translate(334.16 376.01)"><tspan class="cls-17"><tspan class="cls-18" x="0" y="0">Моновакцины:</tspan><tspan class="cls-14" x="59.48" y="0"> </tspan></tspan><tspan class="cls-8"><tspan x="0" y="9.6">Хиберикс, </tspan></tspan><tspan class="cls-8"><tspan x="0" y="19.2">АКТ-ХИБ, </tspan></tspan><tspan class="cls-8"><tspan x="0" y="28.8">в составе вакцин: </tspan></tspan><tspan class="cls-8"><tspan x="0" y="38.4" xml:space="preserve">Инфанрикс-ГЕКСА  </tspan></tspan><tspan class="cls-2"><tspan x="0" y="48">Гексаксим, </tspan></tspan><tspan class="cls-8"><tspan x="0" y="57.6">аАКДС+ВГВ+ХИБ</tspan></tspan></text>
  <text class="cls-6" transform="translate(555.87 410.26)"><tspan x="0" y="0">Совместима с любыми </tspan><tspan x="6.2" y="9.6">другими вакцинами.</tspan></text>
  <text class="cls-6" transform="translate(675.95 375.59)"><tspan x="0" y="0">Вакцинация у ранее не привитых </tspan><tspan x="-3.77" y="9.6">старше12 месяцев до 18 месяцев: </tspan><tspan x="52.88" y="19.2">1 доза.</tspan><tspan x="-4.53" y="28.8">Вакцинация после 18 месяцев до 5 </tspan><tspan x="19.65" y="38.4">лет проводится детям с </tspan><tspan x="6.72" y="48">заболеваниями: хронический </tspan><tspan x="18.52" y="57.6">гепатит; цирроз печени; </tspan><tspan x="0" y="67.2">хронические заболевания почек, </tspan><tspan x="32.65" y="76.8">сердца и легких; </tspan><tspan x="1.45" y="86.4">иммунодефицитные состояния; </tspan><tspan x="36.64" y="96">муковисцидоз.</tspan></text>
  <text class="cls-4" transform="translate(445.86 424.01)"><tspan x="0" y="0">2 мес, 3 мес, 4 мес</tspan></text>
  <rect class="cls-16" x="329.35" y="517.07" width="208" height="9.74"/>
  <text class="cls-4" transform="translate(445.95 524.44)"><tspan x="0" y="0">2 мес, 3 мес, 4 мес</tspan></text>
  <rect class="cls-16" x="329.35" y="488.26" width="208" height="9.74"/>
  <text class="cls-4" transform="translate(476.7 495.99)"><tspan x="0" y="0">7 лет</tspan></text>
  <line class="cls-9" x1="30.09" y1="477.26" x2="819.8" y2="477.26"/>
  <text class="cls-13" transform="translate(42.38 514.22)"><tspan x="0" y="0">Вирус полиомиелита</tspan></text>
  <text class="cls-6" transform="translate(160.15 499.43)"><tspan x="0" y="0">С 2х месяцев жизни, максимальный </tspan><tspan x="1.48" y="9.6">возраст проведения вакцинации не </tspan><tspan x="-6.99" y="19.2">ограничен. До года вакцина вводится 3х </tspan><tspan x="11.66" y="28.8">кратно с интервалом 1 месяц.</tspan></text>
  <text class="cls-12" transform="translate(334.16 486.01)"><tspan class="cls-17"><tspan class="cls-18" x="0" y="0">Моновакцина:</tspan><tspan class="cls-14" x="58.61" y="0"> </tspan></tspan><tspan class="cls-2"><tspan x="0" y="9.6">Имовакс Полио</tspan></tspan><tspan class="cls-8"><tspan x="0" y="19.2">В составе вакцин:</tspan></tspan><tspan class="cls-8"><tspan x="0" y="28.8">аАКДС+ВГВ+ХИБ </tspan></tspan><tspan class="cls-2"><tspan x="0" y="38.4">Гексаксим </tspan></tspan><tspan class="cls-8"><tspan x="0" y="48">Инфанрикс-ГЕКСА</tspan></tspan><tspan class="cls-8"><tspan x="0" y="57.6">Тетраксим</tspan></tspan></text>
  <text class="cls-6" transform="translate(555.87 509.26)"><tspan x="0" y="0">Совместима с любыми </tspan><tspan x="6.2" y="9.6">другими вакцинами.</tspan></text>
  <text class="cls-6" transform="translate(690.95 498.59)"><tspan x="0" y="0">Допускается проведение </tspan><tspan x="-11.14" y="9.6">ревакцинации в возрасте 6 лет </tspan><tspan x="9.63" y="19.2">вакциной Тетраксим </tspan><tspan x="-14.04" y="28.8">(совмещение с ревакцинацией </tspan><tspan x="38.73" y="38.4">АКДС)</tspan></text>
  <text class="cls-6" transform="translate(683.75 575.2)"><tspan x="0" y="0">*Приложение к плану вакцинации</tspan></text>
</svg>