<?xml version="1.0" encoding="UTF-8"?>
<svg id="_Слой_1" data-name="Слой 1" xmlns="http://www.w3.org/2000/svg" viewBox="0 0 595.28 841.89">
  <defs>
    <style>
      .cls-1, .cls-2, .cls-3, .cls-4 {
        stroke-miterlimit: 10;
      }

      .cls-1, .cls-2, .cls-3, .cls-5 {
        fill: none;
      }

      .cls-1, .cls-2, .cls-4 {
        stroke: #3d293b;
      }

      .cls-1, .cls-6 {
        opacity: .4;
      }

      .cls-7 {
        fill: #d4743f;
      }

      .cls-8 {
        fill: #fff;
      }

      .cls-9 {
        letter-spacing: -.03em;
      }

      .cls-10 {
        fill: #fbeeb9;
      }

      .cls-11 {
        fill: #bed064;
      }

      .cls-11, .cls-12, .cls-13, .cls-14, .cls-15 {
        font-family: MontserratAlternates-Medium, 'MontserratAlternates Medium';
        font-size: 36.67px;
        font-weight: 500;
      }

      .cls-16 {
        fill: #3e2f4d;
      }

      .cls-17 {
        letter-spacing: -.05em;
      }

      .cls-12, .cls-18 {
        fill: #d5792b;
      }

      .cls-19, .cls-14 {
        fill: #89c0bc;
      }

      .cls-20 {
        letter-spacing: 0em;
      }

      .cls-21 {
        letter-spacing: -.03em;
      }

      .cls-22 {
        fill: #477abc;
      }

      .cls-23 {
        fill: #d06844;
      }

      .cls-24 {
        letter-spacing: 0em;
      }

      .cls-25, .cls-13 {
        fill: #6294cf;
      }

      .cls-26 {
        fill: #bd4753;
      }

      .cls-27 {
        fill: #ecbd49;
      }

      .cls-28 {
        fill: #a3cecc;
      }

      .cls-29 {
        fill: #d9896d;
      }

      .cls-30 {
        fill: #ce5c6a;
      }

      .cls-31 {
        letter-spacing: -.02em;
      }

      .cls-32 {
        fill: #fefcf6;
        font-family: Gilroy-Black, Gilroy;
        font-size: 34px;
        font-weight: 800;
      }

      .cls-3 {
        stroke: #d5792b;
        stroke-width: 1.98px;
      }

      .cls-4 {
        stroke-width: .5px;
      }

      .cls-4, .cls-33 {
        fill: #3d293b;
      }

      .cls-34 {
        fill: #5d2a3a;
      }

      .cls-35 {
        fill: #fef5ce;
      }

      .cls-36 {
        letter-spacing: -.01em;
      }

      .cls-37 {
        fill: #edda89;
      }

      .cls-38 {
        fill-rule: evenodd;
      }

      .cls-38, .cls-39 {
        fill: #5d9e8b;
      }

      .cls-40 {
        fill: #ca5125;
      }

      .cls-41 {
        fill: #9b6a41;
      }

      .cls-42 {
        letter-spacing: -.02em;
      }

      .cls-43, .cls-15 {
        fill: #c94050;
      }

      .cls-44 {
        fill: #5b9e98;
      }

      .cls-45 {
        fill: #d37162;
      }
    </style>
  </defs>
  <rect class="cls-35" x="-5.49" y="-2.53" width="606.81" height="857.24"/>
  <path class="cls-10" d="M312.55,518.63c39.5,12.63,12.8,41.75,58.48,34.15,45.67-7.6,66.37,59.74,50.57,82.58-15.8,22.83,11.01,43.49-8.84,79.26-19.85,35.77-52.02,9.24-62.7,40.84-10.68,31.6-48.6,30.11-85.15,28.07-36.55-2.04-19.99-42.71-58.85-42.39-38.86,.32-69.26-40.53-53.22-66.2,16.04-25.67-23.97-54.48,3.47-85.18,27.44-30.7,44.05-16.76,56.18-33.69,12.14-16.93,21.81-62.46,100.06-37.44Z"/>
  <g>
    <path class="cls-37" d="M517.5,661.93s-20.95-46.45-5.46-60.11c15.48-13.66,10.93,47.36,10.93,47.36,0,0,2.73-52.82,21.4-53.28,18.67-.46-14.12,55.1-14.12,55.1,0,0,25.95-52.82,40.07-48.72,14.12,4.1-33.24,52.82-33.24,52.82,0,0,34.61-45.08,43.71-36.88,9.11,8.2-39.16,42.8-39.16,42.8,0,0,35.06-32.33,43.26-26.41,8.2,5.92-37.34,32.33-37.34,32.33"/>
    <path class="cls-37" d="M316.78,718.1s-20.95-46.45-5.46-60.11c15.48-13.66,10.93,47.36,10.93,47.36,0,0,2.73-52.82,21.4-53.28,18.67-.46-14.12,55.1-14.12,55.1,0,0,25.95-52.82,40.07-48.72,14.12,4.1-33.24,52.82-33.24,52.82,0,0,34.61-45.08,43.71-36.88,9.11,8.2-39.16,42.8-39.16,42.8,0,0,35.06-32.33,43.26-26.41,8.2,5.92-37.34,32.33-37.34,32.33"/>
    <path class="cls-10" d="M376.41,714.47s125.8-128.9,225.58-47.1v96.68l-225.58-49.58Z"/>
    <path class="cls-37" d="M-5.49,719.81c7.81-3.29,20.57-7.99,37.34-10.97,46.1-8.19,86.02,3.07,105.35,7.59,114.26,26.74,168.11-27.77,296.23-2.53,15.45,3.04,45.41,9.89,88,10.97,34.54,.87,62.66-2.43,79.89-5.06v49.82H-5.49v-49.82Z"/>
    <rect class="cls-10" x="-5.49" y="735.76" width="606.81" height="118.95"/>
    <path class="cls-37" d="M28.12,713.23s-19.83-6.2-15.49-40.9c18.59-4.96,22.93,29.13,22.93,29.13,0,0-13.01-26.65,11.77-47.72,13.63,19.83,2.48,47.1,2.48,47.1,0,0-2.48-32.85,21.69-40.9,8.68,23.55-11.77,40.28-11.77,40.28,0,0,11.16-22.93,30.37-26.03,.62,19.83-24.17,40.9-24.17,40.9"/>
    <path class="cls-37" d="M539.28,728.05s-15.1-4.72-11.8-31.15c14.16-3.78,17.46,22.18,17.46,22.18,0,0-9.91-20.3,8.97-36.34,10.38,15.1,1.89,35.87,1.89,35.87,0,0-1.89-25.02,16.52-31.15,6.61,17.94-8.97,30.68-8.97,30.68,0,0,8.5-17.46,23.13-19.82,.47,15.1-18.41,31.15-18.41,31.15"/>
    <path class="cls-37" d="M172.64,725.37s-15.1-4.72-11.8-31.15c14.16-3.78,17.46,22.18,17.46,22.18,0,0-9.91-20.3,8.97-36.34,10.38,15.1,1.89,35.87,1.89,35.87,0,0-1.89-25.02,16.52-31.15,6.61,17.94-8.97,30.68-8.97,30.68,0,0,8.5-17.46,23.13-19.82,.47,15.1-18.41,31.15-18.41,31.15"/>
    <path class="cls-10" d="M44.24,738.02s-8.06-9.3-1.24-19.83c6.2,1.86,6.82,10.54,6.82,10.54,0,0,3.72-11.77,8.68-13.01,5.58,9.92,2.48,16.73,2.48,16.73,0,0,4.34-11.77,11.16-13.63,6.82,8.68-2.48,19.21-2.48,19.21h-25.41Z"/>
    <path class="cls-10" d="M395.23,736.78s-6.02-6.94-.93-14.81c4.63,1.39,5.09,7.87,5.09,7.87,0,0,2.78-8.8,6.48-9.72,4.17,7.41,1.85,12.5,1.85,12.5,0,0,3.24-8.8,8.33-10.18,5.09,6.48-1.85,14.35-1.85,14.35h-18.98Z"/>
    <path class="cls-37" d="M451.01,723.76s-6.02-6.94-.93-14.81c4.63,1.39,5.09,7.87,5.09,7.87,0,0,2.78-8.8,6.48-9.72,4.17,7.41,1.85,12.5,1.85,12.5,0,0,3.24-8.8,8.33-10.18,5.09,6.48-1.85,14.35-1.85,14.35h-18.98Z"/>
  </g>
  <path class="cls-1" d="M12.63,672.33s9.3,26.96,20.45,35.63"/>
  <path class="cls-1" d="M47.34,653.74s-7.13,39.66-4.34,53.3"/>
  <path class="cls-1" d="M71.5,659.93s-10.54,37.49-18.28,45.86"/>
  <path class="cls-1" d="M89.17,674.81s-16.73,23.55-22,30.37"/>
  <path class="cls-1" d="M54.03,675.43s-1.55,16.11-4.34,25.41"/>
  <path class="cls-1" d="M527.48,696.9s7.08,20.53,15.58,27.14"/>
  <path class="cls-1" d="M553.92,682.74s-5.43,30.21-3.3,40.59"/>
  <path class="cls-1" d="M572.32,687.46s-8.02,28.56-13.92,34.93"/>
  <path class="cls-1" d="M585.78,698.79s-12.74,17.94-16.76,23.13"/>
  <path class="cls-1" d="M559.02,699.26s-1.18,12.27-3.3,19.35"/>
  <g class="cls-6">
    <line class="cls-2" x1="16.47" y1="773.23" x2="22.22" y2="778.68"/>
    <line class="cls-2" x1="28.02" y1="771.98" x2="26.78" y2="777.93"/>
    <line class="cls-2" x1="35.52" y1="773.05" x2="31.32" y2="779.53"/>
    <line class="cls-2" x1="34.98" y1="799.66" x2="37.52" y2="803.74"/>
    <line class="cls-2" x1="45.04" y1="797.23" x2="44.83" y2="802.78"/>
    <line class="cls-2" x1="55.11" y1="799.85" x2="52.65" y2="804.42"/>
    <line class="cls-2" x1="140.77" y1="748.73" x2="144.69" y2="754.58"/>
    <line class="cls-2" x1="148.88" y1="748.91" x2="148.06" y2="753.5"/>
    <line class="cls-2" x1="155.23" y1="749.98" x2="151.87" y2="754.68"/>
    <line class="cls-2" x1="545.28" y1="779.97" x2="548.94" y2="784.06"/>
    <line class="cls-2" x1="555.94" y1="778.45" x2="556.11" y2="783.42"/>
    <line class="cls-2" x1="563.65" y1="779.62" x2="563.59" y2="785.44"/>
    <line class="cls-2" x1="539.42" y1="658.08" x2="542.9" y2="662.26"/>
    <line class="cls-2" x1="545.18" y1="657.65" x2="545.56" y2="661.61"/>
    <line class="cls-2" x1="551.29" y1="658.66" x2="548.66" y2="662.56"/>
    <line class="cls-2" x1="567.2" y1="673.06" x2="569.56" y2="675.69"/>
    <line class="cls-2" x1="574.07" y1="672.08" x2="574.17" y2="675.28"/>
    <line class="cls-2" x1="579.02" y1="672.83" x2="578.99" y2="676.58"/>
    <line class="cls-2" x1="521.8" y1="675.12" x2="524.08" y2="677.53"/>
    <line class="cls-2" x1="528.29" y1="674.03" x2="528.79" y2="677.13"/>
    <line class="cls-2" x1="534.46" y1="674.54" x2="533.68" y2="678.39"/>
    <line class="cls-2" x1="563.53" y1="757.92" x2="567.61" y2="763.7"/>
    <line class="cls-2" x1="573.19" y1="756" x2="572.2" y2="762.42"/>
    <line class="cls-2" x1="581.12" y1="758.12" x2="577.08" y2="763.93"/>
  </g>
  <g>
    <g>
      <polygon class="cls-10" points="67.79 806.7 77.91 770.3 134.58 770.3 128.42 807.5 67.79 806.7"/>
      <path class="cls-41" d="M133.41,771.29l-5.83,35.2-58.49-.77,9.57-34.43h54.74m2.34-1.98h-58.59l-.4,1.45-9.57,34.43-.69,2.48,2.58,.03,58.49,.77,1.71,.02,.28-1.68,5.83-35.2,.38-2.31h0Z"/>
    </g>
    <g>
      <path class="cls-10" d="M148.67,807.95c-7.06,0-14.17-.16-21.13-.46l-1.12-.05,6.15-37.13h56.72l-5.05,36.36-.8,.06c-8.41,.6-16.93,.98-25.33,1.14-3.14,.06-6.31,.09-9.44,.09Z"/>
      <path class="cls-41" d="M188.15,771.29l-4.79,34.43c-7.69,.54-16.15,.96-25.27,1.14-3.22,.06-6.36,.09-9.4,.09-7.6,0-14.66-.18-21.1-.46l5.83-35.2h54.74m2.28-1.98h-57.02s-1.68,0-1.68,0l-.27,1.66-5.83,35.2-.37,2.21,2.24,.1c6.99,.31,14.12,.46,21.19,.46,3.13,0,6.31-.03,9.44-.09,8.43-.16,16.97-.55,25.38-1.14l1.6-.11,.22-1.59,4.79-34.43,.31-2.26h0Z"/>
    </g>
    <g>
      <path class="cls-10" d="M267.11,807.51c-8.89-.03-17.87-.3-26.66-.79l-1-.06,2.53-36.35,56.66-.73v37.08l-.94,.05c-9.48,.53-19.11,.8-28.64,.8h-1.94Z"/>
      <path class="cls-41" d="M297.64,770.59v35.14c-8.59,.48-18.18,.79-28.59,.79-.64,0-1.28,0-1.93,0-9.65-.04-18.56-.34-26.61-.79l2.39-34.43,54.74-.7m1.98-2.01l-2.01,.03-54.74,.7-1.83,.02-.13,1.82-2.39,34.43-.14,2.01,2.01,.11c8.82,.49,17.81,.76,26.71,.79,.65,0,1.29,0,1.94,0,9.55,0,19.21-.27,28.7-.8l1.87-.1v-37.01s0-2.01,0-2.01h0Z"/>
    </g>
    <g>
      <path class="cls-10" d="M383.48,807.9c-9.58,0-19.26-.4-28.79-1.19l-.85-.07-2.53-36.35h56.67l5.05,36.33-1.04,.09c-8.59,.72-17.41,1.12-26.2,1.18-.78,0-1.55,0-2.31,0Z"/>
      <path class="cls-41" d="M407.12,771.29l4.79,34.43c-7.5,.63-16.27,1.11-26.13,1.17-.78,0-1.55,0-2.32,0-10.85,0-20.54-.51-28.69-1.18l-2.39-34.43h54.74m1.73-1.98h-58.6l.15,2.12,2.39,34.43,.12,1.7,1.7,.14c9.54,.79,19.25,1.19,28.86,1.19,.77,0,1.55,0,2.33,0,8.82-.06,17.66-.46,26.28-1.18l2.09-.18-.29-2.07-4.79-34.43-.24-1.71h0Z"/>
    </g>
    <g>
      <polygon class="cls-10" points="412.02 825.09 408.37 787.15 466.19 787.15 474.1 825.09 412.02 825.09"/>
      <path class="cls-41" d="M465.38,788.14l7.5,35.96h-59.96l-3.45-35.96h55.91m1.61-1.98h-59.71l.21,2.17,3.45,35.96,.17,1.79h64.2l-.5-2.39-7.5-35.96-.33-1.58h0Z"/>
    </g>
    <g>
      <polygon class="cls-10" points="184.72 789.13 188.08 754.14 245.08 754.14 242.65 789.13 184.72 789.13"/>
      <path class="cls-41" d="M244.02,755.13l-2.29,33.01h-55.91l3.17-33.01h55.04m2.13-1.98h-58.97l-.17,1.79-3.17,33.01-.21,2.17h59.95l.13-1.85,2.29-33.01,.15-2.12h0Z"/>
    </g>
    <g>
      <polygon class="cls-10" points="296.65 789.13 296.65 754.13 352.23 754.83 354.62 789.13 296.65 789.13"/>
      <path class="cls-41" d="M297.64,755.13l53.67,.67,2.25,32.33h-55.91v-33.01m-1.98-2.01v37h60.03l-.15-2.12-2.25-32.33-.13-1.82-1.83-.02-53.67-.67-2.01-.03h0Z"/>
    </g>
    <g>
      <path class="cls-10" d="M408.6,789.13l-4.85-34.88,1.02-.11c8.81-.9,17.9-1.37,27.03-1.38h.35c9.25,0,18.62,.46,27.86,1.38l.76,.08,5.78,34.91h-57.95Z"/>
      <path class="cls-41" d="M432.16,753.76c10.82,0,20.27,.63,27.76,1.37,1.77,10.7,3.59,21.7,5.46,33.01h-55.91l-4.59-33.01c7.17-.74,16.27-1.36,26.93-1.37,.12,0,.23,0,.35,0m0-1.98h-.35c-9.16,.01-18.29,.48-27.13,1.38l-2.05,.21,.28,2.04,4.59,33.01,.24,1.71h59.98l-.38-2.31-4.96-29.98-.5-3.02-.25-1.5-1.51-.15c-9.27-.92-18.68-1.38-27.95-1.38h0Z"/>
    </g>
    <g>
      <path class="cls-10" d="M464.41,788.34l-5.67-34.24,1.21,.04c2.18,.07,53.51,2.11,62.3,33.73,2.1,7.57,1.11,14.22-2.95,19.76-11.76,16.06-44.98,17.41-46.39,17.45l-.84,.03-7.67-36.78Z"/>
      <path class="cls-41" d="M459.92,755.13s52.68,1.72,61.38,33.01c9.43,33.92-48.42,35.96-48.42,35.96l-7.5-35.96-5.46-33.01m-2.35-2.06l.39,2.39,5.46,33.01v.04s.02,.04,.02,.04l7.5,35.96,.34,1.64,1.67-.06c1.43-.05,35.11-1.42,47.16-17.86,4.25-5.8,5.29-12.73,3.1-20.61-3.75-13.48-15.95-23.71-35.28-29.6-14.34-4.37-27.39-4.84-27.94-4.86l-2.42-.08h0Z"/>
    </g>
    <g>
      <path class="cls-10" d="M296.65,825.09v-37.89l.94-.05c9.26-.5,18.68-.75,28.01-.75h.73c9.06,.01,18.24,.27,27.28,.75l.84,.04,4.26,37.9h-62.06Z"/>
      <path class="cls-41" d="M325.57,787.39c.25,0,.5,0,.75,0,9.88,.01,19,.31,27.23,.75,1.31,11.64,2.66,23.62,4.04,35.96h-59.96v-35.96c8.4-.45,17.76-.75,27.93-.75m0-1.98c-9.33,0-18.76,.25-28.04,.75l-1.88,.1v39.82h64.16l-.25-2.21-4.04-35.96-.19-1.67-1.68-.09c-9.06-.48-18.26-.74-27.33-.75h-.76Z"/>
    </g>
    <g>
      <path class="cls-10" d="M179.67,825.09l5.27-37.9,.82-.04c7.7-.42,15.5-.68,23.17-.75,1.67-.02,3.31-.02,4.94-.02,9.3,0,18.69,.26,27.91,.77l.96,.05-1,37.89h-62.06Z"/>
      <path class="cls-41" d="M213.84,787.37c10.15,0,19.49,.3,27.88,.77-.31,11.64-.63,23.62-.95,35.96h-59.96l5-35.96c7.15-.39,14.88-.67,23.13-.75,1.65-.02,3.29-.02,4.9-.02m0-1.98h0c-1.62,0-3.26,0-4.92,.02-7.7,.07-15.51,.33-23.22,.75l-1.63,.09-.22,1.62-5,35.96-.31,2.26h64.17l.05-1.93,.59-22.4,.36-13.55,.05-1.93-1.92-.11c-9.25-.51-18.67-.77-27.99-.77h0Z"/>
    </g>
    <g>
      <path class="cls-18" d="M490.16,780.25c7.44,0,15.15,3.36,16.1,7.06,.97,3.73-5.09,7.19-12.66,7.19s-14.5-3.45-15.33-7.19c-.83-3.7,4.45-7.06,11.89-7.06m0-1.98c-5.51,0-10.33,1.75-12.58,4.57-1.18,1.48-1.63,3.22-1.25,4.91,1.08,4.82,8.83,8.73,17.27,8.73,5.88,0,11.18-1.93,13.49-4.92,1.12-1.45,1.51-3.14,1.09-4.74-1.33-5.11-10.39-8.55-18.03-8.55h0Z"/>
      <path class="cls-3" d="M481.32,794.49s0,1.87-.91,2.38"/>
      <line class="cls-3" x1="488.69" y1="796" x2="487.68" y2="798.74"/>
      <line class="cls-3" x1="496.76" y1="796.87" x2="499.29" y2="798.74"/>
      <line class="cls-3" x1="503.76" y1="795.12" x2="507.76" y2="797.81"/>
      <line class="cls-3" x1="509.98" y1="792.86" x2="512.89" y2="794.49"/>
      <line class="cls-3" x1="478.1" y1="780.25" x2="475.41" y2="779.09"/>
      <line class="cls-3" x1="475.22" y1="783.73" x2="471.11" y2="783.23"/>
      <line class="cls-3" x1="473.68" y1="789.64" x2="470.8" y2="789.64"/>
      <line class="cls-3" x1="484.19" y1="778.56" x2="482.88" y2="776.44"/>
      <line class="cls-3" x1="494.17" y1="778.03" x2="494.51" y2="776.97"/>
      <line class="cls-3" x1="501.22" y1="778.75" x2="501.61" y2="780.25"/>
      <line class="cls-3" x1="508.07" y1="780.93" x2="505.8" y2="782.33"/>
      <line class="cls-3" x1="512.57" y1="784.84" x2="510.46" y2="785.34"/>
      <line class="cls-3" x1="513.86" y1="789.64" x2="510.37" y2="789.64"/>
    </g>
  </g>
  <g>
    <path class="cls-33" d="M414.27,611.82c4.38,5.78,4.36,15.67-7.41,24.32-16.26,11.96-30.53,8.25-38.19,.49,0,0,6-2.94,7.92-6.74,7.31-14.48,24.95-34.9,37.68-18.07Z"/>
    <path class="cls-33" d="M470.09,623.23c4.37,5.78,4.36,15.67-7.41,24.32-16.27,11.96-30.53,8.25-38.19,.5,0,0,6-2.94,7.92-6.74,7.31-14.48,24.95-34.9,37.68-18.07Z"/>
    <g>
      <path class="cls-29" d="M369.62,680.41s8.54,11.77,20.54,10.47l6.56,17.58s-23.1-.83-34.93-21.57c0,0-1.18-7.05,7.83-6.49Z"/>
      <path class="cls-29" d="M433.18,714.84l-2.05,32.13s-5.41,5.32-9.58,3.54l-11.63-35.11,23.25-.56Z"/>
      <g>
        <path class="cls-30" d="M421.58,752.32s8.3-2.54,11.45-1.61c3.15,.93,16.99,6.89,13.22,9.09-3.76,2.2-16.92,3.83-21.57,2.7-4.65-1.13-5.5-9.46-3.11-10.17Z"/>
        <path class="cls-33" d="M432.08,755.32l-.95-.17c.02-.12,.57-3.03,3.43-4.1l.34,.91c-2.35,.88-2.81,3.34-2.82,3.36Z"/>
        <g>
          <path class="cls-7" d="M434.72,755.96s2.21-3.14,3.47-3.85"/>
          <path class="cls-33" d="M435.11,756.24l-.79-.56c.23-.33,2.31-3.25,3.63-3.99l.47,.85c-.95,.53-2.71,2.85-3.31,3.7Z"/>
        </g>
        <g>
          <path class="cls-7" d="M437.82,757.73s2.21-3.14,3.47-3.85"/>
          <path class="cls-33" d="M438.22,758.01l-.79-.56c.23-.33,2.31-3.25,3.62-3.99l.47,.84c-.95,.54-2.71,2.86-3.31,3.7Z"/>
        </g>
        <path class="cls-8" d="M420.84,752.82s-2.25-7.78-.71-8.16c1.54-.38,9.96-2.42,11.08-1.37,1.13,1.05,1.85,6.86,.92,7.37-.92,.51-10.72,2.9-11.3,2.16Z"/>
      </g>
      <g>
        <path class="cls-30" d="M369.28,679.92s-5.87,6.4-9.06,7.19c-3.19,.79-18.14,2.66-16-1.14,2.13-3.8,12.64-11.87,17.23-13.25,4.59-1.38,9.53,5.37,7.83,7.2Z"/>
        <path class="cls-33" d="M358.7,682.65l.91-.34c.04,.12,1.04,2.9-.88,5.28l-.75-.61c1.58-1.95,.73-4.31,.73-4.33Z"/>
        <g>
          <path class="cls-7" d="M356.1,683.44s-.31,3.83-1.04,5.07"/>
          <path class="cls-33" d="M355.62,683.4l.96,.08c-.03,.4-.34,3.97-1.1,5.28l-.84-.49c.55-.94,.89-3.83,.98-4.87Z"/>
        </g>
        <g>
          <path class="cls-7" d="M352.53,683.48s-.31,3.83-1.04,5.07"/>
          <path class="cls-33" d="M352.04,683.44l.96,.08c-.03,.4-.35,3.97-1.1,5.28l-.84-.49c.55-.94,.89-3.84,.98-4.87Z"/>
        </g>
        <path class="cls-8" d="M369.66,679.12s5.88,5.57,4.74,6.68c-1.14,1.11-7.36,7.13-8.87,6.79-1.51-.33-5.07-4.98-4.53-5.89,.54-.9,7.77-7.93,8.65-7.59Z"/>
      </g>
    </g>
    <g>
      <path class="cls-19" d="M413.08,707.78l-14.42,3.64s-8.03-2.37-9.2-21.77l8.59-5.77,15.03,23.9Z"/>
      <path class="cls-19" d="M436.4,695.27l3.19,19.89s-15,7.5-32.93,.61l-.19-8.12s-11.39-9.4-8.74-27.31l38.67,14.93Z"/>
      <path class="cls-33" d="M422.51,718.93c.13-.03,.22-.17,.19-.3-1.77-8.54-3.46-21.29-3.48-21.42-.02-.14-.15-.24-.29-.22-.14,.02-.24,.15-.22,.29,.02,.13,1.72,12.9,3.49,21.46,.03,.14,.16,.23,.3,.2,0,0,0,0,.01,0Z"/>
    </g>
    <g>
      <path class="cls-29" d="M448.13,645.11s19.72,.12,30.89-4.29c0,0,6.09-9.48,7.05-7.25,.96,2.23,.16,4.01,.16,4.01,0,0,8.73-4.51,8.48-2.04-.25,2.48-6.61,4.29-6.61,4.29,0,0,8.85-2.28,9.17-.31,.32,1.97-8.5,3.7-8.5,3.7,0,0,7.83-.64,7.61,1.3-.22,1.94-24.22,15.23-55.45,15.52l7.2-14.94Z"/>
      <path class="cls-22" d="M430.86,644.21c2.06-4.32,10.75-7.63,24.77-3.6,0,0,3.76,12.45-3.72,21.06,0,0-29.89,1.09-21.04-17.46Z"/>
      <path class="cls-25" d="M439.13,639.45s5.67,2.4,6.65,11.18c.98,8.78,1.81,43.4-.91,45.16-20.15,13.04-52.22-11.73-49.62-18.22,2.61-6.5,8.63-26.81,11.32-31.56,2.69-4.75,7.88-12.37,14.35-11.55,6.47,.82,18.2,4.99,18.2,4.99Z"/>
      <path class="cls-29" d="M428.66,657.47s12.55,15.21,23.1,20.96c0,0,11.18-1.4,10.08,.76-1.1,2.16-2.97,2.69-2.97,2.69,0,0,9.06,3.8,7,5.2-2.06,1.4-7.53-2.32-7.53-2.32,0,0,7.43,5.33,6.12,6.84-1.31,1.51-8.29-4.15-8.29-4.15,0,0,5.51,5.59,3.88,6.67-1.63,1.08-27.22-8.82-47.47-32.6l16.08-4.05Z"/>
      <path class="cls-25" d="M416,637.44c4.77-.39,12,5.46,15.56,19.6,0,0-8.87,9.51-20.08,7.36,0,0-15.96-25.3,4.52-26.97Z"/>
      <path class="cls-33" d="M431.11,656.71s.05-.02,.07-.03c.12-.08,.16-.23,.08-.35,0-.02-1.09-1.79-4.62-9.59-3.61-7.98-13.34-9.11-13.44-9.12-.15-.02-.27,.09-.28,.23-.02,.14,.09,.27,.23,.28,.09,.01,9.53,1.11,13.02,8.82,3.56,7.86,4.61,9.58,4.65,9.65,.06,.1,.18,.14,.28,.11Z"/>
      <path class="cls-33" d="M440.92,644.75s0,0,0,0c1.08-.27,1.73-.73,1.92-1.36,.26-.86-.44-1.67-.47-1.7-.09-.11-.25-.12-.36-.02-.11,.09-.12,.26-.02,.36,0,0,.54,.63,.36,1.21-.14,.44-.68,.79-1.56,1.01,0,0,0,0,0,0-3.78,.95-16.15-2.02-20.41-6.15-1.81-1.75-1.89-2.58-1.78-2.92,.13-.41,.66-.5,.67-.5,.16-.02,.24-.15,.22-.29-.02-.14-.15-.24-.29-.22-.03,0-.85,.13-1.08,.85-.26,.82,.36,1.95,1.92,3.45,4.46,4.31,16.92,7.28,20.89,6.28Z"/>
    </g>
    <path class="cls-23" d="M421.52,633.62c1.19-1.88,2.37-5.05,1.74-9.86l15.99,9.66s-1.32,2.21-.46,5.12c-6.3,.1-12.03-1.82-17.27-4.91Z"/>
    <path class="cls-29" d="M438.79,638.53c.39,1.33,1.25,2.81,2.9,4.29,0,0-12.59,1.29-22.1-6.99,0,0,.97-.68,1.94-2.21,5.24,3.09,10.97,5.01,17.27,4.91Z"/>
    <g>
      <path class="cls-33" d="M429.01,567.91s23.49-14.32,37.82,1.34c17.57,19.19,15.89,44.1-12.31,52.17-21.73,6.22-40.53,7.88-50.32-15.91-6.52-15.84,6.77-44.2,24.81-37.6Z"/>
      <path class="cls-29" d="M471.06,603.57s-3.35,9.87-3.67,15.61c-.32,5.74-10.7,17.2-29.18,14.08-18.48-3.12-23.8-23.54-23.8-23.54,0,0-9.65-1.1-8.88-10.67,.77-9.57,10.63-9.05,14.05-4.61,0,0,6.94-5.46,10.99-16.04,0,0,12.54,16.65,40.49,25.17Z"/>
      <path class="cls-33" d="M442.51,608.78c-.78,2.27-3.25,3.48-5.52,2.71-2.27-.78-3.48-3.25-2.71-5.52,.78-2.27,3.25-3.48,5.52-2.71s3.48,3.25,2.71,5.52Z"/>
      <path class="cls-33" d="M463.77,613.3c-.78,2.27-3.25,3.48-5.52,2.71-2.27-.78-3.48-3.25-2.71-5.52s3.25-3.48,5.52-2.71c2.27,.78,3.48,3.25,2.71,5.52Z"/>
      <path class="cls-45" d="M432.49,617.12c-.72,3.07-3.78,4.97-6.85,4.26s-4.97-3.78-4.26-6.85c.72-3.07,3.78-4.97,6.85-4.26,3.07,.72,4.97,3.78,4.26,6.85Z"/>
      <path class="cls-45" d="M464.4,624.02c-.72,3.07-3.78,4.97-6.85,4.26-3.07-.72-4.97-3.78-4.26-6.85,.72-3.07,3.78-4.97,6.85-4.26,3.07,.72,4.97,3.78,4.26,6.85Z"/>
      <path class="cls-33" d="M447.34,619.25c.25,0,.5-.03,.75-.08,2.23-.45,3.59-2.73,3.74-2.99,.16-.29,.17-.6,.03-.89-.41-.83-2.27-1.29-3.48-1.5l2.19-7.52-1.03-.3-2.53,8.69,.61,.09c1.45,.21,2.93,.65,3.24,.96-.47,.79-1.58,2.12-2.98,2.4-.88,.18-1.78-.09-2.68-.78l-.65,.85c.91,.7,1.85,1.06,2.79,1.06Z"/>
      <path class="cls-33" d="M444.23,626.07c1.51,0,3.26-1.26,5.32-3.83l-.83-.67c-2.07,2.58-3.79,3.74-4.97,3.35-1.81-.6-2.36-4.72-2.42-6.26l-1.07,.04c.03,.64,.33,6.3,3.15,7.23,.26,.09,.54,.13,.82,.13Z"/>
      <path class="cls-33" d="M435.84,595.05s1.08-1.51,2.59-1.69c.8-.09,1.63,.22,2.44,.94l.71-.8c-1.04-.93-2.15-1.33-3.28-1.2-1.98,.23-3.28,2.06-3.33,2.14l.88,.61Z"/>
      <path class="cls-33" d="M414.6,605.93c.39,0,.76-.14,1.09-.42,1.49-1.26,1.9-5.33,1.2-7.77-.76-2.65-2.8-3.17-3.76-3.08l.1,1.07-.05-.53,.05,.53c.08,0,1.93-.12,2.63,2.31,.64,2.23,.18,5.78-.86,6.66-.22,.19-.44,.22-.72,.08l-.46,.97c.26,.12,.53,.19,.78,.19Z"/>
      <path class="cls-33" d="M421,604.06c-1.17,6.54,3.21,12.82,9.75,13.98,6.02,1.07,11.81-2.55,13.6-8.24,6.24-2.2,8.67,.53,9.19,1.25-.49,6.11,3.74,11.72,9.89,12.82,6.54,1.17,12.82-3.21,13.99-9.75,1.17-6.54-3.21-12.82-9.76-13.99-6.41-1.14-12.55,3.04-13.89,9.37-1.29-1.17-4.06-2.63-9.07-1.1,0-.04,.02-.08,.03-.11,1.17-6.54-3.21-12.82-9.75-13.98-6.54-1.17-12.82,3.21-13.98,9.75Zm33.88,6.04c1.05-5.88,6.69-9.82,12.57-8.77,5.88,1.05,9.82,6.69,8.77,12.57-1.05,5.88-6.69,9.81-12.57,8.76-5.88-1.05-9.81-6.69-8.76-12.57Zm-32.68-5.83c1.05-5.88,6.69-9.81,12.57-8.76,5.88,1.05,9.81,6.69,8.77,12.57-1.05,5.88-6.69,9.81-12.57,8.76-5.88-1.05-9.81-6.69-8.76-12.57Z"/>
    </g>
  </g>
  <g>
    <g>
      <path class="cls-34" d="M78.05,608.16s-17.63,10.53-13.29,26.92c4.34,16.38,11.39,17.45,12.29,22.7,.89,5.25-1.43,12.79,5.67,20.08,0,0,10.07-1.56,14.96-7.04l-2.21-7,5.03,5.64s14.79-4.42,24.02-8.6c9.23-4.18,17.4-6.12,19.06-7.36,1.66-1.24,1.2-8.31,.29-9.82,0,0,3.3,3.94,3.75,7.99,0,0,7.06-1.08,10.31-4.08,3.26-3,.9-10.42-3.11-14.82-4.01-4.4-8.56-7.13-9.4-13.55-.83-6.42-2.94-30.61-24.08-33.62-21.14-3.01-35.6,5.41-43.29,22.58Z"/>
      <path class="cls-43" d="M85.08,641.2s-11.44-22.26,11.38-39.54c21.78-13.73,35.89,5.75,38.56,9.88,.3,.47,.46,.75,.46,.75,0,0-1.69-15.68-17.82-18.85-16.13-3.17-33.3,8.38-37.75,22.37-4.45,13.99,5.17,25.39,5.17,25.39Z"/>
    </g>
    <g>
      <path class="cls-29" d="M107.13,733.05c-2.07,4.29-4.12,7.82-7.67,9.49-5.76,2.72-11.62,2.8-11.62,2.8-5.42,7.59,1.63,10.38,1.63,10.38,12.73,.95,20.08-.89,26.51-5.24,8.29-5.61,11.81-12.48,11.81-12.48l-20.67-4.96Z"/>
      <path class="cls-29" d="M137.64,731.44l6.25,31.48c3.97,2.48,10.25,3.47,10.25,3.47l7.33-31.84-23.83-3.11Z"/>
      <g>
        <path class="cls-25" d="M143.43,769.05s9.75-1.46,13.14,.12,17.92,10.6,13.32,12.43c-4.6,1.83-19.64,1.46-24.68-.6-5.03-2.06-4.58-11.55-1.78-11.95Z"/>
        <path class="cls-16" d="M154.72,774.19l-1.04-.35c.05-.14,1.15-3.31,4.55-4.03l.23,1.08c-2.79,.59-3.72,3.28-3.73,3.3Z"/>
        <g>
          <path class="cls-40" d="M157.57,775.35s3.01-3.15,4.54-3.74"/>
          <path class="cls-16" d="M157.97,775.73l-.8-.76c.32-.33,3.14-3.26,4.74-3.87l.39,1.03c-1.16,.44-3.52,2.75-4.34,3.6Z"/>
        </g>
        <g>
          <path class="cls-40" d="M160.76,777.87s3.01-3.15,4.54-3.74"/>
          <path class="cls-16" d="M161.16,778.25l-.8-.76c.32-.33,3.14-3.26,4.74-3.87l.39,1.03c-1.16,.44-3.52,2.75-4.34,3.6Z"/>
        </g>
        <path class="cls-8" d="M142.52,769.49s-1.22-9.12,.58-9.29c1.8-.17,11.59-1.04,12.68,.33,1.09,1.37,.92,8.01-.2,8.43-1.12,.41-12.53,1.46-13.05,.53Z"/>
      </g>
      <g>
        <path class="cls-25" d="M87.14,745.74s3.12,9.35,2.16,12.96c-.97,3.6-7.34,19.48-9.94,15.27-2.6-4.21-4.83-19.09-3.67-24.41,1.16-5.31,10.58-6.51,11.46-3.82Z"/>
        <path class="cls-16" d="M84.03,757.74l.17-1.09c.14,.02,3.46,.56,4.75,3.78l-1.02,.41c-1.06-2.64-3.87-3.1-3.9-3.1Z"/>
        <g>
          <path class="cls-40" d="M83.38,760.76s3.63,2.42,4.46,3.83"/>
          <path class="cls-16" d="M83.07,761.21l.61-.91c.38,.25,3.76,2.53,4.63,4l-.95,.56c-.63-1.07-3.32-3-4.3-3.65Z"/>
        </g>
        <g>
          <path class="cls-40" d="M81.45,764.33s3.63,2.42,4.46,3.83"/>
          <path class="cls-16" d="M81.15,764.79l.61-.91c.38,.25,3.76,2.53,4.63,4l-.94,.56c-.64-1.07-3.32-3-4.3-3.65Z"/>
        </g>
        <path class="cls-8" d="M86.55,744.92s8.77-2.78,9.25-1.03c.47,1.74,3.02,11.23,1.86,12.54-1.16,1.31-7.73,2.29-8.34,1.26-.6-1.03-3.6-12.09-2.77-12.77Z"/>
      </g>
    </g>
    <g>
      <path class="cls-29" d="M100.01,681s-15.06,12.32-28.76,15.93c0,0-7.22-4.49-6.85-2.16,.37,2.33,1.4,3.34,1.4,3.34,0,0-9.15,0-7.66,1.91,1.49,1.91,7.29,1.24,7.29,1.24,0,0-8.09,1.58-7.33,3.37,.76,1.79,8.87-.02,8.87-.02,0,0-6.73,2.18-5.54,3.67,1.2,1.48,24.29,1.01,53.69-16.07l-15.11-11.21Z"/>
      <path class="cls-29" d="M160.82,665.17s19.45,.17,32.4-5.6c0,0,2.81-8.02,3.98-5.97,1.17,2.05,1,3.48,1,3.48,0,0,7.13-5.73,7.16-3.31,.03,2.42-4.9,5.53-4.9,5.53,0,0,7.3-3.83,7.82-1.96,.53,1.87-6.92,5.55-6.92,5.55,0,0,6.62-2.52,6.62-.61,0,1.9-18.3,16-51.91,21.11l4.76-18.2Z"/>
      <path class="cls-43" d="M127.43,664.4s-8.84,2.37-14.8,4.18c-5.96,1.81-15.86,8.56-20.3,14.62,0,0,8.39,11.43,18.23,10.97,0,0,1.9,12.1,2.69,15.22,0,0,26.75,7.56,43.2-6.67,0,0,.33-10.48-1.65-19.36,0,0,8.58-5.66,11.71-22.14,0,0-13.17-4.67-26.08-.28-10.55,3.59-13,3.46-13,3.46Z"/>
    </g>
    <g>
      <path class="cls-29" d="M136.13,658.7c-.07-.15-.14-.3-.21-.45-.56-1.2-1.04-2.46-1.46-3.66-1.07-3.06-1.66-5.71-1.66-5.71l-14.73,7.51s1.36,3.03,2.03,5.85c.16,.68,.29,1.36,.34,1.97,.07,.87,.01,1.63-.29,2.12-1.37,2.28-4.23,3.77-4.23,3.77,0,0,7.64,3.5,14.7,.64,7.06-2.86,9.86-9.42,9.86-9.42,0,0-2.23,1.7-4.34-2.63Z"/>
      <g>
        <path class="cls-5" d="M136.58,659.53c-13.94,5.87-17.37-2.97-15.2-3.1,1.9-.12,9.93-4.43,11.94-5.52-.34-1.22-.52-2.01-.52-2.01l-14.73,7.51s1.36,3.03,2.03,5.85c.16,.68,.29,1.36,.34,1.97,.07,.87,.01,1.63-.29,2.12-1.37,2.28-4.23,3.77-4.23,3.77,0,0,7.64,3.5,14.7,.64,7.06-2.86,9.86-9.42,9.86-9.42,0,0-1.93,1.46-3.9-1.81Z"/>
        <path class="cls-23" d="M136.58,659.53c-.15-.25-.3-.52-.45-.82-.07-.15-.14-.3-.21-.45-.56-1.2-1.04-2.46-1.46-3.66-.48-1.39-.87-2.69-1.15-3.7-2.01,1.09-10.04,5.4-11.94,5.52-2.17,.14,1.26,8.97,15.2,3.1Z"/>
      </g>
      <path class="cls-29" d="M89.96,638.83s-7.09,5.13-3.07,11.8c4.02,6.67,12.09,3.31,12.09,3.31,0,0,13.28,9.73,30.23,.4,14.4-9.48,10.37-26.71,9.42-30.75-.95-4.04-3.22-7.95-3.22-7.95,0,0-7.22-1.4-10.62-5.86,0,0,1.09,4.16-1.8,5.93-2.89,1.76-10.3-.15-14.71-2.78,0,0,4.44,6.89,1.29,10.02-3.15,3.13-14.85-5.43-14.85-5.43,0,0,1.96,13.96-4.77,21.32Z"/>
      <path class="cls-33" d="M114.18,632.89c.65,2.13-.54,4.38-2.67,5.03-2.13,.65-4.38-.54-5.03-2.67-.65-2.13,.54-4.38,2.67-5.03,2.13-.65,4.38,.54,5.03,2.67Z"/>
      <path class="cls-33" d="M130.73,626.05c.65,2.13-.54,4.38-2.67,5.03-2.13,.65-4.38-.54-5.03-2.67s.54-4.38,2.67-5.03c2.13-.65,4.38,.54,5.03,2.67Z"/>
      <path class="cls-45" d="M115.2,643.33c1.13,2.69-.13,5.78-2.82,6.91-2.69,1.13-5.78-.13-6.91-2.82-1.13-2.69,.13-5.78,2.82-6.91,2.69-1.13,5.78,.13,6.91,2.82Z"/>
      <path class="cls-45" d="M138.88,632.41c1.13,2.69-.13,5.78-2.82,6.91-2.69,1.13-5.78-.13-6.91-2.82-1.13-2.69,.13-5.78,2.82-6.91,2.69-1.13,5.78,.13,6.91,2.82Z"/>
      <path class="cls-33" d="M123.49,638.11c.19-.14,.36-.29,.52-.47,1.43-1.55,1.21-4,1.18-4.27-.03-.3-.2-.55-.46-.69-.76-.4-2.4,.27-3.43,.77l-2.45-6.82-.93,.34,2.83,7.89,.51-.27c1.2-.64,2.55-1.11,2.95-1.04,.08,.85-.03,2.45-.93,3.42-.56,.61-1.38,.9-2.43,.87l-.03,.99c1.07,.03,1.96-.21,2.66-.72Z"/>
      <path class="cls-33" d="M124.87,644.91c1.13-.82,1.76-2.72,1.91-5.76l-.99-.05c-.15,3.06-.81,4.87-1.9,5.21-1.68,.54-4.34-2.25-5.22-3.37l-.78,.61c.37,.47,3.67,4.54,6.3,3.71,.25-.08,.47-.19,.68-.34Z"/>
      <path class="cls-33" d="M102.22,629.15s-.01-1.72,1.02-2.67c.55-.51,1.34-.72,2.34-.62l.1-.99c-1.29-.13-2.33,.17-3.11,.88-1.36,1.25-1.34,3.33-1.34,3.41l.99-.02Z"/>
      <path class="cls-33" d="M125.69,618.72l.57-.81c-1.06-.75-2.11-1.01-3.14-.77-1.8,.42-2.81,2.23-2.85,2.3l.87,.48s.84-1.5,2.21-1.82c.74-.17,1.53,.04,2.34,.61Z"/>
      <path class="cls-33" d="M95.52,651.67c.29-.21,.49-.52,.59-.91,.43-1.76-1.47-5.03-3.33-6.48-2.01-1.57-3.82-.85-4.49-.26l.66,.74-.33-.37,.33,.37c.06-.05,1.38-1.14,3.23,.3,1.69,1.32,3.27,4.23,2.98,5.47-.06,.27-.21,.4-.5,.46l.18,.97c.26-.05,.49-.15,.69-.29Z"/>
    </g>
    <g>
      <path class="cls-19" d="M110.87,669.2s5.39,17.97,6.08,23.51c.7,5.54-4.71,11.58-4.71,11.58,0,0-.04,8.68-3.88,14.28-3.84,5.6-7.95,13.77-7.95,13.77,0,0,9.63,14.51,29.66,9.27l2.78-12.97,2.99-.44,1.43,14.01s14.77,1.3,25.38-9.93l-6.22-29.56s.51-9.4-2.04-21.3c-2.55-11.89-8.19-21.4-8.19-21.4,0,0-2.96-.39-3.41,.34,.06,.59,5.26,13.88,5.26,13.88l-27.67,8.35-6.6-14.37s-1.69-.64-3.24,1.11"/>
      <path class="cls-28" d="M130.08,741.6s-10.67,2.78-19.69-1.82c-6.85-3.49-9.98-7.45-9.98-7.45,0,0-2.02-.19-2.07,3.28-.05,3.48,13.88,14.35,31.25,10.44,0,0,1.93-.73,.48-4.46Z"/>
      <path class="cls-28" d="M162.56,731.35s-4.59,6.7-14.45,8.95c-6.93,1.59-11.23-.29-11.23-.29,0,0-1.44,.78,.44,3.7,1.5,2.34,14.87,5.05,26.29-6.1,0,0,1.03-4.34-1.04-6.26Z"/>
      <path class="cls-4" d="M139.87,728.89c-4.8,.49-11.32,.67-16.75-.9-.14-.04-.22-.19-.18-.33,.04-.14,.19-.23,.33-.18,9.73,2.81,23.1-.1,23.23-.13,.15-.03,.29,.06,.32,.2,.03,.14-.06,.29-.2,.32-.06,.01-2.82,.62-6.74,1.01Z"/>
      <path class="cls-4" d="M123.75,733.16c-.15,.02-.28-.09-.29-.24-.02-.15,.09-.28,.24-.29,3.6-.37,9.05-3.49,9.11-3.52,.13-.07,.29-.03,.36,.1,.07,.13,.03,.29-.1,.36-.23,.13-5.61,3.21-9.32,3.59Z"/>
      <path class="cls-4" d="M136.13,724.17c-.23,.02-.38,.02-.4,.02h-.28s.86-11.94,.86-11.94c0-.15,.14-.26,.28-.25,.15,.01,.26,.14,.25,.28l-.82,11.36c.52-.07,1.64-.25,2.45-1.11,.74-.78,1.06-1.93,.95-3.4l.04-8c0-.15,.13-.26,.27-.27,.15,0,.27,.12,.26,.27l-.04,7.98c.12,1.61-.25,2.9-1.09,3.79-.9,.95-2.1,1.2-2.72,1.26Z"/>
      <path class="cls-4" d="M130.48,713.12c-11.22,1.14-18.85-1.53-18.98-1.57-.14-.05-.21-.2-.16-.34,.05-.14,.2-.21,.34-.16,.21,.08,21.15,7.38,44.7-7.76,.12-.08,.29-.04,.37,.08,.08,.12,.04,.29-.08,.37-9.54,6.14-18.67,8.62-26.19,9.38Z"/>
      <path class="cls-4" d="M158.99,714.95s-.02,0-.03,0c-7.43-.19-8.03-8.25-8.04-8.33,0-.15,.09-.26,.25-.28,.15,0,.27,.1,.28,.25,.02,.31,.58,7.65,7.52,7.84,.15,0,.26,.12,.26,.27,0,.13-.11,.24-.24,.26Z"/>
      <path class="cls-4" d="M108.81,720.37c-.9,.09-1.49,.02-1.51,.01-.15-.02-.25-.15-.23-.3,.02-.15,.15-.25,.3-.23,.28,.04,6.82,.83,9.57-7.36,.05-.14,.2-.21,.34-.17,.14,.05,.21,.2,.17,.34-2.07,6.17-6.35,7.46-8.63,7.7Z"/>
      <path class="cls-4" d="M142.41,703.42l-15.09-2.65-2.74-12.48,.18-.09c9.5-4.86,23.93-6.72,24.07-6.74l.22-.03,.07,.21c.4,1.29,2.58,11.82,2.68,12.26l.03,.14-.1,.1-9.32,9.27Zm-14.65-3.11l14.47,2.54,9.02-8.98c-.25-1.22-2.09-10.02-2.57-11.86-1.86,.26-14.73,2.15-23.49,6.57l2.58,11.73Z"/>
      <path class="cls-4" d="M125.39,690.88c-.12,.01-.23-.05-.28-.17-.05-.14,.02-.29,.15-.34,.16-.06,15.92-6.1,24.12-6.66,.15-.01,.27,.1,.28,.25,0,.15-.07,.28-.25,.28-8.13,.54-23.81,6.56-23.97,6.62-.02,0-.05,.01-.07,.02Z"/>
    </g>
  </g>
  <g>
    <path class="cls-8" d="M164.13,291.12c5.79,.68,33.17,.84,44.9,3.16,11.73,2.32,36.7-2.32,52.57,0,15.87,2.32,38.52-1.39,29.98-7.44-8.54-6.04-18.71,6.04-26.18-10.69-7.46-16.73-18.07-25.13-29.97-9.78-11.89,15.35-23.17-17.21-37.05,0-13.88,17.21-25.47,14.43-36.41,14.43s-18.26,7.92,2.15,10.32Z"/>
    <path class="cls-8" d="M373.66,130.95c22.03,1.37,30.22,.36,47.02,2.56,16.79,2.2,38.75-2.2,50.55,0,11.8,2.2,48.05-.43,26.67-8.88-21.38-8.45-19.1-22.32-36.04-13.52-16.94,8.8-19.6-28.39-40.12-10.72-20.52,17.66-19.73,17.89-30.81,14.52-11.08-3.37-32.84,15.07-17.26,16.04Z"/>
    <path class="cls-8" d="M487.33,198.22c6.07,.67,17.06,.41,23.54,1.03,6.48,.62,23.56,.59,25.34-.8,1.78-1.39-3.82-4.07-8.82-6.58-5-2.51-7.72-11.04-13.93-4.6-6.21,6.44-10.15-.46-15.75,3.01-5.6,3.48-19.8,6.9-10.38,7.94Z"/>
    <path class="cls-8" d="M52.33,208.89c6.07,.67,17.06,.41,23.54,1.03,6.48,.62,23.56,.59,25.34-.8,1.78-1.39-3.82-4.07-8.82-6.58-5-2.51-7.72-11.04-13.93-4.6-6.21,6.44-10.15-.46-15.75,3.01-5.6,3.48-19.8,6.9-10.38,7.94Z"/>
    <path class="cls-8" d="M63.35,410.31c6.07,.67,17.06,.41,23.54,1.03,6.48,.62,23.56,.59,25.34-.8,1.78-1.39-3.82-4.07-8.82-6.58-5-2.51-7.72-11.04-13.93-4.6-6.21,6.44-10.15-.46-15.75,3.01-5.6,3.48-19.8,6.9-10.38,7.94Z"/>
    <path class="cls-8" d="M443.14,376.93c6.07,.67,17.06,.41,23.54,1.03,6.48,.62,23.56,.59,25.34-.8,1.78-1.39-3.82-4.07-8.82-6.58-5-2.51-7.72-11.04-13.93-4.6-6.21,6.44-10.15-.46-15.75,3.01-5.6,3.48-19.8,6.9-10.38,7.94Z"/>
  </g>
  <g>
    <g>
      <path class="cls-27" d="M178.69,506.22c-1.82,.26-3.95,.87-3.95,.87,0,0-3.15-4-4.46-3.57-1.31,.43-1.57,5.57-1.57,5.57,0,0-5.63,1.99-5.47,3.58,.63,2.01,5.41,2.5,5.41,2.5,.05,1.44,.17,2.53,.31,3.37,3.02-1.67,7.74-5.29,9.73-12.32Z"/>
      <path class="cls-27" d="M181.23,506.46c-.22-.43-1.31-.42-2.54-.24-1.99,7.02-6.71,10.65-9.73,12.32,.47,2.65,1.24,2.68,1.24,2.68,2.31,1.07,4.37-4.73,4.37-4.73,4.83,2.95,6.02,1.6,6.02,1.6,1.21-1.29-2.22-6.14-2.22-6.14,4.39-4.33,2.85-5.49,2.85-5.49Z"/>
    </g>
    <g>
      <path class="cls-27" d="M246.98,679.56c-1.57-.96-3.6-1.84-3.6-1.84,0,0,.12-5.1-1.17-5.6-1.28-.5-4.75,3.29-4.75,3.29,0,0-5.61-2.05-6.5-.73-.8,1.95,2.57,5.37,2.57,5.37-.88,1.14-1.48,2.06-1.9,2.8,3.39,.64,9.34,.85,15.35-3.3Z"/>
      <path class="cls-27" d="M248.78,681.36c.11-.47-.75-1.16-1.8-1.8-6,4.15-11.96,3.93-15.35,3.3-1.32,2.34-.75,2.86-.75,2.86,1.1,2.29,6.38-.86,6.38-.86,1.84,5.35,3.62,5.07,3.62,5.07,1.76-.22,2.2-6.14,2.2-6.14,6.14-.54,5.7-2.41,5.7-2.41Z"/>
    </g>
    <g>
      <path class="cls-27" d="M441.26,539.31c-1.57-.96-3.6-1.84-3.6-1.84,0,0,.12-5.1-1.17-5.6-1.28-.5-4.75,3.29-4.75,3.29,0,0-5.61-2.05-6.5-.73-.8,1.95,2.57,5.37,2.57,5.37-.88,1.14-1.48,2.06-1.9,2.8,3.39,.64,9.34,.85,15.35-3.3Z"/>
      <path class="cls-27" d="M443.06,541.11c.11-.47-.75-1.16-1.8-1.8-6,4.15-11.96,3.93-15.35,3.3-1.32,2.34-.75,2.86-.75,2.86,1.1,2.29,6.38-.86,6.38-.86,1.84,5.35,3.62,5.07,3.62,5.07,1.76-.22,2.2-6.14,2.2-6.14,6.14-.54,5.7-2.41,5.7-2.41Z"/>
    </g>
  </g>
  <g>
    <path class="cls-43" d="M83.45,591.93s-3.86-.12-4.34-5.6c-.13-1.21-.94-1.34-.94-1.34,0,0-.82,.13-.94,1.34-.48,5.48-4.34,5.6-4.34,5.6-1.01,.23-.98,1-.98,1,0,0-.02,.77,.98,1,0,0,3.85,.12,4.34,5.6,.12,1.21,.94,1.34,.94,1.34,0,0,.82-.13,.94-1.34,.48-5.48,4.34-5.6,4.34-5.6,1.01-.23,.98-1,.98-1,0,0,.02-.77-.98-1Z"/>
    <path class="cls-43" d="M497.55,583.98s-3.86-.12-4.34-5.6c-.13-1.21-.94-1.34-.94-1.34,0,0-.82,.13-.94,1.34-.48,5.48-4.34,5.6-4.34,5.6-1.01,.23-.98,1-.98,1,0,0-.02,.77,.98,1,0,0,3.85,.12,4.34,5.6,.12,1.21,.94,1.34,.94,1.34,0,0,.82-.13,.94-1.34,.48-5.48,4.34-5.6,4.34-5.6,1.01-.23,.98-1,.98-1,0,0,.02-.77-.98-1Z"/>
  </g>
  <g>
    <g>
      <path class="cls-30" d="M368.33,544.06l-2.18-1.39c.67-1.04,1.01-1.73,1.01-1.73l2.32,1.14s-.4,.81-1.15,1.99Z"/>
      <path class="cls-30" d="M312.93,558.12h-.59s-.02-2.58-.02-2.58h.56c1.2-.03,2.38-.11,3.53-.23l.28,2.57c-1.22,.13-2.49,.21-3.76,.24Zm33.78-.83h-.24s-.02-2.58-.02-2.58h.22c1.27-.03,2.52-.17,3.74-.41l.51,2.53c-1.37,.28-2.78,.43-4.2,.46Zm-38.72,.67c-1.46-.13-2.91-.32-4.32-.58l.47-2.54c1.32,.25,2.69,.43,4.07,.55l-.22,2.57Zm34.04-1.01c-1.41-.23-2.85-.58-4.29-1.03l.78-2.46c1.32,.42,2.64,.74,3.93,.95l-.42,2.55Zm-21.02,.22l-.58-2.52c1.39-.32,2.68-.72,3.83-1.2l.98,2.39c-1.29,.53-2.71,.97-4.23,1.32Zm34.17-1.64l-.99-2.39c1.21-.5,2.4-1.12,3.54-1.86l1.4,2.18c-1.27,.81-2.6,1.51-3.94,2.07Zm-55.75,.82c-1.45-.44-2.84-.95-4.12-1.53l1.06-2.36c1.18,.53,2.46,1.01,3.8,1.41l-.74,2.48Zm34.24-2c-1.21-.54-2.33-1.09-3.32-1.63-.35,.33-.73,.64-1.13,.94l-1.54-2.07c1.09-.81,1.92-1.72,2.47-2.7l2.25,1.27c-.11,.19-.22,.37-.34,.56,.8,.43,1.69,.86,2.65,1.28l-1.05,2.36Zm-42.25-1.7c-1.32-.91-2.47-1.92-3.41-3.01l1.96-1.69c.79,.92,1.77,1.78,2.92,2.57l-1.47,2.13Zm71.23-1.88l-1.72-1.93c.98-.88,1.93-1.86,2.82-2.9l1.97,1.67c-.96,1.14-2,2.2-3.07,3.16Zm-36.54-1.09c-1.23-1.24-1.87-2.5-1.89-3.73,0-.5,.08-.98,.27-1.42l2.38,1c-.05,.12-.07,.24-.07,.37,.01,.53,.42,1.23,1.14,1.96l-1.84,1.82Zm4.92-3.97c-.19-1.11-1.35-1.25-1.84-1.26l.05-2.58c2.29,.05,3.99,1.39,4.33,3.41l-2.55,.43Zm-45.42-.05c-.05-.13-.09-.26-.14-.38-.36-1.06-.7-2.33-1.03-3.88l2.53-.54c.31,1.46,.62,2.63,.95,3.59,.03,.1,.07,.2,.11,.3l-2.42,.91Zm-1.96-8.49c-.23-1.33-.45-2.73-.68-4.2l2.55-.4c.23,1.45,.45,2.85,.68,4.17l-2.55,.43Zm-1.35-8.37c-.22-1.36-.46-2.75-.71-4.16l2.54-.46c.26,1.42,.49,2.83,.72,4.2l-2.55,.42Zm-1.51-8.28c-.3-1.42-.61-2.79-.93-4.08l2.51-.62c.33,1.32,.65,2.73,.95,4.18l-2.53,.53Zm-2.02-8.11c-.41-1.38-.85-2.7-1.31-3.94l2.42-.9c.48,1.29,.94,2.67,1.37,4.09l-2.48,.74Zm-2.9-7.75c-.6-1.29-1.24-2.5-1.91-3.62l2.21-1.33c.72,1.19,1.4,2.49,2.04,3.86l-2.34,1.09Zm-4.22-6.94c-.86-1.07-1.79-2.05-2.75-2.91l1.72-1.93c1.07,.95,2.09,2.03,3.04,3.22l-2.02,1.62Zm-5.94-5.25c-1.13-.67-2.33-1.23-3.58-1.66l.85-2.44c1.41,.49,2.77,1.12,4.05,1.88l-1.32,2.22Zm-7.43-2.61c-1.27-.19-2.62-.29-4-.28v-2.58c1.5,0,2.98,.1,4.39,.31l-.39,2.56Z"/>
      <path class="cls-30" d="M248.05,490.19l-.48-2.54c.75-.14,1.49-.26,2.19-.35l.34,2.56c-.67,.09-1.36,.2-2.06,.33Z"/>
    </g>
    <g>
      <path class="cls-30" d="M391.85,544.69c-.28,.15-.57,.24-.86,.29-2.44,.45-4.43-2.27-5.87-5.35-.95,1.21-2.28,2.52-3.84,2.8-.19,.03-.38,.05-.58,.05-.38,0-.95-.09-1.48-.63-1.7-1.69-2.08-8.03-2.16-11.72-.07,.02-.14,.03-.2,.05-1.68,.3-4.04,.21-5.63-.99-.94-.71-1.49-1.71-1.62-2.89-.32-3.14,5.84-5.28,26.36-9.17,2.58-.49,4.63-.88,5.35-1.09l.21-.05c.88-.16,1.67,.33,1.97,1.21,1.27,3.76-7.98,25.59-11.65,27.49Z"/>
      <path class="cls-26" d="M384.99,533.36l.13,6.28c-.95,1.21-2.28,2.52-3.84,2.8-.19,.03-.38,.05-.58,.05-.38,0-.95-.09-1.48-.63-1.7-1.69-2.08-8.03-2.16-11.72-.07,.02-.14,.03-.2,.05l26.64-12.99-18.5,16.15Z"/>
    </g>
  </g>
  <g>
    <g>
      <path class="cls-30" d="M185.83,393.28l-1.88,1.78c-.85-.9-1.43-1.39-1.44-1.4l1.67-1.98s.69,.58,1.65,1.6Z"/>
      <path class="cls-30" d="M186.12,450.43l-.13,.58-2.51-.61,.13-.54c.27-1.17,.48-2.34,.64-3.48l2.56,.35c-.17,1.22-.39,2.46-.68,3.7Zm7.33-32.98l-.05,.24-2.51-.6,.05-.21c.28-1.23,.45-2.49,.5-3.73l2.58,.11c-.06,1.39-.25,2.8-.57,4.19Zm-8.68,37.74c-.47,1.39-1.01,2.75-1.61,4.05l-2.35-1.07c.56-1.23,1.07-2.51,1.51-3.82l2.44,.84Zm7.23-33.28c-.56,1.31-1.25,2.63-2.04,3.91l-2.2-1.35c.73-1.18,1.35-2.39,1.86-3.58l2.38,1.02Zm-4.85,20.45l-2.58-.04c.02-1.42-.06-2.77-.24-4.01l2.56-.37c.2,1.38,.29,2.86,.26,4.43Zm6.64-33.56l-2.56,.38c-.19-1.29-.51-2.6-.95-3.88l2.45-.83c.49,1.43,.84,2.88,1.06,4.33Zm-12.63,54.31c-.77,1.31-1.61,2.53-2.48,3.63l-2.03-1.6c.8-1.02,1.57-2.14,2.28-3.35l2.22,1.32Zm6.31-33.71c-.81,1.05-1.61,2-2.39,2.82,.23,.42,.44,.86,.64,1.32l-2.38,1c-.52-1.25-1.2-2.28-2.02-3.05l1.77-1.88c.16,.15,.31,.3,.46,.46,.61-.68,1.24-1.44,1.88-2.26l2.04,1.59Zm-11.83,40.59c-1.2,1.06-2.46,1.93-3.74,2.58l-1.17-2.31c1.08-.55,2.16-1.29,3.2-2.21l1.71,1.94Zm15.34-69.59l-2.29,1.21c-.62-1.17-1.34-2.32-2.14-3.44l2.1-1.51c.87,1.21,1.66,2.47,2.33,3.74Zm-9.87,35.2c-1.5,.89-2.87,1.21-4.08,.94-.48-.11-.93-.31-1.32-.61l1.55-2.07c.1,.08,.21,.13,.34,.16,.52,.12,1.29-.11,2.18-.64l1.32,2.22Zm-2.67-5.74c-1.12-.08-1.54,1.01-1.67,1.48l-2.5-.68c.6-2.21,2.31-3.54,4.36-3.38l-.2,2.58Zm-10.99,44.07c-.14,.02-.27,.03-.41,.04-1.11,.09-2.43,.11-4.02,.06l.08-2.58c1.49,.05,2.71,.03,3.72-.06,.11,0,.22-.02,.32-.03l.3,2.57Zm-8.71-.14c-1.34-.1-2.76-.22-4.24-.35l.22-2.57c1.47,.13,2.87,.25,4.21,.35l-.19,2.58Zm-8.45-.71c-1.37-.11-2.78-.22-4.2-.31l.17-2.58c1.44,.09,2.86,.2,4.25,.31l-.21,2.58Zm-8.4-.53c-1.45-.05-2.85-.08-4.18-.08v-2.58c1.37,0,2.81,.03,4.28,.09l-.1,2.58Zm-8.36,.01c-1.43,.07-2.83,.18-4.14,.33l-.29-2.57c1.37-.15,2.81-.27,4.3-.34l.12,2.58Zm-8.22,.94c-1.39,.27-2.73,.6-3.97,.99l-.76-2.47c1.33-.41,2.75-.76,4.23-1.05l.5,2.54Zm-7.76,2.43c-1.25,.58-2.42,1.24-3.49,1.97l-1.46-2.13c1.18-.81,2.48-1.54,3.86-2.18l1.09,2.35Zm-6.53,4.5c-.92,.93-1.75,1.97-2.48,3.07l-2.16-1.41c.82-1.25,1.76-2.42,2.8-3.47l1.84,1.81Zm-4.32,6.58c-.5,1.19-.91,2.47-1.24,3.81l-2.51-.61c.36-1.47,.82-2.88,1.36-4.2l2.39,.99Z"/>
      <path class="cls-30" d="M104.57,497.04l-2.58-.15c.04-.76,.11-1.51,.19-2.21l2.57,.29c-.08,.67-.13,1.37-.17,2.08Z"/>
    </g>
    <g>
      <path class="cls-30" d="M192.11,370.6c.08,.3,.1,.61,.08,.91-.15,2.47-3.27,3.75-6.61,4.4,.95,1.21,1.89,2.82,1.79,4.4-.01,.19-.04,.38-.09,.57-.08,.37-.32,.9-.97,1.29-2.05,1.24-8.29,.09-11.89-.72,0,.07,0,.14,0,.2-.11,1.7-.77,3.97-2.32,5.23-.91,.74-2.01,1.04-3.2,.87-3.12-.45-3.72-6.94-2.55-27.79,.15-2.63,.26-4.71,.24-5.45v-.21c.06-.89,.72-1.54,1.65-1.62,3.95-.33,22.92,13.91,23.87,17.93Z"/>
      <path class="cls-26" d="M179.46,374.53l6.13,1.39c.95,1.21,1.89,2.82,1.79,4.4-.01,.19-.04,.38-.09,.57-.08,.37-.32,.9-.97,1.29-2.05,1.24-8.29,.09-11.89-.72,0,.07,0,.14,0,.2l-6.19-28.98,11.22,21.85Z"/>
    </g>
  </g>
  <g>
    <path class="cls-19" d="M269.1,576.58l2.12,1.48c-.81,1.16-1.6,2.35-2.33,3.54l-2.2-1.36c.76-1.23,1.57-2.46,2.41-3.66Zm-4.62,7.44l2.27,1.23c-.68,1.25-1.32,2.52-1.91,3.77l-2.34-1.1c.61-1.31,1.28-2.62,1.98-3.91Zm-3.71,7.95l2.41,.94c-.52,1.33-.99,2.67-1.39,3.98l-2.47-.76c.42-1.37,.91-2.76,1.45-4.15Zm-43.52,32.12c.54,.25,1.09,.48,1.61,.68l-.92,2.41c-.58-.22-1.17-.47-1.77-.75l1.08-2.35Zm40.94-23.69l2.53,.55c-.24,1.11-.43,2.2-.56,3.26,.93-.02,1.84,.06,2.74,.24l-.52,2.53c-1.22-.25-2.49-.26-3.78-.02l-.39-2.09-.72-.07c.14-1.41,.38-2.88,.71-4.39Zm-5.1,5.94c.21-.12,.42-.24,.63-.35l1.21,2.28c-.3,.16-.59,.33-.89,.51-.86,.53-1.72,1.11-2.57,1.72l-1.52-2.09c.9-.65,1.82-1.27,2.73-1.83,.14-.08,.27-.17,.41-.25Zm-6.6,4.82l1.68,1.96c-.98,.84-1.98,1.75-3.14,2.85l-1.78-1.87c1.2-1.14,2.22-2.07,3.24-2.94Zm-23.74,14.68c1.37,.22,2.65,.24,3.92,.07l.34,2.56c-1.5,.2-3.07,.17-4.66-.08l.4-2.55Zm17.41-8.72l1.81,1.85c-1,.98-2.07,2.02-3.15,3.01l-1.74-1.91c1.05-.96,2.1-1.98,3.08-2.95Zm-6.28,5.61l1.53,2.08c-1.35,1-2.63,1.77-3.91,2.35l-1.07-2.35c1.12-.51,2.25-1.19,3.46-2.08Zm23.48-13.44l2.58-.14c.08,1.46,.3,2.78,.67,3.9l-2.46,.8c-.43-1.34-.7-2.87-.79-4.56Zm9.95-2.98c1.32,.9,2.49,2.06,3.38,3.36l-2.14,1.46c-.71-1.04-1.64-1.96-2.69-2.68l1.45-2.14Zm-4.87,9.87c.77,.73,1.72,1.18,2.83,1.33l.28,.03-.28,2.57c-.12-.01-.23-.03-.35-.04-1.65-.22-3.09-.9-4.26-2.02l1.78-1.87Zm7.44-1.68l2.57-.24c.2,2.13-.59,3.94-2.17,4.97l-1.41-2.17c.97-.63,1.08-1.74,1-2.56Z"/>
    <g>
      <path class="cls-19" d="M194.32,629.14c.28,.15,.57,.24,.86,.29,2.44,.45,4.43-2.27,5.87-5.35,.95,1.21,2.28,2.52,3.84,2.8,.19,.03,.38,.05,.58,.05,.38,0,.95-.09,1.48-.63,1.7-1.69,2.08-8.03,2.16-11.72,.07,.02,.14,.03,.2,.05,1.68,.3,4.04,.21,5.63-.99,.94-.71,1.49-1.71,1.62-2.89,.32-3.14-5.84-5.28-26.36-9.17-2.58-.49-4.63-.88-5.35-1.09l-.21-.05c-.88-.16-1.67,.33-1.97,1.21-1.27,3.76,7.98,25.59,11.65,27.49Z"/>
      <path class="cls-44" d="M201.18,617.8l-.13,6.28c.95,1.21,2.28,2.52,3.84,2.8,.19,.03,.38,.05,.58,.05,.38,0,.95-.09,1.48-.63,1.7-1.69,2.08-8.03,2.16-11.72,.07,.02,.14,.03,.2,.05l-26.64-12.99,18.5,16.15Z"/>
    </g>
  </g>
  <g>
    <path class="cls-19" d="M473.41,514.46l-2.31,1.16c-.64-1.26-1.31-2.52-2.01-3.73l2.24-1.29c.72,1.25,1.42,2.55,2.08,3.85Zm-4.37-7.59l-2.16,1.42c-.78-1.19-1.59-2.35-2.42-3.47l2.07-1.54c.86,1.16,1.71,2.37,2.51,3.6Zm-5.25-7.03l-1.97,1.68c-.93-1.09-1.88-2.13-2.85-3.11l1.84-1.82c1,1.02,2,2.11,2.97,3.25Zm-7.71-53.54c-.48,.36-.94,.73-1.36,1.1l-1.69-1.96c.47-.4,.97-.81,1.49-1.21l1.56,2.06Zm1.51,47.28l-1.68,1.97c-.87-.74-1.74-1.42-2.6-2.04-.42,.83-.92,1.6-1.51,2.3l-1.98-1.66c.8-.96,1.41-2.07,1.81-3.32l2.02,.65,.41-.6c1.17,.79,2.36,1.7,3.53,2.7Zm-2.82-7.31c0,.24,.01,.48,.01,.72h-2.58c0-.35,0-.69-.03-1.04-.06-1-.16-2.04-.3-3.08l2.56-.35c.15,1.1,.26,2.21,.32,3.28,0,.16,.02,.32,.02,.48Zm-1.12-8.09l-2.52,.55c-.28-1.26-.6-2.57-1.03-4.11l2.49-.69c.44,1.59,.77,2.94,1.06,4.24Zm-1.7-27.86c-.84,1.1-1.46,2.22-1.92,3.42l-2.42-.91c.53-1.41,1.3-2.78,2.28-4.07l2.06,1.56Zm-.55,19.46l-2.48,.72c-.39-1.34-.8-2.78-1.16-4.2l2.51-.63c.35,1.38,.75,2.79,1.14,4.11Zm-1.97-8.19l-2.56,.37c-.24-1.66-.31-3.16-.22-4.56l2.58,.17c-.08,1.22-.01,2.54,.2,4.03Zm.73,27.04l-1.1,2.34c-1.33-.62-2.59-1.05-3.75-1.26l.46-2.54c1.38,.25,2.86,.74,4.39,1.46Zm-2.08,10.17c-1.42,.74-2.99,1.22-4.56,1.38l-.27-2.57c1.25-.13,2.51-.51,3.64-1.1l1.2,2.29Zm-6.39-8.96c-1.01,.33-1.85,.96-2.51,1.87l-.16,.23-2.13-1.46c.07-.1,.13-.19,.21-.29,.98-1.35,2.26-2.29,3.79-2.8l.81,2.46Zm-2.04,7.35l-1,2.38c-1.97-.83-3.19-2.38-3.35-4.26l2.58-.21c.1,1.15,1.02,1.77,1.78,2.09Z"/>
    <g>
      <path class="cls-19" d="M462.48,423.72c-.26,.17-.48,.39-.67,.62-1.55,1.94-.09,4.98,1.94,7.7-1.52,.26-3.3,.82-4.28,2.06-.12,.15-.22,.31-.32,.48-.19,.33-.36,.88-.15,1.6,.68,2.29,6.09,5.63,9.3,7.45-.05,.05-.1,.11-.14,.15-1.06,1.34-2.09,3.46-1.79,5.43,.18,1.16,.8,2.12,1.78,2.8,2.61,1.76,7.42-2.65,20.55-18.89,1.66-2.04,2.97-3.67,3.49-4.2l.14-.16c.55-.7,.5-1.63-.13-2.31-2.71-2.9-26.32-5.08-29.73-2.74Z"/>
      <path class="cls-44" d="M469.23,435.12l-5.47-3.08c-1.52,.26-3.3,.82-4.28,2.06-.12,.15-.22,.31-.32,.48-.19,.33-.36,.88-.15,1.6,.68,2.29,6.09,5.63,9.3,7.45-.05,.05-.1,.11-.14,.15l24.05-17.32-22.98,8.66Z"/>
    </g>
  </g>
  <text class="cls-15" transform="translate(87.95 784.21) rotate(90) scale(.52 1)"><tspan x="0" y="0">1</tspan></text>
  <text class="cls-14" transform="translate(148 783.83) rotate(90) scale(.52 1)"><tspan x="0" y="0">2</tspan></text>
  <text class="cls-12" transform="translate(206.04 766.36) rotate(90) scale(.52 1)"><tspan x="0" y="0">3</tspan></text>
  <text class="cls-11" transform="translate(200.67 801.43) rotate(90) scale(.52 1)"><tspan x="0" y="0">4</tspan></text>
  <text class="cls-13" transform="translate(258.64 784.99) rotate(90) scale(.52 1)"><tspan x="0" y="0">5</tspan></text>
  <text class="cls-15" transform="translate(312.22 766.36) rotate(90) scale(.52 1)"><tspan x="0" y="0">6</tspan></text>
  <text class="cls-14" transform="translate(312.22 801.43) rotate(90) scale(.52 1)"><tspan x="0" y="0">7</tspan></text>
  <text class="cls-12" transform="translate(366.18 782.32) rotate(90) scale(.52 1)"><tspan x="0" y="0">8</tspan></text>
  <text class="cls-11" transform="translate(421.4 766.36) rotate(90) scale(.52 1)"><tspan x="0" y="0">9</tspan></text>
  <text class="cls-13" transform="translate(430.6 798.52) rotate(90) scale(.52 1)"><tspan x="0" y="0">10</tspan></text>
  <rect class="cls-39" x="23.55" y="215.74" width="548.18" height="106.17" rx="27.97" ry="27.97"/>
  <text class="cls-32" transform="translate(51.1 258.01)"><tspan x="0" y="0">ЛЕ</tspan><tspan class="cls-21" x="40.8" y="0">Т</tspan><tspan x="58.14" y="0">О В РИТМЕ В</tspan><tspan class="cls-20" x="256.93" y="0">Е</tspan><tspan class="cls-36" x="274.95" y="0">С</tspan><tspan x="298.92" y="0">ЕЛ</tspan><tspan class="cls-42" x="339.72" y="0">Ь</tspan><tspan x="359.31" y="0">Я. </tspan><tspan class="cls-36" x="0" y="40.8">С</tspan><tspan x="23.97" y="40.8">ПИ</tspan><tspan class="cls-9" x="69.02" y="40.8">С</tspan><tspan x="92.45" y="40.8">ОК О</tspan><tspan class="cls-31" x="175.34" y="40.8">Б</tspan><tspan class="cls-24" x="194.78" y="40.8">Я</tspan><tspan x="215.86" y="40.8">З</tspan><tspan class="cls-17" x="234.9" y="40.8">А</tspan><tspan x="256.02" y="40.8">ТЕЛЬНЫХ ДЕЛ </tspan></text>
  <g>
    <path class="cls-39" d="M173.19,75.07c-4.07-9.93-12.51-14.18-20.46-15.23-14.29-1.89-27.6,7.77-30.13,10.12-.53,.49,.09,1.48,.74,1.2,4.18-1.8,10.5-4.97,15.3-6.02,13.23-2.89,25.03,1.59,28.04,18.33,.68,6.61-.07,11.33-2.55,16.97-.11,.26,.07,.55,.36,.55h7.26c.42,0,.8-.24,.98-.61,3.87-8.14,4.41-15.73,.48-25.31h0Zm-25.92,49.2c-4.44,4.63-9.11,9.05-13.41,13.35,.04,.04,.66,1.03,.7,1.08,5.86-3.94,12.76-8.79,19.22-14.41,.19-.17,.07-.49-.18-.49h-5.26c-.41,0-.79,.17-1.07,.46Z"/>
    <path class="cls-39" d="M99.19,157.19c-18.65-21-61.73-69.74-25.41-91.29,15.83-9.39,36.76,.86,38.35,11.83,.35,2.45-.15,4.92-2.06,7.21-5.2,6.21-13.28-2.85-7.36-8.6,.17-.16,.35-1.22-.49-.83-.85,.39-8.75,6.24-2.86,13.2,3.69,4.35,9.31,4.23,13.08,1.03,3.2-2.71,5.51-7.71,4.91-13.71-2.89-29.3-49.57-31.83-65.53-2.38-16.74,36.56,40.33,80.34,47.2,84.13,.31,.17,.08-.59,.17-.59h0Z"/>
    <path class="cls-39" d="M80.65,27.59c6.1,0,11.05,4.95,11.05,11.04s-4.94,11.05-11.05,11.05-11.04-4.94-11.04-11.05,4.94-11.04,11.04-11.04h0Z"/>
    <path class="cls-39" d="M152,40.4c4.07,0,7.36,3.3,7.36,7.35s-3.3,7.36-7.36,7.36-7.35-3.3-7.35-7.36,3.29-7.35,7.35-7.35h0Z"/>
    <g>
      <path class="cls-39" d="M122.14,179.14l-.7-1.6c7.85-3.43,6.72-7.67,6.66-7.84l-.02-.06v-.05s-.39-2.12-2.05-4.97c-1.53-2.62-3.1-4.66-8.31-8.29-4.24-2.54-8.59-3-12.91-1.4-3.26,1.22-5.66,3.45-5.68,3.47l-2.62-2.69s2.44-2.4,6.04-3.76c3.35-1.26,8.57-2.01,14.48,1.51,5.76,3.45,8.92,7.54,10.55,10.36,1.65,2.88,2.13,5.05,2.2,5.42,.1,.33,.38,1.72-.33,3.54-1.01,2.54-3.47,4.68-7.32,6.36h0Zm-10.47,8.9c-1.8,.45-3.08,.09-3.38-.02-.37-.09-2.59-.68-5.44-2.47-2.81-1.76-6.8-5.06-9.9-10.82-3.19-5.93-1.93-10.89-.31-14.01,1.72-3.34,4.29-5.37,4.38-5.45l2.68,2.62s-2.41,2.03-3.96,5.05c-2.03,3.97-1.92,8.12,.34,12.31,2.9,5.4,5.04,7.12,7.64,8.76,2.82,1.79,4.99,2.31,5.02,2.31h.05s.05,.03,.05,.03c.16,.05,3.63,1.18,7.39-3.64,.48-.62,1.9,.41,1.34,1.13-1.7,2.15-3.58,3.53-5.62,4.11-.1,.03-.19,.05-.27,.07h0Z"/>
      <path class="cls-39" d="M109.93,188.56c-.9,0-1.51-.18-1.74-.25-.23-.05-2.53-.63-5.5-2.5-2.83-1.77-6.86-5.11-10-10.93-3.25-6.04-1.97-11.1-.32-14.29,1.37-2.66,3.25-4.49,4.09-5.23,.58-.54,2.83-2.5,6-3.69,3.4-1.28,8.72-2.05,14.74,1.54,5.83,3.5,9.01,7.62,10.65,10.47,1.73,3.01,2.18,5.27,2.23,5.52,.07,.25,.43,1.73-.35,3.71-1.04,2.61-3.55,4.81-7.48,6.52l-.27,.12-.94-2.15,.27-.12c7.65-3.34,6.51-7.45,6.5-7.49l-.04-.16c-.03-.13-.44-2.16-2-4.85-1.42-2.44-2.84-4.45-8.22-8.2-4.14-2.47-8.39-2.94-12.63-1.36-2.08,.77-3.81,1.98-4.77,2.74h0s-.05,.04-.05,.04c-.48,.38-.75,.63-.76,.64l-.14,.14c-.8,.8-2.19,2.34-3.22,4.34-1.98,3.88-1.87,7.93,.34,12.04,2.94,5.46,5.07,7.09,7.54,8.65,2.72,1.73,4.82,2.25,4.91,2.27l.17,.05c.3,.09,3.53,.95,7.04-3.54,.18-.24,.46-.34,.79-.3,.47,.06,.96,.44,1.13,.88,.13,.32,.09,.65-.12,.91-1.74,2.21-3.68,3.62-5.78,4.21-.11,.03-.2,.06-.28,.07-.69,.17-1.3,.23-1.81,.23Zm-13.42-32.45c-.91,.86-2.45,2.5-3.61,4.75-1.58,3.06-2.82,7.92,.31,13.73,3.08,5.71,7.03,8.97,9.8,10.71,2.89,1.82,5.11,2.38,5.35,2.44,.26,.09,1.48,.45,3.24,.02h0c.07-.02,.16-.04,.25-.07,1.98-.56,3.82-1.91,5.48-4.01,.05-.06,.1-.16,.03-.32-.1-.24-.4-.48-.66-.51-.17-.02-.22,.05-.24,.07-3.8,4.87-7.33,3.87-7.72,3.74l-.06-.02h0s0,0,0,0c-.36-.07-2.49-.67-5.13-2.35-2.55-1.61-4.74-3.28-7.75-8.87-2.31-4.29-2.42-8.52-.34-12.59,1.02-2,2.41-3.56,3.27-4.42l-2.22-2.28Zm25.32,21.58l.46,1.06c3.62-1.63,5.94-3.67,6.89-6.07,.72-1.84,.37-3.2,.32-3.35-.05-.27-.49-2.43-2.17-5.36-1.6-2.78-4.72-6.82-10.44-10.26-5.81-3.47-10.94-2.72-14.22-1.49-2.38,.89-4.26,2.27-5.22,3.06l2.28,2.23c.98-.78,2.8-2.06,4.99-2.87,4.42-1.64,8.85-1.16,13.16,1.42,5.03,3.5,6.72,5.5,8.41,8.4,1.58,2.73,2.01,4.74,2.07,5.07h0s.02,.08,.02,.08c.05,.18,1.27,4.55-6.56,8.08Zm-24.88-21.98l2.21,2.26s.07-.06,.1-.09l-2.26-2.21s-.03,.03-.05,.04Z"/>
    </g>
    <path class="cls-39" d="M115.81,181.49c1.43,0,2.58,1.15,2.58,2.58s-1.15,2.59-2.58,2.59-2.58-1.16-2.58-2.59,1.15-2.58,2.58-2.58h0Z"/>
    <path class="cls-39" d="M123.37,174.96c1.43,0,2.58,1.15,2.58,2.58s-1.15,2.58-2.58,2.58-2.58-1.15-2.58-2.58,1.15-2.58,2.58-2.58h0Z"/>
    <g>
      <path class="cls-39" d="M129.49,136.25c-2.82,0-5.1,2.28-5.1,5.1s2.28,5.1,5.1,5.1,5.1-2.29,5.1-5.1-2.29-5.1-5.1-5.1h0Zm0,12.06c-3.84,0-6.96-3.12-6.96-6.96s3.12-6.96,6.96-6.96,6.96,3.12,6.96,6.96-3.12,6.96-6.96,6.96h0Z"/>
      <path class="cls-39" d="M129.49,148.6c-4,0-7.26-3.26-7.26-7.26s3.26-7.26,7.26-7.26,7.26,3.26,7.26,7.26-3.26,7.26-7.26,7.26Zm0-13.92c-3.67,0-6.66,2.99-6.66,6.66s2.99,6.66,6.66,6.66,6.66-2.99,6.66-6.66-2.99-6.66-6.66-6.66Zm0,12.06c-2.98,0-5.4-2.42-5.4-5.4s2.42-5.4,5.4-5.4,5.4,2.42,5.4,5.4-2.42,5.4-5.4,5.4Zm0-10.2c-2.65,0-4.8,2.15-4.8,4.8s2.15,4.8,4.8,4.8,4.8-2.15,4.8-4.8-2.15-4.8-4.8-4.8Z"/>
    </g>
    <g>
      <path class="cls-39" d="M96.08,97.43c.31,0,.57,.11,.78,.34,.22,.23,.33,.5,.33,.81v20.88c0,.32-.11,.59-.33,.82-.21,.23-.47,.34-.78,.34s-.56-.11-.78-.34c-.22-.23-.33-.5-.33-.82v-19.72h-11.1v19.72c0,.32-.11,.59-.33,.82-.22,.23-.47,.34-.78,.34s-.56-.11-.78-.34c-.22-.23-.33-.5-.33-.82v-20.88c0-.31,.11-.59,.33-.81,.22-.23,.47-.34,.78-.34h13.32Zm17.11,13.92c-.2-1.12-.71-2.1-1.52-2.96-1.08-1.14-2.39-1.71-3.93-1.71s-2.84,.57-3.92,1.71c-.82,.86-1.32,1.84-1.53,2.96h10.9Zm-1.18,5.32c.31,0,.57,.11,.79,.34,.22,.23,.33,.5,.33,.82s-.11,.59-.32,.83c-1.43,1.3-3.12,1.96-5.06,1.96-2.14,0-3.97-.8-5.49-2.39-1.51-1.58-2.27-3.5-2.27-5.74s.76-4.15,2.27-5.75c1.52-1.58,3.35-2.38,5.49-2.38s3.98,.8,5.49,2.38c1.51,1.59,2.27,3.51,2.27,5.75,0,.32-.1,.59-.32,.82-.22,.23-.48,.34-.79,.34h-12.1c.21,1.11,.71,2.09,1.53,2.94,1.08,1.13,2.39,1.7,3.92,1.7,1.39,0,2.58-.46,3.58-1.39,.21-.16,.44-.24,.69-.24h0Zm39.63,2.79c0,.32-.1,.59-.32,.82-.22,.23-.48,.34-.78,.34s-.57-.11-.79-.34c-.21-.23-.32-.5-.32-.82v-.94c-1.39,1.4-3.05,2.1-4.99,2.1s-3.69-.74-5.1-2.21c-1.42-1.48-2.12-3.25-2.12-5.33v-7.54c0-.32,.1-.59,.32-.82,.22-.23,.48-.34,.78-.34s.57,.11,.79,.34c.21,.23,.32,.5,.32,.82v7.55c0,1.43,.49,2.67,1.46,3.69,.98,1.02,2.16,1.53,3.53,1.53s2.56-.51,3.54-1.53c.97-1.02,1.46-2.26,1.46-3.69v-7.55c0-.32,.11-.59,.32-.82,.22-.23,.48-.34,.79-.34s.56,.11,.78,.34c.22,.23,.32,.5,.32,.82v13.92Zm9.99-12.77c-1.53,0-2.84,.57-3.93,1.7-1.08,1.14-1.63,2.5-1.63,4.11s.54,2.97,1.63,4.11c1.08,1.13,2.4,1.7,3.93,1.7s2.84-.57,3.93-1.7c1.08-1.14,1.63-2.51,1.63-4.11s-.54-2.97-1.63-4.11c-1.08-1.13-2.39-1.7-3.93-1.7h0Zm5.55,11.49c-1.56,1.63-3.4,2.44-5.55,2.44s-3.98-.8-5.49-2.39c-1.52-1.58-2.27-3.5-2.27-5.74s.75-4.15,2.27-5.75c1.51-1.58,3.35-2.38,5.49-2.38s3.98,.8,5.49,2.38c1.51,1.59,2.27,3.51,2.27,5.75v6.96c0,.32-.1,.59-.32,.82-.22,.23-.48,.34-.79,.34s-.56-.11-.78-.34c-.22-.23-.32-.5-.32-.82v-1.28Zm6.93,1.28c0,.32-.1,.59-.32,.82-.22,.23-.48,.34-.78,.34s-.57-.11-.79-.34c-.22-.23-.32-.5-.32-.82v-13.92c0-.32,.1-.59,.32-.82,.22-.23,.48-.34,.79-.34s.56,.11,.78,.34c.22,.23,.32,.5,.32,.82v.3c1.11-.97,2.4-1.46,3.9-1.46,1.68,0,3.12,.62,4.31,1.87,.25,.26,.48,.53,.68,.83,.2-.3,.43-.57,.68-.83,1.19-1.25,2.63-1.87,4.31-1.87s3.12,.62,4.32,1.87c1.19,1.25,1.78,2.75,1.78,4.51v8.7c0,.32-.1,.59-.32,.82-.22,.23-.48,.34-.78,.34s-.57-.11-.78-.34c-.22-.23-.33-.5-.33-.82v-8.7c0-1.13-.38-2.08-1.14-2.88-.76-.8-1.68-1.19-2.75-1.19s-1.99,.39-2.75,1.19c-.76,.8-1.15,1.75-1.15,2.88v8.7c0,.32-.1,.59-.32,.82-.22,.23-.48,.34-.78,.34s-.57-.11-.79-.34c-.22-.23-.32-.5-.32-.82v-8.7c0-1.13-.38-2.08-1.14-2.88-.76-.8-1.68-1.19-2.75-1.19s-1.99,.39-2.75,1.19c-.77,.8-1.15,1.75-1.15,2.88v8.7Zm24.41-6.96c0,1.6,.54,2.97,1.63,4.11,1.08,1.13,2.39,1.7,3.93,1.7s2.84-.57,3.93-1.7c1.08-1.14,1.63-2.51,1.63-4.11s-.54-2.97-1.63-4.11c-1.08-1.13-2.39-1.7-3.93-1.7s-2.84,.57-3.93,1.7c-1.08,1.14-1.63,2.5-1.63,4.11h0Zm0,13.91c0,.31-.11,.59-.32,.81-.22,.23-.48,.34-.79,.34s-.56-.11-.78-.34c-.22-.23-.32-.5-.32-.81v-13.92c0-2.24,.75-4.15,2.27-5.74,1.51-1.58,3.35-2.38,5.49-2.38s3.97,.8,5.49,2.38c1.51,1.59,2.27,3.51,2.27,5.75s-.76,4.15-2.27,5.74c-1.52,1.59-3.35,2.39-5.49,2.39s-3.98-.8-5.5-2.38c-.02-.02-.03-.03-.05-.06v8.23Zm35.42-7.06c0,.31-.1,.59-.32,.82-.22,.23-.48,.34-.78,.34s-.57-.11-.79-.34c-.22-.23-.32-.51-.32-.82v-.94c-1.39,1.4-3.05,2.1-4.99,2.1s-3.69-.74-5.1-2.21c-1.42-1.48-2.12-3.25-2.12-5.33v-7.54c0-.32,.1-.59,.32-.82,.22-.23,.48-.34,.78-.34s.57,.11,.79,.34c.21,.23,.32,.5,.32,.82v7.55c0,1.43,.49,2.67,1.46,3.69,.98,1.02,2.16,1.53,3.53,1.53s2.56-.51,3.54-1.53c.97-1.02,1.46-2.26,1.46-3.69v-7.55c0-.32,.1-.59,.32-.82,.22-.23,.48-.34,.79-.34s.56,.11,.78,.34c.22,.23,.32,.5,.32,.82v13.92Zm20.5-19.62v9.27h-4.43c-1.23,0-2.28-.45-3.14-1.36-.87-.9-1.29-1.99-1.29-3.28s.43-2.37,1.29-3.27c.86-.91,1.91-1.36,3.14-1.36h4.43Zm1.11-2.31h-5.54c-1.84,0-3.4,.67-4.7,2.03-1.29,1.36-1.94,3-1.94,4.92s.64,3.56,1.94,4.91c.59,.63,1.25,1.11,1.95,1.43l-4.83,8.09c-.11,.18-.17,.4-.17,.64,0,.32,.1,.59,.32,.82,.22,.23,.48,.34,.79,.34,.39,0,.72-.2,.96-.59l5.19-8.7h4.91v8.13c0,.32,.11,.59,.32,.82,.22,.23,.48,.34,.79,.34s.56-.11,.78-.34c.22-.23,.33-.5,.33-.82v-20.88c0-.31-.11-.59-.33-.81-.22-.23-.47-.34-.78-.34h0Z"/>
      <path class="cls-39" d="M197.39,127.86c-.38,0-.72-.15-.99-.43-.27-.28-.41-.62-.41-1.02v-13.92c0-2.31,.79-4.31,2.36-5.94,1.57-1.64,3.49-2.47,5.71-2.47s4.13,.83,5.71,2.47c1.56,1.65,2.36,3.65,2.36,5.95s-.79,4.31-2.36,5.94c-1.57,1.65-3.49,2.48-5.71,2.48-2.01,0-3.77-.68-5.26-2.02v7.52c0,.38-.14,.73-.4,1.02-.28,.29-.62,.44-1.01,.44Zm6.66-23.19c-2.05,0-3.83,.77-5.28,2.29-1.47,1.54-2.19,3.35-2.19,5.53v13.92c0,.24,.08,.44,.24,.61,.16,.17,.35,.25,.56,.25s.41-.08,.57-.25c.16-.17,.24-.37,.24-.61v-9.2l.54,.81c1.5,1.56,3.23,2.31,5.31,2.31s3.8-.75,5.28-2.3c1.45-1.52,2.19-3.38,2.19-5.53s-.74-4.01-2.19-5.54c-1.46-1.52-3.23-2.29-5.28-2.29Zm-11.07,16.25c-.39,0-.73-.15-1-.44-.27-.28-.41-.63-.41-1.02v-8.7c0-1.06-.34-1.93-1.05-2.67-.71-.74-1.54-1.1-2.54-1.1s-1.83,.36-2.53,1.1c-.72,.75-1.06,1.62-1.06,2.67v8.7c0,.4-.14,.75-.41,1.03-.27,.28-.62,.43-.99,.43s-.73-.15-1-.43c-.27-.28-.41-.63-.41-1.03v-8.7c0-1.06-.34-1.93-1.05-2.67-.71-.74-1.54-1.1-2.54-1.1s-1.83,.36-2.53,1.1c-.72,.74-1.06,1.62-1.06,2.67v8.7c0,.4-.14,.75-.41,1.03-.27,.28-.62,.43-.99,.43s-.73-.15-1-.43c-.27-.28-.41-.63-.41-1.03v-13.92c0-.4,.14-.75,.41-1.03,.28-.29,.61-.43,1-.43s.72,.15,.99,.43c.2,.21,.33,.45,.38,.73,1.06-.77,2.27-1.17,3.63-1.17,1.76,0,3.29,.66,4.53,1.96,.17,.18,.33,.35,.47,.53,.14-.18,.3-.35,.47-.53,1.24-1.3,2.76-1.96,4.53-1.96s3.29,.66,4.53,1.96c1.24,1.3,1.87,2.89,1.87,4.72v8.7c0,.4-.14,.75-.41,1.03-.27,.28-.62,.43-.99,.43Zm-5-14.53c1.16,0,2.16,.43,2.97,1.28,.81,.85,1.22,1.88,1.22,3.08v8.7c0,.24,.08,.44,.25,.62,.16,.17,.34,.25,.56,.25s.4-.08,.56-.25c.16-.17,.24-.37,.24-.62v-8.7c0-1.67-.57-3.12-1.7-4.31-1.15-1.2-2.49-1.78-4.1-1.78s-2.97,.6-4.1,1.78c-.26,.27-.47,.53-.65,.79l-.25,.36-.25-.36c-.18-.27-.39-.52-.65-.79-1.12-1.18-2.5-1.78-4.1-1.78-1.43,0-2.64,.45-3.7,1.39l-.48,.42-.03-.93c0-.26-.08-.45-.24-.62-.16-.17-.35-.25-.56-.25s-.41,.08-.57,.25c-.16,.17-.24,.37-.24,.62v13.92c0,.25,.08,.45,.24,.62,.16,.17,.35,.25,.57,.25s.4-.08,.56-.25c.16-.17,.24-.37,.24-.62v-8.7c0-1.2,.41-2.24,1.23-3.08,.8-.85,1.8-1.28,2.96-1.28s2.16,.43,2.97,1.28c.81,.85,1.22,1.88,1.22,3.08v8.7c0,.25,.08,.45,.24,.62,.16,.17,.35,.25,.57,.25s.4-.08,.56-.25c.16-.17,.24-.37,.24-.62v-8.7c0-1.19,.41-2.23,1.23-3.08,.8-.85,1.8-1.28,2.96-1.28Zm-19.71,14.53c-.38,0-.72-.15-.99-.43-.27-.28-.41-.63-.41-1.03v-.57c-1.5,1.35-3.27,2.03-5.26,2.03-2.22,0-4.14-.83-5.71-2.48-1.56-1.63-2.36-3.63-2.36-5.94s.79-4.32,2.36-5.95c1.57-1.64,3.49-2.47,5.71-2.47s4.14,.83,5.71,2.47c1.56,1.65,2.36,3.65,2.36,5.95v6.96c0,.4-.14,.75-.41,1.03-.28,.29-.61,.43-1,.43Zm-.8-3.48v2.02c0,.25,.08,.45,.24,.62,.16,.17,.35,.25,.56,.25s.41-.08,.57-.25c.16-.17,.24-.37,.24-.62v-6.96c0-2.15-.74-4.01-2.19-5.54-1.45-1.52-3.23-2.29-5.28-2.29s-3.83,.77-5.28,2.29c-1.45,1.52-2.19,3.39-2.19,5.54s.74,4.02,2.19,5.53c1.45,1.52,3.22,2.3,5.28,2.3s3.83-.77,5.34-2.35l.51-.54Zm-16.94,3.48c-.39,0-.73-.15-1-.43-.27-.29-.41-.64-.41-1.03v-.26c-1.34,1.14-2.92,1.72-4.7,1.72-2.06,0-3.85-.78-5.31-2.3-1.46-1.52-2.2-3.39-2.2-5.54v-7.54c0-.4,.14-.75,.41-1.03,.27-.28,.62-.43,.99-.43s.73,.15,1,.43c.27,.29,.41,.64,.41,1.03v7.55c0,1.35,.46,2.52,1.38,3.49,.91,.95,2.03,1.44,3.32,1.44s2.4-.47,3.33-1.44c.91-.96,1.38-2.14,1.38-3.48v-7.55c0-.39,.14-.73,.4-1.02,.28-.29,.62-.44,1.01-.44s.72,.15,.99,.43c.27,.28,.41,.63,.41,1.03v13.92c0,.4-.14,.75-.41,1.03-.27,.28-.62,.43-.99,.43Zm-.81-3.12v1.66c0,.24,.08,.44,.24,.62,.16,.16,.34,.25,.57,.25s.4-.08,.56-.25c.16-.17,.24-.37,.24-.62v-13.92c0-.25-.08-.45-.24-.62-.16-.17-.35-.25-.56-.25s-.41,.08-.57,.25c-.16,.17-.24,.38-.24,.62v7.55c0,1.51-.52,2.82-1.54,3.9-1.03,1.08-2.3,1.62-3.76,1.62s-2.72-.55-3.75-1.62c-1.02-1.08-1.54-2.39-1.54-3.9v-7.55c0-.24-.08-.44-.24-.62-.16-.16-.34-.25-.57-.25s-.4,.08-.56,.25c-.16,.17-.24,.37-.24,.62v7.54c0,2.02,.67,3.7,2.03,5.13,1.35,1.41,2.99,2.12,4.88,2.12s3.44-.66,4.78-2.01l.51-.51Zm-41.98,3.12c-2.21,0-4.13-.83-5.71-2.48-1.56-1.64-2.36-3.64-2.36-5.94s.79-4.31,2.36-5.95c1.58-1.64,3.5-2.47,5.71-2.47s4.14,.83,5.71,2.47c1.56,1.64,2.36,3.65,2.36,5.96,0,.4-.14,.75-.41,1.03-.28,.29-.61,.43-1,.43h-11.73c.24,.93,.69,1.72,1.37,2.43,1.02,1.07,2.26,1.61,3.7,1.61,1.32,0,2.43-.43,3.37-1.31l.02-.02c.27-.2,.56-.3,.87-.3,.39,0,.72,.14,1,.43,.28,.29,.42,.63,.42,1.03s-.14,.73-.4,1.03l-.02,.02c-1.49,1.35-3.26,2.04-5.26,2.04Zm0-16.25c-2.04,0-3.82,.77-5.28,2.29-1.45,1.53-2.19,3.39-2.19,5.54s.74,4.01,2.19,5.53c1.48,1.54,3.2,2.3,5.28,2.3,1.85,0,3.48-.63,4.85-1.87,.16-.18,.24-.39,.24-.62s-.08-.44-.25-.62c-.17-.17-.34-.25-.57-.25-.17,0-.34,.06-.5,.18-1.05,.97-2.31,1.46-3.77,1.46-1.61,0-3-.6-4.13-1.79-.84-.87-1.38-1.91-1.61-3.09l-.07-.35h12.46c.22,0,.41-.08,.57-.25,.16-.17,.24-.37,.24-.62,0-2.15-.74-4.02-2.19-5.55-1.45-1.52-3.23-2.29-5.28-2.29Zm-11.66,16.25c-.38,0-.72-.15-.99-.43-.28-.29-.42-.63-.42-1.03v-19.42h-10.5v19.42c0,.4-.14,.74-.42,1.03-.28,.29-.61,.43-.99,.43s-.72-.15-.99-.43c-.28-.29-.42-.63-.42-1.03v-20.88c0-.39,.14-.73,.42-1.02,.28-.29,.61-.43,.99-.43h13.32c.39,0,.73,.15,1,.44,.27,.28,.41,.63,.41,1.02v20.88c0,.4-.14,.74-.42,1.03-.26,.28-.6,.43-.99,.43Zm-12.51-21.48h11.69v20.02c0,.24,.08,.44,.25,.62,.16,.17,.34,.25,.56,.25s.41-.08,.56-.25c.17-.18,.25-.38,.25-.62v-20.88c0-.23-.08-.43-.25-.61-.16-.17-.34-.25-.56-.25h-13.32c-.22,0-.4,.08-.56,.25-.17,.17-.25,.37-.25,.61v20.88c0,.24,.08,.44,.25,.62,.16,.17,.34,.25,.56,.25s.4-.08,.56-.25c.17-.18,.25-.37,.25-.62v-20.02Zm171.96,21.48c-.39,0-.73-.15-1-.43-.27-.29-.41-.64-.41-1.03v-7.84h-4.45l-5.11,8.56c-.38,.61-.87,.74-1.22,.74-.39,0-.73-.15-1-.43-.27-.28-.41-.63-.41-1.03,0-.29,.08-.56,.22-.79l4.66-7.81c-.63-.33-1.21-.79-1.75-1.35-1.34-1.4-2.02-3.12-2.02-5.12s.68-3.71,2.02-5.13c1.35-1.41,3.01-2.12,4.92-2.12h5.54c.38,0,.72,.15,.99,.43,.28,.29,.42,.63,.42,1.02v20.88c0,.4-.14,.74-.42,1.03-.28,.29-.61,.43-.99,.43Zm-6.19-9.89h5.38v8.43c0,.24,.08,.44,.24,.62,.16,.16,.34,.25,.57,.25s.4-.08,.56-.25c.17-.18,.25-.37,.25-.62v-20.88c0-.23-.08-.43-.25-.61-.16-.17-.34-.25-.56-.25h-5.54c-1.77,0-3.24,.63-4.49,1.94-1.25,1.32-1.86,2.86-1.86,4.72s.61,3.41,1.86,4.71c.57,.6,1.19,1.06,1.86,1.37l.3,.14-5,8.37c-.09,.14-.13,.31-.13,.49,0,.25,.08,.45,.24,.62,.16,.17,.35,.25,.57,.25,.29,0,.52-.15,.71-.45l5.28-8.84Zm-16.52,9.79c-.39,0-.73-.15-1-.43-.27-.28-.41-.63-.41-1.03v-.26c-1.34,1.14-2.92,1.72-4.7,1.72-2.06,0-3.85-.78-5.31-2.3-1.46-1.52-2.2-3.39-2.2-5.54v-7.54c0-.4,.14-.75,.41-1.03,.27-.28,.62-.43,.99-.43s.73,.15,1,.43c.27,.29,.41,.64,.41,1.03v7.55c0,1.35,.46,2.52,1.38,3.49,.91,.95,2.03,1.44,3.32,1.44s2.4-.47,3.33-1.44c.91-.96,1.38-2.14,1.38-3.48v-7.55c0-.4,.14-.75,.41-1.03,.28-.29,.61-.43,1-.43s.72,.15,.99,.43c.27,.28,.41,.63,.41,1.03v13.92c0,.4-.14,.75-.41,1.03-.27,.28-.61,.43-.99,.43Zm-.81-3.12v1.66c0,.25,.08,.45,.24,.62,.16,.17,.35,.25,.57,.25s.4-.08,.56-.25c.16-.17,.24-.37,.24-.62v-13.92c0-.25-.08-.45-.24-.62-.16-.17-.35-.25-.56-.25s-.41,.08-.57,.25c-.16,.17-.24,.37-.24,.62v7.55c0,1.51-.52,2.82-1.54,3.9-1.03,1.08-2.3,1.62-3.76,1.62s-2.72-.55-3.75-1.62c-1.02-1.08-1.54-2.39-1.54-3.9v-7.55c0-.24-.08-.44-.24-.62-.16-.16-.34-.25-.57-.25s-.4,.08-.56,.25c-.16,.17-.24,.37-.24,.62v7.54c0,2.02,.67,3.7,2.03,5.13,1.35,1.41,2.99,2.12,4.88,2.12s3.44-.66,4.78-2.01l.51-.51Zm-27.95,.9c-1.61,0-3-.6-4.14-1.79-1.13-1.19-1.71-2.64-1.71-4.32s.58-3.13,1.71-4.32c1.14-1.19,2.53-1.79,4.14-1.79s3,.6,4.14,1.79c1.13,1.19,1.71,2.64,1.71,4.32s-.58,3.13-1.71,4.32c-1.14,1.19-2.53,1.79-4.14,1.79Zm0-11.61c-1.46,0-2.67,.52-3.71,1.61-1.04,1.09-1.54,2.37-1.54,3.9s.52,2.83,1.54,3.91c1.04,1.08,2.25,1.6,3.71,1.6s2.67-.53,3.71-1.61c1.02-1.07,1.54-2.39,1.54-3.9s-.51-2.82-1.54-3.91c-1.04-1.08-2.25-1.6-3.71-1.6Zm-42.44,11.61c-1.61,0-3-.6-4.14-1.79-1.13-1.19-1.71-2.64-1.71-4.32s.58-3.13,1.71-4.32c1.14-1.19,2.53-1.79,4.14-1.79s3,.6,4.14,1.79c1.13,1.19,1.71,2.64,1.71,4.32s-.58,3.13-1.71,4.32c-1.14,1.19-2.53,1.79-4.14,1.79Zm0-11.61c-1.44,0-2.69,.54-3.71,1.61-1.04,1.09-1.54,2.37-1.54,3.9s.52,2.83,1.54,3.91c1.02,1.06,2.27,1.6,3.71,1.6s2.67-.53,3.71-1.61c1.02-1.07,1.54-2.39,1.54-3.9s-.51-2.82-1.54-3.91c-1.04-1.08-2.25-1.6-3.71-1.6Zm-48.08,4.66h-11.61l.07-.35c.22-1.2,.75-2.21,1.61-3.11,1.13-1.19,2.52-1.8,4.13-1.8s3.01,.6,4.14,1.8c.85,.9,1.39,1.94,1.6,3.11l.06,.35Zm-10.88-.59h10.16c-.23-.92-.68-1.72-1.37-2.45-1.01-1.07-2.26-1.61-3.71-1.61s-2.69,.54-3.7,1.61c-.69,.72-1.14,1.53-1.38,2.45Zm152.06-1.75h-4.72c-1.31,0-2.44-.49-3.35-1.45-.91-.95-1.38-2.12-1.38-3.48s.46-2.53,1.38-3.48c.91-.97,2.04-1.46,3.35-1.46h4.72v9.86Zm-4.72-9.27c-1.15,0-2.13,.43-2.92,1.27-.81,.84-1.21,1.87-1.21,3.07s.4,2.23,1.21,3.07c.8,.84,1.78,1.26,2.93,1.26h4.13v-8.68h-4.13Z"/>
    </g>
    <path class="cls-38" d="M118.58,110.62v7.25h2.92c0-.13,0-.22,0-.36v-6.33c0-.24,.03-.36,.03-.59,0-.31,.07-.55,.13-.82,.03-.1,.03-.18,.06-.26,.03-.09,.06-.15,.09-.23,.03-.09,.05-.17,.09-.24,.26-.59,.59-1.05,1.03-1.5,.1-.1,.2-.21,.31-.3,.36-.28,.36-.3,.75-.53,.52-.31,1.3-.57,1.93-.62,.18,0,.71-.03,.89,0,.26,.03,.34,0,.85,.1,.29,.07,.7,.18,.96,.32,.29,.14,.54,.27,.79,.45,.74,.56,1.35,1.23,1.71,2.1,.03,.08,.05,.15,.08,.23,.03,.07,.06,.13,.09,.23,.04,.14,.09,.34,.12,.51,.06,.34,.1,.81,.1,1.19,0,.08-.02,4.69,0,6.66h2.92v-7.22c0-1.09-.35-2.26-.71-3.01-.41-.85-.92-1.52-1.57-2.18l-.47-.45c-.74-.66-1.42-1.04-2.34-1.41-.67-.27-1.52-.42-2.38-.46h-.86c-.57,.03-1.11,.1-1.58,.22l-1.07,.35c-.13,.05-.2,.1-.32,.15-.26,.1-.64,.35-.88,.5-.45,.27-1.28,.99-1.64,1.39-1.17,1.34-1.99,3.05-1.99,4.87h0Zm-3,8.55v4.93c0,.61,.69,1.3,1.31,1.3h.02c.47,0,.8-.03,1.18-.44,.19-.2,.41-.56,.41-.94v-3.25h15.64v3.25c0,.7,.68,1.38,1.3,1.38h.31c.61,0,1.3-.69,1.3-1.3v-4.93c0-.61-.69-1.3-1.3-1.3h-18.85c-.61,0-1.31,.69-1.31,1.3h0Z"/>
  </g>
  <rect class="cls-5" x=".61" y="2.74" width="594.06" height="843.06" rx="71.02" ry="71.02"/>
</svg>