<?xml version="1.0" encoding="UTF-8"?>
<svg id="_Слой_1" data-name="Слой 1" xmlns="http://www.w3.org/2000/svg" xmlns:xlink="http://www.w3.org/1999/xlink" viewBox="0 0 595.28 841.89">
  <defs>
    <style>
      .cls-1 {
        letter-spacing: -.04em;
      }

      .cls-2, .cls-3 {
        fill: #f0f0f0;
      }

      .cls-4 {
        letter-spacing: .02em;
      }

      .cls-5 {
        letter-spacing: -.01em;
      }

      .cls-6, .cls-7, .cls-8, .cls-9, .cls-10, .cls-11, .cls-12, .cls-13 {
        fill: #fff;
      }

      .cls-14 {
        letter-spacing: -.04em;
      }

      .cls-15 {
        fill: #c83c36;
        font-size: 24px;
      }

      .cls-15, .cls-7, .cls-16, .cls-9, .cls-11, .cls-12, .cls-13, .cls-17 {
        font-family: Gilroy-Bold, Gilroy;
        font-weight: 700;
      }

      .cls-18 {
        letter-spacing: 0em;
      }

      .cls-19 {
        letter-spacing: -.06em;
      }

      .cls-20 {
        letter-spacing: -.04em;
      }

      .cls-21 {
        letter-spacing: 0em;
      }

      .cls-22 {
        letter-spacing: 0em;
      }

      .cls-23 {
        letter-spacing: 0em;
      }

      .cls-24 {
        letter-spacing: 0em;
      }

      .cls-7 {
        font-size: 34.09px;
      }

      .cls-7, .cls-9, .cls-11 {
        opacity: .5;
      }

      .cls-25 {
        letter-spacing: 0em;
      }

      .cls-26 {
        letter-spacing: -.05em;
      }

      .cls-27 {
        fill: #f5f4f4;
      }

      .cls-28 {
        letter-spacing: -.01em;
      }

      .cls-29 {
        opacity: .2;
      }

      .cls-30 {
        letter-spacing: -.04em;
      }

      .cls-31 {
        letter-spacing: -.09em;
      }

      .cls-32 {
        letter-spacing: -.02em;
      }

      .cls-16 {
        fill: #3a539c;
        font-size: 16px;
      }

      .cls-8 {
        font-family: Gilroy-MediumItalic, Gilroy;
        font-weight: 500;
      }

      .cls-8, .cls-10 {
        font-style: italic;
      }

      .cls-8, .cls-13, .cls-17 {
        font-size: 13px;
      }

      .cls-33 {
        letter-spacing: -.05em;
      }

      .cls-34 {
        letter-spacing: -.05em;
      }

      .cls-35 {
        letter-spacing: 0em;
      }

      .cls-36 {
        letter-spacing: -.02em;
      }

      .cls-9 {
        font-size: 34.09px;
      }

      .cls-37 {
        fill: #6baaaf;
      }

      .cls-10 {
        font-family: Gilroy-SemiboldItalic, Gilroy;
        font-size: 15px;
        font-weight: 600;
      }

      .cls-38 {
        isolation: isolate;
      }

      .cls-38, .cls-39 {
        fill: #e0e0df;
      }

      .cls-40 {
        letter-spacing: 0em;
      }

      .cls-41 {
        fill: #5994d0;
      }

      .cls-42 {
        opacity: .3;
      }

      .cls-43 {
        letter-spacing: 0em;
      }

      .cls-44 {
        letter-spacing: -.05em;
      }

      .cls-45 {
        letter-spacing: 0em;
      }

      .cls-46 {
        letter-spacing: 0em;
      }

      .cls-47 {
        letter-spacing: -.04em;
      }

      .cls-48 {
        letter-spacing: 0em;
      }

      .cls-3 {
        stroke: #e0e0df;
        stroke-linejoin: round;
        stroke-width: 1.73px;
      }

      .cls-3, .cls-49 {
        stroke-linecap: round;
      }

      .cls-50 {
        fill: #ebebeb;
      }

      .cls-51 {
        letter-spacing: 0em;
      }

      .cls-52 {
        letter-spacing: -.03em;
      }

      .cls-53 {
        letter-spacing: -.02em;
      }

      .cls-54 {
        letter-spacing: -.01em;
      }

      .cls-55 {
        letter-spacing: 0em;
      }

      .cls-56 {
        letter-spacing: -.03em;
      }

      .cls-57 {
        letter-spacing: -.07em;
      }

      .cls-58 {
        letter-spacing: -.09em;
      }

      .cls-59 {
        fill: #e7e6e6;
      }

      .cls-60 {
        letter-spacing: -.03em;
      }

      .cls-61 {
        letter-spacing: -.02em;
      }

      .cls-11 {
        font-size: 53.01px;
      }

      .cls-49 {
        fill: none;
        stroke: #fff;
        stroke-miterlimit: 10;
        stroke-width: 2px;
      }

      .cls-62 {
        letter-spacing: -.04em;
      }

      .cls-63 {
        letter-spacing: -.04em;
      }

      .cls-64 {
        letter-spacing: -.01em;
      }

      .cls-65 {
        letter-spacing: -.01em;
      }

      .cls-66 {
        letter-spacing: -.04em;
      }

      .cls-67 {
        letter-spacing: -.01em;
      }

      .cls-68 {
        letter-spacing: -.01em;
      }

      .cls-12 {
        font-size: 26px;
      }

      .cls-69 {
        letter-spacing: -.02em;
      }

      .cls-70 {
        fill: url(#_Безымянный_градиент_10);
        filter: url(#drop-shadow-1);
      }

      .cls-71 {
        letter-spacing: -.01em;
      }

      .cls-72 {
        letter-spacing: -.04em;
      }

      .cls-17 {
        fill: #5b9899;
      }

      .cls-73 {
        letter-spacing: -.01em;
      }
    </style>
    <linearGradient id="_Безымянный_градиент_10" data-name="Безымянный градиент 10" x1="20.47" y1="352.9" x2="574.45" y2="352.9" gradientUnits="userSpaceOnUse">
      <stop offset="0" stop-color="#c83c36"/>
      <stop offset=".51" stop-color="#c93c65"/>
      <stop offset="1" stop-color="#e6b282"/>
    </linearGradient>
    <filter id="drop-shadow-1" filterUnits="userSpaceOnUse">
      <feOffset dx="-2.83" dy="2.83"/>
      <feGaussianBlur result="blur" stdDeviation="5.67"/>
      <feFlood flood-color="#222221" flood-opacity=".42"/>
      <feComposite in2="blur" operator="in"/>
      <feComposite in="SourceGraphic"/>
    </filter>
  </defs>
  <g>
    <rect class="cls-39" x="45.69" y="420.85" width="9.09" height="191.16" transform="translate(100.47 1032.86) rotate(180)"/>
    <g>
      <rect class="cls-39" x="50.94" y="420.85" width="172.84" height="191.16"/>
      <rect class="cls-2" x="50.03" y="420.85" width="179.26" height="191.16"/>
      <rect class="cls-6" x="57.33" y="426.95" width="164.38" height="176.28"/>
      <rect class="cls-39" x="216.96" y="426.95" width="4.75" height="176.28"/>
      <rect class="cls-39" x="134.81" y="475.81" width="4.75" height="160.56" transform="translate(-418.9 693.27) rotate(-90)"/>
      <rect class="cls-2" x="54.78" y="545.73" width="166.93" height="7.98"/>
    </g>
    <g>
      <rect class="cls-2" x="349.47" y="541.19" width="237.81" height="301.13" transform="translate(936.74 1383.51) rotate(180)"/>
      <g>
        <rect class="cls-39" x="357.87" y="552.17" width="221" height="64.39" transform="translate(936.74 1168.72) rotate(180)"/>
        <rect class="cls-50" x="566.32" y="562.59" width="12.55" height="53.97" transform="translate(1145.19 1179.15) rotate(180)"/>
        <rect class="cls-50" x="505.61" y="562.59" width="12.55" height="53.97" transform="translate(1023.78 1179.15) rotate(180)"/>
        <rect class="cls-50" x="432.03" y="561.92" width="12.55" height="53.97" transform="translate(770.22 1243.68) rotate(-170.22)"/>
        <rect class="cls-50" x="550.76" y="569.7" width="12.55" height="46.86" transform="translate(1114.08 1186.26) rotate(180)"/>
        <rect class="cls-50" x="521.91" y="569.7" width="12.55" height="46.86" transform="translate(1056.36 1186.26) rotate(180)"/>
        <rect class="cls-50" x="449.07" y="569.7" width="12.55" height="46.86" transform="translate(910.7 1186.26) rotate(180)"/>
        <rect class="cls-50" x="483.89" y="568.9" width="12.55" height="46.86" transform="translate(840.18 1276.88) rotate(-167.47)"/>
        <rect class="cls-50" x="539.9" y="559.91" width="6.28" height="56.65" transform="translate(1086.09 1176.47) rotate(180)"/>
        <rect class="cls-50" x="465.23" y="559.91" width="6.28" height="56.65" transform="translate(936.74 1176.47) rotate(180)"/>
      </g>
      <g>
        <rect class="cls-39" x="357.87" y="626.75" width="221" height="64.39"/>
        <rect class="cls-50" x="357.87" y="637.18" width="12.55" height="53.97"/>
        <rect class="cls-50" x="418.58" y="637.18" width="12.55" height="53.97"/>
        <rect class="cls-50" x="492.17" y="636.5" width="12.55" height="53.97" transform="translate(-105.45 94.29) rotate(-9.78)"/>
        <rect class="cls-50" x="373.43" y="644.29" width="12.55" height="46.86"/>
        <rect class="cls-50" x="402.29" y="644.29" width="12.55" height="46.86"/>
        <rect class="cls-50" x="475.12" y="644.29" width="12.55" height="46.86"/>
        <rect class="cls-50" x="440.3" y="643.49" width="12.55" height="46.86" transform="translate(-134.03 112.74) rotate(-12.53)"/>
        <rect class="cls-50" x="390.56" y="634.5" width="6.28" height="56.65"/>
        <rect class="cls-50" x="465.23" y="634.5" width="6.28" height="56.65"/>
        <rect class="cls-50" x="566.32" y="637.18" width="12.55" height="53.97" transform="translate(1145.19 1328.33) rotate(180)"/>
        <rect class="cls-50" x="550.76" y="644.29" width="12.55" height="46.86" transform="translate(1114.08 1335.44) rotate(180)"/>
        <rect class="cls-50" x="521.91" y="644.29" width="12.55" height="46.86" transform="translate(1056.36 1335.44) rotate(180)"/>
        <rect class="cls-50" x="539.9" y="634.5" width="6.28" height="56.65" transform="translate(1086.09 1325.65) rotate(180)"/>
      </g>
      <g>
        <rect class="cls-39" x="357.87" y="701.34" width="221" height="64.39" transform="translate(936.74 1467.08) rotate(180)"/>
        <g>
          <rect class="cls-50" x="439.47" y="711.77" width="12.55" height="53.97" transform="translate(891.5 1477.51) rotate(180)"/>
          <rect class="cls-50" x="365.88" y="711.09" width="12.55" height="53.97" transform="translate(613.57 1528.64) rotate(-170.22)"/>
          <rect class="cls-50" x="484.62" y="718.88" width="12.55" height="46.86" transform="translate(981.79 1484.62) rotate(180)"/>
          <rect class="cls-50" x="455.76" y="718.88" width="12.55" height="46.86" transform="translate(924.08 1484.62) rotate(180)"/>
          <rect class="cls-50" x="382.93" y="718.88" width="12.55" height="46.86" transform="translate(778.42 1484.62) rotate(180)"/>
          <rect class="cls-50" x="417.75" y="718.08" width="12.55" height="46.86" transform="translate(677.12 1557.33) rotate(-167.47)"/>
          <rect class="cls-50" x="473.76" y="709.09" width="6.28" height="56.65" transform="translate(953.81 1474.83) rotate(180)"/>
          <rect class="cls-50" x="399.09" y="709.09" width="6.28" height="56.65" transform="translate(804.46 1474.83) rotate(180)"/>
          <rect class="cls-50" x="510.31" y="711.09" width="12.55" height="53.97" transform="translate(900.32 1553.17) rotate(-170.22)"/>
          <rect class="cls-50" x="527.36" y="718.88" width="12.55" height="46.86" transform="translate(1067.27 1484.62) rotate(180)"/>
          <rect class="cls-50" x="562.18" y="718.08" width="12.55" height="46.86" transform="translate(962.54 1588.66) rotate(-167.47)"/>
          <rect class="cls-50" x="543.52" y="709.09" width="6.28" height="56.65" transform="translate(1093.32 1474.83) rotate(180)"/>
        </g>
      </g>
    </g>
    <g>
      <path class="cls-59" d="M192.51,657.18H54.48c-14.97,0-27.11,12.14-27.11,27.11v107.79H219.62v-107.79c0-14.97-12.14-27.11-27.11-27.11Z"/>
      <path class="cls-39" d="M260.43,737.07h-24.7c-8.9,0-16.11,7.21-16.11,16.11v89.14h56.92v-89.14c0-8.9-7.21-16.11-16.11-16.11Z"/>
      <path class="cls-50" d="M260.43,737.07h-.52c-8.9,0-16.11,7.21-16.11,16.11v89.14h32.74v-89.14c0-8.9-7.21-16.11-16.11-16.11Z"/>
      <rect class="cls-59" x="47.47" y="801.38" width="189.43" height="40.95"/>
      <rect class="cls-27" x="38.11" y="763.93" width="215.45" height="42.96" rx="16.38" ry="16.38"/>
      <rect class="cls-38" x="38.41" y="763.93" width="55.42" height="42.96" rx="16.38" ry="16.38"/>
      <path class="cls-39" d="M52.34,737.07H27.64c-8.9,0-16.11,7.21-16.11,16.11v89.14h56.92v-89.14c0-8.9-7.21-16.11-16.11-16.11Z"/>
      <path class="cls-2" d="M52.34,737.07h-.52c-8.9,0-16.11,7.21-16.11,16.11v89.14h32.74v-89.14c0-8.9-7.21-16.11-16.11-16.11Z"/>
    </g>
    <g>
      <circle class="cls-39" cx="462.36" cy="436.8" r="32.84"/>
      <circle class="cls-2" cx="462.36" cy="436.8" r="27.92" transform="translate(-42.86 823.23) rotate(-80.78)"/>
      <polyline class="cls-3" points="461.04 417.65 461.04 437.17 448.11 429.85"/>
    </g>
  </g>
  <g class="cls-29">
    <g>
      <path class="cls-37" d="M246.07,603.23C166.01,513.06-19.03,303.73,136.94,211.19c67.97-40.33,157.84,3.68,164.68,50.81,1.5,10.52-.64,21.14-8.83,30.95-22.35,26.66-57.05-12.24-31.62-36.92,.71-.68,1.5-5.26-2.1-3.57-3.64,1.69-37.59,26.81-12.28,56.67,15.85,18.66,39.96,18.18,56.18,4.43,13.75-11.64,23.66-33.12,21.11-58.89-12.39-125.81-212.86-136.7-281.4-10.21-71.88,156.98,173.2,345.02,202.68,361.28,1.35,.75,.34-2.52,.71-2.52h0Z"/>
      <path class="cls-37" d="M563.86,250.59c-17.46-42.62-53.7-60.91-87.88-65.42-61.36-8.11-118.52,33.39-129.38,43.45-2.29,2.1,.38,6.35,3.19,5.14,17.95-7.74,45.1-21.33,65.68-25.84,56.82-12.39,107.48,6.83,120.4,78.71,9.76,95.69-75.64,167.19-140.91,232.58,.19,.19,2.85,4.43,3,4.66,83.07-55.88,214.78-154.12,165.88-273.29h0Z"/>
      <path class="cls-37" d="M166.46,46.7c26.21,0,47.43,21.26,47.43,47.39s-21.22,47.43-47.43,47.43-47.39-21.22-47.39-47.43,21.22-47.39,47.39-47.39h0Z"/>
      <path class="cls-37" d="M472.87,101.68c17.46,0,31.62,14.16,31.62,31.58s-14.16,31.62-31.62,31.62-31.58-14.16-31.58-31.62,14.12-31.58,31.58-31.58h0Z"/>
      <g>
        <path class="cls-37" d="M344.62,697.49l-3-6.87c33.72-14.72,28.84-32.94,28.62-33.69l-.08-.26-.04-.23c0-.08-1.65-9.09-8.75-21.33-6.57-11.27-13.29-20.02-35.68-35.6-18.21-10.89-36.88-12.88-55.43-6.01-14.01,5.22-24.3,14.83-24.37,14.91l-11.27-11.57s10.48-10.33,25.95-16.15c14.38-5.41,36.8-8.64,62.19,6.5,24.75,14.83,38.31,32.37,45.29,44.5,7.1,12.36,9.13,21.67,9.43,23.28,.41,1.43,1.65,7.4-1.43,15.21-4.32,10.89-14.91,20.09-31.43,27.3h0Zm-44.95,38.23c-7.74,1.92-13.22,.38-14.53-.08-1.58-.38-11.12-2.93-23.36-10.63-12.06-7.55-29.18-21.74-42.51-46.46-13.71-25.46-8.3-46.76-1.35-60.16,7.4-14.35,18.4-23.06,18.81-23.4l11.49,11.27c-.11,.08-10.37,8.71-17.01,21.71-8.71,17.05-8.22,34.85,1.46,52.88,12.47,23.17,21.63,30.57,32.82,37.63,12.13,7.7,21.44,9.91,21.56,9.91l.23,.04,.23,.11c.68,.23,15.59,5.07,31.73-15.62,2.07-2.67,8.15,1.77,5.75,4.84-7.29,9.24-15.36,15.17-24.15,17.65-.41,.11-.83,.23-1.16,.3h0Z"/>
        <path class="cls-37" d="M292.17,737.94c-3.85,0-6.48-.75-7.45-1.09-.97-.22-10.85-2.72-23.62-10.76-12.15-7.61-29.47-21.92-42.96-46.93-13.96-25.94-8.45-47.68-1.36-61.36,5.88-11.41,13.97-19.29,17.57-22.47,2.5-2.32,12.17-10.73,25.77-15.84,14.61-5.49,37.46-8.81,63.29,6.6,25.06,15.02,38.71,32.74,45.74,44.96,7.43,12.94,9.38,22.63,9.58,23.69,.31,1.06,1.86,7.41-1.49,15.91-4.45,11.23-15.26,20.65-32.11,28l-1.17,.51-4.03-9.21,1.17-.51c32.82-14.33,28.12-31.43,27.9-32.15l-.16-.7c-.11-.57-1.88-9.27-8.59-20.85-6.1-10.46-12.21-19.12-35.3-35.19-17.77-10.62-36.05-12.61-54.26-5.86-8.92,3.33-16.37,8.52-20.49,11.75h.01s-.22,.16-.22,.16c-2.05,1.62-3.21,2.7-3.25,2.73l-.6,.57c-3.44,3.42-9.42,10.04-13.83,18.66-8.52,16.66-8.03,34.06,1.45,51.69,12.62,23.46,21.75,30.45,32.38,37.15,11.7,7.43,20.71,9.65,21.09,9.74l.72,.22c1.29,.4,15.16,4.1,30.24-15.22,.78-1.01,1.99-1.46,3.39-1.27,2.02,.28,4.11,1.9,4.87,3.77,.56,1.39,.39,2.78-.5,3.92-7.47,9.47-15.82,15.56-24.81,18.09-.47,.13-.88,.24-1.22,.31-2.94,.73-5.57,.98-7.79,.98Zm-57.62-139.34c-3.92,3.67-10.52,10.71-15.51,20.38-6.8,13.13-12.09,34.02,1.34,58.97,13.23,24.51,30.18,38.53,42.07,45.98,12.43,7.81,21.93,10.22,22.98,10.47,1.1,.37,6.37,1.95,13.93,.08h.03c.31-.08,.68-.18,1.06-.28,8.5-2.4,16.4-8.19,23.53-17.22,.2-.25,.43-.68,.15-1.38-.42-1.04-1.73-2.04-2.86-2.2-.71-.09-.95,.21-1.02,.31-16.32,20.92-31.47,16.61-33.15,16.05l-.25-.1h0s0-.01,0-.01c-1.56-.3-10.69-2.89-22.03-10.08-10.94-6.9-20.34-14.1-33.26-38.1-9.9-18.42-10.4-36.61-1.48-54.06,4.39-8.59,10.33-15.3,14.02-19l-9.54-9.79Zm108.74,92.66l1.98,4.53c15.55-6.99,25.5-15.76,29.59-26.09,3.11-7.89,1.57-13.74,1.39-14.38-.22-1.14-2.09-10.43-9.31-23-6.89-11.96-20.26-29.31-44.84-44.04-24.97-14.88-47-11.7-61.09-6.4-10.21,3.84-18.27,9.74-22.43,13.16l9.78,9.59c4.22-3.33,12.02-8.83,21.43-12.34,18.98-7.03,38-4.97,56.53,6.11,21.62,15.05,28.87,23.61,36.13,36.05,6.79,11.71,8.63,20.34,8.89,21.77h.02s.08,.34,.08,.34c.24,.78,5.42,19.55-28.17,34.69Zm-106.84-94.37l9.47,9.72c.15-.14,.29-.27,.42-.39l-9.69-9.5c-.06,.06-.13,.11-.2,.17Z"/>
      </g>
      <path class="cls-37" d="M317.43,707.59c6.12,0,11.08,4.96,11.08,11.08s-4.96,11.12-11.08,11.12-11.08-4.99-11.08-11.12,4.96-11.08,11.08-11.08h0Z"/>
      <path class="cls-37" d="M349.91,679.54c6.12,0,11.08,4.96,11.08,11.08s-4.96,11.08-11.08,11.08-11.08-4.96-11.08-11.08,4.96-11.08,11.08-11.08h0Z"/>
      <g>
        <path class="cls-37" d="M376.2,513.28c-12.09,0-21.89,9.8-21.89,21.89s9.8,21.89,21.89,21.89,21.89-9.84,21.89-21.89-9.84-21.89-21.89-21.89h0Zm0,51.79c-16.49,0-29.89-13.41-29.89-29.89s13.41-29.89,29.89-29.89,29.89,13.41,29.89,29.89-13.41,29.89-29.89,29.89h0Z"/>
        <path class="cls-37" d="M376.2,566.35c-17.19,0-31.17-13.98-31.17-31.17s13.98-31.17,31.17-31.17,31.17,13.98,31.17,31.17-13.98,31.17-31.17,31.17Zm0-59.79c-15.78,0-28.62,12.84-28.62,28.62s12.84,28.62,28.62,28.62,28.62-12.84,28.62-28.62-12.84-28.62-28.62-28.62Zm0,51.79c-12.78,0-23.17-10.39-23.17-23.17s10.39-23.17,23.17-23.17,23.17,10.39,23.17,23.17-10.39,23.17-23.17,23.17Zm0-43.79c-11.37,0-20.62,9.25-20.62,20.62s9.25,20.62,20.62,20.62,20.62-9.25,20.62-20.62-9.25-20.62-20.62-20.62Z"/>
      </g>
    </g>
  </g>
  <rect class="cls-41" x="20.47" y="602.72" width="553.98" height="219.43" rx="16.09" ry="16.09"/>
  <rect class="cls-41" x="137.87" y="557.88" width="303.42" height="38.24" rx="19.12" ry="19.12"/>
  <rect class="cls-70" x="20.47" y="156.89" width="553.98" height="392.03" rx="16.53" ry="16.53"/>
  <rect class="cls-37" x="94.01" y="12.49" width="416.68" height="75.75" rx="11.4" ry="11.4"/>
  <text class="cls-12" transform="translate(123.53 40.85)"><tspan class="cls-52" x="0" y="0">У</tspan><tspan x="14.79" y="0">нивер</tspan><tspan class="cls-5" x="89.36" y="0">с</tspan><tspan x="102.98" y="0">альная ап</tspan><tspan class="cls-36" x="228.8" y="0">т</tspan><tspan x="240.32" y="0">еч</tspan><tspan class="cls-63" x="269.49" y="0">к</tspan><tspan x="282.2" y="0">а для </tspan><tspan class="cls-36" x="66.12" y="31.2">дет</tspan><tspan x="107.25" y="31.2">ей и взро</tspan><tspan class="cls-68" x="221.96" y="31.2">с</tspan><tspan x="235.61" y="31.2">лых </tspan></text>
  <text class="cls-17" transform="translate(49.06 111.06)"><tspan x="0" y="0" xml:space="preserve">       В </tspan><tspan class="cls-25" x="33.86" y="0">е</tspan><tspan x="41.37" y="0">ё </tspan><tspan class="cls-73" x="52.17" y="0">с</tspan><tspan x="58.98" y="0">о</tspan><tspan class="cls-23" x="66.7" y="0">с</tspan><tspan class="cls-36" x="73.58" y="0">т</tspan><tspan x="79.34" y="0">ав </tspan><tspan class="cls-36" x="97.37" y="0">в</tspan><tspan class="cls-72" x="103.75" y="0">х</tspan><tspan class="cls-36" x="110.12" y="0">о</tspan><tspan class="cls-54" x="117.58" y="0">д</tspan><tspan x="125.22" y="0">ят </tspan><tspan class="cls-69" x="141.23" y="0">т</tspan><tspan class="cls-67" x="146.99" y="0">о</tspan><tspan x="154.54" y="0">ль</tspan><tspan class="cls-1" x="168.09" y="0">к</tspan><tspan x="174.45" y="0">о в</tspan><tspan class="cls-71" x="192.06" y="0">с</tspan><tspan x="198.87" y="0">е </tspan><tspan class="cls-71" x="209.67" y="0">с</tspan><tspan x="216.49" y="0">амые н</tspan><tspan class="cls-35" x="260.52" y="0">е</tspan><tspan x="268.02" y="0">о</tspan><tspan class="cls-56" x="275.74" y="0">бх</tspan><tspan class="cls-36" x="289.02" y="0">о</tspan><tspan x="296.49" y="0">димые препараты, </tspan><tspan class="cls-14" x="417.41" y="0">к</tspan><tspan class="cls-69" x="423.77" y="0">от</tspan><tspan x="436.99" y="0">орые </tspan><tspan x="0" y="15.6">мо</tspan><tspan class="cls-4" x="16.02" y="15.6">г</tspan><tspan class="cls-55" x="21.66" y="15.6">у</tspan><tspan x="28.59" y="15.6">т при</tspan><tspan class="cls-36" x="60.94" y="15.6">го</tspan><tspan x="73.49" y="15.6">дит</tspan><tspan class="cls-22" x="94.76" y="15.6">ь</tspan><tspan class="cls-28" x="101.14" y="15.6">с</tspan><tspan x="107.96" y="15.6">я для исп</tspan><tspan class="cls-67" x="164.75" y="15.6">о</tspan><tspan x="172.3" y="15.6">л</tspan><tspan class="cls-28" x="179.4" y="15.6">ь</tspan><tspan x="185.7" y="15.6">зования </tspan><tspan class="cls-14" x="239" y="15.6">к</tspan><tspan x="245.36" y="15.6">ак в </tspan><tspan class="cls-36" x="273.46" y="15.6">д</tspan><tspan x="280.98" y="15.6">омашних </tspan><tspan class="cls-69" x="340.99" y="15.6">у</tspan><tspan class="cls-54" x="347.55" y="15.6">с</tspan><tspan x="354.38" y="15.6">ловиях, </tspan><tspan class="cls-36" x="403.75" y="15.6">т</tspan><tspan x="409.51" y="15.6">ак и во время </tspan><tspan x="0" y="31.2">п</tspan><tspan class="cls-55" x="7.48" y="31.2">у</tspan><tspan class="cls-36" x="14.4" y="31.2">т</tspan><tspan x="20.16" y="31.2">еш</tspan><tspan class="cls-35" x="38.54" y="31.2">е</tspan><tspan class="cls-23" x="46.05" y="31.2">с</tspan><tspan x="52.92" y="31.2">твия. </tspan></text>
  <text class="cls-11" transform="translate(534.48 470.95) rotate(18.2)"><tspan x="0" y="0">!</tspan></text>
  <text class="cls-11" transform="translate(542.06 343.63) rotate(-13.37)"><tspan x="0" y="0">!</tspan></text>
  <text class="cls-11" transform="translate(551.79 250.96)"><tspan x="0" y="0">!</tspan></text>
  <text class="cls-7" transform="translate(32.72 523.87) rotate(-18.27)"><tspan x="0" y="0">!</tspan></text>
  <text class="cls-9" transform="translate(29.54 234.96)"><tspan x="0" y="0">!</tspan></text>
  <text class="cls-9" transform="translate(25.8 368.86) rotate(16.14)"><tspan x="0" y="0">!</tspan></text>
  <text class="cls-12" transform="translate(178.53 585.72)"><tspan class="cls-53" x="0" y="0">С</tspan><tspan x="18.49" y="0">О</tspan><tspan class="cls-68" x="39.08" y="0">С</tspan><tspan class="cls-34" x="57.67" y="0">Т</tspan><tspan x="70.38" y="0">АВ АПТЕЧКИ </tspan></text>
  <line class="cls-49" x1="35.98" y1="655.02" x2="125.68" y2="655.02"/>
  <g class="cls-29">
    <path class="cls-6" d="M184.95,280.54c-1.48,1.74-2.31,2.66-3.07,3.62-4.63,5.77-3.96,13.81,1.45,17.65,5.31,3.77,13.98,1.22,17.55-5.15,5.54-9.89,3.53-21.42-4.99-29.43-8.28-7.77-18.27-12.19-29.29-13.66-24.5-3.28-46.93,.4-63.71,20.96-14.36,17.59-16.5,37.57-11.56,58.9,5.85,25.27,18.74,47.21,33.11,68.33,13.12,19.29,28.2,37.08,43.41,54.75,2.24,2.6,3.85,3.77,7.46,1.51,16.54-10.38,32.3-9.38,48,2.4,9.51,7.14,17.02,15.81,21.51,26.96,3.46,8.59,2.22,15.11-4.55,21.42-1.6,1.49-2.81,3.07-3.69,5.11-1.31,3.03-3.83,4.16-7.08,3.1-2.98-.97-4.32-3.13-3.91-6.2,.46-3.41,2.77-4.8,6-5,5.9-.37,10.52-5.23,9.67-10.82-2.79-18.29-27.04-40.28-47.73-34.81-26.19,6.92-35.11,34.4-17.62,55.11,5.32,6.29,11.4,11.31,19.08,14.41,3.13,1.26,6.26,1.53,9.47,.81,2.2-.49,3.92-1.39,4-4.22,.11-3.95,2.55-5.88,6.37-5.6,3.04,.23,4.91,2.13,5.09,5.26,.21,3.62-1.68,5.7-5.17,6.4-.7,.14-1.54,.02-2.09,.37-12.5,8.07-22.78,1.64-32.48-5.49-8.62-6.34-15.23-14.65-19.54-24.59-5.62-12.94-3.83-24.98,5.08-35.71,2.87-3.46,2.89-4.84-.81-7.71-32.66-25.34-61.9-53.95-83.21-89.79-9.99-16.81-17.3-34.72-18.62-54.49-2.03-30.56,11.44-53.51,36.48-69.67,23.68-15.28,49.46-19.33,76.69-10.57,25.96,8.35,42.84,34.62,38.35,60-1.83,10.33-7.07,18.32-17.66,21.77-10.13,3.3-20.56-2.44-23.93-13.23-3.15-10.09,1.35-19.51,11.94-22.67Z"/>
    <path class="cls-6" d="M280.81,255.74c-17.46,.26-32.49,4-47.13,9.7-1.73,.67-4.16,3.06-5.58,.48-1.01-1.84,1.57-3.48,3.1-4.45,23.89-15.14,49.75-22.07,77.82-16.29,18.87,3.89,30.86,16.34,37.34,34.37,5.88,16.36,6.82,32.81,2.17,49.62-.9,3.24-2.07,5-5.75,4.6-4.6-.51-10.74,1.94-13.46-.88-2.5-2.58,1.15-8.23,1.74-12.59,1.32-9.82,1.97-19.67-.33-29.38-4.78-20.23-18.99-32.06-41.37-34.69-3.37-.4-6.79-.39-8.54-.48Z"/>
    <path class="cls-6" d="M110.11,198.34c.09-13.97,11.01-24.91,24.86-24.92,13.7,0,24.82,11.24,24.78,25.07-.04,13.9-11.11,24.95-24.9,24.86-13.91-.09-24.83-11.13-24.74-25.01Z"/>
    <path class="cls-6" d="M334.21,361.07c0-4.48,0-8.97,0-13.45,0-3.98,.87-6.72,5.68-4.11,.56,.3,1.43,.51,1.97,.29,6.23-2.49,11.88-1.89,16.93,2.79,1.4,1.29,2.23-.33,3.14-.99,4.92-3.59,10.28-4.5,15.68-1.65,5.51,2.92,8.03,7.97,8.06,14.19,.03,5.74,.01,11.48-.07,17.22-.03,2.23-.34,4.57-3.32,4.54-3.07-.03-3.08-2.43-3.08-4.64-.02-5.38,.08-10.76-.03-16.14-.13-6.24-3.26-10.1-8.05-10.2-4.72-.1-7.8,3.77-7.9,10.09-.09,5.38-.09,10.76-.09,16.14,0,2.39-.63,4.61-3.27,4.7-2.89,.1-3.14-2.33-3.14-4.62,0-5.38,.04-10.76-.05-16.14-.1-6.21-3.24-10.14-7.96-10.17-4.81-.03-8.02,3.89-8.08,10.01-.06,5.56-.02,11.12-.03,16.68,0,2.1-.33,4.18-2.94,4.31-2.9,.15-3.47-1.94-3.46-4.34,.01-4.84,0-9.68,0-14.53Z"/>
    <path class="cls-6" d="M298.85,235.53c-9.45-.06-16.47-7.22-16.45-16.77,.03-9.28,7.49-16.59,16.8-16.47,8.92,.12,16.4,7.69,16.35,16.56-.05,9.34-7.46,16.74-16.7,16.68Z"/>
    <path class="cls-6" d="M131.57,353.38c0-7.17,.1-14.34-.04-21.5-.07-3.67,1.42-5.18,5.1-5.13,8.78,.12,17.56,.09,26.34,.03,2.99-.02,4.77,.92,4.78,4.27,.04,14.86,.17,29.72,.24,44.58,.01,2.44-1.05,4.38-3.71,4.31-2.76-.08-2.66-2.48-2.67-4.43-.03-12.36-.18-24.73,.08-37.09,.09-4.1-1.2-5.35-5.18-5.07-4.64,.32-9.32,.26-13.97,.01-3.58-.19-4.62,1.19-4.57,4.65,.17,11.47,.06,22.93,.05,34.4,0,1.25,.04,2.51-.04,3.76-.14,1.94-.83,3.67-3.05,3.73-2.54,.07-3.34-1.76-3.35-3.95-.04-7.53-.01-15.05-.01-22.58Z"/>
    <path class="cls-6" d="M475.57,361.91c0,4.83,.15,9.67-.04,14.5-.17,4.47-2.08,5.53-5.6,2.76-1.94-1.53-2.9-.35-4.2,.17-11.51,4.64-23.22-2.55-23.88-14.89-.3-5.53-.05-11.1-.02-16.64,.01-2.25,.2-4.58,3.22-4.54,3.05,.04,3.1,2.53,3.14,4.67,.11,4.83-.01,9.67,.1,14.5,.17,7.02,4.47,11.79,10.52,11.84,5.69,.04,9.96-4.7,10.19-11.52,.14-4.11-.1-8.24,.15-12.35,.16-2.72-1.4-7.04,3.36-7.01,4.42,.03,2.88,4.14,3.02,6.7,.21,3.93,.06,7.87,.06,11.81Z"/>
    <path class="cls-6" d="M290.13,361.45c0,4.84,.11,9.69-.04,14.53-.11,3.5-2.12,5.38-5.21,3.16-2.09-1.5-3.38-.96-5.25-.27-11.65,4.27-22.67-3.02-23.1-15.33-.2-5.56-.07-11.12-.12-16.68-.02-2.19,.53-4.18,2.99-4.3,2.51-.12,3.3,1.98,3.35,4.05,.13,5.02-.02,10.05,.07,15.07,.13,7.32,4.18,11.83,10.44,11.81,6.26-.02,10.22-4.45,10.4-11.86,.12-4.84,0-9.69,.02-14.53,0-2.33,.5-4.59,3.37-4.49,2.48,.09,3.01,2.18,3.01,4.32,.01,4.84,0,9.69,0,14.53h.07Z"/>
    <path class="cls-6" d="M256.56,376.91c-.04-1.56-.99-3.05-2.44-3.19-3.74-.35-3.39-3.04-3.47-5.45-.11-3.58,.08-7.17-.09-10.74-.46-9.71-7.76-17.11-17.02-17.39-9.27-.28-17.21,6.6-18.32,16.19-.41,3.55-.24,7.16-.26,10.75-.02,3.15,.74,6.65-4.23,6.77-1.04,.03-2.06,1.1-2.1,2.2-.13,3.93-.23,7.87,.02,11.79,.12,1.94,2.01,2.46,3.68,2.34,1.69-.12,2.68-1.51,2.4-3.01-1.39-7.46,3.11-7.61,8.44-7.18,3.03,.25,6.09,.04,9.14,.04,2.69,0,5.38,.02,8.07-.01,5.21-.07,11.39-1.63,9.93,7.43-.28,1.72,1.38,2.94,3.23,2.85,1.85-.08,2.97-1.34,3.03-3.16,.1-3.4,.07-6.81-.03-10.21Zm-15.83-3.46c-2.69-.08-5.38-.02-8.07-.03q-10.65,0-10.77-11.15c-.1-9.93,2.7-14.27,9.81-15.21,6.13-.81,11.61,3.23,12.12,9.38,.38,4.63,.08,9.31,.2,13.97,.06,2.42-1.13,3.1-3.3,3.03Z"/>
    <path class="cls-6" d="M525.95,352.92c0-4.66,.04-9.32-.01-13.97-.15-14.61,2.06-12.53-12.78-12.97-7.81-.23-13.93,2.28-17.05,9.51-3.13,7.26-1.77,14.15,4.34,19.5,1.98,1.73,1.88,3.14,.76,5.02-2.57,4.3-5.16,8.59-7.7,12.9-1.14,1.94-2.16,4.15,.3,5.64,2.68,1.63,4.27-.33,5.52-2.49,2.79-4.8,5.68-9.54,8.33-14.41,2.43-4.45,6.56-3.24,10-2.77,3.29,.44,1.64,3.79,1.81,5.85,.26,3.2,.11,6.44,.06,9.67-.03,2.27,.08,4.7,2.92,4.85,3.15,.16,3.54-2.26,3.52-4.83-.05-7.17-.02-14.33-.02-21.5Zm-11.87-.79c-8.28-.47-12.72-3.29-12.87-9.52-.14-5.78,3.89-9.71,10.21-9.96,.9-.03,1.81,.1,2.69-.05,4.66-.81,6.09,1.37,5.49,5.68-.19,1.41-.03,2.86-.03,4.3h-.06c0,.18,.03,.37,0,.54-.75,3.61,2.91,9.49-5.43,9.02Z"/>
    <path class="cls-6" d="M288.65,393.88c-7.37,7.08-15.14,13.74-22.44,20.89-3.25,3.18-5.47,4.23-9.84,1.23-6.83-4.69-15.28-2.77-20.85,3.52-4.82,5.45-5.07,14.54-.56,20.44,4.78,6.25,13.29,8.29,20.28,4.86,7.07-3.47,10.98-11.26,8.59-18.88-1.22-3.89,0-5.33,3.08-7.08,13.12-7.44,25.37-16.15,36.45-26.85-4.97,.42-10.15-2.5-14.7,1.87Zm-40.34,46.98c-5.76,.2-10.92-4.98-10.88-10.91,.04-5.81,4.68-10.65,10.42-10.85,5.77-.2,10.79,4.82,10.9,10.92,.1,5.59-4.77,10.64-10.44,10.83Z"/>
    <path class="cls-6" d="M422.55,351.27c-5.04-7.68-12.28-10.52-20.77-8.13-7.36,2.07-12.61,9.35-12.71,17.96-.11,9.84-.03,19.68-.06,29.52,0,2.45,.04,4.99,3.35,4.89,2.91-.08,3.1-2.46,3.1-4.71,.01-4.45,0-8.9,0-14.22,2,.96,2.93,1.45,3.89,1.86,8.16,3.47,16.19,1.59,21.75-5.07,4.94-5.92,5.58-15.78,1.45-22.09Zm-15.4,22.28c-6.81-.1-11.85-5.59-11.66-12.69,.18-6.73,5.44-11.99,11.95-11.96,6.05,.03,11.69,6.16,11.53,12.53-.17,6.65-5.59,12.21-11.82,12.12Z"/>
    <path class="cls-6" d="M194.31,342.76c-7.66-1.61-15.73,2.23-19.48,9.25-4.13,7.76-2.19,17.89,4.6,24.02,5.32,4.8,14.31,5.54,20.56,1.55,2.03-1.3,4.94-2.69,2.97-5.81-1.9-3-4.15-1.32-6.42,.09-5.28,3.27-11.8,1.71-15.09-3.36-1.47-2.26-1.99-3.94,1.77-3.83,3.4,.1,6.81,.02,10.22,.02v-.07c3.59,0,7.18-.1,10.76,.03,3.91,.14,5.03-1.98,4.77-5.42-.61-8.05-6.61-14.79-14.65-16.47Zm4.33,15.36c-2.67-.12-5.34-.02-8.01-.02-2.49,0-4.99-.08-7.48,.03-2.87,.13-3.75-1.25-2.35-3.51,2.17-3.49,5.42-5.73,9.68-5.69,4.34,.04,7.96,1.77,10.22,5.67,1.29,2.23,1.01,3.65-2.06,3.51Z"/>
    <path class="cls-6" d="M329.99,367.78h-.1c0-2.87,.21-5.76-.04-8.61-.68-7.52-6.32-14.39-13.05-16.17-8.07-2.13-15.89,1.01-20.44,8.22-4.04,6.41-3.36,16.15,1.55,22.23,5.09,6.3,13,8.31,20.85,5.33,2.07-.79,3.68-2.43,6.23,.36,2.26,2.47,4.68,.42,4.95-2.75,.25-2.85,.05-5.74,.05-8.61Zm-18.03,5.7c-6.49,.07-12.17-5.85-11.99-12.48,.18-6.4,5.77-12.02,11.98-12.06,6.17-.04,11.54,5.7,11.52,12.32-.02,6.83-5.03,12.15-11.52,12.22Z"/>
  </g>
  <rect class="cls-6" x="32.72" y="171.3" width="513.7" height="26.5" rx="13.25" ry="13.25"/>
  <text class="cls-15" transform="translate(49.06 192.16)"><tspan x="0" y="0">ВАЖНО!</tspan></text>
  <text class="cls-13" transform="translate(49.06 216.5)"><tspan x="0" y="0">1) </tspan><tspan class="cls-22" x="12.27" y="0">С</tspan><tspan x="21.64" y="0">о</tspan><tspan class="cls-64" x="29.37" y="0">б</tspan><tspan x="36.57" y="0">л</tspan><tspan class="cls-36" x="43.67" y="0">юд</tspan><tspan x="61.46" y="0">ай</tspan><tspan class="cls-36" x="77.08" y="0">т</tspan><tspan x="82.83" y="0">е срок </tspan><tspan class="cls-36" x="126.54" y="0">го</tspan><tspan class="cls-45" x="139.08" y="0">дно</tspan><tspan class="cls-23" x="162.06" y="0">с</tspan><tspan x="168.93" y="0">ти хранения и при </tspan><tspan class="cls-71" x="285.81" y="0">с</tspan><tspan x="292.63" y="0">боре ап</tspan><tspan class="cls-36" x="342.27" y="0">т</tspan><tspan x="348.03" y="0">ечки в по</tspan><tspan class="cls-28" x="405.26" y="0">е</tspan><tspan class="cls-51" x="412.67" y="0">з</tspan><tspan x="418.48" y="0">д</tspan><tspan class="cls-22" x="426.25" y="0">к</tspan><tspan x="433.01" y="0">у и по</tspan><tspan class="cls-28" x="469.01" y="0">с</tspan><tspan x="475.83" y="0">ле </tspan><tspan x="0" y="15.6">вскрытия </tspan><tspan class="cls-64" x="61.39" y="15.6">ф</tspan><tspan x="70.12" y="15.6">ла</tspan><tspan class="cls-14" x="85.36" y="15.6">к</tspan><tspan x="91.71" y="15.6">она с мно</tspan><tspan class="cls-36" x="152.01" y="15.6">г</tspan><tspan x="157.09" y="15.6">оразовым исп</tspan><tspan class="cls-64" x="244.08" y="15.6">о</tspan><tspan x="251.64" y="15.6">л</tspan><tspan class="cls-54" x="258.73" y="15.6">ь</tspan><tspan x="265.04" y="15.6">зованием, обра</tspan><tspan class="cls-69" x="362.42" y="15.6">щ</tspan><tspan x="373.18" y="15.6">ай</tspan><tspan class="cls-36" x="388.8" y="15.6">т</tspan><tspan x="394.56" y="15.6">е внимание на </tspan><tspan x="0" y="31.2">срок хранения по</tspan><tspan class="cls-54" x="111.17" y="31.2">с</tspan><tspan x="118" y="31.2">ле вскрытия.</tspan><tspan x="0" y="46.8">2) </tspan><tspan class="cls-22" x="14.14" y="46.8">С</tspan><tspan x="23.52" y="46.8">о</tspan><tspan class="cls-64" x="31.24" y="46.8">б</tspan><tspan x="38.44" y="46.8">л</tspan><tspan class="cls-36" x="45.54" y="46.8">юд</tspan><tspan x="63.33" y="46.8">ай</tspan><tspan class="cls-36" x="78.95" y="46.8">т</tspan><tspan x="84.71" y="46.8">е ин</tspan><tspan class="cls-23" x="110.46" y="46.8">с</tspan><tspan x="117.34" y="46.8">т</tspan><tspan class="cls-36" x="123.36" y="46.8">р</tspan><tspan x="131.23" y="46.8">укцию к применени</tspan><tspan class="cls-20" x="253" y="46.8">ю</tspan><tspan x="263.03" y="46.8">.</tspan><tspan x="0" y="62.4">3)</tspan><tspan class="cls-36" x="11.08" y="62.4">Де</tspan><tspan class="cls-52" x="27.27" y="62.4">т</tspan><tspan x="32.89" y="62.4">ям </tspan><tspan class="cls-69" x="51.18" y="62.4">д</tspan><tspan x="58.69" y="62.4">о 6 л</tspan><tspan class="cls-36" x="87.2" y="62.4">е</tspan><tspan x="94.5" y="62.4">т и с т</tspan><tspan class="cls-36" x="130.73" y="62.4">р</tspan><tspan class="cls-52" x="138.6" y="62.4">у</tspan><tspan x="145.03" y="62.4">дно</tspan><tspan class="cls-23" x="168" y="62.4">с</tspan><tspan class="cls-52" x="174.88" y="62.4">т</tspan><tspan x="180.49" y="62.4">ями про</tspan><tspan class="cls-52" x="229.59" y="62.4">г</tspan><tspan x="234.53" y="62.4">латывания в б</tspan><tspan class="cls-64" x="322.1" y="62.4">о</tspan><tspan x="329.65" y="62.4">л</tspan><tspan class="cls-35" x="336.75" y="62.4">е</tspan><tspan x="344.25" y="62.4">е </tspan><tspan class="cls-23" x="355.05" y="62.4">с</tspan><tspan class="cls-36" x="361.93" y="62.4">т</tspan><tspan x="367.69" y="62.4">аршем в</tspan><tspan class="cls-36" x="420.53" y="62.4">о</tspan><tspan x="427.99" y="62.4">зра</tspan><tspan class="cls-23" x="450.12" y="62.4">с</tspan><tspan class="cls-36" x="457" y="62.4">т</tspan><tspan x="462.76" y="62.4">е </tspan><tspan x="0" y="78">н</tspan><tspan class="cls-25" x="7.48" y="78">е</tspan><tspan x="14.98" y="78">о</tspan><tspan class="cls-72" x="22.7" y="78">бх</tspan><tspan class="cls-36" x="35.98" y="78">о</tspan><tspan x="43.44" y="78">димо исп</tspan><tspan class="cls-67" x="99.88" y="78">о</tspan><tspan x="107.43" y="78">л</tspan><tspan class="cls-28" x="114.53" y="78">ь</tspan><tspan x="120.83" y="78">зовать жидкие ле</tspan><tspan class="cls-14" x="229.6" y="78">к</tspan><tspan x="235.96" y="78">ар</tspan><tspan class="cls-23" x="252.23" y="78">с</tspan><tspan x="259.11" y="78">твенные ср</tspan><tspan class="cls-69" x="329.5" y="78">ед</tspan><tspan class="cls-23" x="344.31" y="78">с</tspan><tspan x="351.19" y="78">тва.</tspan><tspan x="0" y="93.6">4) В </tspan><tspan class="cls-28" x="25.9" y="93.6">с</tspan><tspan x="32.72" y="93.6">лучае н</tspan><tspan class="cls-35" x="80.09" y="93.6">е</tspan><tspan x="87.59" y="93.6">о</tspan><tspan class="cls-56" x="95.31" y="93.6">бх</tspan><tspan class="cls-36" x="108.6" y="93.6">о</tspan><tspan x="116.06" y="93.6">димо</tspan><tspan class="cls-23" x="147.33" y="93.6">с</tspan><tspan x="154.2" y="93.6">ти </tspan><tspan class="cls-36" x="170.95" y="93.6">о</tspan><tspan x="178.41" y="93.6">дновременно</tspan><tspan class="cls-69" x="262.23" y="93.6">г</tspan><tspan x="267.31" y="93.6">о приёма н</tspan><tspan class="cls-25" x="336.08" y="93.6">е</tspan><tspan x="343.58" y="93.6">с</tspan><tspan class="cls-14" x="350.55" y="93.6">к</tspan><tspan class="cls-64" x="356.91" y="93.6">о</tspan><tspan x="364.46" y="93.6">льких </tspan><tspan x="0" y="109.2">ле</tspan><tspan class="cls-14" x="14.65" y="109.2">к</tspan><tspan x="21.01" y="109.2">ар</tspan><tspan class="cls-23" x="37.28" y="109.2">с</tspan><tspan x="44.16" y="109.2">твенных ср</tspan><tspan class="cls-69" x="113.83" y="109.2">ед</tspan><tspan class="cls-23" x="128.63" y="109.2">с</tspan><tspan x="135.51" y="109.2">т</tspan><tspan class="cls-54" x="141.53" y="109.2">в</tspan><tspan x="148.03" y="109.2">, о</tspan><tspan class="cls-69" x="162.61" y="109.2">б</tspan><tspan x="169.72" y="109.2">яза</tspan><tspan class="cls-36" x="190.46" y="109.2">те</tspan><tspan x="203.51" y="109.2">льно учитывай</tspan><tspan class="cls-36" x="294.43" y="109.2">т</tspan><tspan x="300.19" y="109.2">е их </tspan><tspan class="cls-71" x="328.54" y="109.2">с</tspan><tspan x="335.36" y="109.2">овм</tspan><tspan class="cls-35" x="358.01" y="109.2">е</tspan><tspan class="cls-23" x="365.52" y="109.2">с</tspan><tspan x="372.39" y="109.2">тимо</tspan><tspan class="cls-23" x="401.9" y="109.2">с</tspan><tspan x="408.78" y="109.2">т</tspan><tspan class="cls-54" x="414.8" y="109.2">ь</tspan><tspan x="421.1" y="109.2">. </tspan><tspan class="cls-69" x="427.84" y="109.2">Д</tspan><tspan x="436.74" y="109.2">анная </tspan><tspan x="0" y="124.8">информация у</tspan><tspan class="cls-14" x="88.31" y="124.8">к</tspan><tspan x="94.66" y="124.8">азыва</tspan><tspan class="cls-69" x="132.75" y="124.8">ет</tspan><tspan class="cls-54" x="145.81" y="124.8">с</tspan><tspan x="152.63" y="124.8">я в ин</tspan><tspan class="cls-23" x="187.47" y="124.8">с</tspan><tspan x="194.35" y="124.8">т</tspan><tspan class="cls-36" x="200.37" y="124.8">р</tspan><tspan x="208.24" y="124.8" xml:space="preserve">укции  в ра</tspan><tspan class="cls-43" x="277.38" y="124.8">з</tspan><tspan class="cls-36" x="283.19" y="124.8">де</tspan><tspan x="298" y="124.8">ле ле</tspan><tspan class="cls-1" x="330.55" y="124.8">к</tspan><tspan x="336.9" y="124.8">ар</tspan><tspan class="cls-23" x="353.18" y="124.8">с</tspan><tspan x="360.05" y="124.8">твенные </tspan><tspan x="0" y="140.4">взаим</tspan><tspan class="cls-36" x="36.4" y="140.4">од</tspan><tspan x="51.38" y="140.4">ей</tspan><tspan class="cls-23" x="66.4" y="140.4">с</tspan><tspan x="73.28" y="140.4">твия. </tspan><tspan x="0" y="156">5) При наличии хронич</tspan><tspan class="cls-25" x="141.8" y="156">е</tspan><tspan x="149.3" y="156">с</tspan><tspan class="cls-1" x="156.27" y="156">к</tspan><tspan x="162.63" y="156">о</tspan><tspan class="cls-36" x="170.35" y="156">г</tspan><tspan x="175.43" y="156">о заб</tspan><tspan class="cls-64" x="207.76" y="156">о</tspan><tspan x="215.31" y="156">левания и н</tspan><tspan class="cls-25" x="287.89" y="156">е</tspan><tspan x="295.39" y="156">о</tspan><tspan class="cls-72" x="303.12" y="156">бх</tspan><tspan class="cls-36" x="316.4" y="156">о</tspan><tspan x="323.86" y="156">димо</tspan><tspan class="cls-23" x="355.13" y="156">с</tspan><tspan x="362" y="156">ти по</tspan><tspan class="cls-23" x="393.95" y="156">с</tspan><tspan class="cls-69" x="400.82" y="156">то</tspan><tspan x="414.04" y="156">янно</tspan><tspan class="cls-36" x="443.46" y="156">г</tspan><tspan x="448.55" y="156">о </tspan><tspan x="0" y="171.6">приёма м</tspan><tspan class="cls-36" x="58.62" y="171.6">е</tspan><tspan x="65.91" y="171.6">дпрепара</tspan><tspan class="cls-36" x="128.74" y="171.6">т</tspan><tspan x="134.5" y="171.6">ов </tspan><tspan class="cls-23" x="152.11" y="171.6">с</tspan><tspan class="cls-69" x="158.99" y="171.6">т</tspan><tspan x="164.75" y="171.6">оит п</tspan><tspan class="cls-36" x="196.69" y="171.6">о</tspan><tspan x="204.15" y="171.6">заб</tspan><tspan class="cls-36" x="225.51" y="171.6">о</tspan><tspan x="232.97" y="171.6">тит</tspan><tspan class="cls-22" x="252.48" y="171.6">ь</tspan><tspan class="cls-54" x="258.87" y="171.6">с</tspan><tspan x="265.69" y="171.6">я заран</tspan><tspan class="cls-35" x="313.43" y="171.6">е</tspan><tspan x="320.93" y="171.6">е о поп</tspan><tspan class="cls-67" x="365.37" y="171.6">о</tspan><tspan x="372.93" y="171.6">лнении их запа</tspan><tspan class="cls-73" x="467.88" y="171.6">с</tspan><tspan x="474.69" y="171.6">о</tspan><tspan class="cls-54" x="482.41" y="171.6">в</tspan><tspan x="488.91" y="171.6">, </tspan><tspan x="0" y="187.2">о</tspan><tspan class="cls-71" x="7.72" y="187.2">с</tspan><tspan x="14.53" y="187.2">обенно </tspan><tspan class="cls-35" x="63.1" y="187.2">е</tspan><tspan class="cls-54" x="70.6" y="187.2">с</tspan><tspan x="77.43" y="187.2">ли они пр</tspan><tspan class="cls-36" x="136.79" y="187.2">од</tspan><tspan x="151.76" y="187.2">а</tspan><tspan class="cls-36" x="159.9" y="187.2">ют</tspan><tspan class="cls-28" x="175.94" y="187.2">с</tspan><tspan x="182.77" y="187.2">я по ре</tspan><tspan class="cls-36" x="226.9" y="187.2">ц</tspan><tspan x="234.51" y="187.2">еп</tspan><tspan class="cls-55" x="249.53" y="187.2">т</tspan><tspan x="255.66" y="187.2">у врача.</tspan><tspan x="0" y="202.8">6) При планировании заграничных по</tspan><tspan class="cls-54" x="235.41" y="202.8">е</tspan><tspan class="cls-43" x="242.82" y="202.8">з</tspan><tspan class="cls-36" x="248.63" y="202.8">д</tspan><tspan x="256.15" y="202.8">ок </tspan><tspan class="cls-55" x="273.95" y="202.8">у</tspan><tspan class="cls-69" x="280.87" y="202.8">т</tspan><tspan class="cls-54" x="286.63" y="202.8">о</tspan><tspan x="294.21" y="202.8">чни</tspan><tspan class="cls-36" x="316.2" y="202.8">т</tspan><tspan x="321.95" y="202.8">е в</tspan><tspan class="cls-35" x="339.4" y="202.8">с</tspan><tspan x="346.32" y="202.8">ю н</tspan><tspan class="cls-25" x="367.58" y="202.8">е</tspan><tspan x="375.08" y="202.8">о</tspan><tspan class="cls-72" x="382.81" y="202.8">бх</tspan><tspan class="cls-36" x="396.09" y="202.8">о</tspan><tspan x="403.55" y="202.8">димую </tspan><tspan x="0" y="218.4">информацию на </tspan><tspan class="cls-71" x="104.14" y="218.4">с</tspan><tspan x="110.95" y="218.4">ай</tspan><tspan class="cls-36" x="126.57" y="218.4">т</tspan><tspan x="132.33" y="218.4">е </tspan><tspan class="cls-69" x="143.13" y="218.4">т</tspan><tspan x="148.89" y="218.4">ам</tspan><tspan class="cls-66" x="165.32" y="218.4">ож</tspan><tspan x="181.7" y="218.4">енных ор</tspan><tspan class="cls-36" x="239.46" y="218.4">г</tspan><tspan x="244.54" y="218.4">анов о перев</tspan><tspan class="cls-69" x="326.1" y="218.4">о</tspan><tspan x="333.56" y="218.4">зе м</tspan><tspan class="cls-36" x="358.51" y="218.4">е</tspan><tspan x="365.8" y="218.4">ди</tspan><tspan class="cls-14" x="381.05" y="218.4">к</tspan><tspan x="387.41" y="218.4">амен</tspan><tspan class="cls-36" x="418.87" y="218.4">т</tspan><tspan x="424.63" y="218.4">о</tspan><tspan class="cls-28" x="432.35" y="218.4">в</tspan><tspan x="438.85" y="218.4">, </tspan><tspan class="cls-14" x="0" y="234">к</tspan><tspan class="cls-69" x="6.36" y="234">от</tspan><tspan x="19.58" y="234">орые вы плани</tspan><tspan class="cls-36" x="112.44" y="234">рует</tspan><tspan x="139.93" y="234">е в</tspan><tspan class="cls-28" x="157.38" y="234">з</tspan><tspan x="163.08" y="234">ять с </tspan><tspan class="cls-71" x="195.76" y="234">с</tspan><tspan x="202.58" y="234">обою (в</tspan><tspan class="cls-36" x="249.82" y="234">о</tspan><tspan x="257.28" y="234">зм</tspan><tspan class="cls-20" x="271.42" y="234">о</tspan><tspan x="278.63" y="234">жно для не</tspan><tspan class="cls-1" x="346.67" y="234">к</tspan><tspan class="cls-36" x="353.02" y="234">от</tspan><tspan x="366.25" y="234">орых из них </tspan><tspan x="0" y="249.6">при</tspan><tspan class="cls-36" x="23.09" y="249.6">дет</tspan><tspan class="cls-54" x="43.65" y="249.6">с</tspan><tspan x="50.48" y="249.6">я в</tspan><tspan class="cls-28" x="67.12" y="249.6">з</tspan><tspan x="72.83" y="249.6">ять письменное закл</tspan><tspan class="cls-54" x="200.89" y="249.6">ю</tspan><tspan x="211.29" y="249.6">чение врача с ре</tspan><tspan class="cls-14" x="318.87" y="249.6">к</tspan><tspan x="325.23" y="249.6">омен</tspan><tspan class="cls-69" x="356.27" y="249.6">д</tspan><tspan x="363.79" y="249.6">ациями по их </tspan><tspan x="0" y="265.2">приему).</tspan><tspan x="0" y="280.8" xml:space="preserve">7)  При планировании по</tspan><tspan class="cls-71" x="153.38" y="280.8">с</tspan><tspan x="160.2" y="280.8">е</tspan><tspan class="cls-36" x="167.75" y="280.8">щ</tspan><tspan x="178.51" y="280.8">ения активных мероприятий в</tspan><tspan class="cls-36" x="365.39" y="280.8">д</tspan><tspan x="372.9" y="280.8">али </tspan><tspan class="cls-36" x="398.86" y="280.8">о</tspan><tspan x="406.32" y="280.8">т </tspan><tspan class="cls-36" x="415.59" y="280.8">г</tspan><tspan x="420.67" y="280.8">ор</tspan><tspan class="cls-36" x="436.53" y="280.8">од</tspan><tspan x="451.51" y="280.8">а </tspan><tspan x="0" y="296.4">ап</tspan><tspan class="cls-36" x="15.61" y="296.4">т</tspan><tspan x="21.37" y="296.4">еч</tspan><tspan class="cls-22" x="35.96" y="296.4">к</tspan><tspan x="42.72" y="296.4">у </tspan><tspan class="cls-23" x="52.79" y="296.4">с</tspan><tspan class="cls-36" x="59.67" y="296.4">т</tspan><tspan x="65.43" y="296.4">оит п</tspan><tspan class="cls-36" x="97.37" y="296.4">од</tspan><tspan x="112.35" y="296.4">бирать п</tspan><tspan class="cls-36" x="166.66" y="296.4">о</tspan><tspan x="174.12" y="296.4">д вид пр</tspan><tspan class="cls-36" x="225.9" y="296.4">е</tspan><tspan x="233.19" y="296.4">дп</tspan><tspan class="cls-64" x="248.44" y="296.4">о</tspan><tspan x="255.99" y="296.4">ла</tspan><tspan class="cls-36" x="271.23" y="296.4">г</tspan><tspan x="276.31" y="296.4">аемой активно</tspan><tspan class="cls-23" x="369.04" y="296.4">с</tspan><tspan x="375.92" y="296.4">ти, </tspan><tspan class="cls-23" x="396.28" y="296.4">с</tspan><tspan class="cls-36" x="403.15" y="296.4">т</tspan><tspan x="408.91" y="296.4">епень рис</tspan><tspan class="cls-1" x="471.25" y="296.4">к</tspan><tspan x="477.6" y="296.4">а </tspan><tspan x="0" y="312">п</tspan><tspan class="cls-64" x="7.48" y="312">о</tspan><tspan x="15.03" y="312">лучения травмы и </tspan><tspan class="cls-14" x="129.01" y="312">к</tspan><tspan class="cls-64" x="135.37" y="312">о</tspan><tspan x="142.92" y="312">лич</tspan><tspan class="cls-25" x="164.53" y="312">е</tspan><tspan class="cls-23" x="172.03" y="312">с</tspan><tspan x="178.9" y="312">тво членов </tspan><tspan class="cls-73" x="249.31" y="312">с</tspan><tspan x="256.12" y="312">емьи.</tspan></text>
  <g class="cls-42">
    <path class="cls-6" d="M395.07,693.69c-.63,.74-.97,1.12-1.3,1.53-1.95,2.44-1.67,5.83,.61,7.45,2.24,1.59,5.9,.52,7.41-2.18,2.34-4.18,1.49-9.04-2.11-12.42-3.5-3.28-7.71-5.14-12.37-5.77-10.34-1.39-19.81,.17-26.9,8.85-6.06,7.43-6.96,15.86-4.88,24.86,2.47,10.67,7.91,19.93,13.98,28.85,5.54,8.14,11.91,15.65,18.33,23.11,.94,1.1,1.63,1.59,3.15,.64,6.98-4.38,13.64-3.96,20.26,1.01,4.02,3.01,7.18,6.67,9.08,11.38,1.46,3.63,.94,6.38-1.92,9.04-.67,.63-1.19,1.3-1.56,2.16-.55,1.28-1.62,1.76-2.99,1.31-1.26-.41-1.83-1.32-1.65-2.62,.2-1.44,1.17-2.03,2.53-2.11,2.49-.16,4.44-2.21,4.08-4.57-1.18-7.72-11.41-17.01-20.15-14.7-11.06,2.92-14.82,14.52-7.44,23.26,2.24,2.66,4.81,4.78,8.05,6.08,1.32,.53,2.64,.65,4,.34,.93-.21,1.66-.59,1.69-1.78,.05-1.67,1.08-2.48,2.69-2.36,1.28,.1,2.07,.9,2.15,2.22,.09,1.53-.71,2.41-2.18,2.7-.3,.06-.65,0-.88,.16-5.28,3.41-9.62,.69-13.71-2.32-3.64-2.68-6.43-6.19-8.25-10.38-2.37-5.46-1.62-10.55,2.15-15.08,1.21-1.46,1.22-2.04-.34-3.25-13.79-10.7-26.13-22.78-35.13-37.91-4.22-7.1-7.3-14.66-7.86-23.01-.86-12.9,4.83-22.59,15.4-29.41,10-6.45,20.88-8.16,32.38-4.46,10.96,3.52,18.09,14.62,16.19,25.33-.77,4.36-2.98,7.73-7.46,9.19-4.28,1.39-8.68-1.03-10.1-5.58-1.33-4.26,.57-8.23,5.04-9.57Z"/>
    <path class="cls-6" d="M435.53,683.22c-7.37,.11-13.72,1.69-19.9,4.09-.73,.28-1.76,1.29-2.36,.2-.43-.78,.66-1.47,1.31-1.88,10.09-6.39,21.01-9.32,32.85-6.88,7.97,1.64,13.03,6.9,15.77,14.51,2.48,6.91,2.88,13.85,.91,20.95-.38,1.37-.87,2.11-2.43,1.94-1.94-.21-4.53,.82-5.68-.37-1.05-1.09,.49-3.47,.74-5.32,.56-4.15,.83-8.3-.14-12.41-2.02-8.54-8.02-13.53-17.46-14.64-1.42-.17-2.87-.16-3.61-.2Z"/>
    <path class="cls-6" d="M363.47,658.99c.04-5.9,4.65-10.52,10.5-10.52,5.78,0,10.48,4.75,10.46,10.58-.02,5.87-4.69,10.53-10.51,10.49-5.87-.04-10.48-4.7-10.44-10.56Z"/>
    <path class="cls-6" d="M458.08,727.69c0-1.89,0-3.79,0-5.68,0-1.68,.37-2.84,2.4-1.73,.24,.13,.6,.21,.83,.12,2.63-1.05,5.01-.8,7.15,1.18,.59,.55,.94-.14,1.32-.42,2.08-1.52,4.34-1.9,6.62-.7,2.33,1.23,3.39,3.37,3.4,5.99,.01,2.42,0,4.85-.03,7.27-.01,.94-.14,1.93-1.4,1.92-1.3-.01-1.3-1.02-1.3-1.96,0-2.27,.04-4.54-.01-6.81-.06-2.63-1.38-4.26-3.4-4.31-1.99-.04-3.29,1.59-3.34,4.26-.04,2.27-.04,4.54-.04,6.81,0,1.01-.27,1.95-1.38,1.98-1.22,.04-1.33-.98-1.33-1.95,0-2.27,.02-4.54-.02-6.81-.04-2.62-1.37-4.28-3.36-4.3-2.03-.01-3.38,1.64-3.41,4.23-.03,2.35,0,4.69-.01,7.04,0,.89-.14,1.76-1.24,1.82-1.23,.06-1.46-.82-1.46-1.83,0-2.04,0-4.09,0-6.13Z"/>
    <path class="cls-6" d="M443.15,674.69c-3.99-.03-6.95-3.05-6.94-7.08,.01-3.92,3.16-7.01,7.09-6.95,3.77,.05,6.92,3.25,6.9,6.99-.02,3.95-3.15,7.07-7.05,7.04Z"/>
    <path class="cls-6" d="M372.53,724.44c0-3.03,.04-6.05-.02-9.08-.03-1.55,.6-2.19,2.15-2.17,3.71,.05,7.41,.04,11.12,.01,1.26,0,2.01,.39,2.02,1.8,.02,6.27,.07,12.55,.1,18.82,0,1.03-.44,1.85-1.56,1.82-1.17-.03-1.12-1.05-1.13-1.87-.01-5.22-.08-10.44,.03-15.66,.04-1.73-.51-2.26-2.19-2.14-1.96,.14-3.94,.11-5.9,0-1.51-.08-1.95,.5-1.93,1.97,.07,4.84,.02,9.68,.02,14.52,0,.53,.02,1.06-.02,1.59-.06,.82-.35,1.55-1.29,1.57-1.07,.03-1.41-.74-1.41-1.67-.02-3.18,0-6.35,0-9.53Z"/>
    <path class="cls-6" d="M517.76,728.05c0,2.04,.06,4.08-.02,6.12-.07,1.89-.88,2.34-2.37,1.16-.82-.64-1.22-.15-1.77,.07-4.86,1.96-9.8-1.08-10.08-6.29-.13-2.34-.02-4.68,0-7.03,0-.95,.09-1.93,1.36-1.92,1.29,.01,1.31,1.07,1.33,1.97,.05,2.04,0,4.08,.04,6.12,.07,2.96,1.89,4.98,4.44,5,2.4,.02,4.2-1.99,4.3-4.86,.06-1.74-.04-3.48,.06-5.21,.07-1.15-.59-2.97,1.42-2.96,1.87,.01,1.22,1.75,1.28,2.83,.09,1.66,.02,3.32,.02,4.99Z"/>
    <path class="cls-6" d="M439.47,727.85c0,2.04,.05,4.09-.02,6.13-.05,1.48-.9,2.27-2.2,1.33-.88-.64-1.43-.4-2.22-.12-4.92,1.8-9.57-1.28-9.75-6.47-.08-2.35-.03-4.7-.05-7.04,0-.92,.22-1.76,1.26-1.81,1.06-.05,1.39,.84,1.41,1.71,.05,2.12,0,4.24,.03,6.36,.06,3.09,1.76,4.99,4.41,4.99,2.64,0,4.31-1.88,4.39-5.01,.05-2.04,0-4.09,0-6.13,0-.98,.21-1.94,1.42-1.89,1.05,.04,1.27,.92,1.27,1.82,0,2.04,0,4.09,0,6.13h.03Z"/>
    <path class="cls-6" d="M425.3,734.38c-.02-.66-.42-1.29-1.03-1.35-1.58-.15-1.43-1.28-1.46-2.3-.05-1.51,.04-3.03-.04-4.53-.2-4.1-3.28-7.22-7.18-7.34-3.92-.12-7.27,2.79-7.73,6.83-.17,1.5-.1,3.02-.11,4.54,0,1.33,.31,2.81-1.79,2.86-.44,.01-.87,.46-.88,.93-.05,1.66-.1,3.32,0,4.98,.05,.82,.85,1.04,1.55,.99,.71-.05,1.13-.64,1.02-1.27-.59-3.15,1.31-3.21,3.56-3.03,1.28,.1,2.57,.02,3.86,.02,1.14,0,2.27,0,3.41,0,2.2-.03,4.81-.69,4.19,3.14-.12,.72,.58,1.24,1.36,1.2,.78-.04,1.26-.57,1.28-1.34,.04-1.44,.03-2.88-.01-4.31Zm-6.68-1.46c-1.13-.04-2.27,0-3.41-.01q-4.5,0-4.55-4.71c-.04-4.19,1.14-6.02,4.14-6.42,2.59-.34,4.9,1.36,5.12,3.96,.16,1.96,.03,3.93,.09,5.9,.03,1.02-.48,1.31-1.39,1.28Z"/>
    <path class="cls-6" d="M539.03,724.25c0-1.97,.02-3.93,0-5.9-.07-6.17,.87-5.29-5.4-5.48-3.3-.1-5.88,.96-7.2,4.02-1.32,3.07-.75,5.97,1.83,8.23,.84,.73,.8,1.33,.32,2.12-1.08,1.82-2.18,3.63-3.25,5.45-.48,.82-.91,1.75,.13,2.38,1.13,.69,1.8-.14,2.33-1.05,1.18-2.03,2.4-4.03,3.52-6.08,1.02-1.88,2.77-1.37,4.22-1.17,1.39,.19,.69,1.6,.76,2.47,.11,1.35,.04,2.72,.02,4.08-.01,.96,.03,1.98,1.23,2.05,1.33,.07,1.5-.96,1.49-2.04-.02-3.03,0-6.05,0-9.08Zm-5.01-.33c-3.5-.2-5.37-1.39-5.43-4.02-.06-2.44,1.64-4.1,4.31-4.2,.38-.01,.77,.04,1.13-.02,1.97-.34,2.57,.58,2.32,2.4-.08,.59-.01,1.21-.01,1.81h-.02c0,.08,.01,.15,0,.23-.32,1.52,1.23,4.01-2.29,3.81Z"/>
    <path class="cls-6" d="M438.85,741.54c-3.11,2.99-6.39,5.8-9.48,8.82-1.37,1.34-2.31,1.79-4.16,.52-2.88-1.98-6.45-1.17-8.8,1.49-2.04,2.3-2.14,6.14-.24,8.63,2.02,2.64,5.61,3.5,8.56,2.05,2.99-1.47,4.64-4.75,3.63-7.97-.51-1.64,0-2.25,1.3-2.99,5.54-3.14,10.71-6.82,15.39-11.34-2.1,.18-4.29-1.05-6.21,.79Zm-17.03,19.83c-2.43,.08-4.61-2.1-4.59-4.6,.02-2.45,1.98-4.49,4.4-4.58,2.44-.09,4.56,2.04,4.6,4.61,.04,2.36-2.01,4.49-4.41,4.57Z"/>
    <path class="cls-6" d="M495.38,723.55c-2.13-3.24-5.19-4.44-8.77-3.43-3.11,.87-5.32,3.95-5.36,7.58-.05,4.15-.01,8.31-.02,12.46,0,1.03,.02,2.11,1.41,2.07,1.23-.04,1.31-1.04,1.31-1.99,0-1.88,0-3.76,0-6,.85,.41,1.24,.61,1.64,.79,3.45,1.47,6.84,.67,9.18-2.14,2.08-2.5,2.36-6.66,.61-9.33Zm-6.5,9.41c-2.88-.04-5-2.36-4.92-5.36,.08-2.84,2.3-5.06,5.05-5.05,2.56,.01,4.94,2.6,4.87,5.29-.07,2.81-2.36,5.16-4.99,5.11Z"/>
    <path class="cls-6" d="M399.02,719.96c-3.23-.68-6.64,.94-8.22,3.91-1.75,3.27-.93,7.55,1.94,10.14,2.25,2.03,6.04,2.34,8.68,.65,.86-.55,2.09-1.14,1.25-2.45-.8-1.27-1.75-.56-2.71,.04-2.23,1.38-4.98,.72-6.37-1.42-.62-.96-.84-1.67,.75-1.62,1.44,.04,2.88,0,4.32,0v-.03c1.51,0,3.03-.04,4.54,.01,1.65,.06,2.12-.84,2.01-2.29-.26-3.4-2.79-6.24-6.18-6.96Zm1.83,6.49c-1.13-.05-2.25-.01-3.38,0-1.05,0-2.11-.04-3.16,.01-1.21,.06-1.58-.53-.99-1.48,.92-1.47,2.29-2.42,4.09-2.4,1.83,.02,3.36,.75,4.31,2.4,.54,.94,.42,1.54-.87,1.48Z"/>
    <path class="cls-6" d="M456.3,730.52h-.04c0-1.21,.09-2.43-.02-3.63-.29-3.18-2.67-6.08-5.51-6.83-3.41-.9-6.71,.43-8.63,3.47-1.7,2.71-1.42,6.82,.65,9.38,2.15,2.66,5.49,3.51,8.8,2.25,.87-.33,1.55-1.03,2.63,.15,.95,1.04,1.97,.18,2.09-1.16,.11-1.2,.02-2.42,.02-3.63Zm-7.61,2.41c-2.74,.03-5.14-2.47-5.06-5.27,.08-2.7,2.44-5.07,5.06-5.09,2.6-.02,4.87,2.41,4.86,5.2,0,2.88-2.12,5.13-4.86,5.16Z"/>
  </g>
  <rect class="cls-6" x="29.54" y="611.79" width="354.51" height="24.41" rx="12.21" ry="12.21"/>
  <text class="cls-8" transform="translate(35.28 668.93)"><tspan x="0" y="0" xml:space="preserve"> 1) </tspan><tspan class="cls-43" x="14.75" y="0">С</tspan><tspan class="cls-36" x="24.34" y="0">у</tspan><tspan x="30.77" y="0">сп</tspan><tspan class="cls-40" x="45.25" y="0">е</tspan><tspan class="cls-43" x="52.83" y="0">н</tspan><tspan x="60.14" y="0">зии («И</tspan><tspan class="cls-32" x="103.02" y="0">б</tspan><tspan x="110.08" y="0">упроф</tspan><tspan class="cls-18" x="149" y="0">е</tspan><tspan x="156.58" y="0">н» 100 м</tspan><tspan class="cls-58" x="206.4" y="0">г</tspan><tspan x="210.39" y="0">./5 мл., «И</tspan><tspan class="cls-60" x="271.31" y="0">б</tspan><tspan x="278.36" y="0">упроф</tspan><tspan class="cls-40" x="317.29" y="0">е</tspan><tspan x="324.86" y="0">н» </tspan><tspan class="cls-24" x="342.14" y="0">2</tspan><tspan x="348.86" y="0">00 м</tspan><tspan class="cls-31" x="376.77" y="0">г</tspan><tspan x="380.76" y="0">./5 мл., </tspan><tspan x="0" y="15.6" xml:space="preserve"> «И</tspan><tspan class="cls-32" x="18.73" y="15.6">б</tspan><tspan class="cls-69" x="25.79" y="15.6">у</tspan><tspan x="32.23" y="15.6">ф</tspan><tspan class="cls-40" x="41.03" y="15.6">е</tspan><tspan x="48.61" y="15.6">н </tspan><tspan class="cls-52" x="59.2" y="15.6">д</tspan><tspan x="66.51" y="15.6">» 100 м</tspan><tspan class="cls-31" x="108.98" y="15.6">г</tspan><tspan x="112.97" y="15.6">./5 мл., «И</tspan><tspan class="cls-32" x="173.89" y="15.6">б</tspan><tspan class="cls-36" x="180.95" y="15.6">у</tspan><tspan x="187.38" y="15.6">ф</tspan><tspan class="cls-18" x="196.18" y="15.6">е</tspan><tspan x="203.76" y="15.6">н фо</tspan><tspan class="cls-36" x="230.99" y="15.6">рте</tspan><tspan x="251.87" y="15.6">» </tspan><tspan class="cls-24" x="261.8" y="15.6">2</tspan><tspan x="268.53" y="15.6" xml:space="preserve">00  м</tspan><tspan class="cls-31" x="299.69" y="15.6">г</tspan><tspan x="303.68" y="15.6">. / 5 мл.) – по</tspan><tspan class="cls-54" x="382.72" y="15.6">с</tspan><tspan x="389.71" y="15.6">ле вскрытия </tspan><tspan class="cls-61" x="467.84" y="15.6">г</tspan><tspan class="cls-36" x="472.78" y="15.6">о</tspan><tspan x="480.36" y="15.6">дны </tspan><tspan x="0" y="31.2">6 м</tspan><tspan class="cls-40" x="18.47" y="31.2">е</tspan><tspan class="cls-28" x="26.05" y="31.2">с</tspan><tspan x="33.05" y="31.2">я</tspan><tspan class="cls-36" x="39.62" y="31.2">ц</tspan><tspan class="cls-18" x="47.1" y="31.2">е</tspan><tspan x="54.68" y="31.2">в;</tspan><tspan x="0" y="46.8" xml:space="preserve"> 2) Свечи («И</tspan><tspan class="cls-32" x="77.39" y="46.8">б</tspan><tspan class="cls-69" x="84.45" y="46.8">у</tspan><tspan class="cls-61" x="90.88" y="46.8">ф</tspan><tspan x="99.45" y="46.8">л</tspan><tspan class="cls-40" x="106.59" y="46.8">е</tspan><tspan class="cls-44" x="114.16" y="46.8">к</tspan><tspan x="120.09" y="46.8">с» 60 м</tspan><tspan class="cls-31" x="163.85" y="46.8">г</tspan><tspan x="167.84" y="46.8">. – р</tspan><tspan class="cls-43" x="194.08" y="46.8">а</tspan><tspan x="202.28" y="46.8">зр</tspan><tspan class="cls-40" x="216.34" y="46.8">е</tspan><tspan x="223.92" y="46.8">ш</tspan><tspan class="cls-40" x="234.56" y="46.8">е</tspan><tspan x="242.14" y="46.8">ны с 3 м</tspan><tspan class="cls-18" x="290.26" y="46.8">е</tspan><tspan class="cls-54" x="297.84" y="46.8">с</tspan><tspan x="304.83" y="46.8">я</tspan><tspan class="cls-36" x="311.41" y="46.8">ц</tspan><tspan class="cls-18" x="318.89" y="46.8">е</tspan><tspan x="326.47" y="46.8">в (при в</tspan><tspan class="cls-40" x="372.61" y="46.8">е</tspan><tspan class="cls-46" x="380.19" y="46.8">с</tspan><tspan x="387.23" y="46.8">е р</tspan><tspan class="cls-18" x="406.31" y="46.8">е</tspan><tspan x="413.89" y="46.8">б</tspan><tspan class="cls-40" x="421.27" y="46.8">ё</tspan><tspan x="428.85" y="46.8">н</tspan><tspan class="cls-44" x="436.2" y="46.8">к</tspan><tspan x="442.12" y="46.8">а б</tspan><tspan class="cls-61" x="461" y="46.8">о</tspan><tspan x="468.6" y="46.8">л</tspan><tspan class="cls-18" x="475.74" y="46.8">е</tspan><tspan x="483.32" y="46.8">е 6 к</tspan><tspan class="cls-58" x="510.93" y="46.8">г</tspan><tspan x="514.92" y="46.8">.);</tspan><tspan x="0" y="62.4" xml:space="preserve"> 3) </tspan><tspan class="cls-30" x="17.08" y="62.4">К</tspan><tspan x="24.17" y="62.4">ап</tspan><tspan class="cls-36" x="39.75" y="62.4">с</tspan><tspan class="cls-52" x="46.63" y="62.4">у</tspan><tspan x="52.92" y="62.4">лы («И</tspan><tspan class="cls-60" x="91.14" y="62.4">б</tspan><tspan x="98.2" y="62.4">упроф</tspan><tspan class="cls-40" x="137.12" y="62.4">е</tspan><tspan x="144.7" y="62.4">н» </tspan><tspan class="cls-24" x="161.98" y="62.4">2</tspan><tspan x="168.7" y="62.4">00 м</tspan><tspan class="cls-31" x="196.61" y="62.4">г</tspan><tspan x="200.6" y="62.4">., «И</tspan><tspan class="cls-32" x="225.78" y="62.4">б</tspan><tspan class="cls-36" x="232.84" y="62.4">у</tspan><tspan x="239.28" y="62.4">ф</tspan><tspan class="cls-18" x="248.08" y="62.4">е</tspan><tspan x="255.65" y="62.4">н </tspan><tspan class="cls-52" x="266.25" y="62.4">у</tspan><tspan x="272.54" y="62.4">л</tspan><tspan class="cls-19" x="279.68" y="62.4">ь</tspan><tspan x="285.16" y="62.4">тра» </tspan><tspan class="cls-24" x="317.4" y="62.4">2</tspan><tspan x="324.12" y="62.4">00 м</tspan><tspan class="cls-31" x="352.04" y="62.4">г</tspan><tspan x="356.03" y="62.4">. (в</tspan><tspan class="cls-40" x="372.61" y="62.4">е</tspan><tspan x="380.19" y="62.4">с р</tspan><tspan class="cls-40" x="398.82" y="62.4">е</tspan><tspan x="406.4" y="62.4">б</tspan><tspan class="cls-18" x="413.78" y="62.4">е</tspan><tspan x="421.36" y="62.4">н</tspan><tspan class="cls-44" x="428.71" y="62.4">к</tspan><tspan x="434.64" y="62.4">а </tspan><tspan class="cls-36" x="446.13" y="62.4">о</tspan><tspan x="453.71" y="62.4">т </tspan><tspan class="cls-24" x="462.78" y="62.4">2</tspan><tspan x="469.5" y="62.4">0 к</tspan><tspan class="cls-58" x="487.49" y="62.4">г</tspan><tspan x="491.48" y="62.4">.);</tspan><tspan x="0" y="78" xml:space="preserve"> 4) </tspan><tspan class="cls-58" x="17.58" y="78">Т</tspan><tspan x="23.41" y="78">а</tspan><tspan class="cls-61" x="31.66" y="78">б</tspan><tspan x="38.81" y="78">л</tspan><tspan class="cls-69" x="45.94" y="78">е</tspan><tspan x="53.27" y="78">тки («И</tspan><tspan class="cls-32" x="95.34" y="78">б</tspan><tspan class="cls-36" x="102.4" y="78">у</tspan><tspan class="cls-61" x="108.84" y="78">ф</tspan><tspan x="117.4" y="78">л</tspan><tspan class="cls-18" x="124.54" y="78">е</tspan><tspan class="cls-44" x="132.12" y="78">к</tspan><tspan x="138.05" y="78">с </tspan><tspan class="cls-24" x="148.43" y="78">2</tspan><tspan x="155.15" y="78">00», «И</tspan><tspan class="cls-60" x="200.29" y="78">б</tspan><tspan x="207.35" y="78">упроф</tspan><tspan class="cls-40" x="246.27" y="78">е</tspan><tspan x="253.85" y="78">н-б</tspan><tspan class="cls-36" x="275.27" y="78">е</tspan><tspan x="282.6" y="78">лм</tspan><tspan class="cls-36" x="297.97" y="78">е</tspan><tspan x="305.3" y="78">д </tspan><tspan class="cls-24" x="316.26" y="78">2</tspan><tspan x="322.98" y="78" xml:space="preserve">00»  – с 12 л</tspan><tspan class="cls-69" x="396.43" y="78">е</tspan><tspan x="403.76" y="78">т; </tspan><tspan x="0" y="93.6" xml:space="preserve"> «И</tspan><tspan class="cls-32" x="18.73" y="93.6">б</tspan><tspan class="cls-69" x="25.79" y="93.6">у</tspan><tspan class="cls-61" x="32.23" y="93.6">ф</tspan><tspan x="40.79" y="93.6">л</tspan><tspan class="cls-40" x="47.93" y="93.6">е</tspan><tspan class="cls-44" x="55.51" y="93.6">к</tspan><tspan x="61.44" y="93.6">с 400»,«И</tspan><tspan class="cls-60" x="121.16" y="93.6">б</tspan><tspan x="128.22" y="93.6">упроф</tspan><tspan class="cls-40" x="167.14" y="93.6">е</tspan><tspan x="174.72" y="93.6">н ма</tspan><tspan class="cls-26" x="201.78" y="93.6">к</tspan><tspan x="207.71" y="93.6">с 400»– с 12 л</tspan><tspan class="cls-36" x="292.5" y="93.6">е</tspan><tspan x="299.83" y="93.6">т (в</tspan><tspan class="cls-40" x="319.08" y="93.6">е</tspan><tspan x="326.66" y="93.6">с не м</tspan><tspan class="cls-18" x="363.46" y="93.6">е</tspan><tspan x="371.04" y="93.6">н</tspan><tspan class="cls-40" x="378.39" y="93.6">е</tspan><tspan x="385.96" y="93.6">е 40 к</tspan><tspan class="cls-31" x="422.25" y="93.6">г</tspan><tspan x="426.24" y="93.6">.) , </tspan><tspan x="0" y="109.2" xml:space="preserve"> «Миг 400» - (р</tspan><tspan class="cls-43" x="91.79" y="109.2">а</tspan><tspan x="99.99" y="109.2">зр</tspan><tspan class="cls-40" x="114.06" y="109.2">е</tspan><tspan x="121.64" y="109.2">ш</tspan><tspan class="cls-40" x="132.27" y="109.2">е</tspan><tspan x="139.85" y="109.2">н с 6 л</tspan><tspan class="cls-69" x="178.21" y="109.2">е</tspan><tspan class="cls-57" x="185.55" y="109.2">т</tspan><tspan x="190.45" y="109.2">, в</tspan><tspan class="cls-40" x="203.52" y="109.2">е</tspan><tspan x="211.1" y="109.2">с не м</tspan><tspan class="cls-18" x="247.91" y="109.2">е</tspan><tspan x="255.48" y="109.2">н</tspan><tspan class="cls-40" x="262.83" y="109.2">е</tspan><tspan x="270.41" y="109.2">е 40 к</tspan><tspan class="cls-31" x="306.69" y="109.2">г</tspan><tspan x="310.68" y="109.2">.!, </tspan><tspan class="cls-36" x="323.54" y="109.2">о</tspan><tspan x="331.12" y="109.2">т </tspan><tspan class="cls-24" x="340.19" y="109.2">2</tspan><tspan x="346.91" y="109.2">0 к</tspan><tspan class="cls-58" x="364.9" y="109.2">г</tspan><tspan x="368.9" y="109.2">. исп</tspan><tspan class="cls-61" x="397.13" y="109.2">о</tspan><tspan x="404.74" y="109.2">л</tspan><tspan class="cls-28" x="411.87" y="109.2">ь</tspan><tspan x="417.97" y="109.2">зовать </tspan><tspan class="cls-36" x="461.73" y="109.2">т</tspan><tspan class="cls-61" x="467.29" y="109.2">о</tspan><tspan x="474.9" y="109.2">ль</tspan><tspan class="cls-44" x="488.27" y="109.2">к</tspan><tspan x="494.2" y="109.2">о </tspan><tspan x="0" y="124.8" xml:space="preserve"> в п</tspan><tspan class="cls-61" x="20.38" y="124.8">о</tspan><tspan x="27.99" y="124.8">ловинной </tspan><tspan class="cls-36" x="89.97" y="124.8">до</tspan><tspan x="105" y="124.8">зе)</tspan><tspan x="0" y="140.4" xml:space="preserve"> 5) Порошки («и</tspan><tspan class="cls-32" x="95.11" y="140.4">б</tspan><tspan x="102.17" y="140.4">упроф</tspan><tspan class="cls-18" x="141.09" y="140.4">е</tspan><tspan x="148.66" y="140.4">н</tspan><tspan class="cls-20" x="156.01" y="140.4">-</tspan><tspan x="162.18" y="140.4">ЛФ» 400 м</tspan><tspan class="cls-58" x="226.98" y="140.4">г</tspan><tspan x="230.97" y="140.4">. – с 12 л</tspan><tspan class="cls-36" x="281.21" y="140.4">е</tspan><tspan x="288.54" y="140.4">т (в</tspan><tspan class="cls-18" x="307.8" y="140.4">е</tspan><tspan x="315.38" y="140.4">с не м</tspan><tspan class="cls-40" x="352.18" y="140.4">е</tspan><tspan x="359.76" y="140.4">н</tspan><tspan class="cls-40" x="367.1" y="140.4">е</tspan><tspan x="374.68" y="140.4">е 40 к</tspan><tspan class="cls-58" x="410.96" y="140.4">г</tspan><tspan x="414.95" y="140.4">.).</tspan></text>
  <text class="cls-16" transform="translate(37.32 627.95)"><tspan class="cls-33" x="0" y="0">Ж</tspan><tspan class="cls-21" x="13.74" y="0">аропони</tspan><tspan class="cls-47" x="80.38" y="0">ж</tspan><tspan x="91.68" y="0">ающие\об</tspan><tspan class="cls-68" x="173.68" y="0">е</tspan><tspan x="182.8" y="0">зб</tspan><tspan class="cls-65" x="199.07" y="0">о</tspan><tspan class="cls-21" x="208.37" y="0">ливающие:</tspan></text>
  <text class="cls-10" transform="translate(39.11 650.24)"><tspan x="0" y="0">И</tspan><tspan class="cls-62" x="10.05" y="0">б</tspan><tspan x="17.94" y="0">упроф</tspan><tspan class="cls-48" x="63.13" y="0">е</tspan><tspan x="71.79" y="0">н:</tspan></text>
</svg>