<?xml version="1.0" encoding="UTF-8"?>
<svg id="_Слой_1" data-name="Слой 1" xmlns="http://www.w3.org/2000/svg" xmlns:xlink="http://www.w3.org/1999/xlink" viewBox="0 0 595.28 841.89">
  <defs>
    <style>
      .cls-1, .cls-2, .cls-3, .cls-4 {
        font-weight: 600;
      }

      .cls-1, .cls-4 {
        font-family: Gilroy-Semibold, Gilroy;
      }

      .cls-5 {
        letter-spacing: -.07em;
      }

      .cls-6 {
        fill: url(#linear-gradient-2);
      }

      .cls-7 {
        letter-spacing: -.01em;
      }

      .cls-8, .cls-9, .cls-10, .cls-2, .cls-11, .cls-12, .cls-4 {
        fill: #fff;
      }

      .cls-13 {
        letter-spacing: -.02em;
      }

      .cls-14 {
        letter-spacing: 0em;
      }

      .cls-15 {
        letter-spacing: 0em;
      }

      .cls-16 {
        letter-spacing: 0em;
      }

      .cls-17 {
        letter-spacing: -.04em;
      }

      .cls-18 {
        letter-spacing: -.01em;
      }

      .cls-19 {
        letter-spacing: 0em;
      }

      .cls-20 {
        letter-spacing: -.03em;
      }

      .cls-21 {
        letter-spacing: -.01em;
      }

      .cls-22 {
        fill: url(#_Безымянный_градиент_27-2);
      }

      .cls-23, .cls-11, .cls-12 {
        font-family: Gilroy-Black, Gilroy;
        font-weight: 800;
      }

      .cls-24 {
        letter-spacing: -.05em;
      }

      .cls-25 {
        letter-spacing: -.04em;
      }

      .cls-26 {
        letter-spacing: -.02em;
      }

      .cls-27 {
        fill: #f5f4f4;
      }

      .cls-28 {
        opacity: .2;
      }

      .cls-29 {
        letter-spacing: -.02em;
      }

      .cls-30 {
        letter-spacing: -.09em;
      }

      .cls-31 {
        letter-spacing: -.02em;
      }

      .cls-32 {
        letter-spacing: -.09em;
      }

      .cls-33 {
        letter-spacing: -.04em;
      }

      .cls-34 {
        letter-spacing: -.04em;
      }

      .cls-9, .cls-3, .cls-12 {
        font-size: 14px;
      }

      .cls-10 {
        font-family: Gilroy-MediumItalic, Gilroy;
        font-size: 13px;
        font-weight: 500;
      }

      .cls-10, .cls-2, .cls-3 {
        font-style: italic;
      }

      .cls-35 {
        letter-spacing: 0em;
      }

      .cls-36 {
        letter-spacing: 0em;
      }

      .cls-37 {
        letter-spacing: -.02em;
      }

      .cls-38 {
        letter-spacing: -.09em;
      }

      .cls-39 {
        letter-spacing: 0em;
      }

      .cls-40 {
        letter-spacing: -.02em;
      }

      .cls-41 {
        letter-spacing: -.04em;
      }

      .cls-42 {
        letter-spacing: -.01em;
      }

      .cls-2 {
        font-size: 15px;
      }

      .cls-2, .cls-3 {
        font-family: Gilroy-SemiboldItalic, Gilroy;
      }

      .cls-43 {
        letter-spacing: 0em;
      }

      .cls-44 {
        letter-spacing: -.02em;
      }

      .cls-45 {
        opacity: .4;
      }

      .cls-11 {
        font-size: 21px;
      }

      .cls-46 {
        letter-spacing: 0em;
      }

      .cls-47 {
        fill: #5994d0;
      }

      .cls-48 {
        opacity: .3;
      }

      .cls-49 {
        letter-spacing: 0em;
      }

      .cls-50 {
        letter-spacing: -.03em;
      }

      .cls-51 {
        letter-spacing: 0em;
      }

      .cls-52 {
        letter-spacing: 0em;
      }

      .cls-53 {
        letter-spacing: 0em;
      }

      .cls-54 {
        letter-spacing: -.05em;
      }

      .cls-55 {
        letter-spacing: -.09em;
      }

      .cls-56 {
        letter-spacing: 0em;
      }

      .cls-57 {
        letter-spacing: -.02em;
      }

      .cls-58 {
        letter-spacing: 0em;
      }

      .cls-59 {
        letter-spacing: .02em;
      }

      .cls-60 {
        fill: url(#linear-gradient-5);
      }

      .cls-61 {
        fill: #ebebeb;
      }

      .cls-62 {
        letter-spacing: 0em;
      }

      .cls-63 {
        letter-spacing: -.03em;
      }

      .cls-64 {
        letter-spacing: 0em;
      }

      .cls-65 {
        letter-spacing: -.09em;
      }

      .cls-66 {
        letter-spacing: 0em;
      }

      .cls-67 {
        letter-spacing: -.02em;
      }

      .cls-68 {
        letter-spacing: 0em;
      }

      .cls-69 {
        letter-spacing: 0em;
      }

      .cls-70 {
        fill: #991f1e;
      }

      .cls-3 {
        fill: #6baaaf;
      }

      .cls-71 {
        fill: none;
        stroke: #fff;
        stroke-linecap: round;
        stroke-miterlimit: 10;
        stroke-width: 2px;
      }

      .cls-4 {
        font-size: 5.53px;
      }

      .cls-72 {
        fill: url(#linear-gradient-3);
      }

      .cls-73 {
        letter-spacing: -.02em;
      }

      .cls-74 {
        letter-spacing: 0em;
      }

      .cls-75 {
        fill: url(#linear-gradient);
      }

      .cls-76 {
        letter-spacing: 0em;
      }

      .cls-77 {
        letter-spacing: -.04em;
      }

      .cls-78 {
        letter-spacing: 0em;
      }

      .cls-79 {
        letter-spacing: -.05em;
      }

      .cls-80 {
        fill: url(#_Безымянный_градиент_27);
      }

      .cls-81 {
        letter-spacing: -.02em;
      }

      .cls-82 {
        fill: url(#linear-gradient-4);
      }

      .cls-83 {
        letter-spacing: -.02em;
      }

      .cls-84 {
        fill: #030402;
      }

      .cls-85 {
        fill: #263238;
      }

      .cls-86 {
        letter-spacing: -.03em;
      }

      .cls-87 {
        letter-spacing: -.02em;
      }

      .cls-88 {
        fill: #e0e0df;
      }
    </style>
    <linearGradient id="_Безымянный_градиент_27" data-name="Безымянный градиент 27" x1="20.65" y1="678.75" x2="574" y2="678.75" gradientUnits="userSpaceOnUse">
      <stop offset="0" stop-color="#e8b13c"/>
      <stop offset=".48" stop-color="#d26d49"/>
      <stop offset="1" stop-color="#c83c36"/>
    </linearGradient>
    <linearGradient id="linear-gradient" x1="51.33" y1="769.12" x2="55.16" y2="769.12" gradientUnits="userSpaceOnUse">
      <stop offset="0" stop-color="#f2ce58"/>
      <stop offset=".74" stop-color="#e4a838"/>
      <stop offset="1" stop-color="#df9a2c"/>
    </linearGradient>
    <linearGradient id="linear-gradient-2" x1="54.82" y1="793.73" x2="73.39" y2="793.73" xlink:href="#linear-gradient"/>
    <linearGradient id="linear-gradient-3" x1="55.67" y1="753.92" x2="72.69" y2="753.92" xlink:href="#linear-gradient"/>
    <linearGradient id="linear-gradient-4" x1="64.07" y1="755.6" x2="70.1" y2="755.6" xlink:href="#linear-gradient"/>
    <linearGradient id="linear-gradient-5" x1="65.28" y1="755.6" x2="71.31" y2="755.6" xlink:href="#linear-gradient"/>
    <linearGradient id="_Безымянный_градиент_27-2" data-name="Безымянный градиент 27" x1="145.52" y1="582.35" x2="303.17" y2="582.35" gradientTransform="translate(-124.87 1164.7) scale(1 -1)" xlink:href="#_Безымянный_градиент_27"/>
  </defs>
  <g>
    <g>
      <polygon class="cls-27" points="315.4 529.7 315.4 529.71 315.44 529.72 315.4 529.7"/>
      <polygon class="cls-27" points="315.29 529.67 315.38 529.71 315.33 529.65 315.29 529.67"/>
      <polygon class="cls-27" points="315.2 529.56 315.11 529.62 315.28 529.67 315.2 529.56"/>
      <polygon class="cls-27" points="315.07 529.5 315.1 529.49 315.07 529.47 315.07 529.5"/>
      <polygon class="cls-27" points="315.11 529.28 315.1 529.29 315.13 529.32 315.11 529.28"/>
      <polygon class="cls-27" points="315.4 529.6 315.37 529.62 315.39 529.65 315.4 529.6"/>
      <polygon class="cls-27" points="314.99 529.52 315.01 529.43 314.6 529.15 314.92 529.54 314.99 529.52"/>
      <polygon class="cls-27" points="315.03 529.45 314.99 529.52 315.06 529.5 315.03 529.45"/>
      <polygon class="cls-27" points="315.38 529.56 315.32 529.56 315.35 529.59 315.38 529.56"/>
      <polygon class="cls-27" points="315.31 529.63 315.28 529.62 315.29 529.66 315.31 529.63"/>
      <path class="cls-27" d="M361.46,258.87l-23.35,135.98c.19,.03,.37,.06,.55,.09l-23.02,133.23,59.2-121.56c.09,.04,.18,.09,.27,.13l59.29-122.04c-13.71-7.01-28.15-13.04-43.27-17.93-9.86-3.19-19.76-5.81-29.67-7.91Z"/>
      <path class="cls-27" d="M547.54,388.05c-13.74-21.72-30.36-41.67-49.55-59.23l-90.86,99.73c.08,.07,.16,.15,.24,.22l-91.78,100.55,231.95-141.28Z"/>
      <path class="cls-27" d="M202.53,452.87s0,0,0,0l111.79,76.09-.49-.16,1.08,.73h-.02s.03,0,.03,0h0s.07-.02,.07-.02v.02s.09,0,.09,0v-.03s0,.03,0,.03h.03s-.02,.02-.02,.02l.02,.05,.09-.06,.07,.11-.16-.05,.06,.1,.09-.03-.03,.03h.06s0,0,0,0h0s.08,.01,.08,.01v.03s.06-.03,.06-.03l.03,.02-.09,.03,.43,.38-.32-.4,112.45,76.53c-.05,.08-.11,.16-.16,.24l124.73,85.09c10.59-18.02,19.41-37.46,26.11-58.17,1.87-5.78,3.53-11.58,5.02-17.39l-138.59-44.82c-.02,.07-.05,.15-.07,.22l-129.47-41.72h-.04s.01-.01,.01-.01l-.04-.05,.05-.11h.62s-.56,.17-.56,.17l1.26,.03-.56-.18,276.46,6.86c-.68-26.64-5.03-52.81-12.71-77.84l-263.82,70.95-.44-.14,.25-.16-.4,.11h0s.01-.02,.01-.02h-.03s.35-.65,.35-.65l-.41,.45-.03,.18-.19,.06v-.13s-.12-.03-.12-.03l.08-.17-.06-.51-.1,.6,.03,.06h-.03s0,0,0,0l-.21-.25,.08,.19-.43-.14-181.96-222.32c-22.55,16.04-42.91,35.35-60.28,57.51l130.27,88.67Zm112.88,76.83l.04,.02h-.04s0-.02,0-.02Zm-.11-.03l.04-.02,.06,.06-.09-.04Zm.11-.07v.04s-.03-.03-.03-.03l.03-.02Zm-.02-.05l-.03,.03-.03-.03h.06Zm-.07,.08l-.02,.02v-.04s.02,.02,.02,.02Zm-.24-.14v-.03s.03,.02,.03,.02h-.03Zm.04-.21l.02,.04-.02-.03h0Zm-.08,.15l.03,.06-.07,.02,.04-.07Zm-.02-.02v.09s-.09,.02-.09,.02l-.32-.39,.41,.28Z"/>
      <path class="cls-27" d="M261.88,403.89s.02,0,.02-.01l53.11,125.18-15.66-135.15s.03,0,.05,0l-16.47-140.74c-26.9,1.73-53.2,7.21-78.23,16.05l57.17,134.67Z"/>
      <path class="cls-27" d="M401.6,635.22s-.07,.06-.11,.09l-85.94-105,53.07,125.02c-.09,.04-.18,.07-.27,.11l63.05,149c25.15-12.53,48.48-28.68,69.17-48.01l-98.97-121.21Z"/>
      <polygon class="cls-27" points="315.27 529.97 315.25 529.95 315.27 529.98 315.27 529.97"/>
      <polygon class="cls-27" points="315.04 529.63 315.01 529.66 314.97 529.61 314.96 529.71 314.97 529.7 314.96 529.71 315.06 529.71 315.02 529.67 315.07 529.64 315.09 529.66 315.09 529.63 315.11 529.62 314.98 529.58 315.04 529.63"/>
      <polygon class="cls-27" points="314.9 529.71 314.96 529.59 314.93 529.56 314.33 529.7 314.9 529.71"/>
      <path class="cls-27" d="M314.47,530.01l-131,35.23c-.04-.16-.08-.32-.13-.48l-165.62,44.34c6.64,28.76,17.61,56.28,32.41,81.63l170.86-103.78,93.48-56.94Z"/>
      <path class="cls-27" d="M178.9,526.17l135.98,3.38L30.33,437.85c-2.09,5.37-4.06,10.82-5.86,16.38-7.26,22.43-11.62,45.11-13.34,67.62l167.78,4.34s0-.01,0-.02Z"/>
      <path class="cls-27" d="M314.51,530.51l-208.89,228.86c21.51,19.57,46.22,36.12,73.66,48.77l135.22-277.63Z"/>
      <polygon class="cls-27" points="315.37 529.77 315.32 529.78 315.34 529.82 315.37 529.77"/>
      <path class="cls-27" d="M315.21,530.71l-52.15,301.81c29.38,3.95,58.65,3.29,86.95-1.51l-34.8-300.3Z"/>
      <polygon class="cls-27" points="314.89 530.09 314.72 531.11 315.15 530.21 315.11 529.85 314.89 530.09"/>
      <polygon class="cls-27" points="315.3 529.79 315.28 529.79 315.31 529.81 315.3 529.79"/>
    </g>
    <g>
      <path class="cls-8" d="M115.74,557.36l-11.39,.5c-5.42-4.1-11.99-6.8-19.25-7.5-20.87-2.01-39.41,13.28-41.42,34.15-2.01,20.87,13.28,39.41,34.15,41.42,20.87,2.01,39.41-13.28,41.42-34.15,.84-8.71-1.35-17.02-5.69-23.89h.02s2.16-10.54,2.16-10.54Z"/>
      <path class="cls-88" d="M115.74,557.36s-.07,.25-.17,.71c-.11,.49-.26,1.17-.45,2.04-.39,1.8-.96,4.41-1.69,7.78l.25-.08s0,0-.02-.01c-.06-.06-.16-.05-.21,0-.05,.05-.05,.13-.02,.19,2.48,4.01,5.11,9.9,5.65,17.39,.13,1.87,.12,3.82-.05,5.83-.07,1.01-.28,2.02-.42,3.05-.11,1.04-.38,2.07-.66,3.12-1.06,4.18-2.91,8.47-5.71,12.41-2.78,3.95-6.5,7.55-11,10.32-4.49,2.77-9.76,4.71-15.38,5.38-5.62,.69-11.58,0-17.2-2.03-2.84-.94-5.5-2.44-8.09-4.05-2.48-1.78-4.92-3.7-6.96-6.07-2.12-2.25-3.8-4.84-5.3-7.46-1.35-2.71-2.57-5.47-3.23-8.37-1.48-5.73-1.61-11.68-.4-17.17,1.17-5.5,3.55-10.54,6.69-14.73,3.14-4.2,7.03-7.56,11.17-9.98,8.34-4.87,17.46-5.88,24.79-4.73,7.41,1.14,13.09,4.24,16.9,7.09,.03,.02,.07,.03,.1,.03,3.65-.2,6.47-.36,8.42-.46,.94-.06,1.67-.1,2.2-.13,.5-.03,.77-.06,.77-.06,0,0-.23,0-.71,0-.52,.01-1.24,.03-2.16,.06-1.97,.07-4.83,.16-8.53,.28l.1,.03c-3.8-2.92-9.51-6.11-17.01-7.32-7.42-1.22-16.68-.25-25.18,4.67-4.22,2.44-8.19,5.85-11.4,10.11-3.21,4.26-5.64,9.38-6.85,14.98-1.24,5.59-1.12,11.65,.38,17.5,.67,2.95,1.92,5.77,3.29,8.53,1.53,2.68,3.24,5.32,5.4,7.61,2.08,2.41,4.57,4.38,7.1,6.18,2.64,1.65,5.35,3.17,8.25,4.13,5.73,2.06,11.8,2.76,17.53,2.04,5.73-.7,11.1-2.68,15.66-5.52,4.57-2.83,8.34-6.51,11.15-10.53,2.83-4.02,4.69-8.39,5.74-12.64,.28-1.06,.54-2.11,.65-3.16,.13-1.05,.34-2.08,.41-3.1,.16-2.04,.16-4.02,.01-5.91-.6-7.59-3.32-13.52-5.88-17.52l-.23,.19s.02,.01,.02,.01c.06,.06,.16,.05,.21,0,.02-.02,.03-.05,.04-.07,.66-3.42,1.17-6.07,1.53-7.91,.16-.86,.29-1.53,.38-2.01,.08-.45,.12-.67,.11-.66Z"/>
    </g>
    <g>
      <g>
        <path class="cls-8" d="M494.52,448.62l10.17,.4c4.51,4.05,10.17,6.95,16.57,8.11,18.42,3.34,36.06-8.88,39.41-27.3,3.34-18.42-8.88-36.06-27.3-39.41-18.42-3.34-36.06,8.88-39.41,27.3-1.4,7.69-.07,15.24,3.28,21.68h-.01s-2.71,9.22-2.71,9.22Z"/>
        <path class="cls-88" d="M494.52,448.62s.08-.22,.21-.62c.13-.43,.32-1.02,.55-1.78,.48-1.58,1.18-3.85,2.08-6.79l-.23,.05s0,0,.01,.01c.05,.06,.14,.06,.19,.01,.05-.04,.06-.11,.03-.16-1.91-3.75-3.81-9.19-3.73-15.9,.03-1.67,.18-3.41,.48-5.18,.14-.89,.4-1.77,.6-2.69,.18-.92,.49-1.82,.82-2.72,1.25-3.64,3.22-7.32,6-10.62,2.77-3.3,6.35-6.23,10.56-8.36,4.2-2.13,9.03-3.46,14.09-3.64,5.05-.2,10.31,.87,15.15,3.09,2.46,1.05,4.71,2.58,6.89,4.21,2.07,1.76,4.11,3.66,5.74,5.92,1.72,2.16,3.02,4.59,4.16,7.04,1,2.51,1.88,5.06,2.25,7.69,.89,5.21,.56,10.52-.93,15.31-1.45,4.81-3.94,9.11-7.05,12.61-3.11,3.5-6.82,6.2-10.69,8.05-7.79,3.71-15.98,3.94-22.42,2.36-6.51-1.57-11.34-4.75-14.51-7.57-.02-.02-.06-.03-.09-.04-3.26-.09-5.78-.16-7.52-.21-.84-.02-1.49-.04-1.97-.05-.45,0-.69,0-.69,0,0,0,.2,.02,.63,.05,.46,.03,1.1,.06,1.93,.11,1.76,.09,4.31,.22,7.61,.38l-.09-.04c3.16,2.88,8.01,6.15,14.59,7.78,6.51,1.64,14.83,1.46,22.76-2.28,3.94-1.86,7.73-4.59,10.9-8.15,3.17-3.55,5.72-7.93,7.21-12.82,1.52-4.88,1.86-10.29,.97-15.61-.38-2.68-1.27-5.28-2.29-7.84-1.16-2.5-2.48-4.97-4.24-7.18-1.67-2.3-3.74-4.24-5.86-6.03-2.23-1.66-4.52-3.22-7.03-4.29-4.95-2.26-10.3-3.33-15.45-3.13-5.15,.19-10.07,1.56-14.34,3.74-4.28,2.18-7.91,5.17-10.71,8.54-2.81,3.37-4.8,7.11-6.05,10.82-.33,.92-.64,1.84-.81,2.77-.2,.93-.46,1.82-.59,2.73-.3,1.8-.44,3.56-.45,5.25-.03,6.8,1.95,12.28,3.92,16.03l.22-.15s-.01-.01-.01-.01c-.05-.06-.13-.06-.19-.01-.02,.02-.03,.04-.04,.06-.84,3-1.5,5.32-1.95,6.92-.21,.75-.37,1.34-.49,1.76-.11,.39-.16,.59-.15,.58Z"/>
      </g>
      <g>
        <path class="cls-88" d="M512.95,429.28h-3.85v3.76h-3.51v-3.76h-3.87v-3.33h3.87v-3.76h3.51v3.76h3.85v3.33Z"/>
        <path class="cls-88" d="M521.6,434.52c-1.93-1.03-3.44-2.45-4.55-4.28-1.1-1.83-1.65-3.9-1.65-6.22s.55-4.39,1.65-6.22c1.1-1.83,2.62-3.26,4.55-4.28,1.93-1.03,4.11-1.54,6.53-1.54,2.12,0,4.02,.38,5.72,1.12,1.7,.75,3.11,1.83,4.23,3.24l-4.17,3.77c-1.5-1.81-3.32-2.71-5.46-2.71-1.26,0-2.38,.28-3.36,.83-.98,.55-1.74,1.33-2.28,2.33-.54,1-.81,2.16-.81,3.46s.27,2.45,.81,3.46c.54,1,1.3,1.78,2.28,2.33,.98,.55,2.1,.83,3.36,.83,2.14,0,3.96-.9,5.46-2.71l4.17,3.77c-1.12,1.41-2.54,2.49-4.23,3.24-1.7,.75-3.6,1.12-5.72,1.12-2.43,0-4.6-.51-6.53-1.54Z"/>
        <path class="cls-88" d="M543.16,421.09c-.98-.47-1.75-1.13-2.32-1.97-.56-.84-.84-1.79-.84-2.84s.28-2.01,.84-2.84c.56-.84,1.33-1.49,2.32-1.97,.98-.47,2.09-.71,3.32-.71s2.38,.24,3.36,.71c.98,.47,1.75,1.13,2.3,1.97,.55,.84,.83,1.79,.83,2.84s-.28,2.01-.83,2.84c-.55,.84-1.32,1.49-2.3,1.97-.98,.47-2.1,.71-3.36,.71s-2.34-.24-3.32-.71Zm4.94-3.09c.42-.42,.63-.99,.63-1.72s-.21-1.33-.63-1.74c-.42-.41-.96-.61-1.62-.61s-1.2,.2-1.62,.61c-.42,.41-.63,.99-.63,1.74s.21,1.3,.63,1.72c.42,.42,.96,.63,1.62,.63s1.2-.21,1.62-.63Z"/>
      </g>
    </g>
    <path class="cls-61" d="M565.28,794.04l-12.4-.05-.04,12.11-11.3-.04,.04-12.11-12.47-.04,.04-10.71,12.47,.04,.04-12.1,11.3,.04-.04,12.1,12.4,.05-.04,10.71Z"/>
    <path class="cls-61" d="M573.99,754.15l-4.89-.02-.02,4.77-4.45-.02,.02-4.77-4.91-.02,.02-4.22,4.91,.02,.02-4.77,4.45,.02-.02,4.77,4.89,.02-.02,4.22Z"/>
    <path class="cls-61" d="M493.41,793.95l-4.89-.02-.02,4.77-4.45-.02,.02-4.77-4.91-.02,.02-4.22,4.91,.02,.02-4.77,4.45,.02-.02,4.77,4.89,.02-.02,4.22Z"/>
    <path class="cls-61" d="M69.96,797.23l-12.4-.05-.04,12.11-11.3-.04,.04-12.11-12.47-.04,.04-10.71,12.47,.04,.04-12.1,11.3,.04-.04,12.1,12.4,.05-.04,10.71Z"/>
    <path class="cls-61" d="M43.48,740.37l-4.89-.02-.02,4.77-4.45-.02,.02-4.77-4.91-.02,.02-4.22,4.91,.02,.02-4.77,4.45,.02-.02,4.77,4.89,.02-.02,4.22Z"/>
    <path class="cls-61" d="M121.91,808.17l-4.89-.02-.02,4.77-4.45-.02,.02-4.77-4.91-.02,.02-4.22,4.91,.02,.02-4.77,4.45,.02-.02,4.77,4.89,.02-.02,4.22Z"/>
    <path class="cls-61" d="M563.3,321.02l-12.4-.05-.04,12.11-11.3-.04,.04-12.11-12.47-.04,.04-10.71,12.47,.04,.04-12.1,11.3,.04-.04,12.1,12.4,.05-.04,10.71Z"/>
    <path class="cls-61" d="M582.65,283.58l-4.89-.02-.02,4.77-4.45-.02,.02-4.77-4.91-.02,.02-4.22,4.91,.02,.02-4.77,4.45,.02-.02,4.77,4.89,.02-.02,4.22Z"/>
    <path class="cls-61" d="M72.12,315.51l-12.4-.05-.04,12.11-11.3-.04,.04-12.11-12.47-.04,.04-10.71,12.47,.04,.04-12.1,11.3,.04-.04,12.1,12.4,.05-.04,10.71Z"/>
    <path class="cls-61" d="M47.24,376.32l-4.89-.02-.02,4.77-4.45-.02,.02-4.77-4.91-.02,.02-4.22,4.91,.02,.02-4.77,4.45,.02-.02,4.77,4.89,.02-.02,4.22Z"/>
    <path class="cls-61" d="M459.69,273.38l-4.89-.02-.02,4.77-4.45-.02,.02-4.77-4.91-.02,.02-4.22,4.91,.02,.02-4.77,4.45,.02-.02,4.77,4.89,.02-.02,4.22Z"/>
    <g>
      <path class="cls-88" d="M75.01,588.98c.98,1.12,1.46,2.48,1.46,4.07,0,1.3-.35,2.51-1.05,3.62-.7,1.11-1.77,2.01-3.21,2.69-1.44,.68-3.21,1.02-5.33,1.02-1.55,0-3.09-.19-4.61-.57-1.52-.38-2.84-.91-3.95-1.6l2.26-4.69c.86,.59,1.83,1.04,2.91,1.35,1.08,.31,2.14,.47,3.19,.47s1.92-.2,2.55-.6c.63-.4,.94-.96,.94-1.7,0-1.43-1.12-2.14-3.37-2.14h-2.61v-3.93l3.93-4.25h-8.68v-4.81h15.92v3.9l-4.56,4.91c1.82,.38,3.22,1.13,4.2,2.25Z"/>
      <path class="cls-88" d="M93.25,587.83c1.48,1.26,2.22,2.94,2.22,5.03,0,1.36-.35,2.62-1.05,3.76-.7,1.14-1.77,2.06-3.21,2.74-1.44,.68-3.21,1.02-5.33,1.02-1.55,0-3.09-.19-4.61-.57-1.52-.38-2.83-.91-3.92-1.6l2.23-4.69c.88,.59,1.85,1.04,2.91,1.35,1.06,.31,2.12,.47,3.19,.47s1.92-.2,2.56-.61c.64-.41,.96-.98,.96-1.71s-.31-1.29-.94-1.67c-.63-.38-1.74-.57-3.33-.57h-5.98l1.1-12.86h14.03v4.81h-8.87l-.28,3.21h1.48c3.08,0,5.36,.63,6.84,1.89Z"/>
      <path class="cls-88" d="M99.51,586.15c-.93-.45-1.67-1.08-2.2-1.87-.53-.8-.8-1.7-.8-2.7s.27-1.91,.8-2.71c.53-.8,1.27-1.42,2.2-1.87,.93-.45,1.99-.68,3.16-.68s2.26,.23,3.19,.68c.93,.45,1.66,1.07,2.19,1.87,.52,.8,.79,1.7,.79,2.71s-.26,1.91-.79,2.7c-.52,.8-1.25,1.42-2.19,1.87-.93,.45-2,.68-3.19,.68s-2.23-.22-3.16-.68Zm4.7-2.94c.4-.4,.6-.94,.6-1.64s-.2-1.26-.6-1.65c-.4-.39-.91-.58-1.54-.58s-1.14,.19-1.54,.58c-.4,.39-.6,.94-.6,1.65s.2,1.24,.6,1.64c.4,.4,.91,.6,1.54,.6s1.14-.2,1.54-.6Z"/>
    </g>
    <g>
      <g>
        <path class="cls-8" d="M550.58,587.18l1.76-11.27c5.09-4.5,9.04-10.41,11.15-17.39,6.09-20.06-5.23-41.26-25.29-47.35-20.06-6.09-41.26,5.23-47.35,25.29-6.09,20.06,5.23,41.26,25.29,47.35,8.38,2.54,16.95,2.04,24.54-.86h-.02s9.92,4.22,9.92,4.22Z"/>
        <path class="cls-88" d="M550.58,587.18s-.23-.12-.66-.31c-.46-.2-1.09-.48-1.91-.85-1.69-.74-4.14-1.81-7.29-3.19l.03,.26s.01,0,.02-.01c.07-.05,.08-.14,.04-.21-.04-.06-.12-.08-.18-.05-4.42,1.64-10.71,3.06-18.17,2.1-1.85-.25-3.77-.64-5.7-1.2-.97-.27-1.92-.67-2.91-1.01-1-.32-1.96-.78-2.92-1.26-3.89-1.86-7.72-4.53-11.04-8.05-3.32-3.51-6.11-7.87-7.94-12.82-1.83-4.95-2.69-10.49-2.24-16.14,.43-5.65,2.3-11.35,5.39-16.46,1.49-2.6,3.48-4.91,5.57-7.13,2.23-2.08,4.6-4.1,7.32-5.62,2.62-1.64,5.49-2.77,8.36-3.72,2.92-.79,5.87-1.44,8.84-1.52,5.91-.31,11.77,.73,16.91,3,5.16,2.24,9.63,5.56,13.11,9.47,3.5,3.91,6.02,8.38,7.58,12.93,3.13,9.14,2.32,18.28-.26,25.24-2.58,7.04-6.74,12-10.29,15.17-.03,.02-.05,.06-.05,.09-.52,3.62-.93,6.41-1.21,8.34-.13,.93-.23,1.66-.3,2.18-.07,.49-.09,.76-.09,.76,0,0,.05-.22,.14-.7,.09-.51,.21-1.22,.37-2.13,.33-1.95,.8-4.77,1.41-8.42l-.05,.09c3.62-3.15,7.87-8.12,10.54-15.23,2.66-7.03,3.54-16.3,.4-25.61-1.56-4.62-4.11-9.18-7.66-13.17-3.54-3.99-8.08-7.39-13.34-9.67-5.24-2.32-11.2-3.4-17.23-3.09-3.03,.08-6.04,.74-9.02,1.54-2.93,.97-5.85,2.12-8.53,3.79-2.77,1.56-5.19,3.61-7.47,5.74-2.14,2.26-4.16,4.62-5.68,7.27-3.15,5.21-5.04,11.03-5.47,16.78-.45,5.76,.43,11.41,2.32,16.44,1.88,5.04,4.73,9.46,8.12,13.01,3.39,3.57,7.29,6.26,11.25,8.12,.98,.48,1.96,.94,2.97,1.26,1,.34,1.97,.74,2.96,1.01,1.97,.56,3.91,.95,5.79,1.18,7.56,.91,13.91-.58,18.34-2.3l-.14-.26s-.02,.01-.02,.01c-.07,.05-.08,.14-.04,.21,.02,.02,.04,.04,.07,.05,3.22,1.32,5.72,2.35,7.45,3.06,.81,.33,1.44,.58,1.9,.77,.42,.17,.63,.25,.63,.24Z"/>
      </g>
      <g>
        <path class="cls-88" d="M520.5,548.71c.94,1.1,1.4,2.43,1.38,3.98-.01,1.27-.37,2.44-1.06,3.51-.7,1.08-1.75,1.94-3.15,2.59-1.41,.65-3.14,.96-5.2,.94-1.51-.02-3.01-.21-4.48-.6-1.48-.38-2.75-.92-3.83-1.6l2.26-4.54c.83,.58,1.77,1.03,2.82,1.35,1.05,.32,2.08,.48,3.11,.49,1.04,.01,1.87-.17,2.49-.56,.62-.38,.93-.93,.94-1.65,.02-1.39-1.07-2.09-3.26-2.12l-2.54-.03,.04-3.83,3.87-4.09-8.46-.09,.05-4.69,15.51,.16-.04,3.8-4.49,4.73c1.77,.39,3.13,1.13,4.07,2.24Z"/>
        <path class="cls-88" d="M541.23,538.16l-.04,3.8-7.76,17.57-6.62-.07,7.41-16.56-5.64-.06-.04,3.31-5.18-.06,.09-8.12,17.77,.19Z"/>
        <path class="cls-88" d="M546.24,546.23c-.9-.45-1.61-1.06-2.13-1.84-.51-.78-.76-1.66-.75-2.64,.01-.98,.28-1.86,.81-2.63,.53-.77,1.25-1.37,2.17-1.8,.91-.43,1.94-.64,3.09-.63,1.16,.01,2.2,.24,3.1,.69,.9,.45,1.61,1.06,2.11,1.85,.5,.78,.75,1.66,.74,2.64,0,.98-.28,1.86-.79,2.63-.52,.77-1.24,1.37-2.15,1.8-.91,.43-1.95,.64-3.12,.63-1.14-.01-2.17-.24-3.07-.69Zm4.61-2.82c.39-.38,.59-.91,.6-1.59,0-.69-.18-1.23-.57-1.62-.38-.38-.88-.58-1.5-.58-.61,0-1.12,.18-1.51,.55-.39,.37-.59,.91-.6,1.6,0,.67,.18,1.21,.57,1.6,.38,.39,.88,.59,1.49,.6,.61,0,1.12-.18,1.51-.57Z"/>
      </g>
    </g>
  </g>
  <rect class="cls-47" x="20.65" y="12.49" width="553.98" height="144.4" rx="13.05" ry="13.05"/>
  <text class="cls-2" transform="translate(39.29 30.01)"><tspan x="0" y="0">Пара</tspan><tspan class="cls-83" x="37.78" y="0">цет</tspan><tspan x="61.81" y="0">ам</tspan><tspan class="cls-69" x="80.76" y="0">о</tspan><tspan x="89.46" y="0">л</tspan></text>
  <line class="cls-71" x1="36.16" y1="34.79" x2="139.75" y2="34.79"/>
  <text class="cls-3" transform="translate(39.41 175.65)"><tspan x="0" y="0">Не забыва</tspan><tspan class="cls-78" x="70.17" y="0">е</tspan><tspan x="78.24" y="0">м, ч</tspan><tspan class="cls-73" x="102.39" y="0">т</tspan><tspan x="108.69" y="0">о ра</tspan><tspan class="cls-35" x="137.9" y="0">с</tspan><tspan x="145.25" y="0">ч</tspan><tspan class="cls-81" x="152.88" y="0">е</tspan><tspan x="160.75" y="0">т </tspan><tspan class="cls-41" x="170.83" y="0">ж</tspan><tspan x="181.05" y="0">аропони</tspan><tspan class="cls-33" x="239.37" y="0">ж</tspan><tspan x="249.59" y="0">ающих о</tspan><tspan class="cls-73" x="308.92" y="0">с</tspan><tspan x="316.13" y="0">у</tspan><tspan class="cls-81" x="323.55" y="0">щ</tspan><tspan class="cls-58" x="335.17" y="0">ес</tspan><tspan x="350.67" y="0">твля</tspan><tspan class="cls-73" x="379.44" y="0">ет</tspan><tspan class="cls-35" x="393.61" y="0">с</tspan><tspan x="400.96" y="0">я на в</tspan><tspan class="cls-78" x="439.36" y="0">е</tspan><tspan x="447.43" y="0">с </tspan><tspan x="0" y="16.8">(И</tspan><tspan class="cls-41" x="13.86" y="16.8">б</tspan><tspan x="21.22" y="16.8">упроф</tspan><tspan class="cls-78" x="63.41" y="16.8">е</tspan><tspan x="71.48" y="16.8">н 10 м</tspan><tspan class="cls-38" x="110.04" y="16.8">г</tspan><tspan x="114.45" y="16.8">./к</tspan><tspan class="cls-38" x="133" y="16.8">г</tspan><tspan x="137.41" y="16.8">. на р</tspan><tspan class="cls-42" x="173.89" y="16.8">а</tspan><tspan x="182.47" y="16.8">зовый при</tspan><tspan class="cls-58" x="251.23" y="16.8">ё</tspan><tspan x="259.3" y="16.8">м - </tspan><tspan class="cls-81" x="282.26" y="16.8">д</tspan><tspan x="290.38" y="16.8">о 3 р</tspan><tspan class="cls-35" x="322.07" y="16.8">а</tspan><tspan x="330.65" y="16.8">з в </tspan><tspan class="cls-73" x="351.2" y="16.8">с</tspan><tspan class="cls-43" x="358.41" y="16.8">у</tspan><tspan x="365.97" y="16.8">тки; </tspan><tspan x="0" y="33.6">Пара</tspan><tspan class="cls-81" x="35.26" y="33.6">цет</tspan><tspan x="57.69" y="33.6">ам</tspan><tspan class="cls-35" x="75.37" y="33.6">о</tspan><tspan x="83.49" y="33.6">л 15 м</tspan><tspan class="cls-38" x="120.43" y="33.6">г</tspan><tspan x="124.84" y="33.6">./к</tspan><tspan class="cls-38" x="143.39" y="33.6">г</tspan><tspan x="147.8" y="33.6">. для при</tspan><tspan class="cls-78" x="207.06" y="33.6">е</tspan><tspan x="215.13" y="33.6">ма вн</tspan><tspan class="cls-43" x="251.65" y="33.6">у</tspan><tspan x="259.21" y="33.6">трь р</tspan><tspan class="cls-35" x="293.8" y="33.6">а</tspan><tspan x="302.38" y="33.6" xml:space="preserve">зово  – прим</tspan><tspan class="cls-58" x="385.48" y="33.6">е</tspan><tspan x="393.56" y="33.6">нять ма</tspan><tspan class="cls-86" x="443.86" y="33.6">к</tspan><tspan x="450.79" y="33.6">симально </tspan><tspan class="cls-81" x="0" y="50.4">д</tspan><tspan x="8.12" y="50.4">о 4 р</tspan><tspan class="cls-35" x="40.22" y="50.4">а</tspan><tspan x="48.8" y="50.4">з в </tspan><tspan class="cls-73" x="69.35" y="50.4">с</tspan><tspan class="cls-43" x="76.57" y="50.4">у</tspan><tspan x="84.12" y="50.4">тки).</tspan></text>
  <rect class="cls-47" x="20.65" y="236.49" width="553.98" height="319.31" rx="19.4" ry="19.4"/>
  <text class="cls-2" transform="translate(37.29 260.01)"><tspan class="cls-77" x="0" y="0">К</tspan><tspan x="8.71" y="0">омбинированные пр</tspan><tspan class="cls-16" x="156.04" y="0">е</tspan><tspan x="164.7" y="0">параты (И</tspan><tspan class="cls-34" x="238.18" y="0">б</tspan><tspan x="246.07" y="0">упроф</tspan><tspan class="cls-16" x="291.26" y="0">е</tspan><tspan class="cls-68" x="299.92" y="0">н + Пара</tspan><tspan class="cls-83" x="362.3" y="0">цет</tspan><tspan x="386.33" y="0">ам</tspan><tspan class="cls-69" x="405.28" y="0">о</tspan><tspan x="413.98" y="0">л)</tspan></text>
  <line class="cls-71" x1="36.16" y1="264.79" x2="468.6" y2="264.79"/>
  <line class="cls-71" x1="47.92" y1="306.32" x2="169.11" y2="306.32"/>
  <rect class="cls-80" x="20.65" y="607.14" width="553.36" height="143.2" rx="19.64" ry="19.64"/>
  <g>
    <path class="cls-75" d="M55.16,773.34c-2.6-.31-3.82-2.52-3.82-2.52l1.23-5.66,.06-.26s1.27,.81,1.95,3.67c.68,2.85,.59,4.77,.59,4.77Z"/>
    <path class="cls-27" d="M38.76,737.46h20.17l5.88,2.02c3.87,.17,4.26,2.5,4.39,6.02l1.6,21.87s2.62,11.6,2.59,17.79c-.04,7.08,.55,16.33-3.62,17.33-4.16,1-12.82,0-12.82,0,0,0-2.52-.4-2.08-5.08,.44-4.68,.88-10.46,.55-16.73-.33-6.27-.44-22.11-13.48-24.69l-1.75-.7-4.27-10.85,2.85-6.97Z"/>
    <path class="cls-6" d="M73.39,785.16l-17.86-.63c.03,4.78-.31,9.17-.66,12.88-.44,4.68,2.08,5.08,2.08,5.08,0,0,8.66,1,12.82,0,4.16-1,3.58-10.25,3.62-17.33Z"/>
    <path class="cls-88" d="M38.76,737.46s-3.62,.12-3.92,3.14c-.3,3.02-.16,9.05,1.08,11.14,1.18,1.98,2.52,2.85,4.27,3.55l1.75,.7s-3.48-4.37-3.9-8.43-.18-7,.72-8.69c.61-1.14,1.87-1.41,1.87-1.41h-1.87Z"/>
    <path class="cls-85" d="M70.8,767.37s.04,.16,.11,.46c.07,.31,.17,.76,.31,1.36,.26,1.2,.63,2.97,1.03,5.26,.2,1.15,.41,2.43,.6,3.83,.2,1.4,.36,2.94,.48,4.59,.12,1.65,.09,3.42,.12,5.3,.02,1.88,.03,3.86-.09,5.94-.06,1.04-.16,2.1-.34,3.18-.19,1.07-.44,2.17-.95,3.2-.26,.51-.59,1-1.03,1.38l-.17,.14c-.06,.04-.12,.08-.18,.12-.06,.04-.12,.08-.19,.12l-.2,.09c-.27,.13-.56,.19-.85,.25-1.16,.23-2.37,.32-3.59,.36-2.45,.07-4.99-.07-7.58-.29-.32-.03-.65-.06-.98-.09l-.25-.03c-.08,0-.17-.02-.25-.05-.16-.05-.31-.13-.46-.22-.29-.18-.54-.42-.73-.69-.11-.13-.18-.28-.27-.43-.08-.15-.14-.31-.21-.46-.24-.64-.32-1.32-.34-2,0-.17-.01-.34,0-.51l.03-.51c.01-.34,.06-.68,.09-1.03,.25-2.74,.45-5.55,.54-8.43,.04-1.44,.06-2.9,.04-4.36-.02-1.47-.09-2.95-.17-4.45-.14-2.99-.37-6.04-1.01-9.06-.32-1.51-.73-3.02-1.31-4.47-.57-1.46-1.29-2.87-2.21-4.16-.13-.19-.28-.36-.41-.54l-.21-.27c-.07-.09-.15-.17-.22-.26l-.45-.51-.48-.48-.24-.24-.26-.22-.52-.44-.55-.4-.27-.2c-.09-.06-.19-.12-.29-.18-1.52-.95-3.21-1.59-4.94-1.93h0s0,0,0,0c-.48-.19-.97-.38-1.45-.58-.48-.19-.96-.39-1.42-.63-.92-.47-1.75-1.13-2.39-1.93-.32-.4-.61-.82-.86-1.27-.25-.45-.38-.95-.53-1.43-.24-.98-.38-1.98-.47-2.97-.18-1.98-.2-3.95-.08-5.88,.04-.48,.05-.97,.2-1.44,.14-.47,.39-.9,.73-1.24,.34-.35,.75-.61,1.18-.8,.43-.19,.89-.32,1.36-.4,.47-.09,.94-.06,1.4-.07,.46,0,.92,0,1.38,0,.92,0,1.83,0,2.73,0,1.8,0,3.57,0,5.3,0,3.46,0,6.78,0,9.92,0h.01c2.04,.7,4,1.38,5.88,2.02h-.01c.15,0,.29,.02,.44,.03,.15,.01,.29,.02,.44,.05,.14,.03,.29,.05,.43,.08,.14,.04,.28,.08,.42,.12,.55,.18,1.06,.47,1.45,.88,.39,.41,.65,.92,.81,1.45,.16,.53,.25,1.06,.31,1.59,.05,.53,.09,1.05,.11,1.57,.02,.51,.07,1.02,.1,1.52,.07,1,.14,1.96,.21,2.89,.27,3.73,.5,6.95,.69,9.58,.19,2.63,.33,4.67,.43,6.06,.05,.69,.08,1.22,.11,1.58,.02,.36,.03,.54,.03,.54,0,0-.02-.18-.05-.54-.03-.36-.07-.88-.12-1.58-.1-1.39-.26-3.43-.45-6.06-.19-2.63-.43-5.85-.71-9.58-.07-.93-.14-1.9-.21-2.89-.03-.5-.08-1-.1-1.52-.02-.51-.06-1.03-.11-1.56-.06-.52-.15-1.05-.31-1.57-.16-.51-.42-1.01-.8-1.42-.38-.4-.88-.69-1.42-.86-.14-.04-.27-.08-.41-.12-.14-.02-.28-.05-.43-.07-.14-.03-.29-.04-.43-.05-.14-.01-.29-.02-.44-.04h0s0,0,0,0c-1.88-.64-3.84-1.32-5.88-2.01h.01c-3.15,0-6.46,0-9.92,0-1.73,0-3.5,0-5.3,0-.9,0-1.81,0-2.73,0-.46,0-.92,0-1.38,0-.46,0-.93-.03-1.38,.06-.91,.16-1.82,.51-2.48,1.18-.33,.33-.57,.75-.71,1.2-.14,.45-.15,.93-.19,1.41-.12,1.92-.1,3.89,.08,5.86,.09,.99,.23,1.98,.47,2.95,.14,.48,.27,.97,.52,1.4,.24,.44,.53,.86,.84,1.25,.63,.79,1.44,1.44,2.36,1.9,.45,.24,.93,.43,1.41,.62,.48,.19,.96,.38,1.45,.58h0c1.74,.34,3.44,.98,4.98,1.94,.1,.06,.2,.12,.29,.18l.28,.2,.55,.4,.52,.44,.26,.22,.24,.24,.49,.48,.46,.51c.07,.09,.15,.17,.23,.26l.21,.27c.14,.18,.28,.36,.42,.55,.92,1.3,1.65,2.72,2.22,4.18,.58,1.46,.99,2.98,1.31,4.49,.64,3.03,.87,6.09,1.01,9.08,.07,1.5,.15,2.98,.17,4.45,.02,1.47,0,2.93-.04,4.37-.09,2.88-.29,5.7-.55,8.44-.03,.34-.07,.68-.09,1.02l-.03,.51c0,.17,0,.34,0,.51,.02,.67,.1,1.35,.33,1.97,.07,.15,.12,.31,.2,.45,.08,.14,.16,.29,.26,.42,.19,.27,.43,.5,.7,.67,.14,.08,.28,.16,.44,.21,.08,.03,.15,.04,.23,.05l.24,.03c.33,.03,.65,.06,.98,.09,2.6,.23,5.13,.36,7.57,.3,1.22-.04,2.42-.12,3.58-.35,.29-.05,.57-.12,.84-.24l.2-.09c.06-.03,.12-.08,.18-.11,.06-.04,.12-.08,.18-.12l.16-.14c.43-.37,.76-.85,1.01-1.36,.51-1.01,.76-2.11,.95-3.18,.18-1.07,.28-2.13,.34-3.17,.12-2.08,.11-4.06,.1-5.94-.03-1.88,0-3.65-.11-5.29-.11-1.65-.27-3.18-.47-4.58-.19-1.4-.39-2.68-.59-3.83-.4-2.29-.76-4.07-1.01-5.27-.26-1.18-.38-1.75-.4-1.83Z"/>
    <path class="cls-72" d="M58.93,737.46s-3.92,.59-3.16,6.43c.77,5.84,4.37,15.51,7.28,20.58,2.57,4.5,3.54,5.29,7.75,5.9l1.9-1.87s0-6.2-.44-13.74c-.44-7.59,1.57-16.04-6.99-17.04l-6.34-.26Z"/>
    <polygon class="cls-85" points="61.9 740.75 63.62 751.29 69.95 751.29 68.06 740.99 61.9 740.75"/>
    <path class="cls-85" d="M72.69,768.5s-.03,.01-.1,.03c-.07,.02-.17,.04-.29,.07-.26,.05-.64,.12-1.13,.15-.5,.02-1.12-.02-1.79-.24-.68-.22-1.38-.64-2.05-1.23-.67-.59-1.31-1.33-1.92-2.17-.08-.11-.16-.21-.23-.32-.07-.11-.15-.22-.22-.34-.15-.23-.3-.45-.45-.69-.28-.48-.58-.97-.84-1.5-1.1-2.08-2.08-4.47-2.98-7.03-.89-2.56-1.58-5.05-2.11-7.34-.24-1.15-.47-2.24-.61-3.28-.02-.13-.04-.26-.06-.38-.01-.13-.02-.26-.03-.38-.02-.25-.05-.5-.05-.74,0-.24,0-.48,.01-.71,0-.12,.01-.23,.03-.34,.01-.11,.03-.22,.04-.34,.13-.88,.42-1.65,.81-2.25,.38-.6,.86-1.01,1.27-1.28,.41-.28,.77-.43,1.02-.52,.13-.04,.22-.07,.29-.08,.07-.02,.1-.02,.1-.02,0,0-.03,0-.1,.03-.06,.02-.16,.05-.28,.09-.24,.09-.6,.25-1,.53-.4,.28-.87,.69-1.24,1.28-.38,.59-.66,1.35-.78,2.22-.01,.11-.03,.22-.04,.33-.02,.11-.03,.23-.03,.34,0,.23,0,.47-.01,.71,0,.24,.04,.49,.06,.74,.01,.12,.02,.25,.03,.38,.02,.13,.04,.25,.06,.38,.14,1.03,.37,2.12,.62,3.27,.53,2.28,1.22,4.77,2.11,7.32,.89,2.55,1.87,4.94,2.96,7.01,.26,.52,.56,1.01,.83,1.49,.14,.24,.3,.46,.44,.69,.07,.11,.15,.22,.22,.34,.07,.11,.15,.21,.23,.32,.61,.84,1.24,1.58,1.9,2.17,.66,.58,1.35,1.01,2.02,1.23,.66,.22,1.28,.27,1.77,.26,.49-.02,.88-.08,1.13-.12,.12-.02,.22-.04,.29-.06,.07-.01,.1-.02,.1-.02Z"/>
    <g class="cls-48">
      <path class="cls-84" d="M65.24,764.78c-3.35-4.79-6.51-14.74-7.28-20.58-.77-5.84,3.44-6.64,3.44-6.64h0l-2.47-.1s-3.92,.59-3.16,6.43c.77,5.84,4.37,15.51,7.28,20.58,2.57,4.5,3.54,5.29,7.75,5.9l1.9-1.87c-2.75,.65-4.86-.01-7.46-3.72Z"/>
    </g>
    <g class="cls-48">
      <polygon class="cls-84" points="68.06 740.99 68.76 740.99 70.65 751.29 69.95 751.29 68.06 740.99"/>
    </g>
    <path class="cls-85" d="M56.33,798.68s0-.02,0-.07c0-.05,0-.11,0-.19,0-.18,.02-.42,.03-.74,.03-.64,.08-1.57,.15-2.72,.13-2.29,.36-5.46,.47-8.97,.05-1.75,.05-3.42,.01-4.94-.03-.76-.05-1.48-.1-2.15-.03-.67-.09-1.3-.14-1.87-.04-.57-.11-1.09-.16-1.54-.05-.45-.1-.84-.15-1.16-.04-.31-.08-.56-.1-.73,0-.08-.02-.14-.02-.19,0-.04,0-.07,0-.07s0,.02,.02,.06c0,.05,.02,.11,.03,.19,.03,.17,.07,.42,.12,.73,.05,.32,.11,.71,.17,1.16,.05,.45,.13,.97,.18,1.54,.05,.57,.12,1.2,.15,1.87,.05,.67,.08,1.4,.11,2.16,.04,1.52,.05,3.19,0,4.95-.11,3.51-.35,6.67-.5,8.97-.08,1.14-.14,2.07-.18,2.72-.02,.31-.04,.56-.05,.74,0,.08-.01,.14-.02,.19,0,.04,0,.07,0,.07Z"/>
    <g class="cls-48">
      <path class="cls-84" d="M52.6,765.05l.64,7.64s1.06,.64,1.91,.64l-.57-2.7s-1.07-3.97-1.98-5.59Z"/>
    </g>
    <g>
      <path class="cls-8" d="M65.2,746.01c.1,.1,.14,.23,.14,.38,0,.11-.03,.22-.09,.31-.06,.09-.15,.17-.26,.22-.12,.06-.26,.08-.43,.08-.14,0-.28-.02-.41-.06-.13-.04-.24-.1-.33-.17l.16-.28c.07,.06,.16,.11,.26,.14,.1,.03,.21,.05,.32,.05,.13,0,.23-.03,.31-.08,.07-.05,.11-.13,.11-.22s-.04-.16-.11-.22c-.07-.05-.18-.08-.32-.08h-.18v-.25l.45-.53h-.89v-.31h1.34v.24l-.48,.57c.18,.02,.32,.08,.42,.19Z"/>
      <path class="cls-8" d="M66.82,745.84c.1,.05,.18,.12,.24,.21,.06,.09,.09,.2,.09,.32,0,.13-.03,.24-.1,.34-.06,.1-.15,.17-.26,.22-.11,.05-.23,.08-.37,.08-.27,0-.48-.08-.63-.25-.15-.17-.22-.41-.22-.73,0-.22,.04-.41,.12-.57,.08-.16,.19-.28,.34-.36,.15-.08,.31-.12,.5-.12,.1,0,.2,.01,.29,.03,.09,.02,.17,.05,.23,.09l-.14,.28c-.1-.06-.22-.1-.37-.1-.19,0-.34,.06-.44,.17-.11,.12-.16,.28-.16,.5h0c.06-.06,.13-.12,.22-.15,.09-.03,.19-.05,.3-.05,.13,0,.25,.02,.35,.07Zm-.13,.79c.07-.06,.11-.14,.11-.24s-.04-.18-.11-.24c-.07-.06-.17-.09-.29-.09s-.21,.03-.29,.1c-.07,.06-.11,.14-.11,.24s.04,.17,.11,.24c.07,.06,.17,.09,.3,.09,.11,0,.21-.03,.28-.09Z"/>
      <path class="cls-8" d="M67.52,745.73c-.08-.04-.14-.09-.18-.16-.04-.07-.07-.15-.07-.24s.02-.16,.07-.23,.11-.13,.18-.16c.08-.04,.17-.06,.26-.06s.19,.02,.27,.06c.08,.04,.14,.09,.18,.16,.04,.07,.07,.15,.07,.23s-.02,.17-.07,.24c-.04,.07-.11,.13-.18,.16-.08,.04-.17,.06-.27,.06s-.19-.02-.26-.06Zm.46-.21s.07-.11,.07-.19-.03-.14-.08-.19c-.05-.05-.12-.07-.2-.07s-.15,.02-.2,.07c-.05,.05-.08,.11-.08,.19s.02,.14,.07,.19c.05,.05,.12,.07,.2,.07s.15-.02,.2-.07Z"/>
    </g>
    <g>
      <path class="cls-82" d="M68.41,757.29h-2.66c-.93,0-1.69-.76-1.69-1.69h0c0-.93,.76-1.69,1.69-1.69h2.66c.93,0,1.69,.76,1.69,1.69h0c0,.93-.76,1.69-1.69,1.69Z"/>
      <path class="cls-85" d="M68.41,757.29s.23,.01,.6-.14c.18-.08,.4-.2,.59-.4,.19-.2,.36-.49,.42-.84,.06-.34,.02-.75-.18-1.11-.2-.36-.56-.66-1.01-.78-.22-.06-.46-.06-.71-.06-.25,0-.5,0-.76,0-.52,0-1.05,0-1.6,0-.53,0-1.04,.27-1.33,.68-.3,.41-.37,.93-.25,1.38,.12,.45,.42,.81,.78,1.01,.18,.1,.37,.16,.56,.19,.19,.03,.38,.02,.56,.02,.71,0,1.29,.01,1.7,.02,.19,0,.35,0,.46,.01,.11,0,.16,0,.16,.01s-.06,0-.16,.01c-.12,0-.27,0-.46,.01-.41,0-.99,.01-1.7,.02-.18,0-.37,.01-.57-.02-.2-.03-.4-.09-.59-.19-.38-.21-.71-.59-.84-1.06-.13-.47-.06-1.03,.26-1.47,.16-.22,.36-.4,.61-.53,.25-.13,.52-.2,.81-.2,.55,0,1.09,0,1.6,0,.26,0,.51,0,.76,0,.25,0,.5,0,.74,.06,.48,.13,.86,.45,1.06,.83,.21,.38,.25,.81,.18,1.17-.07,.36-.25,.66-.46,.86-.2,.21-.43,.33-.62,.4-.19,.07-.35,.09-.46,.1-.11,0-.16,0-.16,0Z"/>
    </g>
    <g class="cls-48">
      <path class="cls-84" d="M68.41,757.33h-2.66c-.93,0-1.69-.76-1.69-1.69h0c0-.93,.76-1.69,1.69-1.69h2.66c.93,0,1.69,.76,1.69,1.69h0c0,.93-.76,1.69-1.69,1.69Z"/>
    </g>
    <g>
      <path class="cls-60" d="M69.62,757.29h-2.66c-.93,0-1.69-.76-1.69-1.69h0c0-.93,.76-1.69,1.69-1.69h2.66c.93,0,1.69,.76,1.69,1.69h0c0,.93-.76,1.69-1.69,1.69Z"/>
      <path class="cls-85" d="M69.62,757.29s.23,.01,.6-.14c.18-.08,.4-.2,.59-.4,.19-.2,.36-.49,.42-.84,.06-.34,.02-.75-.18-1.11-.2-.36-.56-.66-1.01-.78-.22-.06-.46-.06-.71-.06-.25,0-.5,0-.76,0-.52,0-1.05,0-1.6,0-.53,0-1.04,.27-1.33,.68-.3,.41-.37,.93-.25,1.38,.12,.45,.42,.81,.78,1.01,.18,.1,.37,.16,.56,.19,.19,.03,.38,.02,.56,.02,.71,0,1.29,.01,1.7,.02,.19,0,.35,0,.46,.01,.11,0,.16,0,.16,.01s-.06,0-.16,.01c-.12,0-.27,0-.46,.01-.41,0-.99,.01-1.7,.02-.18,0-.37,.01-.57-.02-.2-.03-.4-.09-.59-.19-.38-.21-.71-.59-.84-1.06-.13-.47-.06-1.03,.26-1.47,.16-.22,.36-.4,.61-.53,.25-.13,.52-.2,.81-.2,.55,0,1.09,0,1.6,0,.26,0,.51,0,.76,0,.25,0,.5,0,.74,.06,.48,.13,.86,.45,1.06,.83,.21,.38,.25,.81,.18,1.17-.07,.36-.25,.66-.46,.86-.2,.21-.43,.33-.62,.4-.19,.07-.35,.09-.46,.1-.11,0-.16,0-.16,0Z"/>
    </g>
  </g>
  <rect class="cls-22" x="20.65" y="564.32" width="157.65" height="36.07" rx="7.1" ry="7.1" transform="translate(198.95 1164.7) rotate(-180)"/>
  <text class="cls-11" transform="translate(43.15 587.98)"><tspan class="cls-55" x="0" y="0">Т</tspan><tspan x="9.66" y="0">ер</tspan><tspan class="cls-46" x="34.57" y="0">м</tspan><tspan x="48.15" y="0">о</tspan><tspan class="cls-46" x="60.4" y="0">м</tspan><tspan class="cls-44" x="73.98" y="0">е</tspan><tspan x="85.64" y="0">тр</tspan></text>
  <g>
    <g>
      <g>
        <path class="cls-8" d="M528.11,737.66l41.13-41.13c4.32-4.32,4.32-11.33,0-15.65h0c-4.32-4.32-11.33-4.32-15.65,0l-41.28,41.28c-10.38,10.38-10.84,18.8-10.84,18.8,0,0-5.59,9.94-21.63,26.07l3.15,3.15s17.99-19.59,26.25-22.3c8.39,.11,18.88-10.24,18.88-10.24Z"/>
        <path class="cls-85" d="M528.11,737.66s-1.39,1.44-4.33,3.75c-1.48,1.14-3.35,2.5-5.72,3.82-1.19,.65-2.5,1.29-3.97,1.82-1.47,.51-3.1,.91-4.85,.91h.02c-1.07,.35-2.12,.91-3.16,1.54-1.04,.63-2.08,1.34-3.12,2.11-2.09,1.55-4.2,3.32-6.36,5.25-4.32,3.87-8.87,8.37-13.56,13.4l-.06,.06-.06-.06c-.97-.97-2.05-2.05-3.15-3.15l-.06-.06,.06-.06c3.62-3.65,7.35-7.6,11.03-11.92,1.85-2.15,3.68-4.4,5.47-6.74,1.78-2.35,3.55-4.78,5.11-7.4v.04c.15-1.54,.58-3.03,1.12-4.5,.53-1.47,1.22-2.89,1.99-4.29,1.55-2.78,3.47-5.41,5.66-7.86,1.1-1.21,2.26-2.4,3.44-3.57,1.17-1.17,2.36-2.36,3.55-3.55,2.38-2.38,4.78-4.79,7.21-7.21,6.55-6.55,12.95-12.95,19.12-19.12,3.09-3.09,6.12-6.12,9.09-9.09,.75-.73,1.46-1.51,2.33-2.11,.41-.33,.88-.56,1.32-.84,.48-.21,.93-.47,1.43-.61,1.95-.72,4.07-.82,6.05-.42,.99,.21,1.94,.56,2.83,1,.87,.49,1.72,1.02,2.42,1.71,1.47,1.32,2.51,3.04,3.09,4.86,.27,.92,.46,1.86,.49,2.8,.06,.94-.04,1.88-.21,2.79-.39,1.81-1.2,3.52-2.37,4.89-.59,.68-1.23,1.29-1.85,1.92-.62,.62-1.24,1.23-1.84,1.84-1.22,1.22-2.41,2.41-3.59,3.58-2.34,2.34-4.59,4.59-6.74,6.73-8.59,8.57-15.55,15.51-20.35,20.31-2.4,2.39-4.27,4.25-5.54,5.51-.63,.63-1.12,1.11-1.44,1.43-.33,.32-.5,.48-.5,.48,0,0,.16-.17,.48-.5,.32-.33,.8-.81,1.43-1.44,1.26-1.27,3.12-3.14,5.51-5.54,4.8-4.81,11.74-11.76,20.31-20.35,2.14-2.15,4.39-4.4,6.73-6.74,1.17-1.17,2.37-2.37,3.58-3.59,.61-.61,1.22-1.22,1.84-1.84,.62-.62,1.26-1.24,1.83-1.91,1.15-1.35,1.94-3.03,2.33-4.81,.17-.9,.27-1.82,.21-2.75-.03-.93-.22-1.85-.48-2.76-.58-1.79-1.6-3.48-3.05-4.78-.7-.68-1.53-1.21-2.38-1.68-.88-.43-1.81-.78-2.79-.99-1.95-.39-4.03-.29-5.95,.42-.49,.15-.94,.4-1.41,.61-.44,.27-.9,.5-1.3,.82-.85,.58-1.56,1.35-2.31,2.09-2.97,2.97-6,6.01-9.09,9.09-6.18,6.18-12.57,12.57-19.12,19.12-2.43,2.43-4.83,4.83-7.21,7.21-1.19,1.19-2.37,2.37-3.55,3.55-1.18,1.17-2.33,2.35-3.43,3.56-2.18,2.44-4.1,5.05-5.63,7.82-.76,1.39-1.45,2.8-1.98,4.26-.53,1.45-.97,2.95-1.12,4.45v.03s-.01,.02-.01,.02c-1.57,2.63-3.35,5.06-5.13,7.41-1.79,2.35-3.63,4.6-5.48,6.75-3.69,4.32-7.42,8.27-11.05,11.92v-.12c1.1,1.1,2.18,2.18,3.15,3.15h-.12c4.7-5.03,9.25-9.52,13.59-13.39,2.17-1.93,4.29-3.7,6.38-5.25,1.04-.78,2.09-1.48,3.14-2.11,1.05-.63,2.1-1.18,3.18-1.54h0s0,0,0,0c1.74,0,3.36-.39,4.82-.89,1.46-.52,2.77-1.15,3.96-1.8,2.37-1.31,4.24-2.66,5.73-3.79,1.48-1.14,2.56-2.08,3.29-2.72,.36-.32,.63-.57,.81-.74,.18-.17,.27-.25,.27-.25Z"/>
      </g>
      <path class="cls-85" d="M520.82,729.3h0c-2.07-2.07-2.07-5.41,0-7.48l12.51-12.51c2.07-2.07,5.41-2.07,7.48,0h0c2.07,2.07,2.07,5.41,0,7.48l-12.51,12.51c-2.07,2.07-5.41,2.07-7.48,0Z"/>
      <g class="cls-48">
        <circle class="cls-85" cx="548.69" cy="701.96" r="4.18" transform="translate(-3.88 3.05) rotate(-.32)"/>
      </g>
      <circle class="cls-70" cx="547.85" cy="702.27" r="4.18"/>
      <g>
        <path class="cls-88" d="M471.92,778.19h0c-.89-.89-.89-2.34,0-3.23l8.19-8.19,3.23,3.23-8.19,8.19c-.89,.89-2.34,.89-3.23,0Z"/>
        <path class="cls-85" d="M471.92,778.19s.08,.07,.24,.18c.16,.12,.41,.27,.77,.37,.36,.09,.83,.13,1.33-.05,.25-.09,.5-.22,.72-.42,.22-.2,.44-.44,.68-.68,1.93-1.94,4.6-4.62,7.61-7.66v.14c-.52-.52-1.06-1.06-1.61-1.61-.55-.55-1.1-1.1-1.61-1.62h.14c-3.03,3.01-5.72,5.68-7.66,7.61-.24,.24-.48,.46-.68,.68-.19,.23-.33,.48-.42,.72-.18,.5-.14,.97-.05,1.33,.1,.36,.25,.61,.37,.77,.12,.16,.19,.23,.18,.24,0,0-.08-.06-.21-.22-.13-.15-.3-.4-.41-.77-.11-.36-.15-.85,.02-1.38,.08-.26,.22-.53,.43-.77,.21-.24,.44-.45,.68-.7,1.93-1.94,4.6-4.62,7.61-7.66l.07-.07,.07,.07c.52,.52,1.06,1.06,1.62,1.61,.55,.55,1.1,1.1,1.61,1.61l.07,.07-.07,.07c-3.03,3.01-5.72,5.68-7.66,7.61-.25,.24-.46,.47-.7,.68-.24,.2-.51,.34-.77,.43-.53,.17-1.02,.13-1.38,.02-.37-.11-.62-.28-.77-.41-.15-.13-.22-.21-.22-.21Z"/>
      </g>
      <path class="cls-70" d="M562.64,678.15h0c6.11,0,11.06,4.96,11.06,11.06v7.61h-22.13v-7.61c0-6.11,4.96-11.06,11.06-11.06Z" transform="translate(650.92 -196.49) rotate(45)"/>
      <path class="cls-8" d="M532.9,716.43c-.15,.05-.29,.06-.43,.02-.14-.03-.27-.1-.38-.21s-.18-.23-.21-.37c-.03-.14-.02-.29,.02-.43,.05-.15,.13-.28,.25-.4s.26-.21,.4-.26c.15-.05,.29-.06,.43-.02,.14,.03,.27,.1,.37,.21s.18,.24,.21,.38c.03,.14,.03,.29-.02,.43-.05,.15-.13,.28-.26,.4s-.26,.21-.4,.26Zm.31-.84c0-.12-.05-.23-.14-.33s-.2-.14-.33-.14c-.12,0-.23,.06-.33,.16s-.15,.21-.16,.33c0,.12,.04,.23,.14,.33s.21,.15,.33,.14c.12,0,.23-.05,.34-.16s.15-.21,.16-.34Z"/>
      <path class="cls-85" d="M568.97,681.43s-.23-.22-.66-.61c-.42-.39-1.09-.9-2-1.37-.91-.48-2.09-.86-3.43-1.02-1.34-.14-2.86-.02-4.33,.52-1.48,.52-2.76,1.31-3.85,2.12-1.09,.81-1.99,1.66-2.71,2.39-.72,.74-1.27,1.37-1.64,1.81-.17,.21-.32,.38-.43,.51-.1,.12-.15,.17-.16,.17s.04-.07,.13-.19c.09-.12,.22-.31,.4-.53,.35-.46,.89-1.1,1.6-1.86,.71-.75,1.6-1.61,2.7-2.44,1.09-.83,2.39-1.63,3.89-2.16,1.5-.55,3.05-.66,4.42-.51,1.37,.17,2.56,.57,3.48,1.07,.92,.5,1.58,1.03,1.99,1.44,.22,.19,.35,.37,.46,.48,.1,.11,.15,.18,.15,.18Z"/>
      <g class="cls-45">
        <path class="cls-8" d="M569.58,683.34c-.65-.3-1.4,.36-1.53,1.06-.13,.7,.12,1.41,.23,2.12,.24,1.5-.13,3.04-.8,4.4-.67,1.36-1.62,2.56-2.59,3.72-.42,.5-.87,1.19-.56,1.76,.2,.36,.65,.53,1.06,.49,.41-.03,.79-.23,1.14-.45,2.67-1.63,4.58-4.46,5.07-7.55,.17-1.06,.18-2.17-.15-3.2-.32-1.03-.92-1.87-1.87-2.37"/>
      </g>
    </g>
    <text class="cls-4" transform="translate(529.82 723.15) rotate(-45)"><tspan x="0" y="0">38</tspan></text>
  </g>
  <g class="cls-48">
    <path class="cls-8" d="M230.57,353.66c-.94,1.11-1.46,1.69-1.95,2.29-2.93,3.66-2.51,8.75,.92,11.19,3.36,2.39,8.86,.78,11.13-3.27,3.51-6.27,2.24-13.58-3.16-18.66-5.25-4.93-11.58-7.73-18.57-8.66-15.53-2.08-29.75,.25-40.39,13.29-9.11,11.15-10.46,23.82-7.33,37.34,3.71,16.02,11.88,29.93,20.99,43.32,8.32,12.23,17.88,23.51,27.52,34.71,1.42,1.65,2.44,2.39,4.73,.96,10.48-6.58,20.48-5.95,30.43,1.52,6.03,4.53,10.79,10.02,13.64,17.09,2.19,5.45,1.41,9.58-2.88,13.58-1.01,.94-1.78,1.95-2.34,3.24-.83,1.92-2.43,2.64-4.49,1.97-1.89-.62-2.74-1.98-2.48-3.93,.29-2.16,1.76-3.04,3.8-3.17,3.74-.23,6.67-3.32,6.13-6.86-1.77-11.6-17.14-25.54-30.26-22.07-16.6,4.39-22.26,21.81-11.17,34.94,3.37,3.99,7.23,7.17,12.09,9.14,1.98,.8,3.97,.97,6.01,.51,1.39-.31,2.49-.88,2.54-2.67,.07-2.51,1.62-3.73,4.04-3.55,1.93,.14,3.11,1.35,3.23,3.33,.14,2.3-1.07,3.61-3.28,4.05-.44,.09-.98,.01-1.33,.24-7.92,5.12-14.44,1.04-20.59-3.48-5.46-4.02-9.65-9.29-12.39-15.59-3.56-8.21-2.43-15.84,3.22-22.64,1.82-2.19,1.83-3.07-.52-4.89-20.71-16.06-39.24-34.2-52.75-56.93-6.34-10.66-10.97-22.01-11.8-34.55-1.29-19.37,7.25-33.92,23.13-44.17,15.01-9.69,31.35-12.26,48.62-6.7,16.46,5.29,27.16,21.95,24.31,38.04-1.16,6.55-4.48,11.61-11.2,13.8-6.42,2.09-13.03-1.55-15.17-8.39-2-6.4,.85-12.37,7.57-14.37Z"/>
    <path class="cls-8" d="M291.33,337.94c-11.07,.16-20.6,2.53-29.88,6.15-1.1,.43-2.64,1.94-3.54,.3-.64-1.16,1-2.21,1.97-2.82,15.15-9.6,31.54-13.99,49.34-10.33,11.97,2.46,19.56,10.36,23.68,21.79,3.73,10.37,4.33,20.8,1.37,31.46-.57,2.05-1.31,3.17-3.65,2.91-2.92-.32-6.81,1.23-8.54-.56-1.58-1.64,.73-5.22,1.1-7.98,.84-6.23,1.25-12.47-.21-18.63-3.03-12.83-12.04-20.32-26.22-21.99-2.14-.25-4.31-.25-5.42-.3Z"/>
    <path class="cls-8" d="M183.12,301.55c.06-8.86,6.98-15.79,15.76-15.8,8.69,0,15.73,7.13,15.71,15.89-.03,8.81-7.04,15.82-15.79,15.76-8.82-.06-15.74-7.06-15.68-15.85Z"/>
    <path class="cls-8" d="M325.19,404.72c0-2.84,0-5.68,0-8.53,0-2.52,.55-4.26,3.6-2.6,.35,.19,.91,.32,1.25,.18,3.95-1.58,7.53-1.2,10.73,1.77,.89,.82,1.42-.21,1.99-.62,3.12-2.28,6.52-2.86,9.94-1.05,3.5,1.85,5.09,5.05,5.11,9,.02,3.64,0,7.28-.04,10.91-.02,1.41-.22,2.9-2.11,2.88-1.95-.02-1.95-1.54-1.95-2.94,0-3.41,.05-6.82-.02-10.23-.08-3.95-2.07-6.4-5.1-6.47-3-.06-4.95,2.39-5.01,6.4-.06,3.41-.06,6.82-.05,10.23,0,1.51-.4,2.92-2.07,2.98-1.83,.06-1.99-1.48-1.99-2.93,0-3.41,.03-6.82-.03-10.23-.07-3.94-2.05-6.43-5.04-6.45-3.05-.02-5.08,2.46-5.13,6.35-.04,3.52-.01,7.05-.02,10.57,0,1.33-.21,2.65-1.86,2.73-1.84,.09-2.2-1.23-2.2-2.75,0-3.07,0-6.14,0-9.21Z"/>
    <path class="cls-8" d="M302.77,325.13c-5.99-.04-10.44-4.58-10.43-10.63,.02-5.88,4.75-10.52,10.65-10.44,5.65,.08,10.4,4.88,10.37,10.5-.03,5.92-4.73,10.61-10.59,10.57Z"/>
    <path class="cls-8" d="M196.72,399.84c0-4.54,.06-9.09-.02-13.63-.04-2.33,.9-3.28,3.23-3.25,5.57,.08,11.13,.05,16.7,.02,1.89-.01,3.02,.58,3.03,2.7,.03,9.42,.11,18.84,.15,28.26,0,1.55-.66,2.78-2.35,2.73-1.75-.05-1.69-1.57-1.69-2.81-.02-7.84-.12-15.68,.05-23.51,.06-2.6-.76-3.39-3.28-3.21-2.94,.2-5.91,.16-8.86,0-2.27-.12-2.93,.76-2.89,2.95,.11,7.27,.04,14.54,.03,21.81,0,.8,.03,1.59-.03,2.38-.09,1.23-.53,2.32-1.93,2.36-1.61,.04-2.12-1.12-2.12-2.5-.02-4.77,0-9.54,0-14.31Z"/>
    <path class="cls-8" d="M414.81,405.25c0,3.06,.09,6.13-.03,9.19-.11,2.83-1.32,3.51-3.55,1.75-1.23-.97-1.84-.22-2.66,.11-7.3,2.94-14.72-1.62-15.14-9.44-.19-3.51-.03-7.03-.01-10.55,0-1.43,.13-2.9,2.04-2.88,1.93,.02,1.96,1.6,1.99,2.96,.07,3.06,0,6.13,.06,9.19,.11,4.45,2.83,7.47,6.67,7.5,3.61,.03,6.31-2.98,6.46-7.3,.09-2.61-.06-5.23,.1-7.83,.1-1.73-.89-4.46,2.13-4.44,2.81,.02,1.83,2.62,1.92,4.25,.14,2.49,.04,4.99,.04,7.49Z"/>
    <path class="cls-8" d="M297.25,404.96c0,3.07,.07,6.14-.02,9.21-.07,2.22-1.34,3.41-3.3,2-1.33-.95-2.15-.61-3.33-.17-7.39,2.7-14.37-1.92-14.64-9.72-.12-3.52-.04-7.05-.08-10.58-.01-1.39,.34-2.65,1.9-2.72,1.59-.08,2.09,1.26,2.12,2.57,.08,3.18-.01,6.37,.05,9.55,.08,4.64,2.65,7.5,6.62,7.49,3.97-.01,6.48-2.82,6.59-7.52,.07-3.07,0-6.14,.01-9.21,0-1.47,.32-2.91,2.14-2.84,1.57,.06,1.91,1.38,1.91,2.74,0,3.07,0,6.14,0,9.21h.04Z"/>
    <path class="cls-8" d="M275.97,414.76c-.03-.99-.62-1.94-1.55-2.02-2.37-.22-2.15-1.93-2.2-3.46-.07-2.27,.05-4.54-.05-6.81-.29-6.16-4.92-10.85-10.79-11.03-5.88-.18-10.91,4.19-11.61,10.26-.26,2.25-.15,4.54-.16,6.81-.01,2,.47,4.21-2.68,4.29-.66,.02-1.31,.7-1.33,1.39-.08,2.49-.14,4.99,.01,7.47,.08,1.23,1.27,1.56,2.33,1.48,1.07-.07,1.7-.96,1.52-1.91-.88-4.73,1.97-4.83,5.35-4.55,1.92,.16,3.86,.03,5.8,.02,1.71,0,3.41,.01,5.12,0,3.3-.04,7.22-1.03,6.29,4.71-.18,1.09,.88,1.86,2.05,1.81,1.17-.05,1.89-.85,1.92-2,.06-2.16,.04-4.32-.02-6.48Zm-10.04-2.19c-1.7-.05-3.41-.01-5.11-.02q-6.75,0-6.83-7.07c-.07-6.3,1.71-9.05,6.22-9.64,3.89-.51,7.36,2.05,7.68,5.95,.24,2.94,.05,5.91,.13,8.86,.04,1.54-.72,1.97-2.09,1.92Z"/>
    <path class="cls-8" d="M446.75,399.55c0-2.95,.02-5.91,0-8.86-.1-9.26,1.3-7.95-8.1-8.22-4.95-.15-8.83,1.45-10.81,6.03-1.98,4.6-1.12,8.97,2.75,12.36,1.26,1.1,1.19,1.99,.48,3.18-1.63,2.73-3.27,5.44-4.88,8.18-.73,1.23-1.37,2.63,.19,3.58,1.7,1.03,2.71-.21,3.5-1.58,1.77-3.04,3.6-6.05,5.28-9.13,1.54-2.82,4.16-2.05,6.34-1.76,2.08,.28,1.04,2.4,1.15,3.71,.16,2.03,.07,4.09,.04,6.13-.02,1.44,.05,2.98,1.85,3.07,2,.1,2.25-1.43,2.23-3.06-.03-4.54-.01-9.09-.01-13.63Zm-7.53-.5c-5.25-.3-8.07-2.09-8.16-6.04-.09-3.67,2.47-6.16,6.47-6.31,.57-.02,1.15,.06,1.7-.03,2.95-.51,3.86,.87,3.48,3.6-.12,.89-.02,1.82-.02,2.72h-.04c0,.11,.02,.23,0,.34-.48,2.29,1.85,6.02-3.44,5.72Z"/>
    <path class="cls-8" d="M296.31,425.52c-4.67,4.49-9.6,8.71-14.23,13.24-2.06,2.01-3.47,2.68-6.24,.78-4.33-2.98-9.69-1.75-13.22,2.23-3.06,3.45-3.21,9.21-.35,12.96,3.03,3.96,8.42,5.26,12.85,3.08,4.48-2.2,6.96-7.14,5.45-11.97-.77-2.47,0-3.38,1.95-4.49,8.32-4.72,16.08-10.24,23.11-17.02-3.15,.27-6.44-1.58-9.32,1.19Zm-25.57,29.78c-3.65,.12-6.92-3.16-6.9-6.91,.03-3.68,2.97-6.75,6.6-6.88,3.66-.13,6.84,3.06,6.91,6.92,.06,3.54-3.02,6.75-6.62,6.87Z"/>
    <path class="cls-8" d="M381.2,398.51c-3.2-4.87-7.79-6.67-13.17-5.16-4.66,1.31-7.99,5.93-8.05,11.38-.07,6.24-.02,12.48-.04,18.71,0,1.55,.03,3.16,2.12,3.1,1.84-.05,1.96-1.56,1.97-2.99,0-2.82,0-5.64,0-9.02,1.27,.61,1.86,.92,2.47,1.18,5.17,2.2,10.26,1.01,13.79-3.22,3.13-3.76,3.54-10.01,.92-14Zm-9.76,14.12c-4.32-.07-7.52-3.54-7.39-8.04,.12-4.27,3.45-7.6,7.58-7.58,3.84,.02,7.41,3.9,7.31,7.95-.11,4.22-3.54,7.74-7.49,7.68Z"/>
    <path class="cls-8" d="M236.5,393.11c-4.86-1.02-9.98,1.41-12.35,5.87-2.62,4.92-1.39,11.34,2.92,15.23,3.37,3.04,9.07,3.52,13.03,.98,1.28-.82,3.13-1.71,1.88-3.68-1.21-1.9-2.63-.83-4.07,.06-3.35,2.07-7.48,1.08-9.57-2.13-.93-1.43-1.26-2.5,1.12-2.43,2.16,.06,4.32,.01,6.48,.01v-.04c2.27,0,4.55-.06,6.82,.02,2.48,.09,3.19-1.26,3.02-3.43-.39-5.1-4.19-9.38-9.29-10.44Zm2.75,9.74c-1.69-.08-3.39-.02-5.08-.01-1.58,0-3.16-.05-4.74,.02-1.82,.08-2.38-.79-1.49-2.22,1.38-2.21,3.44-3.63,6.14-3.6,2.75,.03,5.05,1.12,6.48,3.6,.81,1.41,.64,2.31-1.31,2.22Z"/>
    <path class="cls-8" d="M322.51,408.97h-.07c0-1.82,.14-3.65-.03-5.46-.43-4.77-4.01-9.12-8.27-10.25-5.12-1.35-10.08,.64-12.96,5.21-2.56,4.06-2.13,10.24,.98,14.09,3.23,4,8.24,5.27,13.22,3.38,1.31-.5,2.33-1.54,3.95,.23,1.43,1.56,2.96,.27,3.14-1.74,.16-1.81,.03-3.64,.03-5.46Zm-11.43,3.62c-4.11,.04-7.72-3.71-7.6-7.91,.11-4.06,3.66-7.62,7.6-7.64,3.91-.02,7.31,3.62,7.3,7.81-.01,4.33-3.19,7.7-7.3,7.75Z"/>
  </g>
  <text class="cls-10" transform="translate(35.46 280.7)"><tspan class="cls-65" x="0" y="0">Т</tspan><tspan x="5.84" y="0">а</tspan><tspan class="cls-67" x="14.08" y="0">б</tspan><tspan x="21.23" y="0">л</tspan><tspan class="cls-81" x="28.37" y="0">е</tspan><tspan x="35.7" y="0">тки («И</tspan><tspan class="cls-31" x="77.77" y="0">б</tspan><tspan x="84.82" y="0">уклин для </tspan><tspan class="cls-40" x="147.79" y="0">дет</tspan><tspan class="cls-46" x="168.14" y="0">е</tspan><tspan x="175.72" y="0">й» 100 м</tspan><tspan class="cls-65" x="225.53" y="0">г</tspan><tspan x="229.53" y="0">. +1</tspan><tspan class="cls-56" x="247.65" y="0">2</tspan><tspan x="254.39" y="0">5 м</tspan><tspan class="cls-30" x="272.97" y="0">г</tspan><tspan x="276.96" y="0">. – р</tspan><tspan class="cls-62" x="303.2" y="0">а</tspan><tspan x="311.4" y="0">зр</tspan><tspan class="cls-15" x="325.46" y="0">е</tspan><tspan x="333.04" y="0">ш</tspan><tspan class="cls-46" x="343.68" y="0">е</tspan><tspan x="351.26" y="0">н с 3 л</tspan><tspan class="cls-40" x="389.58" y="0">е</tspan><tspan x="396.91" y="0">т (в</tspan><tspan class="cls-15" x="416.16" y="0">е</tspan><tspan x="423.74" y="0">с </tspan><tspan class="cls-40" x="434.13" y="0">о</tspan><tspan x="441.71" y="0">т 15 кг)).</tspan></text>
  <text class="cls-9" transform="translate(51.66 301.69)"><tspan class="cls-23"><tspan x="0" y="0">При</tspan><tspan class="cls-46" x="25.83" y="0">м</tspan><tspan x="34.89" y="0">ер р</tspan><tspan class="cls-46" x="63.28" y="0">а</tspan><tspan class="cls-42" x="71.88" y="0">с</tspan><tspan class="cls-46" x="79.13" y="0">ч</tspan><tspan class="cls-29" x="86.71" y="0">ет</tspan><tspan x="100.84" y="0">а: </tspan></tspan><tspan class="cls-1"><tspan x="0" y="16.8">Наприме</tspan><tspan class="cls-41" x="60.02" y="16.8">р</tspan><tspan x="68.28" y="16.8">, </tspan><tspan class="cls-39" x="75.49" y="16.8">е</tspan><tspan class="cls-42" x="83.59" y="16.8">с</tspan><tspan x="91.04" y="16.8">ли р</tspan><tspan class="cls-39" x="119.01" y="16.8">е</tspan><tspan x="127.12" y="16.8">бёнок в</tspan><tspan class="cls-39" x="177.38" y="16.8">е</tspan><tspan x="185.48" y="16.8">сит 10 к</tspan><tspan class="cls-38" x="235.66" y="16.8">г</tspan><tspan x="240.11" y="16.8">., </tspan><tspan class="cls-81" x="250.89" y="16.8">т</tspan><tspan x="256.98" y="16.8">о </tspan><tspan class="cls-41" x="268.85" y="16.8">к</tspan><tspan class="cls-7" x="275.5" y="16.8">о</tspan><tspan x="283.67" y="16.8">лич</tspan><tspan class="cls-39" x="306.85" y="16.8">е</tspan><tspan class="cls-36" x="314.95" y="16.8">с</tspan><tspan x="322.43" y="16.8">тво разовой </tspan><tspan class="cls-73" x="407.05" y="16.8">до</tspan><tspan x="423.19" y="16.8">зы </tspan></tspan><tspan class="cls-1"><tspan class="cls-78" x="0" y="33.6">С</tspan><tspan class="cls-73" x="10.18" y="33.6">у</tspan><tspan x="17.18" y="33.6">спензии «Пара</tspan><tspan class="cls-81" x="117.63" y="33.6">цет</tspan><tspan x="139.7" y="33.6">ам</tspan><tspan class="cls-7" x="157.41" y="33.6">о</tspan><tspan x="165.58" y="33.6">л» 1</tspan><tspan class="cls-35" x="189.33" y="33.6">2</tspan><tspan x="196.6" y="33.6">0 м</tspan><tspan class="cls-38" x="217.81" y="33.6">г</tspan><tspan x="222.26" y="33.6">./5 мл. ра</tspan><tspan class="cls-18" x="285.58" y="33.6">с</tspan><tspan class="cls-35" x="293.02" y="33.6">с</tspan><tspan x="300.47" y="33.6">читываем </tspan><tspan class="cls-35" x="368.52" y="33.6">с</tspan><tspan x="375.97" y="33.6">л</tspan><tspan class="cls-81" x="383.64" y="33.6">ед</tspan><tspan x="399.56" y="33.6">ующим </tspan></tspan><tspan class="cls-1"><tspan x="0" y="50.4">образом: 10 к</tspan><tspan class="cls-38" x="89.31" y="50.4">г</tspan><tspan x="93.76" y="50.4">. * 15 м</tspan><tspan class="cls-38" x="135.1" y="50.4">г</tspan><tspan x="139.55" y="50.4">./к</tspan><tspan class="cls-32" x="157.68" y="50.4">г</tspan><tspan x="162.13" y="50.4">. = 1</tspan><tspan class="cls-29" x="185.33" y="50.4">5</tspan><tspan x="192.74" y="50.4">0 м</tspan><tspan class="cls-38" x="213.95" y="50.4">г</tspan><tspan x="218.4" y="50.4">. - разовая </tspan><tspan class="cls-81" x="295.02" y="50.4">до</tspan><tspan x="311.17" y="50.4">за препара</tspan><tspan class="cls-81" x="389.16" y="50.4">т</tspan><tspan x="395.25" y="50.4">а в м</tspan><tspan class="cls-38" x="427.07" y="50.4">г</tspan><tspan x="431.52" y="50.4">. </tspan></tspan><tspan class="cls-1"><tspan x="0" y="67.2">Ч</tspan><tspan class="cls-81" x="8.82" y="67.2">т</tspan><tspan x="14.91" y="67.2">обы ра</tspan><tspan class="cls-21" x="62.06" y="67.2">с</tspan><tspan class="cls-35" x="69.5" y="67.2">с</tspan><tspan x="76.95" y="67.2">чи</tspan><tspan class="cls-81" x="92.46" y="67.2">т</tspan><tspan x="98.55" y="67.2">ать с</tspan><tspan class="cls-41" x="131.66" y="67.2">к</tspan><tspan class="cls-7" x="138.31" y="67.2">о</tspan><tspan x="146.47" y="67.2">ль</tspan><tspan class="cls-33" x="160.97" y="67.2">к</tspan><tspan x="167.62" y="67.2">о н</tspan><tspan class="cls-52" x="187.47" y="67.2">е</tspan><tspan class="cls-76" x="195.58" y="67.2">о</tspan><tspan class="cls-25" x="203.95" y="67.2">бх</tspan><tspan class="cls-73" x="218.16" y="67.2">о</tspan><tspan x="226.25" y="67.2">димо мл., 1</tspan><tspan class="cls-29" x="295.88" y="67.2">5</tspan><tspan x="303.28" y="67.2">0 м</tspan><tspan class="cls-32" x="324.49" y="67.2">г</tspan><tspan x="328.94" y="67.2" xml:space="preserve">. * 5 мл.  1</tspan><tspan class="cls-35" x="388.53" y="67.2">2</tspan><tspan x="395.79" y="67.2">0 м</tspan><tspan class="cls-38" x="417" y="67.2">г</tspan><tspan x="421.46" y="67.2">. = </tspan><tspan class="cls-81" x="439.45" y="67.2">6</tspan><tspan x="446.8" y="67.2">,</tspan><tspan class="cls-35" x="450.51" y="67.2">2</tspan><tspan x="457.77" y="67.2">5 мл. </tspan></tspan><tspan class="cls-1"><tspan x="0" y="84">Из </tspan><tspan class="cls-81" x="19.24" y="84">эт</tspan><tspan x="32.58" y="84">о</tspan><tspan class="cls-81" x="40.95" y="84">г</tspan><tspan x="46.38" y="84">о </tspan><tspan class="cls-35" x="58.25" y="84">с</tspan><tspan x="65.7" y="84">л</tspan><tspan class="cls-81" x="73.38" y="84">едуе</tspan><tspan class="cls-5" x="104.16" y="84">т</tspan><tspan x="109.55" y="84">, ч</tspan><tspan class="cls-73" x="124.29" y="84">т</tspan><tspan x="130.38" y="84">о р</tspan><tspan class="cls-39" x="151.08" y="84">е</tspan><tspan x="159.18" y="84">бён</tspan><tspan class="cls-35" x="183.25" y="84">к</tspan><tspan x="190.32" y="84">у в</tspan><tspan class="cls-39" x="208.21" y="84">е</tspan><tspan class="cls-18" x="216.31" y="84">с</tspan><tspan x="223.75" y="84">ом 10 к</tspan><tspan class="cls-38" x="269.25" y="84">г</tspan><tspan x="273.7" y="84">. н</tspan><tspan class="cls-39" x="288.75" y="84">е</tspan><tspan x="296.86" y="84">о</tspan><tspan class="cls-25" x="305.23" y="84">бх</tspan><tspan class="cls-73" x="319.44" y="84">о</tspan><tspan x="327.53" y="84">димо </tspan><tspan class="cls-81" x="364.6" y="84">6</tspan><tspan x="371.95" y="84">,</tspan><tspan class="cls-35" x="375.66" y="84">2</tspan><tspan x="382.93" y="84">5 мл. </tspan></tspan><tspan class="cls-1"><tspan x="0" y="100.8">препара</tspan><tspan class="cls-81" x="59.39" y="100.8">т</tspan><tspan x="65.48" y="100.8">а разов</tspan><tspan class="cls-41" x="117.21" y="100.8">о</tspan><tspan x="125.02" y="100.8">. Ма</tspan><tspan class="cls-41" x="152.25" y="100.8">к</tspan><tspan x="158.9" y="100.8">симальная ре</tspan><tspan class="cls-33" x="251.13" y="100.8">к</tspan><tspan x="257.78" y="100.8">омен</tspan><tspan class="cls-73" x="291.17" y="100.8">ду</tspan><tspan x="306.22" y="100.8">емая </tspan><tspan class="cls-73" x="342.76" y="100.8">с</tspan><tspan class="cls-51" x="350.07" y="100.8">у</tspan><tspan class="cls-73" x="357.42" y="100.8">т</tspan><tspan class="cls-42" x="363.51" y="100.8">о</tspan><tspan x="371.74" y="100.8">чная </tspan><tspan class="cls-73" x="406.75" y="100.8">до</tspan><tspan x="422.9" y="100.8">за </tspan></tspan><tspan class="cls-1"><tspan x="0" y="117.6">препара</tspan><tspan class="cls-81" x="59.39" y="117.6">т</tspan><tspan x="65.48" y="117.6">а 60 м</tspan><tspan class="cls-38" x="106.64" y="117.6">г</tspan><tspan x="111.09" y="117.6">./к</tspan><tspan class="cls-38" x="129.22" y="117.6">г</tspan><tspan x="133.67" y="117.6">., </tspan><tspan class="cls-41" x="144.45" y="117.6">к</tspan><tspan class="cls-81" x="151.1" y="117.6">от</tspan><tspan x="165.29" y="117.6">о</tspan><tspan class="cls-81" x="173.66" y="117.6">р</tspan><tspan x="182.2" y="117.6">ую н</tspan><tspan class="cls-39" x="212.27" y="117.6">е</tspan><tspan x="220.37" y="117.6">о</tspan><tspan class="cls-25" x="228.75" y="117.6">бх</tspan><tspan class="cls-73" x="242.96" y="117.6">о</tspan><tspan x="251.05" y="117.6">димо ра</tspan><tspan class="cls-78" x="305.76" y="117.6">з</tspan><tspan class="cls-81" x="311.98" y="117.6">де</tspan><tspan x="327.89" y="117.6">лить на 4 приёма (</tspan><tspan class="cls-5" x="450.41" y="117.6">т</tspan><tspan class="cls-41" x="455.8" y="117.6">.е</tspan><tspan x="466.39" y="117.6">. 15 </tspan></tspan><tspan class="cls-1"><tspan x="0" y="134.4">м</tspan><tspan class="cls-38" x="8.89" y="134.4">г</tspan><tspan x="13.34" y="134.4">./к</tspan><tspan class="cls-38" x="31.47" y="134.4">г</tspan><tspan x="35.92" y="134.4">. ср</tspan><tspan class="cls-81" x="59.4" y="134.4">е</tspan><tspan x="67.27" y="134.4">дняя разовая </tspan><tspan class="cls-81" x="160.36" y="134.4">до</tspan><tspan x="176.5" y="134.4">за). </tspan></tspan><tspan class="cls-1"><tspan class="cls-35" x="0" y="151.2">Ес</tspan><tspan x="14.73" y="151.2">ли мы </tspan><tspan class="cls-25" x="55.97" y="151.2">х</tspan><tspan class="cls-73" x="62.75" y="151.2">о</tspan><tspan x="70.84" y="151.2">тим ра</tspan><tspan class="cls-18" x="115.22" y="151.2">с</tspan><tspan class="cls-35" x="122.65" y="151.2">с</tspan><tspan x="130.1" y="151.2">чи</tspan><tspan class="cls-73" x="145.61" y="151.2">т</tspan><tspan x="151.7" y="151.2">ать разо</tspan><tspan class="cls-73" x="209.52" y="151.2">в</tspan><tspan x="216.36" y="151.2">ую </tspan><tspan class="cls-81" x="238.45" y="151.2">доз</tspan><tspan x="260.6" y="151.2">у </tspan><tspan class="cls-73" x="271.38" y="151.2">су</tspan><tspan x="285.69" y="151.2">спензии «И</tspan><tspan class="cls-73" x="359.95" y="151.2">б</tspan><tspan x="367.61" y="151.2">упрофена» </tspan></tspan><tspan class="cls-1"><tspan x="0" y="168">100 м</tspan><tspan class="cls-38" x="35.24" y="168">г</tspan><tspan x="39.69" y="168">./5 мл., </tspan><tspan class="cls-81" x="89.08" y="168">то</tspan><tspan x="103.26" y="168">: 10 к</tspan><tspan class="cls-32" x="135.07" y="168">г</tspan><tspan x="139.52" y="168">. * 10 м</tspan><tspan class="cls-32" x="182.06" y="168">г</tspan><tspan x="186.51" y="168">./к</tspan><tspan class="cls-38" x="204.64" y="168">г</tspan><tspan x="209.09" y="168">. = 100 м</tspan><tspan class="cls-38" x="262.32" y="168">г</tspan><tspan x="266.77" y="168">. – разовая </tspan><tspan class="cls-81" x="345.35" y="168">до</tspan><tspan x="361.5" y="168">за препара</tspan><tspan class="cls-81" x="439.49" y="168">т</tspan><tspan x="445.58" y="168">а в м</tspan><tspan class="cls-38" x="477.4" y="168">г</tspan><tspan x="481.86" y="168">. </tspan></tspan><tspan class="cls-1"><tspan class="cls-81" x="0" y="184.8">Д</tspan><tspan x="9.52" y="184.8">ал</tspan><tspan class="cls-52" x="26.01" y="184.8">е</tspan><tspan x="34.12" y="184.8">е ра</tspan><tspan class="cls-18" x="63.41" y="184.8">с</tspan><tspan class="cls-35" x="70.84" y="184.8">с</tspan><tspan x="78.29" y="184.8">читываем н</tspan><tspan class="cls-39" x="154.32" y="184.8">е</tspan><tspan x="162.43" y="184.8">о</tspan><tspan class="cls-25" x="170.8" y="184.8">бх</tspan><tspan class="cls-81" x="185.01" y="184.8">о</tspan><tspan x="193.1" y="184.8">димую разо</tspan><tspan class="cls-73" x="272.69" y="184.8">в</tspan><tspan x="279.52" y="184.8">ую </tspan><tspan class="cls-81" x="301.62" y="184.8">доз</tspan><tspan x="323.76" y="184.8">у в мл: 100 м</tspan><tspan class="cls-38" x="404.03" y="184.8">г</tspan><tspan x="408.48" y="184.8">. * 5 мл. / </tspan></tspan><tspan class="cls-1"><tspan x="0" y="201.6">100 м</tspan><tspan class="cls-38" x="35.24" y="201.6">г</tspan><tspan x="39.69" y="201.6">. = 5 мл. </tspan></tspan><tspan class="cls-1"><tspan x="0" y="218.4">Ма</tspan><tspan class="cls-41" x="20.16" y="218.4">к</tspan><tspan x="26.81" y="218.4">симальная ре</tspan><tspan class="cls-33" x="119.04" y="218.4">к</tspan><tspan x="125.69" y="218.4">омен</tspan><tspan class="cls-73" x="159.08" y="218.4">ду</tspan><tspan x="174.13" y="218.4">емая </tspan><tspan class="cls-73" x="210.67" y="218.4">с</tspan><tspan class="cls-51" x="217.98" y="218.4">у</tspan><tspan class="cls-73" x="225.33" y="218.4">т</tspan><tspan class="cls-42" x="231.42" y="218.4">о</tspan><tspan x="239.65" y="218.4">чная </tspan><tspan class="cls-73" x="274.66" y="218.4">до</tspan><tspan x="290.81" y="218.4">за 30 м</tspan><tspan class="cls-38" x="338.18" y="218.4">г</tspan><tspan x="342.63" y="218.4">./к</tspan><tspan class="cls-38" x="360.76" y="218.4">г</tspan><tspan x="365.22" y="218.4">., </tspan><tspan class="cls-33" x="376" y="218.4">к</tspan><tspan class="cls-73" x="382.65" y="218.4">от</tspan><tspan x="396.83" y="218.4">о</tspan><tspan class="cls-73" x="405.2" y="218.4">р</tspan><tspan x="413.74" y="218.4">ую </tspan></tspan><tspan class="cls-1"><tspan x="0" y="235.2">н</tspan><tspan class="cls-39" x="7.98" y="235.2">е</tspan><tspan x="16.08" y="235.2">о</tspan><tspan class="cls-25" x="24.46" y="235.2">бх</tspan><tspan class="cls-81" x="38.67" y="235.2">о</tspan><tspan x="46.76" y="235.2">димо ра</tspan><tspan class="cls-78" x="101.47" y="235.2">з</tspan><tspan class="cls-81" x="107.69" y="235.2">де</tspan><tspan x="123.61" y="235.2">лить на 3 приема (</tspan><tspan class="cls-5" x="245.56" y="235.2">т</tspan><tspan class="cls-41" x="250.95" y="235.2">.е</tspan><tspan x="261.54" y="235.2">. 10 м</tspan><tspan class="cls-38" x="295.03" y="235.2">г</tspan><tspan x="299.49" y="235.2">./к</tspan><tspan class="cls-32" x="317.62" y="235.2">г</tspan><tspan x="322.07" y="235.2">. ср</tspan><tspan class="cls-73" x="345.54" y="235.2">е</tspan><tspan x="353.41" y="235.2">дняя разовая </tspan><tspan class="cls-81" x="446.5" y="235.2">до</tspan><tspan x="462.64" y="235.2">за).</tspan></tspan></text>
  <g class="cls-28">
    <path class="cls-8" d="M380.62,650.85c-.46,.55-.72,.83-.96,1.13-1.45,1.8-1.24,4.32,.45,5.52,1.66,1.18,4.37,.38,5.49-1.61,1.73-3.09,1.11-6.7-1.56-9.21-2.59-2.43-5.72-3.81-9.16-4.27-7.66-1.03-14.68,.12-19.93,6.56-4.49,5.5-5.16,11.75-3.62,18.42,1.83,7.91,5.86,14.77,10.36,21.38,4.11,6.04,8.82,11.6,13.58,17.13,.7,.81,1.2,1.18,2.33,.47,5.17-3.25,10.11-2.94,15.02,.75,2.98,2.23,5.32,4.95,6.73,8.44,1.08,2.69,.7,4.73-1.42,6.7-.5,.47-.88,.96-1.16,1.6-.41,.95-1.2,1.3-2.21,.97-.93-.3-1.35-.98-1.22-1.94,.15-1.07,.87-1.5,1.88-1.56,1.85-.12,3.29-1.64,3.02-3.39-.87-5.72-8.46-12.6-14.93-10.89-8.19,2.16-10.98,10.76-5.51,17.24,1.66,1.97,3.57,3.54,5.97,4.51,.98,.4,1.96,.48,2.96,.25,.69-.15,1.23-.44,1.25-1.32,.03-1.24,.8-1.84,1.99-1.75,.95,.07,1.54,.67,1.59,1.64,.07,1.13-.53,1.78-1.62,2-.22,.04-.48,0-.66,.12-3.91,2.52-7.13,.51-10.16-1.72-2.7-1.98-4.76-4.58-6.11-7.69-1.76-4.05-1.2-7.82,1.59-11.17,.9-1.08,.9-1.51-.25-2.41-10.22-7.93-19.36-16.88-26.03-28.09-3.13-5.26-5.41-10.86-5.82-17.05-.64-9.56,3.58-16.74,11.41-21.8,7.41-4.78,15.47-6.05,23.99-3.31,8.12,2.61,13.4,10.83,12,18.77-.57,3.23-2.21,5.73-5.52,6.81-3.17,1.03-6.43-.76-7.49-4.14-.99-3.16,.42-6.1,3.74-7.09Z"/>
    <path class="cls-8" d="M410.61,643.09c-5.46,.08-10.16,1.25-14.75,3.03-.54,.21-1.3,.96-1.75,.15-.32-.57,.49-1.09,.97-1.39,7.47-4.74,15.57-6.9,24.35-5.1,5.9,1.22,9.65,5.11,11.68,10.75,1.84,5.12,2.13,10.26,.68,15.52-.28,1.01-.65,1.56-1.8,1.44-1.44-.16-3.36,.61-4.21-.27-.78-.81,.36-2.57,.55-3.94,.41-3.07,.62-6.15-.1-9.19-1.5-6.33-5.94-10.03-12.94-10.85-1.06-.12-2.13-.12-2.67-.15Z"/>
    <path class="cls-8" d="M357.21,625.14c.03-4.37,3.44-7.79,7.78-7.8,4.29,0,7.76,3.52,7.75,7.84-.01,4.35-3.48,7.8-7.79,7.78-4.35-.03-7.77-3.48-7.74-7.82Z"/>
    <path class="cls-8" d="M427.31,676.04c0-1.4,0-2.81,0-4.21,0-1.25,.27-2.1,1.78-1.28,.17,.09,.45,.16,.62,.09,1.95-.78,3.72-.59,5.3,.87,.44,.4,.7-.1,.98-.31,1.54-1.12,3.22-1.41,4.9-.52,1.73,.91,2.51,2.49,2.52,4.44,0,1.8,0,3.59-.02,5.39,0,.7-.11,1.43-1.04,1.42-.96,0-.96-.76-.96-1.45,0-1.68,.03-3.37,0-5.05-.04-1.95-1.02-3.16-2.52-3.19-1.48-.03-2.44,1.18-2.47,3.16-.03,1.68-.03,3.37-.03,5.05,0,.75-.2,1.44-1.02,1.47-.9,.03-.98-.73-.98-1.44,0-1.68,.01-3.37-.01-5.05-.03-1.94-1.01-3.17-2.49-3.18-1.5,0-2.51,1.22-2.53,3.13-.02,1.74,0,3.48,0,5.22,0,.66-.1,1.31-.92,1.35-.91,.05-1.09-.61-1.08-1.36,0-1.51,0-3.03,0-4.54Z"/>
    <path class="cls-8" d="M416.25,636.77c-2.96-.02-5.15-2.26-5.14-5.24,0-2.9,2.34-5.19,5.25-5.15,2.79,.04,5.13,2.41,5.12,5.18-.02,2.92-2.33,5.24-5.22,5.22Z"/>
    <path class="cls-8" d="M363.92,673.64c0-2.24,.03-4.48-.01-6.73-.02-1.15,.44-1.62,1.59-1.6,2.75,.04,5.49,.03,8.24,0,.93,0,1.49,.29,1.49,1.33,.01,4.65,.05,9.3,.07,13.95,0,.76-.33,1.37-1.16,1.35-.86-.02-.83-.77-.84-1.39-.01-3.87-.06-7.74,.03-11.6,.03-1.28-.37-1.67-1.62-1.59-1.45,.1-2.92,.08-4.37,0-1.12-.06-1.44,.37-1.43,1.46,.05,3.59,.02,7.17,.02,10.76,0,.39,.01,.79-.01,1.18-.04,.61-.26,1.15-.95,1.17-.79,.02-1.04-.55-1.05-1.24-.01-2.35,0-4.71,0-7.06Z"/>
    <path class="cls-8" d="M471.54,676.31c0,1.51,.05,3.03-.01,4.54-.05,1.4-.65,1.73-1.75,.86-.61-.48-.91-.11-1.31,.05-3.6,1.45-7.26-.8-7.47-4.66-.09-1.73-.02-3.47,0-5.21,0-.7,.06-1.43,1.01-1.42,.95,.01,.97,.79,.98,1.46,.03,1.51,0,3.02,.03,4.54,.05,2.19,1.4,3.69,3.29,3.7,1.78,.01,3.12-1.47,3.19-3.6,.04-1.29-.03-2.58,.05-3.86,.05-.85-.44-2.2,1.05-2.19,1.38,0,.9,1.29,.95,2.1,.07,1.23,.02,2.46,.02,3.7Z"/>
    <path class="cls-8" d="M413.53,676.16c0,1.52,.04,3.03-.01,4.55-.03,1.1-.66,1.68-1.63,.99-.65-.47-1.06-.3-1.64-.09-3.65,1.33-7.09-.95-7.23-4.8-.06-1.74-.02-3.48-.04-5.22,0-.68,.17-1.31,.94-1.34,.79-.04,1.03,.62,1.05,1.27,.04,1.57,0,3.14,.02,4.71,.04,2.29,1.31,3.7,3.27,3.69,1.96,0,3.2-1.39,3.25-3.71,.04-1.51,0-3.03,0-4.55,0-.73,.16-1.44,1.05-1.4,.78,.03,.94,.68,.94,1.35,0,1.52,0,3.03,0,4.55h.02Z"/>
    <path class="cls-8" d="M403.02,681c-.01-.49-.31-.95-.76-1-1.17-.11-1.06-.95-1.09-1.71-.04-1.12,.03-2.24-.03-3.36-.15-3.04-2.43-5.35-5.32-5.44-2.9-.09-5.39,2.07-5.73,5.06-.13,1.11-.07,2.24-.08,3.36,0,.98,.23,2.08-1.32,2.12-.33,0-.64,.34-.66,.69-.04,1.23-.07,2.46,0,3.69,.04,.61,.63,.77,1.15,.73,.53-.04,.84-.47,.75-.94-.43-2.33,.97-2.38,2.64-2.25,.95,.08,1.91,.01,2.86,.01,.84,0,1.68,0,2.53,0,1.63-.02,3.56-.51,3.11,2.32-.09,.54,.43,.92,1.01,.89,.58-.03,.93-.42,.95-.99,.03-1.06,.02-2.13,0-3.2Zm-4.95-1.08c-.84-.03-1.68,0-2.52,0q-3.33,0-3.37-3.49c-.03-3.11,.84-4.46,3.07-4.76,1.92-.25,3.63,1.01,3.79,2.93,.12,1.45,.02,2.91,.06,4.37,.02,.76-.35,.97-1.03,.95Z"/>
    <path class="cls-8" d="M487.3,673.49c0-1.46,.01-2.91,0-4.37-.05-4.57,.64-3.92-4-4.06-2.44-.07-4.36,.71-5.33,2.98-.98,2.27-.55,4.43,1.36,6.1,.62,.54,.59,.98,.24,1.57-.8,1.35-1.61,2.69-2.41,4.04-.36,.61-.68,1.3,.09,1.76,.84,.51,1.34-.1,1.73-.78,.87-1.5,1.78-2.98,2.61-4.51,.76-1.39,2.05-1.01,3.13-.87,1.03,.14,.51,1.19,.57,1.83,.08,1,.03,2.02,.02,3.02-.01,.71,.02,1.47,.91,1.52,.99,.05,1.11-.71,1.1-1.51-.02-2.24,0-4.48,0-6.73Zm-3.71-.25c-2.59-.15-3.98-1.03-4.03-2.98-.04-1.81,1.22-3.04,3.19-3.11,.28-.01,.57,.03,.84-.02,1.46-.25,1.91,.43,1.72,1.78-.06,.44,0,.9,0,1.34h-.02c0,.06,0,.11,0,.17-.24,1.13,.91,2.97-1.7,2.82Z"/>
    <path class="cls-8" d="M413.06,686.31c-2.31,2.21-4.74,4.3-7.02,6.53-1.02,.99-1.71,1.32-3.08,.38-2.14-1.47-4.78-.87-6.52,1.1-1.51,1.7-1.59,4.55-.18,6.39,1.49,1.96,4.16,2.59,6.34,1.52,2.21-1.09,3.43-3.52,2.69-5.91-.38-1.22,0-1.67,.96-2.21,4.1-2.33,7.94-5.05,11.4-8.4-1.56,.13-3.18-.78-4.6,.59Zm-12.62,14.7c-1.8,.06-3.42-1.56-3.4-3.41,.01-1.82,1.47-3.33,3.26-3.39,1.81-.06,3.38,1.51,3.41,3.42,.03,1.75-1.49,3.33-3.26,3.39Z"/>
    <path class="cls-8" d="M454.95,672.98c-1.58-2.4-3.84-3.29-6.5-2.54-2.3,.65-3.95,2.93-3.97,5.62-.03,3.08,0,6.16-.02,9.23,0,.77,.01,1.56,1.05,1.53,.91-.03,.97-.77,.97-1.47,0-1.39,0-2.79,0-4.45,.63,.3,.92,.46,1.22,.58,2.55,1.09,5.07,.5,6.8-1.59,1.54-1.85,1.75-4.94,.45-6.91Zm-4.82,6.97c-2.13-.03-3.71-1.75-3.65-3.97,.06-2.11,1.7-3.75,3.74-3.74,1.89,0,3.66,1.93,3.61,3.92-.05,2.08-1.75,3.82-3.7,3.79Z"/>
    <path class="cls-8" d="M383.55,670.32c-2.4-.5-4.92,.7-6.09,2.89-1.29,2.43-.69,5.6,1.44,7.51,1.66,1.5,4.48,1.73,6.43,.48,.63-.41,1.55-.84,.93-1.82-.59-.94-1.3-.41-2.01,.03-1.65,1.02-3.69,.53-4.72-1.05-.46-.71-.62-1.23,.55-1.2,1.07,.03,2.13,0,3.2,0v-.02c1.12,0,2.25-.03,3.37,0,1.22,.04,1.57-.62,1.49-1.69-.19-2.52-2.07-4.63-4.58-5.15Zm1.35,4.81c-.83-.04-1.67,0-2.51,0-.78,0-1.56-.03-2.34,0-.9,.04-1.17-.39-.73-1.1,.68-1.09,1.7-1.79,3.03-1.78,1.36,.01,2.49,.55,3.2,1.77,.4,.7,.31,1.14-.64,1.1Z"/>
    <path class="cls-8" d="M425.99,678.14h-.03c0-.9,.07-1.8-.01-2.69-.21-2.35-1.98-4.5-4.08-5.06-2.53-.67-4.97,.32-6.39,2.57-1.26,2-1.05,5.05,.48,6.95,1.59,1.97,4.07,2.6,6.52,1.67,.65-.25,1.15-.76,1.95,.11,.71,.77,1.46,.13,1.55-.86,.08-.89,.02-1.8,.02-2.69Zm-5.64,1.78c-2.03,.02-3.81-1.83-3.75-3.9,.06-2,1.8-3.76,3.75-3.77,1.93-.01,3.61,1.78,3.6,3.85,0,2.14-1.57,3.8-3.6,3.82Z"/>
  </g>
  <text class="cls-12" transform="translate(41.07 634.65)"><tspan x="0" y="0" xml:space="preserve"> - </tspan><tspan class="cls-81" x="13.36" y="0">Э</tspan><tspan class="cls-46" x="23.14" y="0">л</tspan><tspan x="31" y="0">ектронный (у </tspan><tspan class="cls-46" x="123.23" y="0">н</tspan><tspan x="131.26" y="0">е</tspan><tspan class="cls-29" x="139.26" y="0">г</tspan><tspan x="144.87" y="0">о в</tspan><tspan class="cls-46" x="163.49" y="0">ы</tspan><tspan class="cls-57" x="173.94" y="0">с</tspan><tspan x="181.12" y="0">окий профиль б</tspan><tspan class="cls-42" x="285.26" y="0">е</tspan><tspan x="293.12" y="0">зо</tspan><tspan class="cls-46" x="307.66" y="0">па</tspan><tspan class="cls-78" x="324.3" y="0">с</tspan><tspan class="cls-46" x="331.62" y="0">н</tspan><tspan x="339.65" y="0">о</tspan><tspan class="cls-39" x="347.82" y="0">с</tspan><tspan x="355.17" y="0">ти </tspan><tspan class="cls-46" x="373.04" y="0">п</tspan><tspan x="381.08" y="0">о </tspan><tspan class="cls-78" x="392.42" y="0">с</tspan><tspan x="399.74" y="0">рав</tspan><tspan class="cls-46" x="424.24" y="0">н</tspan><tspan x="432.28" y="0">ению с </tspan><tspan class="cls-29" x="0" y="16.8">р</tspan><tspan class="cls-43" x="8.39" y="16.8">ту</tspan><tspan x="22.93" y="16.8">тным и мини</tspan><tspan class="cls-46" x="104.93" y="16.8">м</tspan><tspan x="113.99" y="16.8">аль</tspan><tspan class="cls-46" x="137.56" y="16.8">н</tspan><tspan x="145.6" y="16.8">ая </tspan><tspan class="cls-46" x="164.83" y="16.8">п</tspan><tspan x="172.87" y="16.8">огреш</tspan><tspan class="cls-74" x="215.16" y="16.8">н</tspan><tspan x="223.2" y="16.8">о</tspan><tspan class="cls-52" x="231.36" y="16.8">с</tspan><tspan x="238.71" y="16.8">ть из</tspan><tspan class="cls-74" x="270.07" y="16.8">м</tspan><tspan x="279.13" y="16.8">ерения </tspan><tspan class="cls-46" x="330.52" y="16.8">п</tspan><tspan x="338.56" y="16.8">о </tspan><tspan class="cls-58" x="349.9" y="16.8">с</tspan><tspan x="357.22" y="16.8">рав</tspan><tspan class="cls-74" x="381.72" y="16.8">н</tspan><tspan x="389.75" y="16.8">ению с </tspan><tspan x="0" y="33.6">б</tspan><tspan class="cls-66" x="7.97" y="33.6">е</tspan><tspan class="cls-58" x="15.93" y="33.6">с</tspan><tspan class="cls-50" x="23.25" y="33.6">к</tspan><tspan x="30.39" y="33.6">он</tspan><tspan class="cls-29" x="46.61" y="33.6">т</tspan><tspan x="52.96" y="33.6">актным). Из</tspan><tspan class="cls-46" x="130.96" y="33.6">м</tspan><tspan x="140.01" y="33.6">ерен</tspan><tspan class="cls-74" x="172.66" y="33.6">и</tspan><tspan x="180.77" y="33.6">е Т </tspan><tspan class="cls-29" x="202.75" y="33.6">т</tspan><tspan class="cls-87" x="209.1" y="33.6">е</tspan><tspan class="cls-46" x="216.85" y="33.6">л</tspan><tspan x="224.7" y="33.6">а пров</tspan><tspan class="cls-21" x="268.59" y="33.6">о</tspan><tspan x="276.6" y="33.6">дим </tspan><tspan class="cls-26" x="305.37" y="33.6">т</tspan><tspan class="cls-58" x="311.72" y="33.6">о</tspan><tspan x="319.82" y="33.6">ль</tspan><tspan class="cls-50" x="334.78" y="33.6">к</tspan><tspan x="341.92" y="33.6">о в </tspan><tspan class="cls-46" x="363.72" y="33.6">п</tspan><tspan class="cls-18" x="371.76" y="33.6">о</tspan><tspan x="379.76" y="33.6">дмы</tspan><tspan class="cls-46" x="407.69" y="33.6">ш</tspan><tspan class="cls-14" x="419.37" y="33.6">е</tspan><tspan x="427.43" y="33.6">ч</tspan><tspan class="cls-74" x="435.04" y="33.6">н</tspan><tspan x="443.07" y="33.6">ой </tspan><tspan x="0" y="50.4">в</tspan><tspan class="cls-46" x="7.28" y="50.4">п</tspan><tspan x="15.32" y="50.4">ади</tspan><tspan class="cls-46" x="40.45" y="50.4">н</tspan><tspan class="cls-33" x="48.48" y="50.4">е</tspan><tspan x="55.92" y="50.4">. </tspan><tspan x="0" y="67.2" xml:space="preserve"> -  Б</tspan><tspan class="cls-66" x="24.82" y="67.2">е</tspan><tspan class="cls-58" x="32.79" y="67.2">с</tspan><tspan class="cls-50" x="40.11" y="67.2">к</tspan><tspan x="47.25" y="67.2">он</tspan><tspan class="cls-29" x="63.46" y="67.2">т</tspan><tspan x="69.82" y="67.2">актный – лучший вар</tspan><tspan class="cls-46" x="213.3" y="67.2">и</tspan><tspan x="221.41" y="67.2">ант </tspan><tspan class="cls-51" x="247.83" y="67.2">д</tspan><tspan x="256.29" y="67.2">ля б</tspan><tspan class="cls-64" x="282.75" y="67.2">е</tspan><tspan class="cls-78" x="290.72" y="67.2">с</tspan><tspan class="cls-46" x="298.04" y="67.2">п</tspan><tspan x="306.08" y="67.2">о</tspan><tspan class="cls-50" x="314.24" y="67.2">к</tspan><tspan x="321.38" y="67.2">ойных </tspan><tspan class="cls-29" x="367.03" y="67.2">дет</tspan><tspan x="389.33" y="67.2">ей, </tspan><tspan class="cls-20" x="412.85" y="67.2">к</tspan><tspan class="cls-26" x="420" y="67.2">от</tspan><tspan x="434.29" y="67.2">орым </tspan><tspan x="0" y="84">т</tspan><tspan class="cls-81" x="6.58" y="84">р</tspan><tspan class="cls-86" x="14.91" y="84">у</tspan><tspan x="22.17" y="84">д</tspan><tspan class="cls-46" x="30.57" y="84">н</tspan><tspan x="38.61" y="84">о из</tspan><tspan class="cls-46" x="64.45" y="84">м</tspan><tspan x="73.51" y="84">е</tspan><tspan class="cls-81" x="81.51" y="84">р</tspan><tspan x="89.84" y="84">ять </tspan><tspan class="cls-29" x="114.14" y="84">т</tspan><tspan x="120.5" y="84">ем</tspan><tspan class="cls-46" x="137.56" y="84">п</tspan><tspan x="145.6" y="84">ера</tspan><tspan class="cls-43" x="170.81" y="84">т</tspan><tspan x="177.53" y="84">у</tspan><tspan class="cls-73" x="185.22" y="84">р</tspan><tspan x="193.55" y="84">у </tspan><tspan class="cls-78" x="204.41" y="84">э</tspan><tspan class="cls-46" x="211.75" y="84">л</tspan><tspan x="219.6" y="84">ектронным гра</tspan><tspan class="cls-81" x="320.4" y="84">д</tspan><tspan class="cls-13" x="328.52" y="84">у</tspan><tspan class="cls-78" x="335.88" y="84">с</tspan><tspan x="343.21" y="84">ни</tspan><tspan class="cls-50" x="359.38" y="84">к</tspan><tspan x="366.51" y="84">ом.</tspan></text>
  <g class="cls-48">
    <path class="cls-8" d="M410.54,54.66c-.49,.58-.76,.88-1.02,1.2-1.53,1.91-1.31,4.57,.48,5.84,1.76,1.25,4.62,.41,5.81-1.7,1.83-3.27,1.17-7.09-1.65-9.74-2.74-2.57-6.04-4.03-9.69-4.52-8.1-1.09-15.52,.13-21.08,6.93-4.75,5.82-5.46,12.43-3.82,19.48,1.94,8.36,6.2,15.62,10.95,22.61,4.34,6.38,9.33,12.27,14.36,18.11,.74,.86,1.27,1.25,2.47,.5,5.47-3.43,10.69-3.1,15.88,.79,3.15,2.36,5.63,5.23,7.12,8.92,1.15,2.84,.74,5-1.51,7.09-.53,.49-.93,1.02-1.22,1.69-.43,1-1.27,1.38-2.34,1.03-.99-.32-1.43-1.03-1.29-2.05,.15-1.13,.92-1.59,1.98-1.65,1.95-.12,3.48-1.73,3.2-3.58-.92-6.05-8.94-13.33-15.79-11.52-8.67,2.29-11.62,11.38-5.83,18.23,1.76,2.08,3.77,3.74,6.31,4.77,1.04,.42,2.07,.51,3.13,.27,.73-.16,1.3-.46,1.32-1.4,.04-1.31,.84-1.95,2.11-1.85,1,.07,1.62,.7,1.69,1.74,.07,1.2-.56,1.89-1.71,2.12-.23,.05-.51,0-.69,.12-4.14,2.67-7.54,.54-10.74-1.82-2.85-2.1-5.04-4.85-6.47-8.14-1.86-4.28-1.27-8.27,1.68-11.81,.95-1.14,.96-1.6-.27-2.55-10.81-8.38-20.48-17.85-27.53-29.71-3.31-5.56-5.72-11.49-6.16-18.03-.67-10.11,3.78-17.7,12.07-23.05,7.84-5.06,16.36-6.4,25.37-3.5,8.59,2.76,14.17,11.46,12.69,19.85-.61,3.42-2.34,6.06-5.84,7.2-3.35,1.09-6.8-.81-7.92-4.38-1.04-3.34,.45-6.45,3.95-7.5Z"/>
    <path class="cls-8" d="M442.26,46.46c-5.77,.08-10.75,1.32-15.59,3.21-.57,.22-1.38,1.01-1.85,.16-.33-.61,.52-1.15,1.03-1.47,7.9-5.01,16.46-7.3,25.75-5.39,6.24,1.29,10.21,5.41,12.36,11.37,1.95,5.41,2.26,10.85,.72,16.42-.3,1.07-.69,1.65-1.9,1.52-1.52-.17-3.55,.64-4.45-.29-.83-.85,.38-2.72,.58-4.17,.44-3.25,.65-6.51-.11-9.72-1.58-6.69-6.28-10.61-13.69-11.48-1.12-.13-2.25-.13-2.83-.16Z"/>
    <path class="cls-8" d="M385.78,27.47c.03-4.62,3.64-8.24,8.23-8.24,4.53,0,8.21,3.72,8.2,8.29-.01,4.6-3.68,8.25-8.24,8.22-4.6-.03-8.22-3.68-8.18-8.27Z"/>
    <path class="cls-8" d="M459.92,81.31c0-1.48,0-2.97,0-4.45,0-1.32,.29-2.22,1.88-1.36,.18,.1,.47,.17,.65,.1,2.06-.83,3.93-.62,5.6,.92,.46,.43,.74-.11,1.04-.33,1.63-1.19,3.4-1.49,5.19-.55,1.82,.97,2.66,2.64,2.67,4.7,0,1.9,0,3.8-.02,5.7-.01,.74-.11,1.51-1.1,1.5-1.02,0-1.02-.8-1.02-1.54,0-1.78,.03-3.56,0-5.34-.04-2.06-1.08-3.34-2.66-3.37-1.56-.03-2.58,1.25-2.61,3.34-.03,1.78-.03,3.56-.03,5.34,0,.79-.21,1.52-1.08,1.55-.95,.03-1.04-.77-1.04-1.53,0-1.78,.01-3.56-.02-5.34-.03-2.06-1.07-3.36-2.63-3.37-1.59-.01-2.65,1.29-2.67,3.31-.02,1.84,0,3.68-.01,5.52,0,.7-.11,1.38-.97,1.43-.96,.05-1.15-.64-1.15-1.43,0-1.6,0-3.2,0-4.81Z"/>
    <path class="cls-8" d="M448.22,39.77c-3.13-.02-5.45-2.39-5.44-5.55,0-3.07,2.48-5.49,5.56-5.45,2.95,.04,5.43,2.54,5.41,5.48-.02,3.09-2.47,5.54-5.53,5.52Z"/>
    <path class="cls-8" d="M392.88,78.76c0-2.37,.03-4.74-.01-7.11-.02-1.21,.47-1.71,1.69-1.7,2.9,.04,5.81,.03,8.71,.01,.99,0,1.58,.3,1.58,1.41,.01,4.92,.06,9.83,.08,14.75,0,.81-.35,1.45-1.23,1.43-.91-.03-.88-.82-.88-1.47-.01-4.09-.06-8.18,.03-12.27,.03-1.36-.4-1.77-1.71-1.68-1.53,.11-3.08,.09-4.62,0-1.18-.06-1.53,.39-1.51,1.54,.06,3.79,.02,7.59,.02,11.38,0,.41,.01,.83-.01,1.24-.04,.64-.27,1.21-1.01,1.23-.84,.02-1.1-.58-1.11-1.31-.01-2.49,0-4.98,0-7.47Z"/>
    <path class="cls-8" d="M506.69,81.59c0,1.6,.05,3.2-.01,4.8-.06,1.48-.69,1.83-1.85,.91-.64-.51-.96-.12-1.39,.06-3.81,1.53-7.68-.84-7.9-4.93-.1-1.83-.02-3.67,0-5.51,0-.74,.07-1.51,1.06-1.5,1.01,.01,1.02,.84,1.04,1.55,.04,1.6,0,3.2,.03,4.8,.05,2.32,1.48,3.9,3.48,3.92,1.88,.01,3.29-1.56,3.37-3.81,.05-1.36-.03-2.73,.05-4.08,.05-.9-.46-2.33,1.11-2.32,1.46,.01,.95,1.37,1,2.22,.07,1.3,.02,2.6,.02,3.91Z"/>
    <path class="cls-8" d="M445.34,81.43c0,1.6,.04,3.21-.01,4.81-.04,1.16-.7,1.78-1.72,1.04-.69-.5-1.12-.32-1.74-.09-3.86,1.41-7.5-1-7.64-5.07-.06-1.84-.02-3.68-.04-5.52,0-.72,.18-1.38,.99-1.42,.83-.04,1.09,.66,1.11,1.34,.04,1.66,0,3.32,.02,4.98,.04,2.42,1.38,3.91,3.46,3.91,2.07,0,3.38-1.47,3.44-3.92,.04-1.6,0-3.21,0-4.81,0-.77,.17-1.52,1.11-1.48,.82,.03,.99,.72,1,1.43,0,1.6,0,3.2,0,4.81h.02Z"/>
    <path class="cls-8" d="M434.24,86.55c-.01-.52-.33-1.01-.81-1.05-1.24-.12-1.12-1.01-1.15-1.8-.04-1.18,.03-2.37-.03-3.55-.15-3.21-2.57-5.66-5.63-5.75-3.07-.09-5.7,2.18-6.06,5.36-.14,1.17-.08,2.37-.08,3.56,0,1.04,.25,2.2-1.4,2.24-.35,0-.68,.36-.69,.73-.04,1.3-.08,2.6,0,3.9,.04,.64,.66,.81,1.22,.77,.56-.04,.89-.5,.8-1-.46-2.47,1.03-2.52,2.79-2.38,1,.08,2.02,.01,3.03,.01,.89,0,1.78,0,2.67,0,1.72-.02,3.77-.54,3.28,2.46-.09,.57,.46,.97,1.07,.94,.61-.03,.98-.44,1-1.05,.03-1.13,.02-2.25-.01-3.38Zm-5.24-1.14c-.89-.03-1.78,0-2.67,0q-3.52,0-3.56-3.69c-.03-3.29,.89-4.72,3.25-5.03,2.03-.27,3.84,1.07,4.01,3.1,.13,1.53,.03,3.08,.07,4.62,.02,.8-.37,1.03-1.09,1Z"/>
    <path class="cls-8" d="M523.36,78.61c0-1.54,.01-3.08,0-4.62-.05-4.83,.68-4.15-4.23-4.29-2.58-.08-4.61,.76-5.64,3.15-1.04,2.4-.59,4.68,1.44,6.45,.66,.57,.62,1.04,.25,1.66-.85,1.42-1.71,2.84-2.55,4.27-.38,.64-.72,1.37,.1,1.87,.89,.54,1.41-.11,1.83-.82,.92-1.59,1.88-3.16,2.76-4.77,.8-1.47,2.17-1.07,3.31-.92,1.09,.15,.54,1.25,.6,1.94,.08,1.06,.03,2.13,.02,3.2-.01,.75,.03,1.55,.97,1.6,1.04,.05,1.17-.75,1.17-1.6-.02-2.37,0-4.74,0-7.11Zm-3.93-.26c-2.74-.16-4.21-1.09-4.26-3.15-.04-1.91,1.29-3.21,3.38-3.29,.3-.01,.6,.03,.89-.02,1.54-.27,2.02,.45,1.82,1.88-.06,.47-.01,.95-.01,1.42h-.02c0,.06,.01,.12,0,.18-.25,1.19,.96,3.14-1.8,2.98Z"/>
    <path class="cls-8" d="M444.85,92.16c-2.44,2.34-5.01,4.55-7.43,6.91-1.07,1.05-1.81,1.4-3.26,.41-2.26-1.55-5.06-.92-6.9,1.17-1.59,1.8-1.68,4.81-.19,6.76,1.58,2.07,4.4,2.74,6.71,1.61,2.34-1.15,3.63-3.73,2.84-6.25-.4-1.29,0-1.76,1.02-2.34,4.34-2.46,8.39-5.34,12.06-8.88-1.65,.14-3.36-.83-4.86,.62Zm-13.34,15.54c-1.91,.07-3.61-1.65-3.6-3.61,.01-1.92,1.55-3.52,3.45-3.59,1.91-.07,3.57,1.6,3.61,3.61,.03,1.85-1.58,3.52-3.45,3.58Z"/>
    <path class="cls-8" d="M489.15,78.07c-1.67-2.54-4.06-3.48-6.87-2.69-2.43,.68-4.17,3.09-4.2,5.94-.04,3.26,0,6.51-.02,9.77,0,.81,.01,1.65,1.11,1.62,.96-.03,1.02-.82,1.03-1.56,0-1.47,0-2.95,0-4.71,.66,.32,.97,.48,1.29,.62,2.7,1.15,5.36,.53,7.19-1.68,1.63-1.96,1.85-5.22,.48-7.31Zm-5.1,7.37c-2.25-.03-3.92-1.85-3.86-4.2,.06-2.23,1.8-3.97,3.95-3.96,2,0,3.87,2.04,3.81,4.15-.06,2.2-1.85,4.04-3.91,4.01Z"/>
    <path class="cls-8" d="M413.64,75.25c-2.53-.53-5.21,.74-6.44,3.06-1.37,2.57-.73,5.92,1.52,7.95,1.76,1.59,4.74,1.83,6.8,.51,.67-.43,1.64-.89,.98-1.92-.63-.99-1.37-.44-2.12,.03-1.75,1.08-3.9,.57-4.99-1.11-.49-.75-.66-1.3,.59-1.27,1.13,.03,2.25,0,3.38,0v-.02c1.19,0,2.37-.03,3.56,0,1.29,.05,1.66-.66,1.58-1.79-.2-2.66-2.19-4.89-4.85-5.45Zm1.43,5.08c-.88-.04-1.77,0-2.65,0-.82,0-1.65-.03-2.47,0-.95,.04-1.24-.41-.78-1.16,.72-1.15,1.79-1.89,3.2-1.88,1.44,.01,2.63,.58,3.38,1.88,.43,.74,.33,1.21-.68,1.16Z"/>
    <path class="cls-8" d="M458.53,83.53h-.03c0-.95,.07-1.91-.01-2.85-.22-2.49-2.09-4.76-4.32-5.35-2.67-.71-5.26,.34-6.76,2.72-1.34,2.12-1.11,5.34,.51,7.35,1.68,2.09,4.3,2.75,6.9,1.76,.69-.26,1.22-.8,2.06,.12,.75,.82,1.55,.14,1.64-.91,.08-.94,.02-1.9,.02-2.85Zm-5.97,1.89c-2.15,.02-4.03-1.93-3.97-4.13,.06-2.12,1.91-3.98,3.97-3.99,2.04-.01,3.82,1.89,3.81,4.07,0,2.26-1.66,4.02-3.81,4.04Z"/>
  </g>
  <text class="cls-10" transform="translate(35.46 50.7)"><tspan x="0" y="0" xml:space="preserve"> 1) </tspan><tspan class="cls-53" x="14.75" y="0">С</tspan><tspan class="cls-40" x="24.34" y="0">у</tspan><tspan x="30.77" y="0">сп</tspan><tspan class="cls-46" x="45.25" y="0">е</tspan><tspan class="cls-53" x="52.83" y="0">н</tspan><tspan x="60.14" y="0">зии («Пана</tspan><tspan class="cls-40" x="126.59" y="0">д</tspan><tspan class="cls-67" x="134.04" y="0">о</tspan><tspan x="141.65" y="0">л» 1</tspan><tspan class="cls-19" x="163.34" y="0">2</tspan><tspan x="170.06" y="0">0 м</tspan><tspan class="cls-30" x="189.76" y="0">г</tspan><tspan x="193.75" y="0">./5 мл., «Пара</tspan><tspan class="cls-40" x="279.13" y="0">цет</tspan><tspan x="299.5" y="0">ам</tspan><tspan class="cls-67" x="315.97" y="0">о</tspan><tspan x="323.58" y="0">л </tspan><tspan class="cls-79" x="333.97" y="0">Ф</tspan><tspan class="cls-17" x="343.85" y="0">Т</tspan><tspan x="350.35" y="0">» 30 м</tspan><tspan class="cls-65" x="386.93" y="0">г</tspan><tspan x="390.92" y="0">./1 мл., </tspan><tspan x="0" y="15.6">«Эфф</tspan><tspan class="cls-46" x="33.81" y="15.6">е</tspan><tspan x="41.39" y="15.6">рал</tspan><tspan class="cls-67" x="65.01" y="15.6">г</tspan><tspan x="69.95" y="15.6">ан» </tspan><tspan class="cls-63" x="95.47" y="15.6">3</tspan><tspan x="102.04" y="15.6">% (30 м</tspan><tspan class="cls-30" x="145.05" y="15.6">г</tspan><tspan x="149.04" y="15.6">./мл.);</tspan><tspan x="0" y="31.2" xml:space="preserve"> 2) Свечи («</tspan><tspan class="cls-40" x="68.57" y="31.2">Ц</tspan><tspan class="cls-15" x="77.28" y="31.2">е</tspan><tspan x="84.86" y="31.2">ф</tspan><tspan class="cls-46" x="93.66" y="31.2">е</tspan><tspan class="cls-54" x="101.24" y="31.2">к</tspan><tspan x="107.17" y="31.2">он» </tspan><tspan class="cls-67" x="132.29" y="31.2">5</tspan><tspan x="139.15" y="31.2">0 м</tspan><tspan class="cls-65" x="158.85" y="31.2">г</tspan><tspan x="162.84" y="31.2">., «</tspan><tspan class="cls-81" x="179.2" y="31.2">Ц</tspan><tspan class="cls-46" x="187.91" y="31.2">е</tspan><tspan x="195.49" y="31.2">ф</tspan><tspan class="cls-46" x="204.29" y="31.2">е</tspan><tspan class="cls-24" x="211.87" y="31.2">к</tspan><tspan x="217.8" y="31.2">он» 100 м</tspan><tspan class="cls-65" x="275.45" y="31.2">г</tspan><tspan x="279.45" y="31.2">., «</tspan><tspan class="cls-81" x="295.81" y="31.2">Ц</tspan><tspan class="cls-46" x="304.52" y="31.2">е</tspan><tspan x="312.1" y="31.2">ф</tspan><tspan class="cls-46" x="320.9" y="31.2">е</tspan><tspan class="cls-24" x="328.48" y="31.2">к</tspan><tspan x="334.41" y="31.2">он» </tspan><tspan class="cls-56" x="359.52" y="31.2">2</tspan><tspan class="cls-37" x="366.27" y="31.2">5</tspan><tspan x="373.14" y="31.2">0 м</tspan><tspan class="cls-30" x="392.83" y="31.2">г</tspan><tspan x="396.82" y="31.2">., «эфф</tspan><tspan class="cls-46" x="437.93" y="31.2">е</tspan><tspan x="445.51" y="31.2">рал</tspan><tspan class="cls-67" x="469.13" y="31.2">г</tspan><tspan x="474.07" y="31.2">ан» 80 </tspan><tspan x="0" y="46.8">м</tspan><tspan class="cls-65" x="8.23" y="46.8">г</tspan><tspan x="12.22" y="46.8">., «эфф</tspan><tspan class="cls-15" x="53.33" y="46.8">е</tspan><tspan x="60.9" y="46.8">рал</tspan><tspan class="cls-67" x="84.52" y="46.8">г</tspan><tspan x="89.46" y="46.8">ан» 1</tspan><tspan class="cls-37" x="119.61" y="46.8">5</tspan><tspan x="126.48" y="46.8">0 м</tspan><tspan class="cls-30" x="146.17" y="46.8">г</tspan><tspan x="150.16" y="46.8">, «Эфф</tspan><tspan class="cls-46" x="190.51" y="46.8">е</tspan><tspan x="198.09" y="46.8">рал</tspan><tspan class="cls-67" x="221.71" y="46.8">г</tspan><tspan x="226.65" y="46.8">ан» 300 м</tspan><tspan class="cls-30" x="287.04" y="46.8">г</tspan><tspan x="291.03" y="46.8">., «Пана</tspan><tspan class="cls-40" x="339.78" y="46.8">д</tspan><tspan class="cls-67" x="347.22" y="46.8">о</tspan><tspan x="354.83" y="46.8">л» 1</tspan><tspan class="cls-56" x="376.53" y="46.8">2</tspan><tspan x="383.27" y="46.8">5 м</tspan><tspan class="cls-65" x="401.85" y="46.8">г</tspan><tspan x="405.84" y="46.8">.);</tspan><tspan x="0" y="62.4" xml:space="preserve"> 3) </tspan><tspan class="cls-65" x="17.08" y="62.4">Т</tspan><tspan x="22.92" y="62.4">а</tspan><tspan class="cls-67" x="31.16" y="62.4">б</tspan><tspan x="38.31" y="62.4">л</tspan><tspan class="cls-81" x="45.45" y="62.4">е</tspan><tspan x="52.78" y="62.4">тки («Пара</tspan><tspan class="cls-40" x="119.31" y="62.4">цет</tspan><tspan x="139.68" y="62.4">ам</tspan><tspan class="cls-67" x="156.15" y="62.4">о</tspan><tspan x="163.76" y="62.4">л» </tspan><tspan class="cls-19" x="180.83" y="62.4">2</tspan><tspan x="187.55" y="62.4">00 м</tspan><tspan class="cls-30" x="215.46" y="62.4">г</tspan><tspan x="219.45" y="62.4">. р</tspan><tspan class="cls-62" x="234.1" y="62.4">а</tspan><tspan x="242.3" y="62.4">зр</tspan><tspan class="cls-15" x="256.37" y="62.4">е</tspan><tspan x="263.95" y="62.4">ш</tspan><tspan class="cls-46" x="274.58" y="62.4">е</tspan><tspan x="282.16" y="62.4">н с 6 л</tspan><tspan class="cls-40" x="320.52" y="62.4">е</tspan><tspan x="327.86" y="62.4">т (в</tspan><tspan class="cls-15" x="347.11" y="62.4">е</tspan><tspan x="354.69" y="62.4">с не м</tspan><tspan class="cls-46" x="391.49" y="62.4">е</tspan><tspan x="399.07" y="62.4">н</tspan><tspan class="cls-15" x="406.41" y="62.4">е</tspan><tspan x="413.99" y="62.4">е 14 к</tspan><tspan class="cls-65" x="446.69" y="62.4">г</tspan><tspan x="450.68" y="62.4">.); </tspan><tspan x="0" y="78">«Пара</tspan><tspan class="cls-40" x="39.95" y="78">цет</tspan><tspan x="60.32" y="78">ам</tspan><tspan class="cls-67" x="76.79" y="78">о</tspan><tspan x="84.39" y="78">л» </tspan><tspan class="cls-37" x="101.46" y="78">5</tspan><tspan x="108.33" y="78">00 м</tspan><tspan class="cls-30" x="136.24" y="78">г</tspan><tspan x="140.23" y="78">., «Пана</tspan><tspan class="cls-40" x="188.98" y="78">д</tspan><tspan class="cls-67" x="196.43" y="78">о</tspan><tspan x="204.03" y="78">л» </tspan><tspan class="cls-37" x="221.1" y="78">5</tspan><tspan x="227.97" y="78">00 м</tspan><tspan class="cls-30" x="255.88" y="78">г</tspan><tspan x="259.87" y="78">. – р</tspan><tspan class="cls-62" x="286.1" y="78">а</tspan><tspan x="294.3" y="78">зр</tspan><tspan class="cls-15" x="308.37" y="78">е</tspan><tspan x="315.95" y="78">ш</tspan><tspan class="cls-46" x="326.58" y="78">е</tspan><tspan x="334.16" y="78">ны с 6 л</tspan><tspan class="cls-40" x="381.23" y="78">е</tspan><tspan x="388.57" y="78">т (в</tspan><tspan class="cls-15" x="407.82" y="78">е</tspan><tspan x="415.4" y="78">с не м</tspan><tspan class="cls-46" x="452.2" y="78">е</tspan><tspan x="459.78" y="78">н</tspan><tspan class="cls-15" x="467.12" y="78">е</tspan><tspan x="474.7" y="78">е </tspan><tspan class="cls-59" x="485.54" y="78">3</tspan><tspan x="492.76" y="78">4 </tspan><tspan x="0" y="93.6">к</tspan><tspan class="cls-65" x="6.53" y="93.6">г</tspan><tspan x="10.52" y="93.6">.), «Эфф</tspan><tspan class="cls-15" x="57.65" y="93.6">е</tspan><tspan x="65.23" y="93.6">рал</tspan><tspan class="cls-67" x="88.85" y="93.6">г</tspan><tspan x="93.79" y="93.6">ан» </tspan><tspan class="cls-37" x="119.31" y="93.6">5</tspan><tspan x="126.18" y="93.6">00 м</tspan><tspan class="cls-30" x="154.09" y="93.6">г</tspan><tspan x="158.08" y="93.6">. – р</tspan><tspan class="cls-62" x="184.31" y="93.6">а</tspan><tspan x="192.51" y="93.6">зр</tspan><tspan class="cls-46" x="206.58" y="93.6">е</tspan><tspan x="214.16" y="93.6">ш</tspan><tspan class="cls-46" x="224.79" y="93.6">е</tspan><tspan x="232.37" y="93.6">н с 15 л</tspan><tspan class="cls-40" x="275.47" y="93.6">е</tspan><tspan class="cls-49" x="282.8" y="93.6">т).</tspan></text>
</svg>