<?xml version="1.0" encoding="UTF-8"?>
<svg id="_Слой_1" data-name="Слой 1" xmlns="http://www.w3.org/2000/svg" viewBox="0 0 595.28 841.89">
  <defs>
    <style>
      .cls-1 {
        letter-spacing: -.02em;
      }

      .cls-2 {
        letter-spacing: .01em;
      }

      .cls-3 {
        letter-spacing: 0em;
      }

      .cls-4 {
        stroke-linecap: round;
      }

      .cls-4, .cls-5, .cls-6 {
        fill: none;
      }

      .cls-4, .cls-6 {
        stroke: #455b65;
        stroke-miterlimit: 10;
        stroke-width: 2px;
      }

      .cls-7, .cls-8, .cls-9, .cls-10 {
        fill: #fff;
      }

      .cls-7, .cls-8, .cls-5, .cls-11, .cls-12 {
        stroke-linejoin: round;
      }

      .cls-7, .cls-5, .cls-11, .cls-12 {
        stroke: #263238;
      }

      .cls-13 {
        opacity: .2;
      }

      .cls-14 {
        letter-spacing: -.05em;
      }

      .cls-8 {
        stroke: #030402;
      }

      .cls-15 {
        letter-spacing: 0em;
      }

      .cls-16 {
        letter-spacing: -.07em;
      }

      .cls-17 {
        letter-spacing: 0em;
      }

      .cls-9 {
        opacity: .7;
      }

      .cls-10 {
        font-size: 47.77px;
      }

      .cls-10, .cls-18 {
        font-family: Gilroy-Extrabold, Gilroy;
        font-weight: 700;
      }

      .cls-18 {
        font-size: 16px;
      }

      .cls-18, .cls-19 {
        fill: #455b65;
      }

      .cls-20 {
        letter-spacing: -.03em;
      }

      .cls-21 {
        letter-spacing: -.02em;
      }

      .cls-22 {
        letter-spacing: -.03em;
      }

      .cls-23 {
        letter-spacing: 0em;
      }

      .cls-24 {
        letter-spacing: -.04em;
      }

      .cls-25 {
        letter-spacing: -.04em;
      }

      .cls-26 {
        letter-spacing: -.04em;
      }

      .cls-27 {
        letter-spacing: 0em;
      }

      .cls-28 {
        letter-spacing: 0em;
      }

      .cls-29 {
        letter-spacing: 0em;
      }

      .cls-30 {
        letter-spacing: 0em;
      }

      .cls-31 {
        letter-spacing: -.01em;
      }

      .cls-11, .cls-32 {
        fill: #8ebf9b;
      }

      .cls-33 {
        letter-spacing: -.02em;
      }

      .cls-34 {
        letter-spacing: -.03em;
      }

      .cls-35 {
        letter-spacing: -.02em;
      }

      .cls-36 {
        letter-spacing: -.09em;
      }

      .cls-12 {
        fill: #263238;
      }
    </style>
  </defs>
  <g class="cls-13">
    <path class="cls-19" d="M215.5,201.19c-1.29,1.51-2,2.31-2.67,3.14-4.02,5.01-3.44,11.99,1.26,15.33,4.61,3.28,12.14,1.06,15.24-4.48,4.81-8.59,3.07-18.61-4.34-25.56-7.19-6.75-15.87-10.58-25.45-11.87-21.28-2.85-40.76,.35-55.35,18.21-12.48,15.28-14.33,32.64-10.04,51.16,5.08,21.95,16.28,41.01,28.76,59.36,11.4,16.76,24.5,32.21,37.71,47.56,1.94,2.26,3.35,3.28,6.48,1.31,14.37-9.02,28.06-8.15,41.69,2.08,8.27,6.2,14.78,13.73,18.68,23.42,3.01,7.47,1.93,13.13-3.95,18.6-1.39,1.29-2.44,2.67-3.21,4.44-1.14,2.63-3.33,3.61-6.15,2.7-2.59-.84-3.76-2.71-3.39-5.38,.4-2.96,2.41-4.17,5.21-4.34,5.13-.32,9.14-4.55,8.4-9.4-2.42-15.89-23.48-34.99-41.46-30.24-22.75,6.01-30.5,29.88-15.31,47.87,4.62,5.47,9.9,9.83,16.57,12.52,2.72,1.1,5.43,1.33,8.23,.7,1.91-.43,3.41-1.21,3.48-3.66,.1-3.43,2.22-5.11,5.54-4.86,2.64,.2,4.26,1.85,4.42,4.57,.19,3.14-1.46,4.95-4.49,5.56-.61,.12-1.34,.02-1.82,.33-10.86,7.01-19.79,1.43-28.21-4.77-7.48-5.51-13.23-12.73-16.98-21.36-4.88-11.24-3.32-21.7,4.42-31.02,2.5-3.01,2.51-4.2-.71-6.7-28.37-22.01-53.77-46.87-72.28-78-8.68-14.6-15.03-30.16-16.17-47.33-1.77-26.55,9.94-46.48,31.69-60.52,20.57-13.27,42.96-16.79,66.62-9.19,22.55,7.25,37.22,30.08,33.31,52.12-1.59,8.97-6.14,15.91-15.34,18.91-8.8,2.87-17.86-2.12-20.79-11.49-2.74-8.77,1.17-16.94,10.38-19.69Z"/>
    <path class="cls-19" d="M298.76,179.65c-15.16,.22-28.22,3.47-40.94,8.42-1.5,.59-3.62,2.66-4.85,.42-.88-1.59,1.37-3.03,2.69-3.87,20.75-13.16,43.22-19.17,67.6-14.15,16.4,3.38,26.81,14.19,32.44,29.86,5.11,14.21,5.93,28.5,1.88,43.1-.78,2.81-1.8,4.34-5,3.99-4-.44-9.33,1.69-11.7-.76-2.17-2.24,1-7.15,1.51-10.94,1.15-8.53,1.71-17.09-.29-25.53-4.16-17.57-16.5-27.85-35.93-30.13-2.93-.34-5.9-.34-7.42-.42Z"/>
    <path class="cls-19" d="M150.49,129.79c.08-12.14,9.56-21.64,21.6-21.65,11.9,0,21.56,9.77,21.52,21.77-.04,12.07-9.65,21.67-21.63,21.59-12.08-.08-21.57-9.67-21.49-21.72Z"/>
    <path class="cls-19" d="M345.15,271.14c0-3.89,0-7.79,0-11.68,0-3.46,.75-5.84,4.93-3.57,.48,.26,1.24,.44,1.71,.25,5.41-2.17,10.32-1.64,14.71,2.43,1.21,1.12,1.94-.28,2.73-.86,4.28-3.12,8.93-3.91,13.62-1.43,4.79,2.54,6.98,6.93,7,12.33,.02,4.99,0,9.97-.06,14.96-.03,1.94-.3,3.97-2.89,3.95-2.67-.02-2.67-2.11-2.68-4.03-.01-4.67,.07-9.35-.03-14.02-.11-5.42-2.84-8.77-6.99-8.86-4.1-.09-6.78,3.28-6.87,8.77-.08,4.67-.08,9.35-.07,14.02,0,2.07-.55,4-2.84,4.08-2.51,.09-2.73-2.02-2.73-4.01,0-4.67,.04-9.35-.04-14.02-.09-5.4-2.81-8.81-6.91-8.84-4.18-.03-6.96,3.38-7.02,8.69-.05,4.83-.02,9.66-.03,14.49,0,1.83-.29,3.63-2.55,3.74-2.52,.13-3.01-1.69-3.01-3.77,.01-4.21,0-8.41,0-12.62Z"/>
    <path class="cls-19" d="M314.43,162.09c-8.21-.05-14.31-6.27-14.29-14.56,.02-8.06,6.51-14.42,14.59-14.31,7.75,.1,14.24,6.68,14.2,14.38-.04,8.12-6.48,14.54-14.51,14.49Z"/>
    <path class="cls-19" d="M169.13,264.46c0-6.23,.08-12.45-.03-18.68-.06-3.19,1.23-4.5,4.43-4.46,7.63,.11,15.25,.07,22.88,.03,2.59-.02,4.14,.8,4.15,3.71,.04,12.91,.15,25.82,.21,38.73,0,2.12-.91,3.81-3.22,3.74-2.4-.07-2.31-2.15-2.32-3.85-.03-10.74-.16-21.48,.07-32.22,.08-3.56-1.04-4.64-4.5-4.4-4.03,.28-8.1,.22-12.13,.01-3.11-.16-4.01,1.03-3.97,4.04,.15,9.96,.05,19.92,.04,29.88,0,1.09,.04,2.18-.04,3.27-.12,1.68-.72,3.18-2.65,3.24-2.2,.06-2.9-1.53-2.91-3.43-.03-6.54-.01-13.07-.01-19.61Z"/>
    <path class="cls-19" d="M467.95,271.88c0,4.2,.13,8.4-.04,12.59-.15,3.88-1.8,4.81-4.87,2.4-1.69-1.33-2.52-.31-3.65,.15-10,4.03-20.17-2.22-20.74-12.94-.26-4.81-.04-9.64-.02-14.46,0-1.95,.18-3.98,2.79-3.95,2.65,.03,2.69,2.2,2.73,4.06,.09,4.2-.01,8.4,.09,12.59,.14,6.09,3.88,10.24,9.14,10.28,4.94,.04,8.65-4.09,8.85-10,.12-3.57-.08-7.16,.13-10.73,.14-2.37-1.22-6.12,2.92-6.09,3.84,.03,2.51,3.59,2.63,5.82,.19,3.41,.05,6.84,.05,10.26Z"/>
    <path class="cls-19" d="M306.87,271.48c0,4.21,.1,8.42-.03,12.62-.1,3.04-1.84,4.67-4.53,2.74-1.82-1.31-2.94-.83-4.56-.24-10.12,3.71-19.69-2.62-20.07-13.32-.17-4.83-.06-9.66-.11-14.49-.02-1.9,.46-3.63,2.6-3.73,2.18-.1,2.86,1.72,2.91,3.52,.11,4.36-.02,8.73,.06,13.09,.12,6.36,3.63,10.28,9.07,10.26,5.44-.02,8.88-3.87,9.03-10.3,.1-4.21,0-8.42,.02-12.62,0-2.02,.44-3.99,2.93-3.9,2.15,.08,2.61,1.89,2.61,3.75,0,4.21,0,8.41,0,12.62h.06Z"/>
    <path class="cls-19" d="M277.7,284.9c-.04-1.36-.86-2.65-2.12-2.77-3.25-.3-2.95-2.64-3.01-4.74-.1-3.11,.07-6.23-.08-9.33-.4-8.44-6.74-14.86-14.78-15.11-8.06-.25-14.95,5.74-15.91,14.06-.35,3.08-.21,6.22-.22,9.34-.01,2.73,.65,5.77-3.68,5.88-.91,.02-1.79,.95-1.82,1.91-.11,3.41-.2,6.84,.02,10.24,.11,1.68,1.74,2.13,3.2,2.03,1.47-.1,2.33-1.31,2.09-2.61-1.2-6.48,2.7-6.61,7.33-6.24,2.63,.21,5.29,.04,7.94,.03,2.34,0,4.68,.02,7.01-.01,4.52-.06,9.9-1.42,8.62,6.45-.24,1.49,1.2,2.55,2.81,2.48,1.61-.07,2.58-1.17,2.63-2.75,.09-2.95,.06-5.92-.03-8.87Zm-13.75-3c-2.33-.07-4.67-.02-7.01-.02q-9.25,0-9.35-9.68c-.09-8.63,2.34-12.4,8.52-13.21,5.32-.7,10.09,2.81,10.53,8.15,.33,4.02,.07,8.09,.18,12.14,.06,2.11-.98,2.69-2.87,2.64Z"/>
    <path class="cls-19" d="M511.71,264.07c0-4.05,.03-8.09-.01-12.14-.13-12.69,1.79-10.89-11.1-11.27-6.79-.2-12.1,1.98-14.81,8.27-2.72,6.31-1.54,12.29,3.77,16.94,1.72,1.51,1.64,2.73,.66,4.36-2.23,3.74-4.48,7.46-6.69,11.2-.99,1.68-1.88,3.6,.26,4.9,2.33,1.41,3.71-.28,4.8-2.16,2.42-4.17,4.93-8.29,7.24-12.52,2.11-3.87,5.7-2.81,8.69-2.41,2.86,.39,1.43,3.29,1.57,5.08,.22,2.78,.09,5.6,.05,8.4-.03,1.97,.07,4.08,2.54,4.21,2.74,.14,3.08-1.97,3.06-4.2-.04-6.22-.02-12.45-.02-18.67Zm-10.31-.69c-7.19-.41-11.05-2.86-11.18-8.27-.12-5.02,3.38-8.44,8.87-8.65,.78-.03,1.58,.09,2.33-.04,4.05-.7,5.29,1.19,4.77,4.93-.17,1.22-.03,2.49-.03,3.73h-.05c0,.16,.03,.32,0,.47-.66,3.13,2.53,8.25-4.72,7.83Z"/>
    <path class="cls-19" d="M305.58,299.64c-6.4,6.15-13.15,11.94-19.5,18.15-2.82,2.76-4.75,3.68-8.55,1.07-5.93-4.08-13.27-2.4-18.11,3.06-4.19,4.73-4.4,12.63-.49,17.75,4.15,5.43,11.54,7.2,17.61,4.22,6.14-3.02,9.54-9.78,7.46-16.4-1.06-3.38,0-4.63,2.67-6.15,11.4-6.47,22.04-14.03,31.66-23.33-4.32,.37-8.82-2.17-12.77,1.63Zm-35.04,40.81c-5,.17-9.49-4.32-9.45-9.47,.04-5.05,4.07-9.25,9.05-9.42,5.02-.18,9.38,4.19,9.47,9.49,.08,4.85-4.14,9.24-9.06,9.41Z"/>
    <path class="cls-19" d="M421.89,262.63c-4.38-6.67-10.67-9.14-18.05-7.06-6.39,1.8-10.95,8.13-11.04,15.6-.09,8.55-.02,17.09-.05,25.64,0,2.12,.04,4.33,2.91,4.25,2.53-.07,2.69-2.14,2.7-4.09,.01-3.87,0-7.73,0-12.36,1.74,.84,2.54,1.26,3.38,1.62,7.09,3.02,14.06,1.38,18.89-4.41,4.29-5.15,4.85-13.71,1.26-19.19Zm-13.38,19.35c-5.92-.09-10.3-4.85-10.13-11.02,.16-5.85,4.72-10.42,10.38-10.39,5.26,.03,10.16,5.35,10.01,10.89-.15,5.78-4.86,10.61-10.26,10.52Z"/>
    <path class="cls-19" d="M223.63,255.24c-6.65-1.39-13.67,1.94-16.92,8.04-3.59,6.74-1.9,15.54,4,20.86,4.62,4.17,12.43,4.82,17.86,1.35,1.76-1.13,4.29-2.34,2.58-5.05-1.65-2.6-3.6-1.14-5.58,.08-4.58,2.84-10.25,1.49-13.11-2.92-1.28-1.97-1.73-3.43,1.54-3.33,2.96,.09,5.92,.02,8.88,.02v-.06c3.12,0,6.23-.09,9.35,.02,3.4,.12,4.37-1.72,4.14-4.7-.53-6.99-5.74-12.85-12.73-14.31Zm3.76,13.34c-2.32-.1-4.64-.02-6.96-.02-2.17,0-4.33-.07-6.49,.03-2.49,.11-3.26-1.08-2.04-3.05,1.88-3.03,4.71-4.97,8.41-4.94,3.77,.04,6.92,1.53,8.87,4.93,1.12,1.94,.87,3.17-1.79,3.05Z"/>
    <path class="cls-19" d="M341.48,276.97h-.09c0-2.49,.19-5-.04-7.48-.59-6.54-5.49-12.5-11.34-14.05-7.01-1.85-13.81,.88-17.75,7.14-3.51,5.57-2.92,14.03,1.35,19.31,4.42,5.48,11.3,7.22,18.11,4.63,1.8-.68,3.19-2.11,5.41,.31,1.96,2.14,4.06,.37,4.3-2.39,.22-2.48,.05-4.98,.05-7.48Zm-15.67,4.96c-5.64,.06-10.58-5.08-10.41-10.84,.16-5.56,5.01-10.44,10.41-10.47,5.36-.03,10.02,4.96,10.01,10.7-.02,5.93-4.37,10.55-10,10.61Z"/>
  </g>
  <g class="cls-13">
    <path class="cls-32" d="M571.73,566.81s-70.94-121.78-170.03-142c-87.47-17.85-172.83,17.85-191.52,108.22-6.66,32.2-16.77,67.6-31.99,96.25-17.07,32.12-43.89,57.87-30.14,123.34,13.76,65.47,88.74,129.58,146.62,134.04,57.88,4.47,116.43-43.78,165.09-88.04s195.07-77.84,111.97-231.81Z"/>
    <path class="cls-9" d="M571.73,566.81s-70.94-121.78-170.03-142c-87.47-17.85-172.83,17.85-191.52,108.22-6.66,32.2-16.77,67.6-31.99,96.25-17.07,32.12-43.89,57.87-30.14,123.34,13.76,65.47,88.74,129.58,146.62,134.04,57.88,4.47,116.43-43.78,165.09-88.04s195.07-77.84,111.97-231.81Z"/>
  </g>
  <g class="cls-13">
    <path class="cls-8" d="M355.37,478.01l-13.54,9.3s-7.13,4.11-10.83,10.73l-14.91,40.03s-1.73,2.13-3.6,1.59c-1.87-.54-3.53-1.27-3.53-1.27,0,0-3.36-1.86-6.65-.48-3.3,1.38-6.13,4.21-6.84,9.44-.72,5.23,1.02,9.3,4.46,10.77s6.67,1.24,9.61-1.09c2.94-2.32,5.34-7.53,5.97-9.28,.46-1.27,1.11-3.18,1.44-4.13l12.09-30.35,2.19-.73s7.26-13.63,10.47-16.06c3.21-2.42,12.53-9.53,13.98-12.04,1.45-2.51-.29-6.44-.29-6.44Zm-46.26,77.41c-1.44,1.41-4.8,2.47-8.65,.85-3.85-1.62-4.4-6.25-3.86-9.21,.54-2.96,3.75-7.81,6.92-7.71,3.18,.09,6.72,1.26,8.25,4.14,1.53,2.88,.26,7.04,.26,7.04-.98,2.39-1.49,3.49-2.93,4.89Z"/>
    <path class="cls-8" d="M341.27,546.52c-2.61-2.32-7.77-1.92-7.77-1.92,0,0-2.48-.21-2.28-2.69,.21-2.48,6.67-40.9,6.67-40.9l1.03-5.04,12.71-24.06,1.72-4.5s-.75-.66-1.16-.61l-3.07,3.32s-16.95,21.64-17.35,23.27c-.39,1.63-.79,4.64-.79,4.64l-1.93,12.98s3.39,2.6,3.47,4.3c.07,1.53-4.99,33.4-6,39.77-.09,.4-.16,.78-.18,1.11-.2,3.28,1.51,8.91,6.38,8.79s8.27-2.73,10.28-7.22c2.01-4.49,.86-8.94-1.75-11.26Zm.33,11.02c-1.63,3.62-4.38,5.72-8.33,5.81-3.95,.09-5.34-4.47-5.19-7.11,.17-2.86,1.58-5.82,3.81-7.66,1.01-.83,2.61-1.78,3.99-1.65,1.37,.13,3.12,.5,4.27,1.52,2.12,1.88,3.06,5.47,1.44,9.09Z"/>
    <line class="cls-8" x1="333.8" y1="493.54" x2="338.93" y2="495.98"/>
    <g>
      <path class="cls-8" d="M336.42,502.65c-.36,1.01-1.4,1.56-2.31,1.23s-1.36-1.42-1-2.43,1.4-1.56,2.31-1.23,1.36,1.42,1,2.43Z"/>
      <line class="cls-8" x1="336.42" y1="502.65" x2="333.11" y2="501.46"/>
    </g>
    <path class="cls-8" d="M340.64,492.19s-.06-.78-.69-1.6-1.57-1.49-.94-2.78c.63-1.29,10.65-17.15,10.65-17.15l1.18,.93"/>
  </g>
  <g class="cls-13">
    <rect class="cls-8" x="408.71" y="619.79" width="35.7" height="63.44" transform="translate(923.09 51.61) rotate(72.83)"/>
    <line class="cls-8" x1="452.54" y1="644.21" x2="401.81" y2="659.88"/>
    <g>
      <rect class="cls-8" x="439.8" y="631.94" width="5.34" height="13.2" rx="2.29" ry="2.29" transform="translate(1218.61 605.09) rotate(122.25)"/>
      <rect class="cls-8" x="427.72" y="635.67" width="5.34" height="13.2" rx="2.29" ry="2.29" transform="translate(1203.24 621.11) rotate(122.26)"/>
      <rect class="cls-8" x="415.64" y="639.4" width="5.34" height="13.2" rx="2.29" ry="2.29" transform="translate(1187.87 637.05) rotate(122.26)"/>
      <rect class="cls-8" x="403.56" y="643.13" width="5.34" height="13.2" rx="2.29" ry="2.29" transform="translate(1172.51 652.9) rotate(122.25)"/>
    </g>
    <g>
      <rect class="cls-8" x="444.7" y="647.78" width="5.34" height="13.2" rx="2.29" ry="2.29" transform="translate(1239.53 625.4) rotate(122.26)"/>
      <rect class="cls-8" x="432.62" y="651.52" width="5.34" height="13.2" rx="2.29" ry="2.29" transform="translate(1224.16 641.27) rotate(122.26)"/>
      <rect class="cls-8" x="420.54" y="655.25" width="5.34" height="13.2" rx="2.29" ry="2.29" transform="translate(1208.79 657.21) rotate(122.26)"/>
      <rect class="cls-8" x="408.46" y="658.98" width="5.34" height="13.2" rx="2.29" ry="2.29" transform="translate(1193.42 673.15) rotate(122.26)"/>
    </g>
  </g>
  <g class="cls-13">
    <polygon class="cls-8" points="486.93 544.3 480.52 550.18 472.38 538.72 476.22 535.19 486.93 544.3"/>
    <path class="cls-8" d="M483.75,543.95l-2.85,2.63c-2.77,2.56-2.94,6.88-.37,9.64l44.76,48.27,4.84,8.72,18.89-18.89-8.72-4.84-47.2-45.44c-2.6-2.5-6.7-2.55-9.35-.1Z"/>
    <polygon class="cls-8" points="518.21 596.88 527.06 586.49 493.25 553.62 485.1 561.17 518.21 596.88"/>
  </g>
  <g class="cls-13">
    <rect class="cls-7" x="521.5" y="796.56" width="24.45" height="48.24"/>
    <rect class="cls-7" x="526.02" y="811.4" width="15.4" height="18.58"/>
    <g>
      <rect class="cls-7" x="526.94" y="783.99" width="13.58" height="12.39"/>
      <polygon class="cls-7" points="535.87 764.38 531.57 764.38 530.14 784.07 537.31 784.07 535.87 764.38"/>
      <rect class="cls-7" x="526.94" y="789.96" width="13.58" height="6.42"/>
    </g>
  </g>
  <g class="cls-13">
    <rect class="cls-7" x="468.46" y="811.8" width="36.45" height="33"/>
    <rect class="cls-7" x="468.46" y="825.44" width="36.45" height="19.36"/>
    <rect class="cls-7" x="468.46" y="828.91" width="29.47" height="12.43"/>
  </g>
  <g class="cls-13">
    <rect class="cls-7" x="208.87" y="787.83" width="36.45" height="56.98"/>
    <line class="cls-5" x1="226.87" y1="788.37" x2="226.87" y2="844.51"/>
    <g>
      <g>
        <rect class="cls-5" x="211.67" y="793.18" width="9.61" height="15.2"/>
        <rect class="cls-5" x="213.33" y="795.8" width="6.3" height="9.96"/>
      </g>
      <g>
        <rect class="cls-5" x="232.14" y="793.18" width="9.61" height="15.2"/>
        <rect class="cls-5" x="233.8" y="795.8" width="6.3" height="9.96"/>
      </g>
      <rect class="cls-5" x="221.26" y="796.98" width="10.9" height="7"/>
    </g>
    <g>
      <g>
        <rect class="cls-5" x="211.67" y="819.08" width="9.61" height="15.2"/>
        <rect class="cls-5" x="213.33" y="821.7" width="6.3" height="9.96"/>
      </g>
      <g>
        <rect class="cls-5" x="232.14" y="819.08" width="9.61" height="15.2"/>
        <rect class="cls-5" x="233.8" y="821.7" width="6.3" height="9.96"/>
      </g>
      <rect class="cls-5" x="221.26" y="822.88" width="10.9" height="7"/>
    </g>
  </g>
  <g class="cls-13">
    <rect class="cls-12" x="292.38" y="719.17" width="143.06" height="125.64"/>
    <rect class="cls-11" x="292.38" y="757.36" width="143.06" height="87.44"/>
    <polygon class="cls-7" points="387.22 791.76 373.36 791.76 373.36 778.12 354.44 778.12 354.44 791.76 340.59 791.76 340.59 810.4 354.44 810.4 354.44 824.05 373.36 824.05 373.36 810.4 387.22 810.4 387.22 791.76"/>
    <rect class="cls-11" x="292.65" y="712.48" width="142.57" height="12.65"/>
  </g>
  <rect class="cls-19" x="78.57" y="23.51" width="421.28" height="63.23" rx="31.61" ry="31.61"/>
  <text class="cls-10" transform="translate(132.47 69.03)"><tspan x="0" y="0">МОЙ </tspan><tspan class="cls-30" x="120.77" y="0">С</tspan><tspan class="cls-29" x="154.64" y="0">ПИ</tspan><tspan class="cls-1" x="217.69" y="0">С</tspan><tspan class="cls-3" x="251.09" y="0">ОК</tspan></text>
  <text class="cls-18" transform="translate(71.96 119.18)"><tspan class="cls-25" x="0" y="0">Ж</tspan><tspan x="14.03" y="0">аропони</tspan><tspan class="cls-24" x="80.69" y="0">ж</tspan><tspan class="cls-23" x="92.37" y="0">ающие\об</tspan><tspan class="cls-31" x="174.36" y="0">е</tspan><tspan x="183.48" y="0">зб</tspan><tspan class="cls-31" x="199.79" y="0">о</tspan><tspan x="209.07" y="0">ливающие</tspan><tspan class="cls-36" x="0" y="28">Т</tspan><tspan x="7.2" y="28">ермом</tspan><tspan class="cls-35" x="56.37" y="28">е</tspan><tspan x="65.33" y="28">тр</tspan><tspan x="0" y="56">Антиги</tspan><tspan class="cls-17" x="52.88" y="56">с</tspan><tspan class="cls-21" x="61.29" y="56">т</tspan><tspan x="68.49" y="56">аминные препараты (</tspan><tspan class="cls-35" x="237.85" y="56">о</tspan><tspan x="246.97" y="56">т аллергии)</tspan><tspan class="cls-17" x="0" y="84">С</tspan><tspan class="cls-31" x="11.42" y="84">о</tspan><tspan class="cls-28" x="20.7" y="84">левые </tspan><tspan class="cls-34" x="72.06" y="84">к</tspan><tspan x="80.14" y="84">апли для орошения но</tspan><tspan class="cls-33" x="253.35" y="84">с</tspan><tspan x="261.61" y="84">а</tspan><tspan class="cls-17" x="0" y="112">С</tspan><tspan x="11.42" y="112">о</tspan><tspan class="cls-21" x="20.86" y="112">с</tspan><tspan class="cls-20" x="29.04" y="112">у</tspan><tspan class="cls-21" x="37.04" y="112">д</tspan><tspan x="46.32" y="112">о</tspan><tspan class="cls-35" x="55.76" y="112">с</tspan><tspan class="cls-31" x="63.94" y="112">у</tspan><tspan x="72.26" y="112">живающие </tspan><tspan class="cls-34" x="161.26" y="112">к</tspan><tspan x="169.34" y="112">апли, п</tspan><tspan class="cls-21" x="224.51" y="112">о</tspan><tspan x="233.63" y="112">д</tspan><tspan class="cls-26" x="243.23" y="112">х</tspan><tspan class="cls-21" x="251.15" y="112">о</tspan><tspan class="cls-31" x="260.27" y="112">д</tspan><tspan x="269.71" y="112">ящие по в</tspan><tspan class="cls-21" x="345.23" y="112">о</tspan><tspan x="354.35" y="112">зра</tspan><tspan class="cls-17" x="381.51" y="112">с</tspan><tspan class="cls-2" x="389.93" y="112">т</tspan><tspan x="397.61" y="112">у</tspan><tspan x="0" y="140">Препараты для оральной регидра</tspan><tspan class="cls-35" x="265.79" y="140">т</tspan><tspan class="cls-28" x="272.99" y="140">ации (</tspan><tspan class="cls-35" x="320.39" y="140">о</tspan><tspan x="329.51" y="140">тпаивания)</tspan><tspan x="0" y="168">Спазм</tspan><tspan class="cls-31" x="48.22" y="168">о</tspan><tspan x="57.5" y="168">литики</tspan><tspan x="0" y="196">Перекись в</tspan><tspan class="cls-35" x="85.58" y="196">од</tspan><tspan x="103.98" y="196">ор</tspan><tspan class="cls-21" x="123.39" y="196">од</tspan><tspan x="141.79" y="196">а</tspan><tspan x="0" y="224">Хлор</tspan><tspan class="cls-35" x="38.05" y="224">г</tspan><tspan x="44.37" y="224">е</tspan><tspan class="cls-34" x="53.65" y="224">к</tspan><tspan x="61.73" y="224">сидин или Мирами</tspan><tspan class="cls-17" x="204.79" y="224">с</tspan><tspan x="213.21" y="224">тин</tspan><tspan class="cls-25" x="0" y="252">К</tspan><tspan class="cls-24" x="9.3" y="252">о</tspan><tspan x="18.1" y="252">жный анти</tspan><tspan class="cls-33" x="100.86" y="252">с</tspan><tspan x="109.12" y="252">ептик</tspan><tspan x="0" y="280">Пла</tspan><tspan class="cls-17" x="29.09" y="280">с</tspan><tspan x="37.5" y="280">тыри</tspan><tspan x="0" y="308">Бинт 7х14 - 1 шт</tspan><tspan x="0" y="336">Бинты 5х10 - 2 ш</tspan><tspan class="cls-16" x="127.05" y="336">т</tspan><tspan x="133.45" y="336">.</tspan><tspan class="cls-17" x="0" y="364">С</tspan><tspan x="11.42" y="364">амофи</tspan><tspan class="cls-34" x="61.39" y="364">к</tspan><tspan x="69.47" y="364">си</tspan><tspan class="cls-35" x="87.25" y="364">р</tspan><tspan x="96.9" y="364">ующий</tspan><tspan class="cls-15" x="150.57" y="364">с</tspan><tspan x="158.91" y="364">я бинт</tspan><tspan x="0" y="392">Н</tspan><tspan class="cls-24" x="10.56" y="392">о</tspan><tspan x="19.36" y="392">жницы</tspan><tspan x="0" y="420">Па</tspan><tspan class="cls-20" x="20.37" y="420">к</tspan><tspan class="cls-21" x="28.45" y="420">е</tspan><tspan x="37.41" y="420">т </tspan><tspan class="cls-22" x="48.93" y="420">о</tspan><tspan x="57.81" y="420">хлаж</tspan><tspan class="cls-35" x="97.29" y="420">д</tspan><tspan x="106.57" y="420">ающий</tspan><tspan x="0" y="448">Заживляю</tspan><tspan class="cls-21" x="78.93" y="448">щ</tspan><tspan class="cls-23" x="92.21" y="448">ая мазь</tspan><tspan x="0" y="476">Защитный крем </tspan><tspan class="cls-35" x="125.77" y="476">о</tspan><tspan x="134.89" y="476">т </tspan><tspan class="cls-34" x="146.41" y="476">у</tspan><tspan x="154.41" y="476">л</tspan><tspan class="cls-14" x="163.13" y="476">ь</tspan><tspan x="170.41" y="476">трафи</tspan><tspan class="cls-31" x="218.19" y="476">о</tspan><tspan x="227.47" y="476">л</tspan><tspan class="cls-21" x="236.19" y="476">ет</tspan><tspan x="252.35" y="476">а (</tspan><tspan class="cls-27" x="271.43" y="476">S</tspan><tspan x="280.71" y="476">PF 30-</tspan><tspan class="cls-15" x="329.35" y="476">5</tspan><tspan x="337.99" y="476">0)</tspan></text>
  <rect class="cls-6" x="27.45" y="102.94" width="21.53" height="21.53"/>
  <rect class="cls-6" x="27.45" y="131.29" width="21.53" height="21.53"/>
  <rect class="cls-6" x="27.45" y="158.94" width="21.53" height="21.53"/>
  <rect class="cls-6" x="27.45" y="186.29" width="21.53" height="21.53"/>
  <rect class="cls-6" x="27.45" y="213.94" width="21.53" height="21.53"/>
  <rect class="cls-6" x="27.45" y="242.29" width="21.53" height="21.53"/>
  <rect class="cls-6" x="27.45" y="270.94" width="21.53" height="21.53"/>
  <rect class="cls-6" x="27.45" y="299.29" width="21.53" height="21.53"/>
  <rect class="cls-6" x="27.45" y="328.94" width="21.53" height="21.53"/>
  <rect class="cls-6" x="27.45" y="356.29" width="21.53" height="21.53"/>
  <rect class="cls-6" x="27.45" y="383.94" width="21.53" height="21.53"/>
  <rect class="cls-6" x="27.45" y="413.29" width="21.53" height="21.53"/>
  <rect class="cls-6" x="27.45" y="440.94" width="21.53" height="21.53"/>
  <rect class="cls-6" x="27.45" y="468.29" width="21.53" height="21.53"/>
  <rect class="cls-6" x="27.45" y="494.94" width="21.53" height="21.53"/>
  <rect class="cls-6" x="27.45" y="522.29" width="21.53" height="21.53"/>
  <rect class="cls-6" x="27.45" y="551.29" width="21.53" height="21.53"/>
  <rect class="cls-6" x="27.45" y="578.94" width="21.53" height="21.53"/>
  <rect class="cls-6" x="27.45" y="608.29" width="21.53" height="21.53"/>
  <rect class="cls-6" x="27.45" y="635.94" width="21.53" height="21.53"/>
  <rect class="cls-6" x="27.45" y="663.29" width="21.53" height="21.53"/>
  <rect class="cls-6" x="27.45" y="689.94" width="21.53" height="21.53"/>
  <rect class="cls-6" x="27.45" y="717.29" width="21.53" height="21.53"/>
  <rect class="cls-6" x="27.45" y="744.94" width="21.53" height="21.53"/>
  <rect class="cls-6" x="27.45" y="772.29" width="21.53" height="21.53"/>
  <line class="cls-4" x1="71.96" y1="629.82" x2="541.49" y2="629.82"/>
  <line class="cls-4" x1="71.96" y1="657.47" x2="541.49" y2="657.47"/>
  <line class="cls-4" x1="71.96" y1="684.82" x2="541.49" y2="684.82"/>
  <line class="cls-4" x1="71.96" y1="711.47" x2="541.49" y2="711.47"/>
  <line class="cls-4" x1="71.96" y1="738.82" x2="541.49" y2="738.82"/>
  <line class="cls-4" x1="71.96" y1="766.47" x2="541.49" y2="766.47"/>
  <line class="cls-4" x1="71.96" y1="793.82" x2="541.49" y2="793.82"/>
</svg>